<svg width="43" height="43" viewBox="0 0 43 43" fill="none" xmlns="http://www.w3.org/2000/svg">
<path d="M16.4183 2.00312L12.0919 9.49664L19.5855 13.823M6.83331 19.0663C6.31593 22.3114 6.92233 25.6359 8.55209 28.4893C10.1819 31.3428 12.7372 33.554 15.7952 34.757C18.8531 35.96 22.2302 36.0826 25.3673 35.1045C28.5044 34.1264 31.2134 32.1062 33.0458 29.3785C34.8782 26.6507 35.724 23.379 35.4433 20.1049C35.1626 16.8309 33.7721 13.7509 31.5022 11.3749C29.2322 8.99884 26.2188 7.46931 22.961 7.0395C19.7032 6.6097 16.3962 7.30539 13.5877 9.01139" stroke="#373737" stroke-width="2" stroke-linecap="round" stroke-linejoin="round"/>
<path d="M14.0667 20.0913V19.0113C14.6907 19.0193 15.2187 18.9153 15.6507 18.6993C16.1307 18.4513 16.4187 18.0913 16.5147 17.6193H17.6307V26.0193H16.1307V20.0913H14.0667ZM20.6746 22.2153L21.5746 17.6193H25.9186V18.8433H22.5946L22.1626 20.9793L22.1866 21.0033C22.5706 20.5793 23.0866 20.3673 23.7346 20.3673C24.5506 20.3673 25.1986 20.6353 25.6786 21.1713C26.1346 21.6833 26.3626 22.3513 26.3626 23.1753C26.3626 23.9513 26.1386 24.6193 25.6906 25.1793C25.1546 25.8513 24.4106 26.1873 23.4586 26.1873C22.6186 26.1873 21.9346 25.9713 21.4066 25.5393C20.8466 25.0833 20.5506 24.4473 20.5186 23.6313H21.8866C21.9266 24.0793 22.0826 24.4273 22.3546 24.6753C22.6266 24.9233 22.9866 25.0473 23.4346 25.0473C24.4746 25.0473 24.9946 24.4313 24.9946 23.1993C24.9946 22.7033 24.8666 22.2953 24.6106 21.9753C24.3226 21.6233 23.9186 21.4473 23.3986 21.4473C22.6866 21.4473 22.2346 21.7033 22.0426 22.2153H20.6746Z" fill="#373737"/>
</svg>
