<svg width="42" height="43" viewBox="0 0 42 43" fill="none" xmlns="http://www.w3.org/2000/svg">
<path d="M26.178 2.00312L30.5044 9.49664L23.0109 13.823M35.7631 19.0663C36.2804 22.3114 35.674 25.6359 34.0443 28.4893C32.4145 31.3428 29.8591 33.554 26.8012 34.757C23.7432 35.96 20.3662 36.0826 17.229 35.1045C14.0919 34.1264 11.3829 32.1062 9.55056 29.3785C7.71819 26.6507 6.87235 23.379 7.15307 20.1049C7.43379 16.8309 8.82424 13.7509 11.0942 11.3749C13.3642 8.99884 16.3775 7.46931 19.6354 7.0395C22.8932 6.6097 26.2001 7.30539 29.0087 9.01139" stroke="#373737" stroke-width="2" stroke-linecap="round" stroke-linejoin="round"/>
<path d="M13.8884 20.0913V19.0113C14.5124 19.0193 15.0404 18.9153 15.4724 18.6993C15.9524 18.4513 16.2404 18.0913 16.3364 17.6193H17.4524V26.0193H15.9524V20.0913H13.8884ZM20.4964 22.2153L21.3964 17.6193H25.7404V18.8433H22.4164L21.9844 20.9793L22.0084 21.0033C22.3924 20.5793 22.9084 20.3673 23.5564 20.3673C24.3724 20.3673 25.0204 20.6353 25.5004 21.1713C25.9564 21.6833 26.1844 22.3513 26.1844 23.1753C26.1844 23.9513 25.9604 24.6193 25.5124 25.1793C24.9764 25.8513 24.2324 26.1873 23.2804 26.1873C22.4404 26.1873 21.7564 25.9713 21.2284 25.5393C20.6684 25.0833 20.3724 24.4473 20.3404 23.6313H21.7084C21.7484 24.0793 21.9044 24.4273 22.1764 24.6753C22.4484 24.9233 22.8084 25.0473 23.2564 25.0473C24.2964 25.0473 24.8164 24.4313 24.8164 23.1993C24.8164 22.7033 24.6884 22.2953 24.4324 21.9753C24.1444 21.6233 23.7404 21.4473 23.2204 21.4473C22.5084 21.4473 22.0564 21.7033 21.8644 22.2153H20.4964Z" fill="#373737"/>
</svg>
