<svg width="414" height="622" viewBox="0 0 414 622" fill="none" xmlns="http://www.w3.org/2000/svg">
<g opacity="0.3">
<path d="M139.62 613.969C282.422 613.969 398.185 609.455 398.185 603.886C398.185 598.317 282.422 593.802 139.62 593.802C-3.18153 593.802 -118.945 598.317 -118.945 603.886C-118.945 609.455 -3.18153 613.969 139.62 613.969Z" fill="#2B2E34" fill-opacity="0.45"/>
<path d="M413.84 10.4831L408.076 20.4345H419.579L413.84 10.4831Z" fill="#E7CCA8"/>
<path d="M413.84 28.7451L408.076 38.6964H419.579L413.84 28.7451Z" fill="#E7CCA8"/>
<path d="M402.337 451.253L396.599 461.205H408.076L402.337 451.253Z" fill="#E7CCA8"/>
<path d="M402.337 469.489L396.599 479.467H408.076L402.337 469.489Z" fill="#E7CCA8"/>
<path d="M414.263 458.717L408.948 469.489H419.579L414.263 458.717Z" fill="#E7CCA8"/>
<path d="M236.801 93.5873H36.5436C-11.9539 93.5873 -51.2755 132.943 -51.2755 181.482V396.363H324.646V181.482C324.646 132.943 285.325 93.5873 236.801 93.5873Z" fill="#426A7C"/>
<path d="M280.141 349.067H-6.79785V396.362H280.141V349.067Z" fill="#4E5567"/>
<path d="M280.142 396.363H-29.0366V516.573H280.142V396.363Z" fill="#6BA5C0"/>
<path d="M304.629 534.385H-31.2579C-41.0949 534.385 -49.0544 526.419 -49.0544 516.573H322.425C322.425 526.419 314.439 534.385 304.629 534.385Z" fill="#3F414E"/>
<path d="M313.513 590.043H324.646L304.628 534.384H289.053L313.513 590.043Z" fill="#3F414E"/>
<path d="M-83.1669 128.073C-93.9294 120.901 -102.973 110.685 -107.231 98.4571C-111.488 86.2296 -110.536 71.9378 -103.317 61.1924C-96.0978 50.4471 -82.3207 44.0422 -69.7071 46.9271C-69.1782 29.8827 -53.5236 17.47 -38.3715 9.66243C-21.6856 1.06086 -4.25928 -3.91482 12.7968 3.89276C22.2901 8.25971 32.2858 15.3527 37.31 24.5365C42.3343 33.6939 45.3224 43.804 48.2312 53.8613C60.1573 46.7683 76.3936 47.8534 87.2884 56.455C98.1831 65.0565 102.969 80.6187 98.8443 93.8784C112.33 88.1617 128.673 85.6209 141.075 93.4285C154.111 101.633 158.607 118.492 159.506 133.896C160.273 147.129 158.95 161.156 151.441 172.06C142.555 184.976 126.822 191.063 111.934 195.959C86.1778 204.402 59.6548 211.468 32.5502 212.262C5.44552 213.056 -22.4789 207.181 -44.6915 191.645C-66.9305 176.109 -82.6116 150.067 -81.8183 122.938" fill="#4E5567"/>
<path d="M2.35156 14.3208C9.38556 12.6534 17.3186 13.9237 23.5593 18.2113C26.6268 20.3551 29.324 23.134 31.0429 26.4423C32.0742 28.0038 32.603 29.8036 33.2641 31.4974C33.7666 33.2442 34.1103 35.0704 34.4012 36.8172C33.5285 35.2027 32.9733 33.5089 32.0742 31.9738C31.1487 30.4652 30.4082 28.8772 29.2976 27.5275C27.3672 24.6691 24.8551 22.2871 22.052 20.3551C19.2755 18.3966 16.1022 16.9939 12.7968 16.0146C9.46488 15.1147 5.97434 14.4796 2.35156 14.3208Z" fill="white"/>
<path d="M120.079 101.474C127.483 101.342 135.151 104.094 140.757 109.414C142.185 110.711 143.323 112.299 144.46 113.834C145.359 115.554 146.416 117.168 146.919 119.021C147.659 120.794 147.897 122.7 148.188 124.553C148.373 126.432 148.294 128.311 148.241 130.137C147.421 126.511 146.602 122.965 145.015 119.789C143.561 116.56 141.498 113.675 138.933 111.293C136.421 108.858 133.459 106.873 130.286 105.259C127.033 103.723 123.649 102.374 120.079 101.474Z" fill="white"/>
<path d="M75.5209 62.6219C77.1604 62.8601 78.7205 63.4423 80.2278 64.1834C81.7351 64.9245 83.1102 65.9037 84.3266 67.0418C85.543 68.2063 86.5479 69.6355 87.2354 71.1705C87.9494 72.7056 88.2138 74.4259 88.1609 76.0668C87.632 74.5053 87.1825 72.9702 86.3099 71.6469C85.4637 70.3236 84.5381 69.0797 83.3746 67.9946C81.1269 65.8243 78.4297 64.104 75.5209 62.6219Z" fill="white"/>
<path d="M115.769 177.46C119.101 165.338 118.016 151.629 110.982 141.201C103.949 130.773 90.4623 124.474 78.2982 127.65C82.0268 118.89 76.6323 108.436 68.7521 103.063C60.8983 97.6904 51.1671 96.023 41.8589 93.9057C14.5163 87.6861 -11.6893 76.4379 -35.039 60.9022C-46.8593 53.0417 -48.8161 54.8149 -54.3957 42.1375C-57.7276 47.0338 -64.2592 55.0002 -64.4443 61.061C-74.9953 51.4272 -96.1501 50.4215 -103.343 61.1668C-110.562 71.9122 -111.514 86.204 -107.256 98.4315C-102.999 110.659 -93.9553 120.875 -83.1928 128.047L-81.8706 122.913C-82.6639 150.041 -66.9828 176.084 -44.7438 191.62C-22.5047 207.155 5.41966 213.031 32.4979 212.237C57.4871 211.496 81.9739 205.435 105.826 197.866C110.242 191.593 113.759 184.791 115.769 177.46Z" fill="#3F4553"/>
<path d="M13.4846 89.1675C11.7129 75.2992 20.4921 62.7541 33.0793 61.1397C45.6928 59.5252 57.3544 69.4236 59.1526 83.292C60.9243 97.1604 52.1451 109.705 39.558 111.32C26.9444 112.934 15.2828 103.009 13.4846 89.1675Z" fill="#6BA5C0"/>
<path d="M13.4845 89.1777C15.2562 103.046 26.9443 112.971 39.5579 111.33C44.7937 110.668 49.342 108.075 52.7797 104.343C37.1251 94.2858 34.3749 69.328 33.8725 61.0969C33.608 61.1234 33.3701 61.1234 33.1056 61.1498C20.492 62.7643 11.7128 75.3093 13.4845 89.1777Z" fill="#6BA5C0"/>
<path d="M-20.125 146.468L-11.24 186.538L19.9106 195.43C19.9106 195.43 31.0433 184.288 31.0433 182.065C31.0433 179.842 15.4681 137.549 15.4681 137.549L-20.125 146.468Z" fill="#FDBCA0"/>
<path d="M15.4414 137.574L-20.1516 146.467L-17.1106 160.15C-10.7377 162.903 -3.54507 164.941 4.65244 165.946C9.12141 166.502 13.7226 165.655 17.6363 163.379C19.646 162.215 21.5235 160.785 23.3216 159.277C19.408 148.346 15.4414 137.574 15.4414 137.574Z" fill="#DF8370"/>
<path d="M-69.0723 66.3272C-69.0723 66.3272 -73.5148 153.163 4.3351 157.61C28.7954 148.717 44.3707 115.316 39.9282 88.5854C35.4857 61.8808 6.55636 17.3379 -35.7005 30.7034C-57.9395 39.6226 -69.0723 66.3272 -69.0723 66.3272Z" fill="#FDBCA0"/>
<path d="M177.832 166.529L234.395 97.3195C236.642 94.567 237.885 91.1264 237.885 87.5534V68.7623C237.885 67.3331 238.811 66.0363 240.159 65.5863C242.328 64.8717 244.549 66.4862 244.549 68.7623V81.9425L264.567 46.3188L291.248 44.0956L255.655 106.424L202.266 199.93L177.832 166.529Z" fill="#FDBCA0"/>
<path d="M140.017 264.48C140.017 264.48 257.136 134.239 309.521 89.7759C318.247 82.3653 329.565 78.7659 340.988 79.6922C379.649 82.8153 460.328 97.5041 460.328 97.5041C460.328 97.5041 475.904 155.386 446.974 188.787C429.178 186.563 349.107 170.975 349.107 170.975L186.717 349.067L140.017 264.48Z" fill="#373737"/>
<path opacity="0.2" d="M309.017 115.528L145.517 274.405L186.742 349.067L349.132 170.975C349.132 170.975 429.204 186.563 447 188.786C448.851 186.669 450.491 184.42 451.998 182.117C422.91 158.324 388.189 131.01 362.328 111.928C346.038 99.9389 323.509 101.447 309.017 115.528Z" fill="#6BA5C0"/>
<path d="M75.521 335.702C75.521 335.702 115.557 393.583 173.389 386.914C227.386 380.668 287.175 302.645 329.274 236.161C333.584 229.333 343.236 228.566 348.604 234.573C381.711 271.706 440.31 326.809 440.31 326.809C440.31 326.809 495.921 300.104 495.921 257.785C480.584 239.364 416.59 173.304 378.326 134.054C361.826 117.116 335.118 115.66 316.845 130.667L137.769 277.82L75.521 335.702Z" fill="#373737"/>
<g opacity="0.5">
<path opacity="0.5" d="M173.389 386.914C227.387 380.668 287.175 302.645 329.274 236.162C333.584 229.334 343.236 228.566 348.604 234.574C381.711 271.706 440.31 326.809 440.31 326.809C440.31 326.809 453.268 320.563 466.674 309.368C436.873 279.673 405.299 251.777 372.139 225.919C361.403 217.556 348.657 208.928 335.303 211.575C323.694 213.904 315.523 224.04 308.41 233.515C293.019 254 277.656 274.485 262.266 294.97C245.474 317.334 227.73 340.492 202.582 352.693C181.137 363.068 155.407 364.233 133.115 355.843C115.821 349.332 100.801 337.105 90.6203 321.701L75.521 335.728C75.521 335.702 115.557 393.584 173.389 386.914Z" fill="#373737"/>
</g>
<path d="M291.274 325.115H369.124C393.69 325.115 413.602 305.186 413.602 280.599C413.602 256.012 393.69 236.083 369.124 236.083H307.431C298.493 236.083 291.248 243.334 291.248 252.28V325.115H291.274Z" fill="#6BA5C0"/>
<path d="M280.142 516.572H331.945C350.006 516.572 364.655 501.91 364.655 483.833V236.055H312.852C294.791 236.055 280.142 250.718 280.142 268.794V516.572Z" fill="#6BA5C0"/>
<path d="M302.275 268.794V485.871H344.585V302.777H356.194C368.437 302.777 378.353 292.852 378.353 280.598C378.353 268.344 368.437 258.419 356.194 258.419H312.641C306.903 258.419 302.275 263.051 302.275 268.794Z" stroke="#6BA5C0" stroke-miterlimit="10"/>
<path d="M-49.0546 106.397L-86.8689 117.539C-86.8689 117.539 -75.7361 155.386 -20.1253 179.868L-13.4615 177.644C-13.4615 177.644 17.6626 195.086 25.4635 165.205C38.0506 160.812 53.8903 157.16 66.2924 154.645C79.1175 152.051 92.4186 154.089 103.869 160.362L148.347 184.79C152.551 187.093 157.814 186.114 160.908 182.435L191.185 146.467L222.072 169.731L179.259 237.935C176.483 242.381 170.744 243.943 166.09 241.534L124.468 219.938L148.929 257.785C148.929 257.785 146.707 326.809 75.5211 335.702C51.0608 311.22 19.9103 280.043 2.11378 266.677C-15.6827 253.312 -73.5149 215.465 -89.0901 199.876C-104.665 184.288 -144.701 128.629 -146.922 99.701C-146.922 84.1123 -57.9396 72.9965 -57.9396 72.9965L-49.0546 106.397Z" fill="#FFFFFE"/>
<path d="M-63.2812 193.26C-109.769 161.368 -129.469 119.71 -137.799 91.0467C-143.405 93.7198 -146.922 96.6311 -146.922 99.7277C-144.701 128.682 -104.665 184.314 -89.0901 199.903C-73.5149 215.492 -15.6827 253.338 2.11378 266.704C5.28702 269.086 8.90977 272.05 12.797 275.438C3.30373 255.27 -17.5867 224.622 -63.2812 193.26Z" fill="#F2F2F2"/>
<path d="M-5.4491 94.8314C-3.49227 97.928 -1.79988 104.174 3.14509 103.195C4.83748 102.851 5.63077 101.554 6.92651 100.548C11.4748 97.0017 13.8548 102.454 10.6286 105.444C8.96269 106.979 6.63563 107.35 4.4937 107.588C3.25084 107.721 3.2244 109.706 4.4937 109.573C7.61405 109.229 10.8931 108.515 12.9028 105.868C14.5159 103.751 14.8332 100.839 13.0614 98.722C11.4219 96.8164 8.98911 96.4988 6.92651 97.8751C4.99612 99.1455 3.91193 102.163 0.765133 100.813C-1.48258 99.8601 -2.54031 95.7049 -3.73028 93.8257C-4.41781 92.7671 -6.13663 93.7463 -5.4491 94.8314Z" fill="#444359"/>
<path d="M-15.9466 124.023C-5.60716 132.704 8.77818 130.825 16.4204 119.656C17.1344 118.598 15.4155 117.592 14.7015 118.651C7.85263 128.681 -5.21051 130.455 -14.5451 122.621C-15.5235 121.8 -16.925 123.203 -15.9466 124.023Z" fill="#444359"/>
<path d="M21.9998 80.8836L25.7019 76.0403L24.4061 81.9952L21.9998 80.8836Z" fill="#444359"/>
<path d="M24.8289 81.5717C16.4462 78.2899 7.48182 81.9687 3.91193 90.2262C3.4095 91.3907 5.12836 92.3964 5.63079 91.2319C8.88336 83.7154 16.6578 80.4866 24.3264 83.4773C25.4899 83.9537 25.9924 82.0216 24.8289 81.5717Z" fill="#444359"/>
<path d="M13.3519 81.4392L12.3206 74.2139L15.864 80.5923L13.3519 81.4392Z" fill="#444359"/>
<path d="M5.3401 89.2993L2.35193 85.2234L6.9796 87.2349L5.3401 89.2993Z" fill="#444359"/>
<path d="M241.111 104.201L267.422 21.6255C268.11 19.4817 270.067 17.9996 272.341 17.9466L319.542 16.7027C323.165 16.5969 325.81 20.0904 324.752 23.5575L298.52 109.335C297.806 111.638 295.638 113.173 293.231 113.093L245.95 111.161C242.459 110.949 240.053 107.535 241.111 104.201Z" fill="#3F4553"/>
<path d="M236.668 104.201L262.98 21.6257C263.667 19.4819 265.624 17.9998 267.898 17.9468L315.1 16.7029C318.723 16.597 321.367 20.0906 320.309 23.5577L294.077 109.335C293.363 111.638 291.195 113.173 288.789 113.093L241.507 111.161C237.991 110.95 235.611 107.535 236.668 104.201Z" fill="#4E5567"/>
<path d="M311.742 30.1479L294.157 87.6064L291.644 95.8639L290.454 99.7545C290.031 101.131 288.974 102.163 287.704 102.586C287.202 102.745 286.699 102.825 286.171 102.798L276.307 102.401L247.801 101.237C244.945 101.104 243.015 98.3253 243.861 95.6257L257.479 52.8561L262.636 36.6851L265.227 28.5864C265.333 28.2424 265.492 27.8983 265.703 27.6072C266.444 26.4162 267.739 25.6487 269.194 25.5957L270.569 25.5693L307.511 24.59C310.446 24.5106 312.588 27.3425 311.742 30.1479Z" fill="#F2EDE4"/>
<g opacity="0.35">
<path opacity="0.35" d="M294.157 87.6066L291.645 95.8641L265.703 27.6074C266.444 26.4164 267.739 25.6488 269.194 25.5959L270.569 25.5695L294.157 87.6066Z" fill="white"/>
</g>
<g opacity="0.35">
<path opacity="0.35" d="M287.704 102.586C287.202 102.745 286.699 102.824 286.171 102.798L276.307 102.401L257.479 52.8559L262.636 36.6849L287.704 102.586Z" fill="white"/>
</g>
<path d="M-58.7591 119.207C-49.5832 98.352 -47.1504 74.5852 -51.8838 52.274C-48.5783 62.887 -37.0225 68.8949 -25.9955 70.2976C-14.9686 71.7003 -3.78289 69.7418 7.32341 70.2976C18.4297 70.8534 30.4351 74.7704 36.0411 84.3777C37.0724 86.1245 38.2095 88.2948 40.2192 88.4536C42.7314 88.6653 44.2122 85.7011 44.7411 83.2397C48.8398 64.7926 41.277 44.5459 26.8652 32.3184C12.4535 20.0909 -7.96098 15.8299 -26.3922 19.9851C-44.8233 24.1403 -61.0597 36.2619 -71.4785 52.0094C-78.01 61.8813 -82.4261 73.2883 -83.0872 85.1188C-83.7483 96.9228 -80.4693 109.124 -73.0915 118.361C-71.2669 120.637 -69.0192 122.833 -66.1633 123.469C-63.3074 124.104 -59.8168 122.489 -59.3673 119.578" fill="#3F4553"/>
</g>
</svg>
