<svg width="163" height="114" viewBox="0 0 163 114" fill="none" xmlns="http://www.w3.org/2000/svg">
<path d="M54.4002 112.602C80.5901 112.602 101.821 111.774 101.821 110.753C101.821 109.731 80.5901 108.903 54.4002 108.903C28.2103 108.903 6.97925 109.731 6.97925 110.753C6.97925 111.774 28.2103 112.602 54.4002 112.602Z" fill="#2B2E34" fill-opacity="0.45"/>
<path d="M160.169 112.607C160.169 113.379 149.921 114 137.278 114C124.634 114 114.387 113.379 114.387 112.607C114.387 111.835 124.634 111.214 137.278 111.214C149.916 111.214 160.169 111.835 160.169 112.607Z" fill="#2B2E34" fill-opacity="0.45"/>
<path d="M104.692 1.92261L103.635 3.74769H105.745L104.692 1.92261Z" fill="#E7CCA8"/>
<path d="M104.692 5.27185L103.635 7.09693H105.745L104.692 5.27185Z" fill="#E7CCA8"/>
<path d="M106.88 3.29626L105.9 5.27181H107.854L106.88 3.29626Z" fill="#E7CCA8"/>
<path d="M102.583 82.76L101.53 84.5851H103.635L102.583 82.76Z" fill="#E7CCA8"/>
<path d="M102.583 86.1045L101.53 87.9344H103.635L102.583 86.1045Z" fill="#E7CCA8"/>
<path d="M104.77 84.1289L103.795 86.1045H105.745L104.77 84.1289Z" fill="#E7CCA8"/>
<path d="M161.386 87.9247H113.242C112.53 87.9247 111.952 87.3471 111.952 86.6336C111.952 85.92 112.53 85.3424 113.242 85.3424H161.386C162.099 85.3424 162.676 85.92 162.676 86.6336C162.676 87.3471 162.099 87.9247 161.386 87.9247Z" fill="#EAB197"/>
<path d="M119.891 110.753C119.169 110.753 118.572 110.311 118.543 109.748L117.292 87.1287H122.491L121.24 109.748C121.206 110.311 120.614 110.753 119.891 110.753Z" fill="#EAB197"/>
<path d="M155.203 110.753C154.48 110.753 153.883 110.311 153.854 109.748L152.603 87.1287H157.802L156.551 109.748C156.517 110.311 155.925 110.753 155.203 110.753Z" fill="#EAB197"/>
<path d="M137.317 110.753C136.594 110.753 135.997 110.311 135.968 109.748L134.717 87.1287H139.916L138.665 109.748C138.636 110.311 138.039 110.753 137.317 110.753Z" fill="#EAB197"/>
<path d="M148.117 80.8219C148.81 77.73 146.867 74.6614 143.778 73.9681C140.688 73.2748 137.622 75.2193 136.93 78.3113C136.237 81.4032 138.18 84.4718 141.269 85.1651C144.359 85.8584 147.424 83.9139 148.117 80.8219Z" fill="#E3CABA"/>
<path d="M145.411 74.853H139.499C139.169 74.853 138.902 74.586 138.902 74.256C138.902 73.9259 139.169 73.6589 139.499 73.6589H145.411C145.741 73.6589 146.007 73.9259 146.007 74.256C146.007 74.586 145.741 74.853 145.411 74.853Z" fill="#E3CABA"/>
<path d="M139.906 64.1257C140.115 64.2228 140.362 64.5917 140.445 65.1014C140.527 65.611 140.421 66.0479 140.246 66.1984C140.042 66.1061 139.79 65.7324 139.708 65.2227C139.625 64.7131 139.746 64.2811 139.906 64.1257Z" fill="#E3CABA"/>
<path d="M140.294 66.148L140.175 66.1677L140.712 69.4389L140.832 69.4192L140.294 66.148Z" fill="#E3CABA"/>
<path d="M141.628 66.0575C141.405 66.0429 141.036 66.2516 140.765 66.6642C140.493 67.0817 140.42 67.5234 140.513 67.7466C140.731 67.7661 141.104 67.5525 141.376 67.1399C141.652 66.7273 141.711 66.2808 141.628 66.0575Z" fill="#E3CABA"/>
<path d="M138.893 66.5089C139.101 66.4216 139.514 66.4992 139.906 66.805C140.299 67.1108 140.508 67.5088 140.493 67.7515C140.294 67.8438 139.872 67.7612 139.48 67.4555C139.087 67.1497 138.888 66.7468 138.893 66.5089Z" fill="#E3CABA"/>
<path d="M139.155 68.1107C139.363 68.0233 139.775 68.1058 140.168 68.4068C140.561 68.7126 140.77 69.1106 140.755 69.3533C140.556 69.4455 140.134 69.363 139.741 69.0572C139.349 68.7514 139.15 68.3485 139.155 68.1107Z" fill="#E3CABA"/>
<path d="M141.895 67.664C141.672 67.6495 141.303 67.8582 141.032 68.2708C140.76 68.6834 140.687 69.1299 140.779 69.3532C140.998 69.3726 141.371 69.159 141.643 68.7465C141.914 68.329 141.977 67.8825 141.895 67.664Z" fill="#E3CABA"/>
<path d="M140.818 69.3471L140.698 69.3668L141.236 72.638L141.356 72.6183L140.818 69.3471Z" fill="#E3CABA"/>
<path d="M142.157 69.2563C141.934 69.2418 141.565 69.4505 141.294 69.8631C141.022 70.2805 140.949 70.7222 141.041 70.9455C141.26 70.9649 141.633 70.7562 141.905 70.3388C142.176 69.9262 142.239 69.4796 142.157 69.2563Z" fill="#E3CABA"/>
<path d="M139.417 69.7078C139.625 69.6204 140.037 69.6981 140.43 70.0039C140.823 70.3097 141.032 70.7077 141.017 70.9504C140.818 71.0426 140.396 70.9601 140.003 70.6543C139.611 70.3485 139.412 69.9456 139.417 69.7078Z" fill="#E3CABA"/>
<path d="M139.683 71.3145C139.892 71.2272 140.304 71.3097 140.697 71.6106C141.09 71.9164 141.298 72.3144 141.284 72.5571C141.085 72.6494 140.663 72.5669 140.27 72.2611C139.877 71.9553 139.674 71.5475 139.683 71.3145Z" fill="#E3CABA"/>
<path d="M142.419 70.8631C142.196 70.8486 141.827 71.0573 141.555 71.4699C141.284 71.8825 141.211 72.329 141.303 72.5523C141.521 72.5717 141.895 72.3582 142.166 71.9456C142.443 71.533 142.501 71.0816 142.419 70.8631Z" fill="#E3CABA"/>
<path d="M141.346 72.5454L141.227 72.5651L141.764 75.8362L141.884 75.8165L141.346 72.5454Z" fill="#E3CABA"/>
<path d="M145.037 66.4896C145.202 66.6352 145.319 67.0138 145.236 67.4556C145.154 67.8973 144.916 68.2176 144.703 68.2856C144.538 68.1448 144.421 67.7614 144.499 67.3196C144.586 66.8828 144.834 66.5673 145.037 66.4896Z" fill="#E3CABA"/>
<path d="M144.652 68.2556L144.131 71.0913L144.25 71.1133L144.772 68.2776L144.652 68.2556Z" fill="#E3CABA"/>
<path d="M146.056 68.6158C145.847 68.5333 145.44 68.5867 145.047 68.8342C144.659 69.0866 144.451 69.4264 144.47 69.6351C144.669 69.7225 145.086 69.6642 145.479 69.4167C145.867 69.1643 146.061 68.8197 146.056 68.6158Z" fill="#E3CABA"/>
<path d="M143.325 68.1109C143.549 68.1061 143.912 68.3002 144.189 68.674C144.465 69.0477 144.538 69.4409 144.446 69.6302C144.228 69.6399 143.859 69.4409 143.583 69.0672C143.306 68.6934 143.248 68.3002 143.325 68.1109Z" fill="#E3CABA"/>
<path d="M143.073 69.5039C143.296 69.499 143.66 69.6932 143.937 70.0669C144.213 70.4407 144.286 70.8339 144.194 71.0232C143.975 71.0329 143.607 70.8339 143.33 70.4601C143.054 70.0864 142.991 69.6932 143.073 69.5039Z" fill="#E3CABA"/>
<path d="M145.799 70.0039C145.59 69.9213 145.183 69.9747 144.79 70.2223C144.402 70.4747 144.194 70.8145 144.213 71.0232C144.412 71.1106 144.829 71.0523 145.222 70.8048C145.61 70.5572 145.809 70.2077 145.799 70.0039Z" fill="#E3CABA"/>
<path d="M144.146 71.0302L143.624 73.8658L143.744 73.8878L144.265 71.0521L144.146 71.0302Z" fill="#E3CABA"/>
<path d="M145.547 71.3872C145.338 71.3046 144.931 71.358 144.538 71.6056C144.15 71.858 143.941 72.1978 143.961 72.4065C144.16 72.4939 144.577 72.4356 144.97 72.1881C145.358 71.9405 145.552 71.5959 145.547 71.3872Z" fill="#E3CABA"/>
<path d="M142.816 70.8874C143.039 70.8826 143.403 71.0767 143.68 71.4505C143.956 71.8242 144.029 72.2174 143.937 72.4067C143.718 72.4164 143.35 72.2174 143.073 71.8436C142.797 71.4699 142.739 71.0767 142.816 70.8874Z" fill="#E3CABA"/>
<path d="M143.632 73.8026L143.111 76.6383L143.231 76.6603L143.752 73.8246L143.632 73.8026Z" fill="#E3CABA"/>
<path d="M149.102 38.9872C149.354 39.1474 149.621 39.657 149.65 40.3317C149.684 41.0016 149.475 41.5501 149.233 41.7199C148.98 41.5743 148.714 41.0501 148.68 40.3754C148.651 39.7056 148.874 39.1668 149.102 38.9872Z" fill="#EAB197"/>
<path d="M149.309 41.6562L149.15 41.6639L149.358 45.9739L149.518 45.9662L149.309 41.6562Z" fill="#EAB197"/>
<path d="M151.041 41.7443C150.755 41.6909 150.251 41.9045 149.834 42.3996C149.417 42.8947 149.262 43.4626 149.349 43.7636C149.63 43.8267 150.139 43.6034 150.557 43.1083C150.969 42.6132 151.114 42.0453 151.041 41.7443Z" fill="#EAB197"/>
<path d="M147.438 41.9191C147.719 41.8414 148.243 42.0016 148.704 42.453C149.165 42.9044 149.378 43.4529 149.32 43.7636C149.048 43.8509 148.515 43.681 148.054 43.2296C147.588 42.7782 147.39 42.2249 147.438 41.9191Z" fill="#EAB197"/>
<path d="M147.54 44.0305C147.821 43.9528 148.345 44.113 148.806 44.5644C149.266 45.0159 149.48 45.5644 149.422 45.875C149.15 45.9624 148.617 45.7925 148.156 45.3411C147.69 44.8897 147.496 44.3363 147.54 44.0305Z" fill="#EAB197"/>
<path d="M151.143 43.8558C150.857 43.8024 150.353 44.016 149.936 44.5111C149.519 45.0062 149.363 45.5741 149.451 45.875C149.732 45.9381 150.241 45.7148 150.658 45.2197C151.071 44.7246 151.216 44.1567 151.143 43.8558Z" fill="#EAB197"/>
<path d="M149.505 45.8932L149.345 45.9009L149.553 50.2108L149.713 50.2031L149.505 45.8932Z" fill="#EAB197"/>
<path d="M151.245 45.9623C150.959 45.9089 150.455 46.1225 150.038 46.6176C149.621 47.1127 149.465 47.6806 149.553 47.9816C149.834 48.0447 150.343 47.8214 150.76 47.3263C151.172 46.8312 151.318 46.2584 151.245 45.9623Z" fill="#EAB197"/>
<path d="M147.642 46.1371C147.923 46.0594 148.447 46.2196 148.908 46.671C149.368 47.1224 149.582 47.6709 149.523 47.9816C149.252 48.069 148.718 47.8991 148.258 47.4477C147.792 46.9914 147.593 46.438 147.642 46.1371Z" fill="#EAB197"/>
<path d="M147.744 48.2484C148.025 48.1707 148.549 48.3309 149.009 48.7823C149.47 49.2338 149.683 49.7823 149.625 50.0929C149.354 50.1803 148.82 50.0104 148.359 49.559C147.894 49.1076 147.695 48.5542 147.744 48.2484Z" fill="#EAB197"/>
<path d="M151.347 48.0738C151.061 48.0204 150.556 48.234 150.139 48.7291C149.722 49.2242 149.567 49.7921 149.654 50.093C149.936 50.1561 150.445 49.9328 150.862 49.4377C151.274 48.9426 151.42 48.3747 151.347 48.0738Z" fill="#EAB197"/>
<path d="M149.717 50.0921L149.558 50.0999L149.766 54.4098L149.926 54.4021L149.717 50.0921Z" fill="#EAB197"/>
<path d="M152.719 85.2841H148.209C146.41 85.2841 144.989 83.7454 145.134 81.9495L147.477 53.1414H153.447L155.789 81.9495C155.94 83.7454 154.519 85.2841 152.719 85.2841Z" fill="#EAB197"/>
<path d="M154.063 53.2287H146.866C146.444 53.2287 146.104 52.889 146.104 52.4667C146.104 52.0444 146.444 51.7046 146.866 51.7046H154.063C154.485 51.7046 154.824 52.0444 154.824 52.4667C154.824 52.8841 154.485 53.2287 154.063 53.2287Z" fill="#EAB197"/>
<path d="M151.366 58.9419C151.434 56.5246 151.555 54.1074 151.682 51.6949C151.808 49.2825 151.977 46.8701 152.128 44.4577C152.312 42.0453 152.477 39.6329 152.685 37.2253L153.006 33.614C153.132 32.4102 153.238 31.2065 153.374 30.0027C153.345 31.2113 153.287 32.4199 153.243 33.6286L153.059 37.2496C152.933 39.662 152.763 42.0744 152.613 44.4868C152.424 46.8992 152.264 49.3117 152.055 51.7192C151.846 54.1268 151.633 56.5343 151.366 58.9419Z" fill="#EAB197"/>
<path d="M151.594 56.175C151.231 51.3453 151.09 46.5108 151.003 41.6763C150.935 36.8418 150.925 32.0072 151.138 27.1678C151.502 31.9975 151.643 36.832 151.73 41.6666C151.793 46.5011 151.803 51.3356 151.594 56.175Z" fill="#EAB197"/>
<path d="M150.978 60.7087C151.279 58.306 151.628 55.913 151.992 53.5248C152.351 51.1318 152.753 48.7486 153.132 46.3604C153.549 43.9771 153.946 41.5939 154.383 39.2154L155.047 35.6478C155.285 34.4634 155.508 33.2742 155.76 32.0898C155.615 33.2888 155.44 34.4877 155.28 35.6866L154.752 39.2737C154.393 41.6667 153.99 44.0499 153.612 46.4381C153.195 48.8214 152.797 51.2047 152.361 53.5831C151.919 55.9664 151.478 58.3399 150.978 60.7087Z" fill="#EAB197"/>
<path d="M150.086 27.2407C150.086 27.5223 149.858 27.7504 149.577 27.7504C149.296 27.7504 149.068 27.5223 149.068 27.2407C149.068 26.9592 149.296 26.7311 149.577 26.7311C149.858 26.7311 150.086 26.9592 150.086 27.2407Z" stroke="#EAB197" stroke-miterlimit="10"/>
<path d="M152.817 25.9934C153.491 25.9934 154.039 25.4457 154.039 24.7702C154.039 24.0946 153.491 23.547 152.817 23.547C152.142 23.547 151.594 24.0946 151.594 24.7702C151.594 25.4457 152.142 25.9934 152.817 25.9934Z" stroke="#EAB197" stroke-miterlimit="10"/>
<path d="M155.275 31.0704C155.498 31.0704 155.678 30.89 155.678 30.6675C155.678 30.445 155.498 30.2646 155.275 30.2646C155.053 30.2646 154.873 30.445 154.873 30.6675C154.873 30.89 155.053 31.0704 155.275 31.0704Z" stroke="#EAB197" stroke-miterlimit="10"/>
<path d="M156.653 39.3659C156.653 39.5746 156.483 39.7445 156.274 39.7445C156.066 39.7445 155.896 39.5746 155.896 39.3659C155.896 39.1572 156.066 38.9873 156.274 38.9873C156.483 38.9873 156.653 39.1572 156.653 39.3659Z" stroke="#EAB197" stroke-miterlimit="10"/>
<path d="M146.972 36.1671C147.337 36.1671 147.632 35.8715 147.632 35.5069C147.632 35.1424 147.337 34.8468 146.972 34.8468C146.608 34.8468 146.313 35.1424 146.313 35.5069C146.313 35.8715 146.608 36.1671 146.972 36.1671Z" stroke="#EAB197" stroke-miterlimit="10"/>
<path d="M131.128 66.1985H114.319V84.527H131.128V66.1985Z" fill="#E3CABA"/>
<path d="M129.247 68.2516H116.206V82.4736H129.247V68.2516Z" fill="#EAB197"/>
<path d="M72.2232 17.1639H35.496C26.6015 17.1639 19.3899 24.3817 19.3899 33.2839V72.693H88.3341V33.2839C88.3341 24.3817 81.1225 17.1639 72.2232 17.1639Z" fill="#426A7C"/>
<path d="M80.1719 64.0189H27.5471V72.6929H80.1719V64.0189Z" fill="#4E5567"/>
<path d="M80.1719 72.693H23.4685V94.7396H80.1719V72.693Z" fill="#6BA5C0"/>
<path d="M84.6628 98.0064H23.0611C21.257 98.0064 19.7972 96.5454 19.7972 94.7397H87.9267C87.9267 96.5454 86.4621 98.0064 84.6628 98.0064Z" fill="#3F414E"/>
<path d="M21.4316 108.214H19.3899L23.0612 98.0062H25.9177L21.4316 108.214Z" fill="#3F414E"/>
<path d="M86.2923 108.214H88.334L84.6628 98.0062H81.8063L86.2923 108.214Z" fill="#3F414E"/>
<path d="M13.541 23.4886C11.5672 22.1732 9.90855 20.2996 9.12774 18.0571C8.34693 15.8145 8.52152 13.1934 9.8455 11.2227C11.1695 9.25201 13.6962 8.07736 16.0096 8.60644C16.1065 5.4805 18.9776 3.204 21.7565 1.77209C24.8167 0.194562 28.0127 -0.717979 31.1408 0.713933C32.8819 1.51483 34.7151 2.81569 35.6365 4.50001C36.558 6.17947 37.106 8.03367 37.6395 9.87817C39.8267 8.57731 42.8045 8.77633 44.8026 10.3539C46.8007 11.9314 47.6785 14.7855 46.9219 17.2173C49.3953 16.1689 52.3924 15.7029 54.667 17.1348C57.0579 18.6395 57.8824 21.7315 58.0473 24.5565C58.1879 26.9835 57.9454 29.556 56.5681 31.5559C54.9386 33.9246 52.053 35.041 49.3225 35.939C44.5989 37.4874 39.7346 38.7834 34.7636 38.929C29.7926 39.0746 24.6712 37.997 20.5974 35.1478C16.5188 32.2985 13.6429 27.5222 13.7884 22.547" fill="#4E5567"/>
<path d="M10.9367 27.0221C8.46333 27.1532 6.11604 28.721 5.04425 30.9587C3.97245 33.1963 4.21494 36.0068 5.65531 38.0212C3.59902 38.0503 1.60577 39.2735 0.645519 41.0937C-0.314734 42.9139 -0.193489 45.2487 0.941355 46.9621C1.90161 48.4086 3.46808 49.3503 5.09275 49.9618C9.59818 51.6559 14.7195 51.0831 19.191 49.3017C21.7614 48.2775 24.2299 46.8262 25.9613 44.6711C27.6926 42.5159 28.5947 39.5696 27.8478 36.9048C27.324 35.0457 26.0583 33.4682 24.5645 32.2547C23.066 31.0412 21.3346 30.1529 19.6129 29.2938C16.6449 27.8133 13.5362 26.3474 10.2189 26.2892" fill="#3F4553"/>
<path d="M25.5103 59.6263H11.2326C6.72718 59.6263 3.07532 55.9712 3.07532 51.4619C3.07532 46.9526 6.72718 43.2976 11.2326 43.2976H22.5471C24.1863 43.2976 25.5152 44.6276 25.5152 46.2682V59.6263H25.5103Z" fill="#6BA5C0"/>
<path d="M27.5472 94.7395H18.0465C14.7341 94.7395 12.0474 92.0504 12.0474 88.7352V43.2926H21.548C24.8604 43.2926 27.5472 45.9817 27.5472 49.2969V94.7395Z" fill="#6BA5C0"/>
<path d="M29.2251 2.62642C30.5151 2.32062 31.9701 2.55361 33.1146 3.33995C33.6772 3.73312 34.1719 4.24278 34.4871 4.84952C34.6762 5.1359 34.7732 5.46597 34.8945 5.77663C34.9866 6.09699 35.0497 6.43191 35.103 6.75227C34.943 6.45618 34.8411 6.14553 34.6762 5.864C34.5065 5.58732 34.3707 5.29609 34.167 5.04854C33.813 4.52431 33.3522 4.08746 32.8382 3.73312C32.3289 3.37393 31.747 3.11667 31.1408 2.93707C30.5297 2.77204 29.8895 2.65555 29.2251 2.62642Z" fill="white"/>
<path d="M50.8163 18.6103C52.1742 18.5861 53.5806 19.0909 54.6088 20.0665C54.8707 20.3044 55.0792 20.5956 55.2878 20.8771C55.4527 21.1926 55.6466 21.4887 55.7388 21.8285C55.8746 22.1537 55.9182 22.5032 55.9716 22.843C56.0055 23.1876 55.991 23.5322 55.9813 23.8672C55.8309 23.2022 55.6806 22.5517 55.3896 21.9693C55.1229 21.3771 54.7446 20.848 54.2742 20.4111C53.8134 19.9646 53.2703 19.6005 52.6883 19.3044C52.0918 19.0229 51.471 18.7754 50.8163 18.6103Z" fill="white"/>
<path d="M42.6444 11.4849C42.9451 11.5285 43.2312 11.6353 43.5077 11.7712C43.7841 11.9072 44.0363 12.0868 44.2594 12.2955C44.4825 12.509 44.6668 12.7712 44.7929 13.0527C44.9238 13.3342 44.9723 13.6497 44.9626 13.9507C44.8656 13.6643 44.7832 13.3828 44.6231 13.1401C44.4679 12.8974 44.2982 12.6692 44.0848 12.4702C43.6726 12.0722 43.1779 11.7567 42.6444 11.4849Z" fill="white"/>
<path d="M50.0259 32.5462C50.6369 30.3231 50.4381 27.8088 49.1481 25.8963C47.858 23.9839 45.3846 22.8286 43.1538 23.4111C43.8376 21.8045 42.8482 19.8871 41.403 18.9018C39.9626 17.9164 38.1779 17.6107 36.4708 17.2223C31.4561 16.0817 26.65 14.0187 22.3677 11.1695C20.1998 9.72785 19.8409 10.0531 18.8176 7.72803C18.2066 8.62601 17.0087 10.087 16.9747 11.1986C15.0397 9.43176 11.1599 9.24731 9.84074 11.218C8.51676 13.1887 8.34217 15.8098 9.12298 18.0524C9.90379 20.2949 11.5624 22.1685 13.5363 23.4839L13.7787 22.5422C13.6333 27.5175 16.5092 32.2938 20.5878 35.1431C24.6665 37.9923 29.7878 39.0699 34.754 38.9243C39.337 38.7884 43.8279 37.6768 48.2024 36.2886C49.0123 35.1382 49.6573 33.8908 50.0259 32.5462Z" fill="#3F4553"/>
<path d="M23.1388 49.2969V89.1089H15.3792V55.5294H13.2501C11.0047 55.5294 9.18604 53.7091 9.18604 51.4618C9.18604 49.2144 11.0047 47.3942 13.2501 47.3942H21.2377C22.2901 47.3942 23.1388 48.2436 23.1388 49.2969Z" stroke="#6BA5C0" stroke-miterlimit="10"/>
<path d="M31.2669 16.3534C30.942 13.8099 32.5521 11.5091 34.8606 11.213C37.1739 10.9169 39.3126 12.7323 39.6424 15.2758C39.9674 17.8192 38.3572 20.12 36.0488 20.4161C33.7354 20.7122 31.5967 18.892 31.2669 16.3534Z" fill="#6BA5C0"/>
<path d="M31.2669 16.3552C31.5918 18.8987 33.7354 20.7189 36.0488 20.418C37.009 20.2966 37.8432 19.8209 38.4737 19.1365C35.6026 17.292 35.0982 12.7148 35.0061 11.2052C34.9576 11.2101 34.9139 11.2101 34.8654 11.2149C32.5521 11.511 30.942 13.8118 31.2669 16.3552Z" fill="#6BA5C0"/>
<path d="M25.1029 26.8622L26.7324 34.2111L32.4454 35.842C32.4454 35.842 34.4872 33.7985 34.4872 33.3908C34.4872 32.983 31.6307 25.2264 31.6307 25.2264L25.1029 26.8622Z" fill="#FDBCA0"/>
<path d="M31.6258 25.2312L25.098 26.8621L25.6557 29.3716C26.8245 29.8764 28.1437 30.2502 29.6471 30.4346C30.4667 30.5366 31.3106 30.3812 32.0283 29.9638C32.3969 29.7502 32.7412 29.4881 33.071 29.2114C32.3533 27.2068 31.6258 25.2312 31.6258 25.2312Z" fill="#DF8370"/>
<path d="M16.126 12.1644C16.126 12.1644 15.3112 28.0902 29.5889 28.9057C34.0749 27.2747 36.9315 21.1491 36.1167 16.2466C35.3019 11.349 29.9963 3.17979 22.2464 5.63103C18.1677 7.2668 16.126 12.1644 16.126 12.1644Z" fill="#FDBCA0"/>
<path d="M61.4082 30.5415L71.7818 17.8484C72.1941 17.3436 72.422 16.7126 72.422 16.0573V12.611C72.422 12.3489 72.5918 12.1111 72.8391 12.0286C73.2368 11.8975 73.6442 12.1936 73.6442 12.611V15.0283L77.3154 8.49489L82.2088 8.08716L75.681 19.5182L65.8894 36.6672L61.4082 30.5415Z" fill="#FDBCA0"/>
<path d="M107.098 19.1056L124.232 24.8235L129.504 20.3773C131.478 18.7124 134.373 18.5522 136.424 20.1201C137.612 21.0277 138.238 22.3043 136.875 24.0081C133.611 28.0902 124.227 32.5801 124.227 32.5801L105.051 28.498L107.098 19.1056Z" fill="#FDBCA0"/>
<path opacity="0.5" d="M105.061 28.498L114.581 30.5269C115.192 27.0952 114.717 23.6295 114.275 21.5035L107.103 19.1105L105.061 28.498Z" fill="#DF8370"/>
<path d="M54.473 48.5058C54.473 48.5058 75.9526 24.6195 85.56 16.4649C87.1604 15.1058 89.2361 14.4457 91.3312 14.6156C98.4216 15.1883 113.218 17.8823 113.218 17.8823C113.218 17.8823 116.075 28.4978 110.769 34.6235C107.505 34.2158 92.8201 31.3568 92.8201 31.3568L63.0377 64.019L54.473 48.5058Z" fill="#373737"/>
<path d="M111.584 39.929L125.454 55.4421L137.021 57.4274C139.169 57.7963 140.517 60.068 139.664 62.0775C139.111 63.3735 137.787 65.1209 134.838 64.4268C127.903 62.7959 121.375 60.7524 121.375 60.7524L105.056 47.6856L111.584 39.929Z" fill="#FDBCA0"/>
<path opacity="0.5" d="M120.129 49.4864L111.584 39.929L105.056 47.6855L116.463 56.8207C118.344 54.8742 119.94 52.3939 120.129 49.4864Z" fill="#DF8370"/>
<path opacity="0.2" d="M85.4677 21.1878L55.4817 50.326L63.0425 64.019L92.8248 31.3568C92.8248 31.3568 107.51 34.2158 110.774 34.6235C111.113 34.2352 111.414 33.8226 111.69 33.4003C106.356 29.0366 99.9879 24.0273 95.2449 20.5277C92.2574 18.3288 88.1254 18.6055 85.4677 21.1878Z" fill="#6BA5C0"/>
<path d="M42.6444 61.5678C42.6444 61.5678 49.987 72.1833 60.5934 70.9601C70.4966 69.8146 81.4619 55.5052 89.1827 43.3121C89.9732 42.0598 91.7434 41.919 92.7279 43.0209C98.7998 49.8309 109.547 59.9368 109.547 59.9368C109.547 59.9368 119.746 55.0392 119.746 47.2778C116.933 43.8994 105.197 31.784 98.179 24.5856C95.1528 21.4791 90.2545 21.2121 86.9033 23.9643L54.0607 50.9522L42.6444 61.5678Z" fill="#373737"/>
<g opacity="0.5">
<path opacity="0.5" d="M60.5934 70.9602C70.4966 69.8147 81.4619 55.5053 89.1827 43.3122C89.9732 42.0599 91.7434 41.9191 92.7279 43.0209C98.7998 49.831 109.547 59.9369 109.547 59.9369C109.547 59.9369 111.923 58.7914 114.382 56.7382C108.916 51.292 103.126 46.176 97.0442 41.4337C95.0752 39.8998 92.7376 38.3175 90.2885 38.8029C88.1594 39.23 86.6608 41.0891 85.3563 42.8268C82.5337 46.5837 79.716 50.3407 76.8934 54.0976C73.8138 58.1992 70.5596 62.4464 65.9475 64.6841C62.0143 66.5868 57.2955 66.8004 53.2072 65.2617C50.0354 64.0676 47.2808 61.8251 45.4136 59.0001L42.6444 61.5727C42.6444 61.5678 49.987 72.1834 60.5934 70.9602Z" fill="#373737"/>
</g>
<path d="M82.2136 59.6263H96.4913C100.997 59.6263 104.649 55.9712 104.649 51.4619C104.649 46.9526 100.997 43.2976 96.4913 43.2976H85.1768C83.5376 43.2976 82.2087 44.6276 82.2087 46.2682V59.6263H82.2136Z" fill="#6BA5C0"/>
<path d="M80.1719 94.7395H89.6726C92.985 94.7395 95.6717 92.0504 95.6717 88.7352V43.2926H86.171C82.8586 43.2926 80.1719 45.9817 80.1719 49.2969V94.7395Z" fill="#6BA5C0"/>
<path d="M84.2312 49.2969V89.1089H91.9908V55.5294H94.1199C96.3653 55.5294 98.184 53.7091 98.184 51.4618C98.184 49.2144 96.3653 47.3942 94.1199 47.3942H86.1323C85.0799 47.3942 84.2312 48.2436 84.2312 49.2969Z" stroke="#6BA5C0" stroke-miterlimit="10"/>
<path d="M19.7972 19.5132L12.8621 21.5568C12.8621 21.5568 14.9038 28.4979 25.1029 32.9878L26.325 32.5801C26.325 32.5801 32.0332 35.7788 33.4639 30.2987C35.7723 29.4929 38.6773 28.8231 40.9519 28.362C43.304 27.8863 45.7434 28.26 47.8434 29.4104L56.0007 33.8906C56.7718 34.3129 57.7369 34.1333 58.3043 33.4586L63.8573 26.8621L69.5218 31.1287L61.6701 43.6373C61.1608 44.4528 60.1084 44.7392 59.2549 44.2975L51.6214 40.3366L56.1074 47.2778C56.1074 47.2778 55.7 59.9369 42.6445 61.5678C38.1584 57.0779 32.4454 51.3599 29.1815 48.9087C25.9176 46.4575 15.3112 39.5163 12.4547 36.6574C9.59818 33.7984 2.25565 23.5906 1.84827 18.2852C1.84827 15.4262 18.1677 13.3876 18.1677 13.3876L19.7972 19.5132Z" fill="#FFFFFE"/>
<path d="M17.1881 35.4439C8.66218 29.5949 5.04911 21.9548 3.52143 16.698C2.49328 17.1882 1.84827 17.7222 1.84827 18.2901C2.25565 23.6003 9.59818 33.8033 12.4547 36.6623C15.3112 39.5212 25.9176 46.4624 29.1815 48.9136C29.7635 49.3504 30.4279 49.8941 31.1408 50.5154C29.3998 46.8167 25.5684 41.1958 17.1881 35.4439Z" fill="#F2F2F2"/>
<path d="M27.7945 17.3921C28.1534 17.96 28.4637 19.1056 29.3707 18.926C29.681 18.8629 29.8265 18.625 30.0642 18.4406C30.8983 17.7901 31.3348 18.7901 30.7431 19.3385C30.4376 19.6201 30.0108 19.688 29.618 19.7317C29.39 19.756 29.3852 20.12 29.618 20.0958C30.1903 20.0327 30.7916 19.9016 31.1602 19.4162C31.4561 19.0279 31.5142 18.494 31.1893 18.1056C30.8886 17.7562 30.4424 17.6979 30.0642 17.9503C29.7101 18.1833 29.5113 18.7367 28.9342 18.4891C28.5219 18.3144 28.3279 17.5523 28.1097 17.2077C27.9836 17.0135 27.6684 17.1931 27.7945 17.3921Z" fill="#444359"/>
<path d="M25.8692 22.7459C27.7655 24.338 30.4038 23.9934 31.8053 21.945C31.9363 21.7509 31.621 21.5664 31.4901 21.7606C30.234 23.6002 27.8382 23.9254 26.1263 22.4887C25.9468 22.3382 25.6898 22.5955 25.8692 22.7459Z" fill="#444359"/>
<path d="M21.4705 16.3145C21.9118 15.1787 23.0272 14.5525 24.23 14.7661C24.4579 14.8049 24.5549 14.4555 24.327 14.4166C22.9205 14.1691 21.6354 14.8875 21.1213 16.2223C21.034 16.4359 21.388 16.5281 21.4705 16.3145Z" fill="#444359"/>
<path d="M22.6295 19.5422L21.6644 18.984L22.775 19.0811L22.6295 19.5422Z" fill="#444359"/>
<path d="M22.8623 19.6782C23.3764 18.29 24.7925 17.6493 26.1892 18.1201C26.4123 18.1929 26.5093 17.8435 26.2862 17.7707C24.6955 17.2367 23.0902 18.0182 22.5131 19.586C22.4307 19.7996 22.7799 19.8967 22.8623 19.6782Z" fill="#444359"/>
<path d="M23.4927 18.2076L23.061 16.9407L23.9146 17.9697L23.4927 18.2076Z" fill="#444359"/>
<path d="M25.486 17.8144L25.7818 16.9407L25.9709 17.8484L25.486 17.8144Z" fill="#444359"/>
<path d="M32.8286 14.8341L33.5076 13.9458L33.2699 15.0379L32.8286 14.8341Z" fill="#444359"/>
<path d="M33.3475 14.9603C31.8101 14.3584 30.166 15.0331 29.5113 16.5475C29.4192 16.7611 29.7344 16.9455 29.8266 16.732C30.4231 15.3534 31.8489 14.7613 33.2553 15.3098C33.4687 15.3971 33.5609 15.0428 33.3475 14.9603Z" fill="#444359"/>
<path d="M31.2426 14.936L31.0535 13.6108L31.7033 14.7806L31.2426 14.936Z" fill="#444359"/>
<path d="M29.7733 16.3775L29.2252 15.63L30.0739 15.9989L29.7733 16.3775Z" fill="#444359"/>
<path d="M73.0136 19.1104L77.8392 3.96613C77.9653 3.57296 78.3241 3.30114 78.7412 3.29143L87.398 3.0633C88.0624 3.04388 88.5474 3.6846 88.3534 4.32047L83.5425 20.0521C83.4115 20.4744 83.0139 20.7559 82.5725 20.7413L73.9012 20.387C73.261 20.3482 72.8197 19.722 73.0136 19.1104Z" fill="#3F4553"/>
<path d="M72.1989 19.1105L77.0244 3.96625C77.1505 3.57308 77.5094 3.30126 77.9265 3.29155L86.5833 3.06342C87.2477 3.044 87.7327 3.68472 87.5387 4.32059L82.7277 20.0522C82.5968 20.4745 82.1991 20.756 81.7578 20.7415L73.0864 20.3871C72.4414 20.3483 72.0049 19.7221 72.1989 19.1105Z" fill="#4E5567"/>
<path d="M85.9673 5.52915L82.7422 16.067L82.2815 17.5815L82.0633 18.295C81.9857 18.5474 81.7917 18.7367 81.5589 18.8144C81.4667 18.8435 81.3746 18.8581 81.2776 18.8532L79.4686 18.7804L74.2406 18.5668C73.7168 18.5426 73.3628 18.0329 73.518 17.5378L76.0156 9.69383L76.9613 6.72807L77.4366 5.24277C77.456 5.17967 77.4851 5.11656 77.5239 5.06317C77.6597 4.84474 77.8973 4.70398 78.164 4.69427L78.4162 4.68942L85.1914 4.50982C85.7297 4.49526 86.1225 5.01463 85.9673 5.52915Z" fill="#F2EDE4"/>
<g opacity="0.35">
<path opacity="0.35" d="M82.7423 16.0671L82.2815 17.5815L77.5239 5.0632C77.6597 4.84478 77.8973 4.70401 78.1641 4.6943L78.4163 4.68945L82.7423 16.0671Z" fill="white"/>
</g>
<g opacity="0.35">
<path opacity="0.35" d="M81.5589 18.8143C81.4667 18.8435 81.3746 18.858 81.2776 18.8532L79.4686 18.7804L76.0156 9.69379L76.9613 6.72803L81.5589 18.8143Z" fill="white"/>
</g>
<path d="M18.0174 21.8627C19.7003 18.0378 20.1465 13.6789 19.2784 9.58707C19.8846 11.5335 22.0039 12.6353 24.0263 12.8926C26.0486 13.1499 28.1001 12.7907 30.137 12.8926C32.1739 12.9945 34.3757 13.7129 35.4038 15.4749C35.593 15.7953 35.8015 16.1933 36.1701 16.2224C36.6308 16.2612 36.9024 15.7176 36.9994 15.2662C37.7511 11.883 36.3641 8.16972 33.7209 5.9272C31.0778 3.68468 27.3338 2.9032 23.9535 3.66527C20.5732 4.42734 17.5955 6.65044 15.6847 9.53854C14.4868 11.3491 13.6769 13.4411 13.5556 15.6108C13.4344 17.7757 14.0358 20.0133 15.3889 21.7074C15.7235 22.1248 16.1357 22.5277 16.6595 22.6442C17.1833 22.7607 17.8234 22.4646 17.9059 21.9306" fill="#3F4553"/>
<path d="M17.9713 26.7413C20.4802 26.2293 22.0681 23.6253 21.518 20.9251C20.9678 18.225 18.488 16.4512 15.9791 16.9632C13.4702 17.4753 11.8824 20.0793 12.4325 22.7794C12.9827 25.4796 15.4625 27.2534 17.9713 26.7413Z" fill="#6BA5C0"/>
<path d="M15.1415 19.8482C12.3868 11.4412 15.835 8.27153 15.9902 8.06766L16.092 8.05795H16.1163L16.2181 8.0531C16.1017 8.21328 14.7147 12.0236 16.9795 18.9356L15.1415 19.8482Z" fill="#6BA5C0"/>
<path d="M20.9563 24.5467C13.8271 26.4398 12.6535 22.6197 12.668 19.8627C12.3285 20.7509 12.2315 21.7606 12.4401 22.7847C12.993 25.4884 15.4712 27.2601 17.9785 26.7504C19.2734 26.4786 20.321 25.6534 20.9563 24.5467Z" fill="#6BA5C0"/>
</svg>
