<svg width="43" height="43" viewBox="0 0 43 43" fill="none" xmlns="http://www.w3.org/2000/svg">
<path d="M21.5 0C9.64418 0 0 9.64418 0 21.5C0 33.3558 9.64418 43 21.5 43C33.3558 43 43 33.3558 43 21.5C43 9.64418 33.3558 0 21.5 0ZM21.5 41.2084C10.6328 41.2084 1.79164 32.3672 1.79164 21.5C1.79164 10.6328 10.6328 1.79164 21.5 1.79164C32.3672 1.79164 41.2084 10.6328 41.2084 21.5C41.2084 32.3672 32.3672 41.2084 21.5 41.2084Z" fill="#373737"/>
<path d="M25.7167 11.0125C25.3668 10.6625 24.7999 10.6625 24.45 11.0125L14.5958 20.8666C14.2459 21.2166 14.2459 21.7835 14.5958 22.1333L24.45 31.9875C24.6249 32.1624 24.8542 32.2499 25.0834 32.2499C25.3126 32.2499 25.5418 32.1624 25.7168 31.9875C26.0668 31.6375 26.0668 31.0706 25.7168 30.7207L16.496 21.5L25.7168 12.2792C26.0667 11.9293 26.0667 11.3624 25.7167 11.0125Z" fill="#373737"/>
</svg>
