<svg width="274" height="55" viewBox="0 0 274 55" fill="none" xmlns="http://www.w3.org/2000/svg">
<path d="M126.52 19.3376V34C126.52 35.1046 127.415 36 128.52 36H151.016C152.121 36 153.016 35.1046 153.016 34V19.3869C153.016 18.8222 152.777 18.2837 152.359 17.9046L140.616 7.26803C139.83 6.55629 138.626 6.58136 137.87 7.32516L127.117 17.9124C126.735 18.2883 126.52 18.8017 126.52 19.3376Z" fill="#96C9D9" stroke="#96C9D9" stroke-linecap="round" stroke-linejoin="round"/>
<path d="M135.352 25.416C135.352 22.9771 137.329 21 139.768 21C142.207 21 144.184 22.9771 144.184 25.416V37H135.352V25.416Z" fill="white"/>
<path d="M131.307 42.456V51H130.071V47.172H125.283V51H124.059V42.456H125.283V46.152H130.071V42.456H131.307ZM135.789 51.084C135.197 51.084 134.677 50.956 134.229 50.7C133.781 50.444 133.433 50.08 133.185 49.608C132.945 49.136 132.825 48.584 132.825 47.952C132.825 47.32 132.945 46.768 133.185 46.296C133.433 45.816 133.781 45.448 134.229 45.192C134.677 44.936 135.197 44.808 135.789 44.808C136.373 44.808 136.889 44.936 137.337 45.192C137.785 45.448 138.129 45.816 138.369 46.296C138.617 46.768 138.741 47.32 138.741 47.952C138.741 48.584 138.617 49.136 138.369 49.608C138.129 50.08 137.785 50.444 137.337 50.7C136.889 50.956 136.373 51.084 135.789 51.084ZM135.777 50.124C136.337 50.124 136.765 49.94 137.061 49.572C137.357 49.204 137.505 48.664 137.505 47.952C137.505 47.256 137.353 46.72 137.049 46.344C136.753 45.968 136.333 45.78 135.789 45.78C135.237 45.78 134.809 45.968 134.505 46.344C134.201 46.72 134.049 47.256 134.049 47.952C134.049 48.664 134.197 49.204 134.493 49.572C134.797 49.94 135.225 50.124 135.777 50.124ZM147.058 44.808C148.402 44.808 149.074 45.616 149.074 47.232V51H147.862V47.292C147.862 46.772 147.77 46.392 147.586 46.152C147.41 45.912 147.122 45.792 146.722 45.792C146.258 45.792 145.89 45.952 145.618 46.272C145.354 46.592 145.222 47.028 145.222 47.58V51H144.01V47.292C144.01 46.772 143.918 46.392 143.734 46.152C143.558 45.912 143.27 45.792 142.87 45.792C142.406 45.792 142.038 45.952 141.766 46.272C141.494 46.592 141.358 47.028 141.358 47.58V51H140.158V46.656C140.158 46.024 140.126 45.456 140.062 44.952H141.19L141.298 45.96C141.474 45.592 141.726 45.308 142.054 45.108C142.382 44.908 142.766 44.808 143.206 44.808C144.142 44.808 144.754 45.196 145.042 45.972C145.226 45.612 145.494 45.328 145.846 45.12C146.206 44.912 146.61 44.808 147.058 44.808ZM155.97 48H151.65C151.69 49.416 152.334 50.124 153.582 50.124C154.278 50.124 154.914 49.896 155.49 49.44L155.862 50.304C155.59 50.544 155.242 50.736 154.818 50.88C154.402 51.016 153.982 51.084 153.558 51.084C152.59 51.084 151.83 50.808 151.278 50.256C150.726 49.696 150.45 48.932 150.45 47.964C150.45 47.348 150.57 46.8 150.81 46.32C151.058 45.84 151.402 45.468 151.842 45.204C152.282 44.94 152.782 44.808 153.342 44.808C154.158 44.808 154.798 45.072 155.262 45.6C155.734 46.128 155.97 46.86 155.97 47.796V48ZM153.366 45.708C152.91 45.708 152.538 45.844 152.25 46.116C151.962 46.388 151.778 46.776 151.698 47.28H154.902C154.854 46.768 154.698 46.38 154.434 46.116C154.17 45.844 153.814 45.708 153.366 45.708Z" fill="#96C9D9"/>
<path d="M211.303 43.456H212.539V50.968H216.691V52H211.303V43.456ZM222.952 49H218.632C218.672 50.416 219.316 51.124 220.564 51.124C221.26 51.124 221.896 50.896 222.472 50.44L222.844 51.304C222.572 51.544 222.224 51.736 221.8 51.88C221.384 52.016 220.964 52.084 220.54 52.084C219.572 52.084 218.812 51.808 218.26 51.256C217.708 50.696 217.432 49.932 217.432 48.964C217.432 48.348 217.552 47.8 217.792 47.32C218.04 46.84 218.384 46.468 218.824 46.204C219.264 45.94 219.764 45.808 220.324 45.808C221.14 45.808 221.78 46.072 222.244 46.6C222.716 47.128 222.952 47.86 222.952 48.796V49ZM220.348 46.708C219.892 46.708 219.52 46.844 219.232 47.116C218.944 47.388 218.76 47.776 218.68 48.28H221.884C221.836 47.768 221.68 47.38 221.416 47.116C221.152 46.844 220.796 46.708 220.348 46.708ZM229.875 45.952V52H228.675V50.968C228.499 51.328 228.235 51.604 227.883 51.796C227.539 51.988 227.135 52.084 226.671 52.084C226.135 52.084 225.663 51.956 225.255 51.7C224.855 51.444 224.543 51.084 224.319 50.62C224.095 50.148 223.983 49.6 223.983 48.976C223.983 48.352 224.095 47.8 224.319 47.32C224.551 46.84 224.871 46.468 225.279 46.204C225.687 45.94 226.151 45.808 226.671 45.808C227.135 45.808 227.539 45.908 227.883 46.108C228.227 46.3 228.491 46.576 228.675 46.936V45.952H229.875ZM226.959 51.124C227.503 51.124 227.923 50.936 228.219 50.56C228.523 50.176 228.675 49.64 228.675 48.952C228.675 48.256 228.523 47.72 228.219 47.344C227.923 46.968 227.499 46.78 226.947 46.78C226.403 46.78 225.975 46.976 225.663 47.368C225.359 47.752 225.207 48.288 225.207 48.976C225.207 49.656 225.359 50.184 225.663 50.56C225.975 50.936 226.407 51.124 226.959 51.124ZM234.668 45.808C234.852 45.808 235.044 45.836 235.244 45.892L235.22 46.996C235.004 46.916 234.768 46.876 234.512 46.876C233.96 46.876 233.544 47.044 233.264 47.38C232.992 47.708 232.856 48.124 232.856 48.628V52H231.656V47.656C231.656 47.024 231.624 46.456 231.56 45.952H232.688L232.796 47.044C232.956 46.644 233.204 46.34 233.54 46.132C233.876 45.916 234.252 45.808 234.668 45.808ZM239.383 45.808C240.831 45.808 241.555 46.616 241.555 48.232V52H240.343V48.304C240.343 47.776 240.239 47.392 240.031 47.152C239.831 46.912 239.507 46.792 239.059 46.792C238.547 46.792 238.135 46.952 237.823 47.272C237.519 47.592 237.367 48.02 237.367 48.556V52H236.167V47.656C236.167 47.024 236.135 46.456 236.071 45.952H237.199L237.307 46.996C237.499 46.612 237.775 46.32 238.135 46.12C238.503 45.912 238.919 45.808 239.383 45.808ZM254.772 43.456V52H253.656V46.132L251.124 52H250.272L247.704 46.168L247.716 52H246.6V43.456H247.596L250.704 50.512L253.776 43.456H254.772ZM259.267 52.084C258.675 52.084 258.155 51.956 257.707 51.7C257.259 51.444 256.911 51.08 256.663 50.608C256.423 50.136 256.303 49.584 256.303 48.952C256.303 48.32 256.423 47.768 256.663 47.296C256.911 46.816 257.259 46.448 257.707 46.192C258.155 45.936 258.675 45.808 259.267 45.808C259.851 45.808 260.367 45.936 260.815 46.192C261.263 46.448 261.607 46.816 261.847 47.296C262.095 47.768 262.219 48.32 262.219 48.952C262.219 49.584 262.095 50.136 261.847 50.608C261.607 51.08 261.263 51.444 260.815 51.7C260.367 51.956 259.851 52.084 259.267 52.084ZM259.255 51.124C259.815 51.124 260.243 50.94 260.539 50.572C260.835 50.204 260.983 49.664 260.983 48.952C260.983 48.256 260.831 47.72 260.527 47.344C260.231 46.968 259.811 46.78 259.267 46.78C258.715 46.78 258.287 46.968 257.983 47.344C257.679 47.72 257.527 48.256 257.527 48.952C257.527 49.664 257.675 50.204 257.971 50.572C258.275 50.94 258.703 51.124 259.255 51.124ZM266.648 45.808C266.832 45.808 267.024 45.836 267.224 45.892L267.2 46.996C266.984 46.916 266.748 46.876 266.492 46.876C265.94 46.876 265.524 47.044 265.244 47.38C264.972 47.708 264.836 48.124 264.836 48.628V52H263.636V47.656C263.636 47.024 263.604 46.456 263.54 45.952H264.668L264.776 47.044C264.936 46.644 265.184 46.34 265.52 46.132C265.856 45.916 266.232 45.808 266.648 45.808ZM273.191 49H268.871C268.911 50.416 269.555 51.124 270.803 51.124C271.499 51.124 272.135 50.896 272.711 50.44L273.083 51.304C272.811 51.544 272.463 51.736 272.039 51.88C271.623 52.016 271.203 52.084 270.779 52.084C269.811 52.084 269.051 51.808 268.499 51.256C267.947 50.696 267.671 49.932 267.671 48.964C267.671 48.348 267.791 47.8 268.031 47.32C268.279 46.84 268.623 46.468 269.063 46.204C269.503 45.94 270.003 45.808 270.563 45.808C271.379 45.808 272.019 46.072 272.483 46.6C272.955 47.128 273.191 47.86 273.191 48.796V49ZM270.587 46.708C270.131 46.708 269.759 46.844 269.471 47.116C269.183 47.388 268.999 47.776 268.919 48.28H272.123C272.075 47.768 271.919 47.38 271.655 47.116C271.391 46.844 271.035 46.708 270.587 46.708Z" fill="#373737"/>
<g clip-path="url(#clip0)">
<path d="M243 4C234.178 4 227 11.1777 227 20C227 28.8223 234.178 36.0001 243 36.0001C251.822 36.0001 259 28.8223 259 20C259 11.1777 251.822 4 243 4ZM244.041 29.4932C243.281 29.62 241.768 29.9365 241 30.0001C240.35 30.0539 239.736 29.6817 239.362 29.1475C238.987 28.6133 238.898 27.9297 239.12 27.3164L242.145 19.0001H239C238.997 17.2671 240.297 15.993 241.96 15.504C242.753 15.2705 244.231 14.9511 245 15.0001C245.461 15.0294 246.264 15.3184 246.638 15.8526C247.013 16.3868 247.102 17.0704 246.88 17.6837L243.855 26.0001H246.999C247 27.731 245.748 29.2087 244.041 29.4932ZM245 14C243.895 14 243 13.1045 243 12C243 10.8954 243.895 10 245 10C246.105 10 247 10.8954 247 12C247 13.1046 246.105 14 245 14Z" fill="#373737"/>
</g>
<path d="M7.02638 54.096C6.36238 54.096 5.75438 54.008 5.20238 53.832C4.65838 53.656 4.18638 53.392 3.78638 53.04L4.23038 52.128C4.64638 52.464 5.07838 52.708 5.52638 52.86C5.97438 53.012 6.47838 53.088 7.03838 53.088C7.67838 53.088 8.17438 52.968 8.52638 52.728C8.87838 52.488 9.05438 52.148 9.05438 51.708C9.05438 51.34 8.89038 51.064 8.56238 50.88C8.23438 50.688 7.71438 50.512 7.00238 50.352C6.32238 50.208 5.76638 50.044 5.33438 49.86C4.90238 49.668 4.56238 49.416 4.31438 49.104C4.06638 48.784 3.94238 48.376 3.94238 47.88C3.94238 47.384 4.07438 46.948 4.33838 46.572C4.60238 46.188 4.97438 45.892 5.45438 45.684C5.94238 45.468 6.50238 45.36 7.13438 45.36C7.73438 45.36 8.29438 45.452 8.81438 45.636C9.34238 45.82 9.78238 46.08 10.1344 46.416L9.69038 47.328C9.29838 47 8.89438 46.76 8.47838 46.608C8.06238 46.448 7.61838 46.368 7.14638 46.368C6.53038 46.368 6.04638 46.5 5.69438 46.764C5.34238 47.02 5.16638 47.372 5.16638 47.82C5.16638 48.204 5.31838 48.496 5.62238 48.696C5.93438 48.896 6.43038 49.076 7.11038 49.236C7.82238 49.396 8.39838 49.564 8.83838 49.74C9.27838 49.916 9.63038 50.156 9.89438 50.46C10.1584 50.764 10.2904 51.156 10.2904 51.636C10.2904 52.132 10.1584 52.564 9.89438 52.932C9.63038 53.3 9.25038 53.588 8.75438 53.796C8.26638 53.996 7.69038 54.096 7.02638 54.096ZM17.2481 47.952V54H16.0481V52.968C15.8721 53.328 15.6081 53.604 15.2561 53.796C14.9121 53.988 14.5081 54.084 14.0441 54.084C13.5081 54.084 13.0361 53.956 12.6281 53.7C12.2281 53.444 11.9161 53.084 11.6921 52.62C11.4681 52.148 11.3561 51.6 11.3561 50.976C11.3561 50.352 11.4681 49.8 11.6921 49.32C11.9241 48.84 12.2441 48.468 12.6521 48.204C13.0601 47.94 13.5241 47.808 14.0441 47.808C14.5081 47.808 14.9121 47.908 15.2561 48.108C15.6001 48.3 15.8641 48.576 16.0481 48.936V47.952H17.2481ZM14.3321 53.124C14.8761 53.124 15.2961 52.936 15.5921 52.56C15.8961 52.176 16.0481 51.64 16.0481 50.952C16.0481 50.256 15.8961 49.72 15.5921 49.344C15.2961 48.968 14.8721 48.78 14.3201 48.78C13.7761 48.78 13.3481 48.976 13.0361 49.368C12.7321 49.752 12.5801 50.288 12.5801 50.976C12.5801 51.656 12.7321 52.184 13.0361 52.56C13.3481 52.936 13.7801 53.124 14.3321 53.124ZM21.5846 46.14C20.9206 46.14 20.5886 46.52 20.5886 47.28V47.952H22.0046V48.888H20.5886V54H19.3766V48.888H18.2126V47.952H19.3766V47.184C19.3766 46.512 19.5446 46 19.8806 45.648C20.2246 45.296 20.7046 45.12 21.3206 45.12C21.6406 45.12 21.9326 45.16 22.1966 45.24V46.236C21.9806 46.172 21.7766 46.14 21.5846 46.14ZM28.3371 51H24.0171C24.0571 52.416 24.7011 53.124 25.9491 53.124C26.6451 53.124 27.2811 52.896 27.8571 52.44L28.2291 53.304C27.9571 53.544 27.6091 53.736 27.1851 53.88C26.7691 54.016 26.3491 54.084 25.9251 54.084C24.9571 54.084 24.1971 53.808 23.6451 53.256C23.0931 52.696 22.8171 51.932 22.8171 50.964C22.8171 50.348 22.9371 49.8 23.1771 49.32C23.4251 48.84 23.7691 48.468 24.2091 48.204C24.6491 47.94 25.1491 47.808 25.7091 47.808C26.5251 47.808 27.1651 48.072 27.6291 48.6C28.1011 49.128 28.3371 49.86 28.3371 50.796V51ZM25.7331 48.708C25.2771 48.708 24.9051 48.844 24.6171 49.116C24.3291 49.388 24.1451 49.776 24.0651 50.28H27.2691C27.2211 49.768 27.0651 49.38 26.8011 49.116C26.5371 48.844 26.1811 48.708 25.7331 48.708ZM33.0351 45.456H36.5871C37.4831 45.456 38.1791 45.676 38.6751 46.116C39.1791 46.548 39.4311 47.14 39.4311 47.892C39.4311 48.644 39.1751 49.24 38.6631 49.68C38.1591 50.112 37.4671 50.328 36.5871 50.328H34.2711V54H33.0351V45.456ZM36.4431 49.344C37.0351 49.344 37.4791 49.22 37.7751 48.972C38.0791 48.724 38.2311 48.364 38.2311 47.892C38.2311 47.428 38.0791 47.072 37.7751 46.824C37.4791 46.576 37.0351 46.452 36.4431 46.452H34.2711V49.344H36.4431ZM40.8255 45.168H42.0255V54H40.8255V45.168ZM49.3341 47.952V54H48.1341V52.968C47.9581 53.328 47.6941 53.604 47.3421 53.796C46.9981 53.988 46.5941 54.084 46.1301 54.084C45.5941 54.084 45.1221 53.956 44.7141 53.7C44.3141 53.444 44.0021 53.084 43.7781 52.62C43.5541 52.148 43.4421 51.6 43.4421 50.976C43.4421 50.352 43.5541 49.8 43.7781 49.32C44.0101 48.84 44.3301 48.468 44.7381 48.204C45.1461 47.94 45.6101 47.808 46.1301 47.808C46.5941 47.808 46.9981 47.908 47.3421 48.108C47.6861 48.3 47.9501 48.576 48.1341 48.936V47.952H49.3341ZM46.4181 53.124C46.9621 53.124 47.3821 52.936 47.6781 52.56C47.9821 52.176 48.1341 51.64 48.1341 50.952C48.1341 50.256 47.9821 49.72 47.6781 49.344C47.3821 48.968 46.9581 48.78 46.4061 48.78C45.8621 48.78 45.4341 48.976 45.1221 49.368C44.8181 49.752 44.6661 50.288 44.6661 50.976C44.6661 51.656 44.8181 52.184 45.1221 52.56C45.4341 52.936 45.8661 53.124 46.4181 53.124ZM53.7426 54.084C53.1346 54.084 52.6026 53.956 52.1466 53.7C51.6986 53.444 51.3546 53.084 51.1146 52.62C50.8746 52.148 50.7546 51.6 50.7546 50.976C50.7546 50.352 50.8786 49.8 51.1266 49.32C51.3826 48.84 51.7386 48.468 52.1946 48.204C52.6506 47.94 53.1826 47.808 53.7906 47.808C54.2146 47.808 54.6226 47.88 55.0146 48.024C55.4066 48.16 55.7226 48.348 55.9626 48.588L55.5906 49.464C55.0226 49.016 54.4506 48.792 53.8746 48.792C53.2906 48.792 52.8346 48.984 52.5066 49.368C52.1786 49.744 52.0146 50.276 52.0146 50.964C52.0146 51.652 52.1786 52.184 52.5066 52.56C52.8346 52.928 53.2906 53.112 53.8746 53.112C54.4666 53.112 55.0386 52.888 55.5906 52.44L55.9626 53.316C55.7066 53.556 55.3786 53.744 54.9786 53.88C54.5866 54.016 54.1746 54.084 53.7426 54.084ZM62.2628 51H57.9428C57.9828 52.416 58.6268 53.124 59.8748 53.124C60.5708 53.124 61.2068 52.896 61.7828 52.44L62.1548 53.304C61.8828 53.544 61.5348 53.736 61.1108 53.88C60.6948 54.016 60.2748 54.084 59.8508 54.084C58.8828 54.084 58.1228 53.808 57.5708 53.256C57.0188 52.696 56.7428 51.932 56.7428 50.964C56.7428 50.348 56.8628 49.8 57.1028 49.32C57.3508 48.84 57.6948 48.468 58.1348 48.204C58.5748 47.94 59.0748 47.808 59.6348 47.808C60.4508 47.808 61.0908 48.072 61.5548 48.6C62.0268 49.128 62.2628 49.86 62.2628 50.796V51ZM59.6588 48.708C59.2028 48.708 58.8308 48.844 58.5428 49.116C58.2548 49.388 58.0708 49.776 57.9908 50.28H61.1948C61.1468 49.768 60.9908 49.38 60.7268 49.116C60.4628 48.844 60.1068 48.708 59.6588 48.708Z" fill="#373737"/>
<path d="M45.8063 12.2128C44.7009 9.16004 42.6044 6.74945 39.7431 5.24145C37.1296 3.86408 34.0017 3.33868 30.935 3.76178C28.6667 4.07471 26.5126 4.91514 24.7052 6.19231C21.1761 8.68632 18.8611 12.7248 18.5128 16.9949C18.4604 17.6357 18.5492 18.2773 18.6351 18.8976C18.7249 19.5484 18.8101 20.163 18.7054 20.6045L18.7051 20.6058C18.6821 20.7039 18.4225 21.6238 16.4448 23.6986C15.9488 24.219 15.7599 24.9845 15.9518 25.6961C16.1436 26.408 16.6859 26.9523 17.3668 27.1165C17.6487 27.1847 17.9047 27.2445 18.1282 27.2969C18.2022 27.3143 18.2727 27.3308 18.3393 27.3465C18.3517 28.9891 18.372 30.9228 18.4007 31.2848C18.4678 32.1281 18.8175 32.8345 19.4121 33.3274C20.2365 34.0109 21.483 34.2339 23.0176 33.9729C24.201 33.7712 24.9045 34.0894 25.1094 34.9175C25.1277 35.0812 25.1819 35.5837 25.2168 36.1327C25.2837 37.1799 26.1118 38.0001 27.1024 38.0001H39.3312C40.374 38.0001 41.222 37.1012 41.222 35.9961V32.4106C41.222 29.8825 41.597 28.1628 42.3363 27.2993C44.1709 25.1568 45.4813 22.7496 46.1258 20.3377C46.8647 17.573 46.757 14.8395 45.8063 12.2128ZM39.923 19.8886C38.7377 22.5673 36.4682 25.2121 33.1777 27.7497C32.9619 27.916 32.7092 27.9991 32.4565 27.9991C32.2035 27.9991 31.9508 27.916 31.7349 27.7494C29.462 25.9967 26.4443 23.2113 24.9767 19.8949C24.3362 18.4467 24.2829 16.7654 24.8307 15.2815C25.35 13.876 26.344 12.7969 27.6299 12.2429C29.8417 11.2902 31.5666 12.3998 32.4535 13.2213C33.3369 12.3966 35.0566 11.2826 37.2699 12.2364C38.556 12.7904 39.55 13.8698 40.0691 15.2752C40.6171 16.7591 40.5639 18.4407 39.923 19.8886Z" fill="#373737"/>
<defs>
<clipPath id="clip0">
<rect width="32" height="32" fill="white" transform="translate(227 4)"/>
</clipPath>
</defs>
</svg>
