<svg width="176" height="135" viewBox="0 0 176 135" fill="none" xmlns="http://www.w3.org/2000/svg">
<mask id="mask0" mask-type="alpha" maskUnits="userSpaceOnUse" x="0" y="0" width="176" height="135">
<rect width="176" height="135" rx="10" fill="#FA6E5A"/>
</mask>
<g mask="url(#mask0)">
<g clip-path="url(#clip0)">
<path d="M156.386 24.3394H153V41.3394H156.386V24.3394Z" fill="#96C9D9"/>
<path d="M161.693 30.0537H158.307V41.3392H161.693V30.0537Z" fill="#96C9D9"/>
<path d="M167.007 35.4395H163.621V41.3395H167.007V35.4395Z" fill="#96C9D9"/>
</g>
<g clip-path="url(#clip1)">
<path d="M91.5 129.339C110.554 129.339 126 126.653 126 123.339C126 120.026 110.554 117.339 91.5 117.339C72.4462 117.339 57 120.026 57 123.339C57 126.653 72.4462 129.339 91.5 129.339Z" fill="#96C9D9"/>
</g>
<path d="M85.6816 45.4957C85.6816 45.4957 84.3301 60.4362 89.9284 60.2111C95.9338 59.9665 94.3185 45.4957 94.3185 45.4957C93.5336 43.1632 93.221 41.7801 93.5727 39.3335H86.2809C86.6326 41.7801 86.4632 43.1632 85.6816 45.4957Z" fill="#FDBCA0"/>
<path d="M86.4275 42.2233C87.2547 42.4713 88.0884 42.6996 88.9514 42.7714C89.7689 42.8399 90.6091 42.7877 91.4233 42.6996C92.1007 42.6246 92.8237 42.5039 93.5011 42.2788C93.3936 41.3915 93.4099 40.4781 93.576 39.3298H86.2842C86.4438 40.4553 86.4926 41.3556 86.4275 42.2233Z" fill="#F0A38B"/>
<path d="M89.9283 41.3722C92.0094 41.3722 94.0122 40.5502 95.4778 39.0691C97.2234 37.3076 98.5912 35.3438 98.9918 33.0375C99.5063 30.0755 98.5065 27.1167 96.3245 24.7354H83.5288C81.3468 27.1134 80.347 30.0755 80.8616 33.0375C81.2621 35.3438 82.6332 37.3076 84.3756 39.0691C85.8444 40.5469 87.8473 41.3722 89.9283 41.3722Z" fill="#FDBCA0"/>
<path d="M90.5635 47.2376C90.2997 47.528 90.0522 47.8444 89.8177 48.1608C89.5344 47.9651 89.3097 47.727 89.0622 47.4823C89.0394 47.4595 88.9938 47.4823 89.0035 47.5149C89.1436 47.8998 89.4367 48.213 89.7363 48.4805C89.8014 48.536 89.8926 48.5425 89.9578 48.4805C90.2737 48.1706 90.5831 47.8085 90.8273 47.4366C90.9315 47.2833 90.6905 47.0974 90.5635 47.2376Z" fill="#DF8370"/>
<path d="M97.6047 46.6666C95.6604 46.833 93.7422 47.1494 91.85 47.6322C91.736 47.6616 91.7849 47.8345 91.8989 47.8084C93.7813 47.3908 95.6832 47.107 97.6047 46.9765C97.8066 46.9635 97.8033 46.6503 97.6047 46.6666Z" fill="#DF8370"/>
<path d="M82.2491 46.6666C84.1934 46.833 86.1116 47.1494 88.0037 47.6322C88.1177 47.6616 88.0689 47.8345 87.9549 47.8084C86.0725 47.3908 84.1706 47.107 82.2491 46.9765C82.0504 46.9635 82.0504 46.6503 82.2491 46.6666Z" fill="#DF8370"/>
<path d="M82.5844 19.8096C79.8651 21.3689 77.9501 23.8253 77.9175 27.1265C77.885 30.8486 82.4118 36.7759 82.3499 36.6291C80.8453 33.0081 80.4513 28.0236 84.2063 25.5281C84.5808 25.2802 85.0498 25.1366 85.3852 24.8463C85.3754 22.8792 84.291 20.9742 82.5844 19.8096Z" fill="#3F4553"/>
<path d="M97.005 19.8096C99.7243 21.3689 101.639 23.8253 101.672 27.1265C101.704 30.8486 99.4801 34.1597 97.2655 36.9716C97.8289 35.7451 99.1349 28.0203 95.3799 25.5281C95.0053 25.2802 94.5364 25.1366 94.2009 24.8463C94.214 22.8792 95.3017 20.9741 97.005 19.8096Z" fill="#424495"/>
<path d="M136.05 17.8392C133.973 16.8051 131.546 16.5833 129.286 17.0433C128.192 17.2651 127.156 17.6533 126.169 18.1785C125.515 18.5243 124.851 19.0201 124.088 19.0788C123.164 19.1473 122.353 18.5438 121.665 18.0089C119.529 16.3452 117.357 14.887 114.608 14.4858C113.279 14.29 111.794 14.4336 110.765 15.2491C109.71 13.8529 108.137 12.858 106.404 12.4926C104.112 12.0098 101.933 12.6981 100.132 14.0813C99.1158 13.5822 97.3377 12.8645 97.1129 12.8025C90.3389 10.9366 81.0898 15.6699 82.2883 23.6523C83.3174 30.5126 91.9901 33.6834 97.9988 32.2741C99.2949 34.7305 102.402 35.3014 104.796 34.0226C104.978 34.1629 105.16 34.3032 105.346 34.4402C109.166 37.2456 113.612 39.0692 118.412 38.2406C120.236 37.9241 121.942 37.2652 123.512 36.3192C125.004 37.4414 126.967 37.7969 128.775 36.9292C130.12 36.2866 131.022 35.0991 131.344 33.7551C131.367 33.7551 131.39 33.7551 131.413 33.7551C135.406 33.7062 139.639 31.7196 140.659 27.5277C141.587 23.7176 139.522 19.5649 136.05 17.8392Z" fill="#4E5567"/>
<path d="M117.897 16.5963C119.21 17.6695 119.988 19.1408 119.171 20.762C118.506 22.0832 117.311 23.0455 116.441 24.2166C115.422 25.5867 115.246 27.345 116.917 28.3465C118.562 29.3317 120.623 28.1051 121.994 27.1754C123.688 26.0239 125.505 22.6932 126.964 21.2644C133.445 14.9196 139.88 21.7015 139.906 21.7244C139.066 20.0737 137.724 18.6743 136.05 17.8392C133.972 16.8051 131.546 16.5833 129.286 17.0432C128.192 17.265 127.156 17.6532 126.169 18.1784C125.515 18.5242 124.85 19.0201 124.088 19.0788C123.163 19.1473 122.352 18.5438 121.665 18.0088C119.529 16.3451 117.357 14.8869 114.608 14.4857C113.308 14.2965 111.859 14.4335 110.833 15.2034C113.071 14.3324 116.103 15.1251 117.897 16.5963Z" fill="#3F4553"/>
<path d="M135.158 32.6787C133.572 32.8647 132.087 32.7766 130.628 32.1274C129.999 33.7618 128.713 35.4124 126.895 35.6701C125.674 35.843 124.231 35.4613 123.981 34.1663C115.396 41.1668 105.772 33.3572 104.844 31.8926C102.167 33.6411 98.7931 31.5076 97.7933 28.7772C95.7546 29.5699 93.4032 29.3253 91.4231 28.4738C87.7333 26.8917 85.6881 22.5302 86.9777 18.6809C88.0524 15.4808 90.9151 13.2919 94.0871 12.4013C87.9026 12.3655 81.2622 16.815 82.288 23.6524C83.3172 30.5127 91.9866 33.6835 97.9985 32.2742C99.2947 34.7306 102.402 35.3015 104.795 34.0227C104.978 34.163 105.16 34.3033 105.346 34.4403C109.166 37.2457 113.611 39.0692 118.412 38.2407C120.235 37.9242 121.942 37.2653 123.512 36.3193C125.003 37.4414 126.967 37.797 128.775 36.9293C130.12 36.2866 131.022 35.0992 131.344 33.7552C131.367 33.7552 131.39 33.7552 131.413 33.7552C133.318 33.7324 135.275 33.2659 136.916 32.3329C136.34 32.5058 135.741 32.6102 135.158 32.6787Z" fill="#3F4553"/>
<path d="M87.6421 34.786C86.5022 34.9752 84.6491 35.0372 83.5972 33.9085C83.3888 33.6834 83.1054 33.9379 83.366 34.163C83.4083 34.1989 83.4506 34.2315 83.493 34.2641C83.3692 34.3 83.239 34.3163 83.1022 34.3065C83.0989 34.3065 83.0989 34.3098 83.1022 34.313C83.2683 34.3685 83.4376 34.3848 83.6037 34.3522C83.607 34.3554 83.6102 34.3587 83.6135 34.3587C83.4702 34.4533 83.2976 34.4925 83.1282 34.5479C83.125 34.5479 83.125 34.5512 83.1282 34.5544C83.3367 34.574 83.5549 34.5479 83.7275 34.437C83.747 34.45 83.7665 34.4566 83.7861 34.4696C83.6558 34.5707 83.5093 34.6458 83.3432 34.6849C83.3269 34.6882 83.3301 34.7143 83.3464 34.7143C83.5581 34.7241 83.76 34.6719 83.9294 34.5544C83.9652 34.574 84.0043 34.5903 84.0401 34.6099C83.9196 34.698 83.7959 34.7763 83.6558 34.8415C83.6428 34.848 83.6493 34.8709 83.6623 34.8709C83.848 34.8774 84.0108 34.7828 84.1574 34.6719C84.2029 34.6947 84.2485 34.711 84.2974 34.7306C84.2355 34.7926 84.1639 34.8513 84.0955 34.91C84.0857 34.9198 84.0955 34.9328 84.1085 34.9328C84.2257 34.9035 84.3332 34.8545 84.4244 34.786C85.4698 35.2166 86.6943 35.2297 87.743 34.8513C87.8537 34.8056 87.7691 34.7665 87.6421 34.786Z" fill="#3F4553"/>
<path d="M92.322 34.786C93.4618 34.9752 95.3149 35.0372 96.3668 33.9085C96.5752 33.6834 96.8586 33.9379 96.598 34.163C96.5557 34.1989 96.5134 34.2315 96.471 34.2641C96.598 34.3 96.725 34.3163 96.8618 34.3065C96.8651 34.3065 96.8651 34.3098 96.8618 34.313C96.6957 34.3685 96.5264 34.3848 96.3603 34.3522C96.357 34.3554 96.3538 34.3587 96.3505 34.3587C96.4938 34.4533 96.6664 34.4925 96.8358 34.5479C96.839 34.5479 96.839 34.5512 96.8358 34.5544C96.6273 34.574 96.4091 34.5479 96.2365 34.437C96.217 34.45 96.1975 34.4566 96.1779 34.4696C96.3082 34.5707 96.4547 34.6458 96.6208 34.6849C96.6371 34.6882 96.6339 34.7143 96.6176 34.7143C96.4059 34.7241 96.204 34.6719 96.0346 34.5544C95.9988 34.574 95.9597 34.5903 95.9239 34.6099C96.0444 34.698 96.1681 34.7763 96.3082 34.8415C96.3212 34.848 96.3147 34.8709 96.3017 34.8709C96.116 34.8774 95.9532 34.7828 95.8067 34.6719C95.7611 34.6947 95.7155 34.711 95.6699 34.7306C95.7317 34.7926 95.8034 34.8513 95.8718 34.91C95.8816 34.9198 95.8718 34.9328 95.8588 34.9328C95.7415 34.9035 95.634 34.8545 95.5429 34.786C94.4974 35.2166 93.2729 35.2297 92.221 34.8513C92.1135 34.8056 92.1949 34.7665 92.322 34.786Z" fill="#3F4553"/>
<path d="M90.7001 37.1643C90.166 37.4416 89.6352 37.5525 89.0848 37.2197C89.0457 37.1969 89.0001 37.2523 89.0359 37.285C89.5082 37.7058 90.3484 37.8134 90.8206 37.3209C90.8988 37.236 90.8011 37.1121 90.7001 37.1643Z" fill="#3F4553"/>
<path d="M91.9213 39.0886C91.2537 39.2876 90.5958 39.3626 89.9445 39.3332C89.2931 39.3626 88.6353 39.2876 87.9677 39.0886C87.9514 39.0821 87.9383 39.1114 87.9546 39.1179C88.5962 39.392 89.2703 39.5388 89.9445 39.5551C90.6186 39.5388 91.2928 39.392 91.9343 39.1179C91.9506 39.1114 91.9376 39.0853 91.9213 39.0886Z" fill="#3F4553"/>
<path d="M86.883 36.3845C86.8277 36.3584 86.7691 36.3356 86.7104 36.3193C85.9647 36.1268 85.0821 35.7615 84.3037 35.8952C83.7533 35.9898 83.6263 36.6586 83.939 37.0533C84.2744 37.4774 84.9323 37.5981 85.4403 37.6372C85.9516 37.6763 86.7528 37.7318 87.1338 37.3306C87.479 36.9685 87.2445 36.5607 86.883 36.3845Z" fill="#FBAD8B"/>
<path d="M92.9794 36.3845C93.0348 36.3584 93.0934 36.3356 93.1521 36.3193C93.8978 36.1268 94.7804 35.7615 95.5588 35.8952C96.1092 35.9898 96.2362 36.6586 95.9235 37.0533C95.5881 37.4774 94.9302 37.5981 94.4222 37.6372C93.9109 37.6763 93.1097 37.7318 92.7287 37.3306C92.3835 36.9685 92.6212 36.5607 92.9794 36.3845Z" fill="#FBAD8B"/>
<path d="M80.0932 31.5009C79.3213 31.3868 78.4941 31.7064 78.6341 32.6231C78.7449 33.3538 79.5298 34.0813 80.7282 33.8627C80.4026 33.1059 80.1778 32.3099 80.0932 31.5009Z" fill="#F9CDB9"/>
<path d="M79.3473 32.2188C79.559 32.0427 79.8879 31.9644 80.1712 32.01C80.1549 31.922 80.1452 31.8306 80.1321 31.7425C79.7446 31.7067 79.2886 31.8665 79.0672 32.147C78.722 32.5874 78.9825 33.0768 79.3636 33.3769C79.4189 33.4225 79.4971 33.3508 79.445 33.2953C79.1681 33.0017 78.976 32.5287 79.3473 32.2188Z" fill="#F8C4AB"/>
<path d="M80.3244 32.7079C80.1225 32.5252 79.8587 32.4241 79.5558 32.4372C79.4874 32.4404 79.4614 32.5546 79.5395 32.5644C79.8163 32.6035 80.0541 32.7471 80.2006 32.9689C80.0313 33.0602 79.9075 33.2592 80.0801 33.4223C80.2169 33.5528 80.4188 33.5822 80.611 33.5626C80.5035 33.2821 80.4025 32.9982 80.3244 32.7079Z" fill="#F8C4AB"/>
<path d="M80.025 33.6508C80.0217 33.6475 80.0152 33.6508 80.0185 33.654C80.1422 33.9607 80.3181 34.6783 79.8947 34.8251C79.6114 34.923 79.5853 34.5576 79.6276 34.3652C79.6667 34.189 79.7644 34.0063 79.8458 33.8498C79.8458 33.8498 79.6504 33.8073 79.4713 33.716C79.2271 33.9248 79.1391 34.2347 79.1815 34.5609C79.2206 34.8578 79.4094 35.184 79.7449 35.1938C80.0445 35.2035 80.2595 34.9458 80.305 34.6718C80.3572 34.3162 80.2139 33.9411 80.025 33.6508Z" fill="#FDCA27"/>
<path d="M142.345 89.8311C140.515 87.6487 136.555 87.4726 133.956 87.2018C126.143 86.3863 118.132 86.5885 110.315 87.2214C106.424 87.5378 102.551 88.0108 98.6954 88.6339C95.9044 89.0873 92.7877 89.4037 90 90.2975C87.2122 89.4037 84.0955 89.084 81.3045 88.6339C77.4518 88.0075 73.5763 87.5345 69.6845 87.2214C61.8683 86.5885 53.8535 86.3863 46.0439 87.2018C43.4483 87.4726 39.4848 87.6487 37.6546 89.8311C35.8862 91.9384 38.0682 94.4926 39.7486 95.8334C42.0707 97.6863 45.018 98.5997 47.8318 99.3989C51.3654 100.397 54.9804 101.076 58.6149 101.591C74.8822 103.888 83.7145 102.195 92.2178 102.09C92.5435 102.504 92.8496 102.935 93.1297 103.382C101.75 103.437 112.823 102.749 121.382 101.591C125.02 101.098 128.631 100.4 132.165 99.3989C134.982 98.6029 137.926 97.6895 140.248 95.8334C141.928 94.4926 144.111 91.9384 142.345 89.8311Z" fill="#6BA5C0"/>
<path d="M130.803 91.3414C131.074 90.9957 132.712 90.5683 133.357 90.2812C130.318 90.5259 127.267 90.8913 124.235 91.2044C118.467 91.7981 112.693 93.3281 107.228 95.2429C104.613 96.1596 102.004 97.1219 99.4053 98.0875C97.3471 98.8509 95.3116 99.686 93.3804 100.727C93.6767 100.635 93.9731 100.544 94.2695 100.456C97.3503 99.549 109.905 92.7474 133.152 91.9091C132.614 91.7916 130.699 91.4752 130.803 91.3414Z" fill="#96C9D9"/>
<path d="M49.5384 90.8619C49.2681 90.5162 47.6299 90.0888 46.9851 89.8018C50.0236 90.0464 53.0752 90.4118 56.1072 90.7249C61.8749 91.3186 67.649 92.8486 73.1138 94.7634C75.729 95.6801 78.3376 96.6424 80.9365 97.608C82.9948 98.3714 85.0302 99.2065 86.9614 100.247C86.6651 100.156 86.3687 100.064 86.0724 99.9763C82.9915 99.0694 70.4368 92.2679 47.1903 91.4296C47.7244 91.3121 49.6393 90.9957 49.5384 90.8619Z" fill="#96C9D9"/>
<path d="M97.8585 98.0746C96.5493 97.5494 95.1652 97.5364 93.8918 98.0811C91.7163 99.0174 89.0491 97.582 86.7889 97.8397C84.7078 98.0779 83.441 100.449 85.0335 101.963C85.4178 102.328 89.2803 103.731 95.3997 100.874C96.0706 100.56 96.7252 100.381 97.484 100.391C97.6598 100.394 97.8259 100.56 98.0116 100.541C98.4089 100.492 98.7346 100.42 98.956 100.035C99.4771 99.1283 98.6075 98.3747 97.8585 98.0746Z" fill="#FDB597"/>
<path d="M82.5843 102.886C83.6883 102.009 85.0138 101.598 86.3849 101.758C88.7363 102.032 90.8824 99.8916 93.1231 99.4904C95.1846 99.1218 97.0767 101.03 95.9825 102.942C95.7187 103.402 92.4164 105.852 85.7368 104.866C85.004 104.759 84.3266 104.775 83.6037 105C83.4376 105.052 83.3236 105.261 83.1379 105.294C82.7439 105.362 82.4117 105.385 82.0893 105.082C81.3337 104.361 81.9525 103.389 82.5843 102.886Z" fill="#FDBCA0"/>
<path d="M126.967 49.2958C126.214 49.684 125.423 50.1211 124.684 50.5289C125.075 50.2092 127.243 47.9975 128.087 47.4527C128.178 47.394 127.963 46.4969 125.745 48.2715C125.084 48.8 124.303 49.335 123.681 49.9124C124.472 48.4085 125.133 46.8851 126.169 45.5085C126.211 45.453 126.198 45.3911 126.162 45.3487C125.951 45.1823 125.42 45.3715 125.182 45.6259C124.759 46.0761 123.15 47.8181 122.368 49.6547C122.381 49.0251 122.326 48.004 121.88 47.7952C121.6 47.6615 121.134 47.8377 120.834 47.8605C120.245 47.9029 119.473 47.9877 118.923 47.7528C118.841 47.7202 118.636 47.6941 118.711 47.9649C118.962 48.8522 120.199 48.9631 120.968 49.1588C121.228 49.7917 120.496 50.829 120.033 51.1422C119.281 51.6543 118.183 51.152 118.372 50.1472C118.538 49.2632 119.066 48.862 118.6 47.9942C118.447 47.7072 117.789 47.4462 117.936 47.9094C118.314 49.0936 117.229 50.0885 117.089 51.2335C116.978 52.1404 117.457 52.9461 117.939 53.6736C117.91 53.7486 117.887 53.8237 117.861 53.8954C117.206 55.0306 116.698 56.2278 116.33 57.4805C117.17 57.7578 119.639 57.5816 119.629 57.5621C119.639 57.5816 119.926 55.8266 120.583 55.0861C121.303 54.2738 122.209 53.6475 123.075 53.0081C124.895 51.6609 126.745 50.3528 128.621 49.0805C128.729 49.012 128.641 48.4314 126.967 49.2958Z" fill="#FDBCA0"/>
<path d="M53.2314 49.2958C53.9837 49.684 54.775 50.1211 55.5143 50.5289C55.1235 50.2092 52.9545 47.9975 52.111 47.4527C52.0199 47.394 52.2348 46.4969 54.4526 48.2715C55.1137 48.8 55.8954 49.335 56.5174 49.9124C55.726 48.4085 55.0649 46.8851 54.0293 45.5085C53.9869 45.453 53.9999 45.3911 54.0358 45.3487C54.2475 45.1823 54.7783 45.3715 55.016 45.6259C55.4394 46.0761 57.0482 47.8181 57.8299 49.6547C57.8168 49.0251 57.8722 48.004 58.3184 47.7952C58.5984 47.6615 59.0642 47.8377 59.3638 47.8605C59.9532 47.9029 60.7251 47.9877 61.2755 47.7528C61.3569 47.7202 61.5621 47.6941 61.4872 47.9649C61.2364 48.8522 59.9988 48.9631 59.2302 49.1588C58.9697 49.7917 59.7025 50.829 60.1649 51.1422C60.9172 51.6543 62.0148 51.152 61.8259 50.1472C61.6598 49.2632 61.1322 48.862 61.5979 47.9942C61.751 47.7072 62.4088 47.4462 62.2623 47.9094C61.8845 49.0936 62.969 50.0885 63.109 51.2335C63.2197 52.1404 62.741 52.9461 62.259 53.6736C62.2883 53.7486 62.3111 53.8237 62.3372 53.8954C62.9918 55.0306 63.4998 56.2278 63.8678 57.4805C63.0276 57.7578 60.559 57.5816 60.5688 57.5621C60.559 57.5816 60.2724 55.8266 59.6145 55.0861C58.8948 54.2738 57.9894 53.6475 57.1231 53.0081C55.3026 51.6609 53.4528 50.3528 51.5769 49.0805C51.4695 49.012 51.5574 48.4314 53.2314 49.2958Z" fill="#FDBCA0"/>
<path d="M115.451 56.3258C114.23 59.4802 110.088 71.126 108.358 76.0649C107.329 73.4226 104.548 61.9497 102.206 48.6304C101.477 44.4908 96.8164 45.0812 94.3217 45.4955C94.1426 48.2748 91.4493 55.98 90.0033 55.9963C88.5573 55.98 85.6914 48.8196 85.6849 45.4955C83.1935 45.0812 78.5299 44.4908 77.8004 48.6304C75.4555 61.9497 72.6775 73.4258 71.6484 76.0649C69.9158 71.126 65.7765 59.4802 64.5552 56.3258C62.9888 57.0663 61.2562 57.474 59.5269 57.5751C60.8654 61.1407 65.2848 86.3895 71.7982 86.3895C74.6218 86.3895 76.4097 83.3851 79.2887 72.2547C79.432 74.1141 79.4808 77.6862 79.4092 81.4409C79.3571 84.1452 77.491 87.2703 74.9931 86.6668C74.4883 86.5461 73.8304 86.9278 74.4557 87.6063C74.625 87.7922 74.8432 87.9292 75.068 88.0336C79.0575 89.9257 79.2138 92.7539 81.5684 94.4013C82.9916 95.3963 84.7437 95.7094 86.4144 96.0487C88.2251 96.414 90.0912 96.6881 91.9346 96.4108C94.9991 95.9508 97.3798 93.8989 99.9168 92.294C101.333 91.3969 102.773 90.6792 104.437 90.4346C108.72 89.805 108.436 86.7777 107.541 86.8397C104.541 87.0452 100.591 83.2155 100.568 79.0008C100.552 76.1954 100.607 73.7064 100.718 72.2547C103.597 83.3851 105.385 86.3895 108.208 86.3895C114.722 86.3895 119.141 61.1407 120.48 57.5751C118.75 57.474 117.018 57.063 115.451 56.3258Z" fill="#F2EDE4"/>
<path d="M98.2202 67.3517C98.1877 67.3745 98.1616 67.3973 98.1355 67.4202C97.6047 67.9388 97.1911 68.5619 96.67 69.0904C96.1489 69.6156 95.4748 70.056 94.7355 70.0527C92.9606 70.0429 92.0715 67.9095 91.0033 66.8232C89.3619 65.1595 87.7694 68.9501 86.5481 69.6939C85.2943 70.4572 84.4442 69.9972 83.5193 69.0936C82.9527 68.5391 82.4707 67.916 81.9463 67.3223C81.8096 67.1657 81.4969 67.3321 81.5816 67.5343C82.1938 69.0088 83.578 71.4554 85.405 71.4946C86.5253 71.5174 87.4437 70.8748 88.1797 70.0853C88.5412 69.6971 89.5378 67.6126 90.1859 67.8867C90.3064 67.9388 90.391 68.0465 90.4725 68.1509C90.7949 68.575 91.0945 69.0219 91.4397 69.4264C91.6188 69.6352 92.1366 69.9809 92.1366 70.268C92.8694 71.015 93.8757 71.6022 94.9146 71.475C95.9763 71.3445 96.8166 70.5127 97.4321 69.6352C97.8685 69.0121 98.2365 68.3401 98.5264 67.6355C98.5687 67.5343 98.6045 67.4071 98.5296 67.3256C98.4482 67.2407 98.3244 67.2799 98.2202 67.3517Z" fill="#D9C9AC"/>
<g clip-path="url(#clip2)">
<path d="M157.99 84.2946L169.135 80.5589L163.548 64.1592L152.403 67.8949C151.966 68.0406 151.729 68.5101 151.88 68.9431L156.933 83.7725C157.08 84.2056 157.553 84.4403 157.99 84.2946Z" fill="#3F4553"/>
<path d="M157.998 83.9709L169.421 80.1422L164.038 64.3455L152.615 68.1742C152.333 68.2673 152.182 68.5709 152.276 68.8542L157.312 83.635C157.41 83.9143 157.716 84.064 157.998 83.9709Z" fill="#DDDDE3"/>
<path d="M158.239 83.8899L169.662 80.0611L164.279 64.2644L152.856 68.0932C152.574 68.1863 152.423 68.4898 152.517 68.7731L157.553 83.5539C157.651 83.8332 157.957 83.987 158.239 83.8899Z" fill="#E2E5FF"/>
<path d="M158.855 84.0032L170 80.2675L164.413 63.8718L153.268 67.6075C152.831 67.7532 152.594 68.2227 152.745 68.6558L157.798 83.4852C157.945 83.9182 158.418 84.1489 158.855 84.0032Z" fill="#4E5567"/>
<path d="M163.789 64.0813L163.549 64.1616L169.136 80.5615L169.376 80.4812L163.789 64.0813Z" fill="#3F4553"/>
<path d="M165.381 76.8919L165.63 76.3658L166.152 76.6329L162.071 64.6568C161.997 64.4464 161.814 64.4626 161.602 64.5354C161.389 64.6083 161.23 64.7054 161.304 64.9159L165.381 76.8919Z" fill="#93BFA8"/>
<path d="M140.338 68.4295L147.839 59.6091L146.323 58.341L138.822 67.1614L140.338 68.4295Z" fill="#3F4553"/>
<path d="M138.82 67.1584L140.335 68.4253L138.147 69.6192C138.074 69.6597 137.976 69.5747 138 69.4978L138.82 67.1584Z" fill="#F2EDE4"/>
<path d="M138.151 69.6231L138.743 69.2993L138.229 68.8662L138.008 69.4976C137.98 69.5745 138.078 69.6595 138.151 69.6231Z" fill="#3F4553"/>
<path d="M139.836 68.0093L147.337 59.189L146.822 58.7584L139.321 67.5788L139.836 68.0093Z" fill="#4E5567"/>
</g>
<path d="M22.6207 36.7458L22.2715 34.7648L20.2463 35.1099C19.925 34.185 19.4013 33.3705 18.7239 32.7078L19.9111 31.0443L18.249 29.8916L17.0688 31.5482C16.2168 31.1341 15.2671 30.9063 14.2754 30.9132L13.9193 28.9045L11.915 29.2497L12.2642 31.2514C11.3284 31.5689 10.5043 32.0866 9.83392 32.7561L8.15091 31.5827L6.98467 33.2255L8.6607 34.392C8.24169 35.2341 8.01124 36.1729 8.01822 37.153L6 37.4982L6.34917 39.4792L8.37438 39.1341C8.69562 40.059 9.21938 40.8735 9.89677 41.5361L8.70959 43.1996L10.3717 44.3524L11.5519 42.6958C12.4038 43.1099 13.3536 43.3377 14.3452 43.3308L14.7014 45.3394L16.7057 44.9943L16.3565 42.9926C17.2923 42.6751 18.1163 42.1574 18.7867 41.4878L20.4697 42.6612L21.636 41.0184L19.96 39.8519C20.379 39.0098 20.6094 38.0711 20.6024 37.0909L22.6207 36.7458ZM14.6316 38.9615C13.605 39.141 12.6273 38.4576 12.4457 37.4429C12.2642 36.4283 12.9555 35.4619 13.9821 35.2825C15.0087 35.103 15.9864 35.7863 16.1679 36.801C16.3495 37.8157 15.6651 38.782 14.6316 38.9615Z" fill="#6BA5C0"/>
<path d="M41.7278 32.7492V30.2574H39.1788C38.9903 29.0564 38.5224 27.952 37.838 26.9994L39.6467 25.2117L37.8659 23.4515L36.0642 25.2324C35.1074 24.549 33.9971 24.0727 32.782 23.8726V21.3394H30.2609V23.8588C29.0458 24.0451 27.9215 24.5076 26.9647 25.1841L25.156 23.3963L23.3752 25.1564L25.177 26.9373C24.4856 27.8829 24.0037 28.9804 23.8012 30.1815H21.2383V32.6733H23.7872C23.9758 33.8743 24.4437 34.9787 25.1281 35.9313L23.3194 37.719L25.1001 39.4792L26.9019 37.6983C27.8586 38.3817 28.969 38.8579 30.1841 39.0581V41.5913H32.7051V39.0719C33.9203 38.8855 35.0376 38.4231 36.0013 37.7466L37.81 39.5344L39.5908 37.7742L37.7891 35.9934C38.4805 35.0477 38.9623 33.9502 39.1648 32.7492H41.7278ZM31.483 33.7846C30.1911 33.7846 29.1366 32.7492 29.1366 31.4653C29.1366 30.1884 30.1841 29.1461 31.483 29.1461C32.775 29.1461 33.8295 30.1815 33.8295 31.4653C33.8225 32.7423 32.775 33.7846 31.483 33.7846Z" fill="#96C9D9"/>
<path d="M35.8076 64.9767C34.9107 61.1852 31.1193 58.8468 27.3482 59.7473C23.5721 60.6479 21.2432 64.4548 22.1401 68.2412C22.772 70.902 24.8308 72.8463 27.3075 73.4552C27.4502 73.8339 27.7152 76.1313 28.1891 76.8681C28.4031 77.2007 28.6732 77.257 29.086 77.17C29.4172 78.352 30.8033 79.4368 31.9449 79.3293C32.7449 79.2526 33.3259 78.7 33.5858 77.958C33.7896 77.3798 33.9527 76.7146 34.0546 76.0699C34.605 76.0546 34.87 75.9983 34.8445 75.4815C34.7986 74.5861 33.8304 72.1198 33.7947 71.7411C35.5528 70.0679 36.409 67.5198 35.8076 64.9767Z" fill="#FDFFFC"/>
<path d="M32.1538 64.721C32.0468 64.3373 31.6697 64.0814 31.2722 64.1787C30.9002 64.2657 30.6199 64.6801 30.732 65.0639C30.7982 65.2992 30.9715 65.4886 31.1804 65.5756C31.0276 66.5682 30.8339 67.5455 30.7524 68.5484C30.6759 69.4797 30.5995 70.3905 30.3956 71.2961C29.2898 69.6332 28.1891 67.9753 26.9711 66.3942C27.3075 66.0719 27.0527 65.3504 26.487 65.4835C25.8194 65.6421 26.064 66.6859 26.7367 66.5273C26.7418 66.5273 26.7469 66.5222 26.752 66.517C28.0158 68.313 29.2541 70.1346 30.2835 72.079C30.3956 72.2888 30.7014 72.2427 30.7728 72.0278C31.1091 71.0249 31.2059 70.0016 31.2773 68.9526C31.3588 67.8218 31.5779 66.7115 31.6697 65.5858C32.0111 65.4732 32.2557 65.0843 32.1538 64.721Z" fill="#AEB4FC"/>
<path d="M23.6685 58.54C22.2467 57.8339 20.8198 57.1226 19.398 56.4114C19.1024 56.2681 18.8323 56.6928 19.1279 56.8514C20.514 57.619 21.9052 58.3814 23.2914 59.1489C23.699 59.374 24.0761 58.7447 23.6685 58.54Z" fill="#808AFF"/>
<path d="M26.3441 53.1161C26.2269 52.8552 25.8906 53.0445 25.916 53.2799C26.0893 54.7535 26.6346 56.2579 27.0626 57.6803C27.1697 58.0283 27.7047 57.9106 27.6181 57.5473C27.2665 56.0839 26.9607 54.4926 26.3441 53.1161Z" fill="#808AFF"/>
<path d="M32.9692 52.6863C32.6023 53.0087 32.378 53.5204 32.1487 53.9502C31.9092 54.4004 31.6952 54.861 31.4913 55.3266C31.3282 55.7052 31.9551 55.9048 32.113 55.5159C32.3016 55.04 32.5054 54.5795 32.7398 54.1241C32.9386 53.7301 33.2291 53.3464 33.3463 52.9217C33.4125 52.6914 33.1373 52.5328 32.9692 52.6863Z" fill="#808AFF"/>
</g>
<defs>
<clipPath id="clip0">
<rect width="14" height="17" fill="white" transform="translate(153 24.3394)"/>
</clipPath>
<clipPath id="clip1">
<rect width="69" height="12" fill="white" transform="translate(57 117.339)"/>
</clipPath>
<clipPath id="clip2">
<rect width="32" height="26" fill="white" transform="translate(138 58.3394)"/>
</clipPath>
</defs>
</svg>
