<svg width="414" height="756" viewBox="0 0 414 756" fill="none" xmlns="http://www.w3.org/2000/svg">
<g opacity="0.4">
<mask id="mask0" mask-type="alpha" maskUnits="userSpaceOnUse" x="-409" y="0" width="882" height="756">
<rect x="-409" width="882" height="756" rx="10" fill="#FA6E5A"/>
</mask>
<g mask="url(#mask0)">
<g clip-path="url(#clip0)">
<path d="M374.708 136.3H357.739V231.5H374.708V136.3Z" fill="#96C9D9"/>
<path d="M401.304 168.3H384.335V231.499H401.304V168.3Z" fill="#96C9D9"/>
<path d="M427.933 198.46H410.963V231.501H427.933V198.46Z" fill="#96C9D9"/>
</g>
<g clip-path="url(#clip1)">
<path d="M41.6693 622.1C176.367 622.1 285.561 606.98 285.561 588.329C285.561 569.678 176.367 554.558 41.6693 554.558C-93.0283 554.558 -202.222 569.678 -202.222 588.329C-202.222 606.98 -93.0283 622.1 41.6693 622.1Z" fill="#A7B0B5"/>
</g>
<path d="M20.3818 254.774C20.3818 254.774 13.6088 338.441 41.664 337.181C71.7592 335.811 63.6642 254.774 63.6642 254.774C59.7309 241.713 58.1641 233.967 59.9268 220.266H23.3848C25.1475 233.967 24.2988 241.713 20.3818 254.774Z" fill="#FDBCA0"/>
<path d="M24.1195 236.451C28.2649 237.839 32.443 239.118 36.768 239.52C40.8644 239.903 45.0752 239.611 49.1553 239.118C52.55 238.698 56.1732 238.022 59.5679 236.761C59.0293 231.792 59.1109 226.677 59.9433 220.247H23.4014C24.2011 226.55 24.4459 231.591 24.1195 236.451Z" fill="#F0A38B"/>
<path d="M41.6635 231.684C52.0924 231.684 62.1296 227.08 69.4739 218.787C78.2218 208.922 85.0765 197.925 87.0839 185.009C89.6626 168.422 84.6521 151.853 73.7173 138.517H9.59344C-1.3414 151.835 -6.35184 168.422 -3.77318 185.009C-1.76574 197.925 5.10527 208.922 13.8368 218.787C21.1974 227.062 31.2346 231.684 41.6635 231.684Z" fill="#FDBCA0"/>
<path d="M44.8467 264.53C43.5247 266.156 42.2843 267.928 41.1093 269.7C39.6894 268.603 38.5633 267.27 37.3229 265.9C37.2087 265.772 36.9802 265.9 37.0291 266.083C37.7309 268.238 39.1998 269.992 40.7012 271.49C41.0277 271.8 41.4846 271.837 41.8111 271.49C43.3942 269.754 44.9446 267.727 46.1686 265.644C46.6909 264.785 45.4832 263.744 44.8467 264.53Z" fill="#DF8370"/>
<path d="M80.1325 261.333C70.3891 262.265 60.7763 264.037 51.294 266.74C50.7228 266.905 50.9676 267.873 51.5388 267.727C60.9721 265.388 70.5034 263.799 80.1325 263.068C81.1444 262.995 81.1281 261.242 80.1325 261.333Z" fill="#DF8370"/>
<path d="M3.18014 261.333C12.9236 262.264 22.5364 264.036 32.0187 266.74C32.5899 266.905 32.3451 267.873 31.7739 267.727C22.3406 265.388 12.8093 263.799 3.18014 263.068C2.18458 262.995 2.18458 261.241 3.18014 261.333Z" fill="#DF8370"/>
<path d="M4.86068 110.933C-8.76707 119.665 -18.3636 133.421 -18.5268 151.908C-18.69 172.752 3.99568 205.945 3.68559 205.123C-3.85456 184.845 -5.82936 156.932 12.9884 142.957C14.8652 141.569 17.2154 140.765 18.8965 139.139C18.8475 128.123 13.4127 117.455 4.86068 110.933Z" fill="#3F4553"/>
<path d="M77.1272 110.933C90.7549 119.665 100.351 133.421 100.515 151.908C100.678 172.752 89.5309 191.294 78.4329 207.041C81.2563 200.172 87.8009 156.914 68.9832 142.957C67.1063 141.569 64.7562 140.765 63.0751 139.139C63.1404 128.123 68.5915 117.455 77.1272 110.933Z" fill="#424495"/>
<path d="M272.798 99.8997C262.385 94.1088 250.226 92.8665 238.9 95.4423C233.416 96.6845 228.226 98.8584 223.281 101.8C220.001 103.736 216.671 106.513 212.852 106.841C208.217 107.225 204.153 103.846 200.71 100.85C190.003 91.533 179.117 83.3672 165.343 81.1203C158.684 80.0242 151.242 80.828 146.084 85.395C140.796 77.5763 132.914 72.0046 124.231 69.9586C112.741 67.2549 101.823 71.1094 92.7974 78.855C87.7054 76.0601 78.7943 72.0411 77.6682 71.694C43.7212 61.2448 -2.62943 87.7515 3.37657 132.453C8.5339 170.871 51.9958 188.627 82.1074 180.735C88.603 194.491 104.173 197.688 116.169 190.527C117.083 191.312 117.997 192.098 118.927 192.865C138.071 208.576 160.349 218.787 184.405 214.147C193.545 212.375 202.097 208.685 209.963 203.387C217.438 209.672 227.28 211.663 236.338 206.803C243.078 203.205 247.599 196.555 249.215 189.029C249.329 189.029 249.443 189.029 249.557 189.029C269.566 188.755 290.783 177.63 295.892 154.155C300.543 132.818 290.196 109.563 272.798 99.8997Z" fill="#4E5567"/>
<path d="M181.826 92.94C188.403 98.9501 192.304 107.189 188.207 116.268C184.878 123.667 178.888 129.056 174.53 135.614C169.422 143.286 168.541 153.133 176.913 158.741C185.155 164.258 195.486 157.389 202.357 152.183C210.844 145.734 219.951 127.083 227.262 119.081C259.741 83.5503 291.99 121.529 292.121 121.657C287.91 112.414 281.186 104.577 272.797 99.9001C262.385 94.1091 250.226 92.8669 238.899 95.4427C233.415 96.6849 228.225 98.8588 223.28 101.8C220 103.736 216.67 106.513 212.851 106.842C208.216 107.225 204.152 103.846 200.709 100.85C190.002 91.5333 179.117 83.3676 165.342 81.1206C158.83 80.0611 151.567 80.8283 146.426 85.1396C157.639 80.262 172.833 84.7011 181.826 92.94Z" fill="#3F4553"/>
<path d="M268.325 183.001C260.377 184.042 252.934 183.549 245.623 179.914C242.473 189.066 236.026 198.309 226.919 199.753C220.799 200.721 213.569 198.583 212.312 191.331C169.291 230.534 121.063 186.801 116.412 178.598C102.997 188.39 86.0883 176.443 81.0779 161.152C70.8612 165.592 59.0777 164.221 49.1547 159.454C30.6634 150.594 20.4141 126.169 26.877 104.613C32.2628 86.6924 46.6087 74.4346 62.505 69.4475C31.5121 69.2465 -1.76572 94.164 3.37528 132.454C8.53261 170.871 51.9782 188.627 82.1061 180.736C88.6017 194.491 104.172 197.688 116.167 190.527C117.081 191.313 117.995 192.098 118.925 192.866C138.07 208.576 160.347 218.788 184.404 214.148C193.543 212.376 202.096 208.686 209.962 203.388C217.437 209.672 227.278 211.663 236.336 206.804C243.077 203.205 247.597 196.556 249.213 189.029C249.327 189.029 249.442 189.029 249.556 189.029C259.104 188.901 268.912 186.289 277.138 181.064C274.249 182.033 271.246 182.617 268.325 183.001Z" fill="#3F4553"/>
<path d="M30.2062 194.802C24.494 195.861 15.2075 196.208 9.93598 189.888C8.89146 188.627 7.47155 190.052 8.7772 191.313C8.98937 191.514 9.20154 191.696 9.41371 191.879C8.79352 192.08 8.1407 192.171 7.45523 192.116C7.43891 192.116 7.43891 192.135 7.45523 192.153C8.28759 192.464 9.13627 192.555 9.96863 192.372C9.98495 192.39 10.0013 192.409 10.0176 192.409C9.29948 192.938 8.43448 193.158 7.5858 193.468C7.56948 193.468 7.56948 193.487 7.5858 193.505C8.63032 193.614 9.7238 193.468 10.5888 192.847C10.6867 192.92 10.7847 192.957 10.8826 193.03C10.2298 193.596 9.49532 194.016 8.66297 194.236C8.58137 194.254 8.59768 194.4 8.67928 194.4C9.74012 194.455 10.752 194.162 11.6007 193.505C11.7802 193.614 11.9761 193.706 12.1556 193.815C11.5517 194.309 10.9315 194.747 10.2297 195.112C10.1645 195.149 10.1971 195.277 10.2624 195.277C11.1927 195.313 12.0087 194.784 12.7431 194.162C12.9716 194.29 13.2001 194.382 13.4449 194.491C13.1348 194.838 12.7758 195.167 12.433 195.496C12.3841 195.551 12.433 195.624 12.4983 195.624C13.0859 195.459 13.6244 195.185 14.0814 194.802C19.3203 197.213 25.4569 197.286 30.7122 195.167C31.2671 194.911 30.8427 194.692 30.2062 194.802Z" fill="#3F4553"/>
<path d="M53.6588 194.802C59.3711 195.861 68.6575 196.208 73.9291 189.888C74.9736 188.627 76.3935 190.052 75.0878 191.313C74.8757 191.514 74.6635 191.696 74.4513 191.879C75.0879 192.08 75.7243 192.171 76.4098 192.116C76.4261 192.116 76.4261 192.135 76.4098 192.153C75.5775 192.464 74.7288 192.555 73.8964 192.372C73.8801 192.39 73.8638 192.409 73.8475 192.409C74.5656 192.938 75.4306 193.158 76.2792 193.468C76.2956 193.468 76.2956 193.487 76.2792 193.505C75.2347 193.614 74.1413 193.468 73.2763 192.847C73.1783 192.92 73.0804 192.957 72.9825 193.03C73.6353 193.596 74.3698 194.016 75.2021 194.236C75.2837 194.254 75.2674 194.4 75.1858 194.4C74.1249 194.455 73.1131 194.162 72.2644 193.505C72.0849 193.614 71.889 193.706 71.7095 193.815C72.3133 194.309 72.9335 194.747 73.6353 195.112C73.7006 195.149 73.6679 195.277 73.6027 195.277C72.6724 195.313 71.8564 194.784 71.1219 194.162C70.8935 194.29 70.6649 194.382 70.4365 194.491C70.7465 194.838 71.1056 195.167 71.4484 195.496C71.4973 195.551 71.4483 195.624 71.3831 195.624C70.7955 195.459 70.2569 195.185 69.7999 194.802C64.561 197.213 58.4245 197.286 53.1529 195.167C52.6143 194.911 53.0223 194.692 53.6588 194.802Z" fill="#3F4553"/>
<path d="M45.5312 208.12C42.8546 209.672 40.1944 210.293 37.4362 208.43C37.2403 208.302 37.0119 208.613 37.1914 208.795C39.5579 211.152 43.7686 211.755 46.1351 208.996C46.5268 208.521 46.0372 207.827 45.5312 208.12Z" fill="#3F4553"/>
<path d="M51.6512 218.896C48.3054 220.011 45.0087 220.431 41.7445 220.266C38.4804 220.431 35.1836 220.011 31.8379 218.896C31.7563 218.86 31.691 219.024 31.7726 219.061C34.9878 220.595 38.3662 221.417 41.7445 221.509C45.1229 221.417 48.5013 220.595 51.7164 219.061C51.798 219.024 51.7328 218.878 51.6512 218.896Z" fill="#3F4553"/>
<path d="M26.4025 203.753C26.1251 203.607 25.8313 203.479 25.5375 203.388C21.8001 202.31 17.3772 200.264 13.4766 201.013C10.7184 201.543 10.0819 205.288 11.6487 207.498C13.3297 209.873 16.6264 210.549 19.1725 210.768C21.7348 210.987 25.7497 211.298 27.6592 209.051C29.3892 207.023 28.2141 204.74 26.4025 203.753Z" fill="#FBAD8B"/>
<path d="M56.9539 203.753C57.2313 203.607 57.5251 203.479 57.8189 203.388C61.5563 202.31 65.9792 200.264 69.8798 201.013C72.638 201.543 73.2745 205.288 71.7077 207.498C70.0267 209.873 66.7299 210.549 64.1839 210.768C61.6216 210.987 57.6067 211.298 55.6972 209.051C53.9672 207.023 55.1586 204.74 56.9539 203.753Z" fill="#FBAD8B"/>
<path d="M304.344 503.054C295.172 490.833 275.326 489.847 262.302 488.33C223.149 483.763 183 484.896 143.831 488.44C124.328 490.212 104.922 492.861 85.5987 496.35C71.6119 498.889 55.993 500.661 42.0226 505.666C28.0521 500.661 12.4332 498.871 -1.5536 496.35C-20.8609 492.842 -40.2825 490.194 -59.7857 488.44C-98.9552 484.896 -139.12 483.763 -178.257 488.33C-191.265 489.847 -211.127 490.833 -220.299 503.054C-229.161 514.855 -218.227 529.159 -209.805 536.667C-198.168 547.043 -183.398 552.158 -169.297 556.634C-151.589 562.224 -133.473 566.024 -115.26 568.91C-33.7379 581.771 10.5237 572.29 53.1369 571.705C54.769 574.025 56.3031 576.436 57.7067 578.939C100.907 579.25 156.398 575.395 199.288 568.91C217.519 566.152 235.618 562.242 253.326 556.634C267.443 552.177 282.197 547.062 293.834 536.667C302.255 529.159 313.19 514.855 304.344 503.054Z" fill="#6BA5C0"/>
<path d="M246.504 511.513C247.858 509.577 256.068 507.184 259.299 505.576C244.072 506.946 228.779 508.992 213.585 510.746C184.681 514.071 155.744 522.638 128.358 533.361C115.253 538.495 102.18 543.884 89.1562 549.291C78.8416 553.566 68.6412 558.242 58.963 564.07C60.4482 563.558 61.9334 563.047 63.4186 562.554C78.8579 557.475 141.774 519.387 258.271 514.692C255.578 514.034 245.981 512.262 246.504 511.513Z" fill="#96C9D9"/>
<path d="M-160.745 508.827C-162.1 506.89 -170.309 504.497 -173.541 502.89C-158.313 504.26 -143.021 506.306 -127.826 508.06C-98.9225 511.384 -69.986 519.952 -42.5999 530.675C-29.4945 535.809 -16.4216 541.198 -3.39774 546.605C6.91692 550.88 17.1173 555.556 26.7955 561.384C25.3103 560.872 23.8251 560.361 22.3399 559.867C6.90057 554.789 -56.0155 516.7 -172.512 512.005C-169.836 511.348 -160.239 509.576 -160.745 508.827Z" fill="#96C9D9"/>
<path d="M81.4045 549.218C74.8436 546.277 67.9074 546.204 61.526 549.255C50.6238 554.498 37.2572 546.46 25.9307 547.903C15.5018 549.236 9.15304 562.517 17.1338 570.993C19.0597 573.039 38.416 580.895 69.0825 564.892C72.4445 563.138 75.725 562.134 79.5277 562.188C80.409 562.207 81.2413 563.138 82.1716 563.029C84.1627 562.755 85.7948 562.353 86.9046 560.197C89.5159 555.119 85.1583 550.899 81.4045 549.218Z" fill="#FDB597"/>
<path d="M4.85989 576.163C10.3926 571.249 17.0351 568.947 23.9061 569.843C35.6896 571.377 46.4449 559.393 57.6735 557.146C68.0045 555.082 77.4868 565.769 72.0031 576.474C70.6811 579.05 54.1319 592.769 20.6583 587.252C16.9861 586.649 13.5914 586.74 9.96826 588.001C9.13591 588.293 8.56467 589.462 7.6344 589.645C5.6596 590.029 3.99489 590.156 2.37914 588.457C-1.40725 584.42 1.69368 578.976 4.85989 576.163Z" fill="#FDBCA0"/>
<path d="M227.276 276.057C223.506 278.231 219.54 280.679 215.835 282.962C217.794 281.172 228.663 268.786 232.891 265.736C233.347 265.407 232.27 260.383 221.156 270.321C217.843 273.28 213.926 276.276 210.809 279.51C214.775 271.088 218.088 262.557 223.278 254.848C223.49 254.537 223.425 254.19 223.245 253.953C222.184 253.021 219.524 254.081 218.332 255.506C216.211 258.027 208.148 267.782 204.231 278.067C204.297 274.541 204.019 268.823 201.783 267.654C200.38 266.905 198.046 267.891 196.544 268.019C193.59 268.257 189.722 268.732 186.964 267.416C186.556 267.234 185.528 267.088 185.903 268.604C187.16 273.573 193.362 274.194 197.214 275.29C198.519 278.834 194.847 284.643 192.53 286.397C188.76 289.265 183.259 286.452 184.206 280.825C185.038 275.874 187.682 273.627 185.349 268.768C184.581 267.161 181.285 265.699 182.019 268.293C183.912 274.924 178.478 280.496 177.776 286.908C177.221 291.987 179.62 296.499 182.035 300.573C181.889 300.993 181.774 301.413 181.644 301.815C178.363 308.172 175.817 314.876 173.973 321.891C178.184 323.444 190.555 322.458 190.506 322.348C190.555 322.458 191.991 312.629 195.288 308.483C198.895 303.934 203.432 300.426 207.773 296.846C216.896 289.301 226.166 281.976 235.567 274.851C236.106 274.468 235.665 271.216 227.276 276.057Z" fill="#FDBCA0"/>
<path d="M169.569 315.425C163.449 333.09 142.689 398.306 134.022 425.964C128.865 411.167 114.927 346.919 103.193 272.331C99.5369 249.149 76.1821 252.455 63.6804 254.775C62.7828 270.339 49.2856 313.488 42.0393 313.58C34.7929 313.488 20.4308 273.39 20.3981 254.775C7.91281 252.455 -15.4584 249.149 -19.1142 272.331C-30.8651 346.919 -44.7866 411.185 -49.9439 425.964C-58.6265 398.306 -79.37 333.09 -85.4902 315.425C-93.3405 319.571 -102.023 321.855 -110.689 322.421C-103.982 342.388 -81.8344 483.782 -49.1931 483.782C-35.0431 483.782 -26.0831 466.957 -11.6556 404.627C-10.9375 415.04 -10.6927 435.043 -11.0518 456.069C-11.3129 471.213 -20.6646 488.714 -33.1826 485.335C-35.7123 484.659 -39.009 486.796 -35.8755 490.596C-35.0268 491.637 -33.9333 492.404 -32.8072 492.989C-12.8144 503.584 -12.031 519.422 -0.231186 528.648C6.90093 534.22 15.6814 535.973 24.0539 537.873C33.1282 539.919 42.4799 541.454 51.7174 539.901C67.0751 537.325 79.0055 525.835 91.7193 516.847C98.8188 511.823 106.033 507.804 114.372 506.434C135.834 502.908 134.414 485.956 129.926 486.303C114.895 487.454 95.0977 466.007 94.9835 442.405C94.9019 426.695 95.1793 412.756 95.7342 404.627C110.162 466.957 119.122 483.782 133.272 483.782C165.913 483.782 188.06 342.388 194.768 322.421C186.102 321.855 177.419 319.553 169.569 315.425Z" fill="#F2EDE4"/>
<path d="M83.2172 377.17C83.054 377.298 82.9235 377.426 82.7929 377.554C80.1326 380.458 78.0599 383.947 75.4486 386.907C72.8373 389.848 69.4589 392.314 65.7541 392.296C56.8594 392.241 52.4038 380.294 47.0506 374.211C38.825 364.894 30.8442 386.121 24.724 390.286C18.4405 394.561 14.1808 391.985 9.54575 386.925C6.70595 383.819 4.29049 380.33 1.66287 377.005C0.977398 376.129 -0.589377 377.06 -0.16504 378.193C2.90324 386.45 9.83953 400.151 18.9954 400.37C24.6097 400.498 29.2121 396.899 32.9006 392.478C34.7122 390.305 39.7063 378.631 42.9541 380.166C43.558 380.458 43.9824 381.061 44.3904 381.646C46.0061 384.02 47.5076 386.523 49.2376 388.788C50.1352 389.957 52.7302 391.894 52.7302 393.501C56.4024 397.685 61.4455 400.973 66.6518 400.261C71.9723 399.53 76.183 394.871 79.2676 389.957C81.4546 386.468 83.2988 382.705 84.7514 378.759C84.9635 378.193 85.143 377.48 84.7677 377.024C84.3597 376.549 83.7395 376.768 83.2172 377.17Z" fill="#D9C9AC"/>
<g clip-path="url(#clip2)">
<path d="M382.744 472.05L438.598 451.13L410.6 359.292L354.745 380.211C352.557 381.027 351.371 383.656 352.128 386.082L377.447 469.126C378.183 471.551 380.556 472.866 382.744 472.05Z" fill="#3F4553"/>
<path d="M382.784 470.237L440.029 448.795L413.053 360.334L355.808 381.775C354.397 382.296 353.64 383.996 354.111 385.583L379.348 468.355C379.839 469.919 381.373 470.758 382.784 470.237Z" fill="#DDDDE3"/>
<path d="M383.992 469.784L441.237 448.343L414.261 359.881L357.016 381.323C355.604 381.844 354.848 383.544 355.318 385.13L380.556 467.903C381.047 469.467 382.58 470.328 383.992 469.784Z" fill="#E2E5FF"/>
<path d="M387.079 470.418L442.934 449.498L414.935 357.682L359.081 378.602C356.892 379.418 355.706 382.047 356.463 384.472L381.782 467.517C382.519 469.942 384.891 471.234 387.079 470.418Z" fill="#4E5567"/>
<path d="M411.804 358.855L410.603 359.305L438.603 451.144L439.804 450.695L411.804 358.855Z" fill="#3F4553"/>
<path d="M419.782 430.595L421.03 427.649L423.648 429.145L403.196 362.079C402.828 360.901 401.907 360.991 400.844 361.399C399.78 361.807 398.983 362.351 399.351 363.53L419.782 430.595Z" fill="#93BFA8"/>
<path d="M294.286 383.205L331.877 333.812L324.28 326.71L286.688 376.104L294.286 383.205Z" fill="#3F4553"/>
<path d="M286.68 376.087L294.267 383.182L283.305 389.868C282.937 390.094 282.446 389.618 282.569 389.188L286.68 376.087Z" fill="#F2EDE4"/>
<path d="M283.327 389.89L286.293 388.076L283.716 385.651L282.611 389.187C282.468 389.618 282.959 390.094 283.327 389.89Z" fill="#3F4553"/>
<path d="M291.769 380.853L329.36 331.459L326.781 329.048L289.189 378.442L291.769 380.853Z" fill="#4E5567"/>
</g>
</g>
</g>
<defs>
<clipPath id="clip0">
<rect width="70.1591" height="95.2" fill="white" transform="translate(357.739 136.3)"/>
</clipPath>
<clipPath id="clip1">
<rect width="487.783" height="67.5423" fill="white" transform="translate(-202.222 554.558)"/>
</clipPath>
<clipPath id="clip2">
<rect width="160.364" height="145.6" fill="white" transform="translate(282.568 326.7)"/>
</clipPath>
</defs>
</svg>
