<svg width="176" height="46" viewBox="0 0 176 46" fill="none" xmlns="http://www.w3.org/2000/svg">
<rect width="176" height="46" rx="10" fill="#96C9D9"/>
<path d="M59.1885 31.16C57.8152 31.16 56.6152 30.8667 55.5885 30.28C54.5752 29.68 53.7952 28.8333 53.2485 27.74C52.7018 26.6467 52.4285 25.3533 52.4285 23.86C52.4285 22.38 52.7018 21.0933 53.2485 20C53.7952 18.9067 54.5752 18.0667 55.5885 17.48C56.6152 16.8933 57.8152 16.6 59.1885 16.6C60.1619 16.6 61.0619 16.7533 61.8885 17.06C62.7285 17.3533 63.4352 17.7867 64.0085 18.36L63.2885 19.88C62.6218 19.3333 61.9619 18.94 61.3085 18.7C60.6685 18.4467 59.9685 18.32 59.2085 18.32C57.7285 18.32 56.5819 18.8 55.7685 19.76C54.9685 20.72 54.5685 22.0867 54.5685 23.86C54.5685 25.6467 54.9685 27.0267 55.7685 28C56.5819 28.96 57.7285 29.44 59.2085 29.44C59.9685 29.44 60.6685 29.32 61.3085 29.08C61.9619 28.8267 62.6218 28.4267 63.2885 27.88L64.0085 29.4C63.4352 29.9733 62.7285 30.4133 61.8885 30.72C61.0619 31.0133 60.1619 31.16 59.1885 31.16ZM70.5651 31.14C69.5784 31.14 68.7117 30.9267 67.9651 30.5C67.2184 30.0733 66.6384 29.4667 66.2251 28.68C65.8251 27.8933 65.6251 26.9733 65.6251 25.92C65.6251 24.8667 65.8251 23.9467 66.2251 23.16C66.6384 22.36 67.2184 21.7467 67.9651 21.32C68.7117 20.8933 69.5784 20.68 70.5651 20.68C71.5384 20.68 72.3984 20.8933 73.1451 21.32C73.8917 21.7467 74.4651 22.36 74.8651 23.16C75.2784 23.9467 75.4851 24.8667 75.4851 25.92C75.4851 26.9733 75.2784 27.8933 74.8651 28.68C74.4651 29.4667 73.8917 30.0733 73.1451 30.5C72.3984 30.9267 71.5384 31.14 70.5651 31.14ZM70.5451 29.54C71.4784 29.54 72.1917 29.2333 72.6851 28.62C73.1784 28.0067 73.4251 27.1067 73.4251 25.92C73.4251 24.76 73.1717 23.8667 72.6651 23.24C72.1717 22.6133 71.4717 22.3 70.5651 22.3C69.6451 22.3 68.9317 22.6133 68.4251 23.24C67.9184 23.8667 67.6651 24.76 67.6651 25.92C67.6651 27.1067 67.9117 28.0067 68.4051 28.62C68.9117 29.2333 69.6251 29.54 70.5451 29.54ZM83.2062 20.68C85.6195 20.68 86.8262 22.0267 86.8262 24.72V31H84.8062V24.84C84.8062 23.96 84.6328 23.32 84.2862 22.92C83.9528 22.52 83.4128 22.32 82.6662 22.32C81.8128 22.32 81.1262 22.5867 80.6062 23.12C80.0995 23.6533 79.8462 24.3667 79.8462 25.26V31H77.8462V23.76C77.8462 22.7067 77.7928 21.76 77.6862 20.92H79.5662L79.7462 22.66C80.0662 22.02 80.5262 21.5333 81.1262 21.2C81.7395 20.8533 82.4328 20.68 83.2062 20.68ZM92.3216 20.92H98.7016V31H96.6816V22.48H92.3216V31H90.3016V22.48H88.3416V20.92H90.3016V19.74C90.3016 18.8733 90.4283 18.1867 90.6816 17.68C90.9483 17.1733 91.375 16.8067 91.9616 16.58C92.5616 16.34 93.375 16.22 94.4016 16.22H95.0816V17.74H94.5816C93.9283 17.74 93.4483 17.8 93.1416 17.92C92.835 18.0267 92.6216 18.24 92.5016 18.56C92.3816 18.8667 92.3216 19.3533 92.3216 20.02V20.92ZM98.8816 16.42V18.6H96.5016V16.42H98.8816ZM106.655 20.68C106.962 20.68 107.282 20.7267 107.615 20.82L107.575 22.66C107.215 22.5267 106.822 22.46 106.395 22.46C105.475 22.46 104.782 22.74 104.315 23.3C103.862 23.8467 103.635 24.54 103.635 25.38V31H101.635V23.76C101.635 22.7067 101.582 21.76 101.475 20.92H103.355L103.535 22.74C103.802 22.0733 104.215 21.5667 104.775 21.22C105.335 20.86 105.962 20.68 106.655 20.68ZM120.655 20.68C122.895 20.68 124.015 22.0267 124.015 24.72V31H121.995V24.82C121.995 23.9533 121.841 23.32 121.535 22.92C121.241 22.52 120.761 22.32 120.095 22.32C119.321 22.32 118.708 22.5867 118.255 23.12C117.815 23.6533 117.595 24.38 117.595 25.3V31H115.575V24.82C115.575 23.9533 115.421 23.32 115.115 22.92C114.821 22.52 114.341 22.32 113.675 22.32C112.901 22.32 112.288 22.5867 111.835 23.12C111.381 23.6533 111.155 24.38 111.155 25.3V31H109.155V23.76C109.155 22.7067 109.101 21.76 108.995 20.92H110.875L111.055 22.6C111.348 21.9867 111.768 21.5133 112.315 21.18C112.861 20.8467 113.501 20.68 114.235 20.68C115.795 20.68 116.815 21.3267 117.295 22.62C117.601 22.02 118.048 21.5467 118.635 21.2C119.235 20.8533 119.908 20.68 120.655 20.68Z" fill="#373737"/>
</svg>
