<svg width="176" height="46" viewBox="0 0 176 46" fill="none" xmlns="http://www.w3.org/2000/svg">
<rect width="176" height="46" rx="10" fill="#96C9D9"/>
<path d="M47.115 23.44V30.16C46.515 30.4667 45.755 30.7133 44.835 30.9C43.9283 31.0733 43.0017 31.16 42.055 31.16C40.615 31.16 39.3683 30.8733 38.315 30.3C37.2617 29.7133 36.455 28.8733 35.895 27.78C35.3483 26.6867 35.075 25.38 35.075 23.86C35.075 22.3667 35.3483 21.0733 35.895 19.98C36.455 18.8867 37.2483 18.0533 38.275 17.48C39.315 16.8933 40.535 16.6 41.935 16.6C42.935 16.6 43.855 16.7533 44.695 17.06C45.5483 17.3533 46.275 17.78 46.875 18.34L46.135 19.88C45.455 19.32 44.7883 18.92 44.135 18.68C43.4817 18.44 42.755 18.32 41.955 18.32C40.4083 18.32 39.2283 18.7933 38.415 19.74C37.615 20.6867 37.215 22.06 37.215 23.86C37.215 25.7133 37.6283 27.12 38.455 28.08C39.2817 29.0267 40.5017 29.5 42.115 29.5C43.195 29.5 44.235 29.34 45.235 29.02V25.02H41.915V23.44H47.115ZM58.702 26H51.502C51.5687 28.36 52.642 29.54 54.722 29.54C55.882 29.54 56.942 29.16 57.902 28.4L58.522 29.84C58.0687 30.24 57.4887 30.56 56.782 30.8C56.0887 31.0267 55.3887 31.14 54.682 31.14C53.0687 31.14 51.802 30.68 50.882 29.76C49.962 28.8267 49.502 27.5533 49.502 25.94C49.502 24.9133 49.702 24 50.102 23.2C50.5154 22.4 51.0887 21.78 51.822 21.34C52.5554 20.9 53.3887 20.68 54.322 20.68C55.682 20.68 56.7487 21.12 57.522 22C58.3087 22.88 58.702 24.1 58.702 25.66V26ZM54.362 22.18C53.602 22.18 52.982 22.4067 52.502 22.86C52.022 23.3133 51.7154 23.96 51.582 24.8H56.922C56.842 23.9467 56.582 23.3 56.142 22.86C55.702 22.4067 55.1087 22.18 54.362 22.18ZM63.5423 22.48V27.54C63.5423 28.2333 63.689 28.7267 63.9823 29.02C64.289 29.3 64.709 29.44 65.2423 29.44C65.589 29.44 65.9423 29.3867 66.3023 29.28V30.92C65.8623 31.0667 65.3623 31.14 64.8023 31.14C63.7623 31.14 62.9557 30.8467 62.3823 30.26C61.809 29.6733 61.5223 28.82 61.5223 27.7V22.48H59.5623V20.92H61.5223V18.4L63.5423 17.7V20.92H66.3223V22.48H63.5423ZM78.36 31.16C77.2533 31.16 76.24 31.0133 75.32 30.72C74.4133 30.4267 73.6267 29.9867 72.96 29.4L73.7 27.88C74.3933 28.44 75.1133 28.8467 75.86 29.1C76.6067 29.3533 77.4467 29.48 78.38 29.48C79.4467 29.48 80.2733 29.28 80.86 28.88C81.4467 28.48 81.74 27.9133 81.74 27.18C81.74 26.5667 81.4667 26.1067 80.92 25.8C80.3733 25.48 79.5067 25.1867 78.32 24.92C77.1867 24.68 76.26 24.4067 75.54 24.1C74.82 23.78 74.2533 23.36 73.84 22.84C73.4267 22.3067 73.22 21.6267 73.22 20.8C73.22 19.9733 73.44 19.2467 73.88 18.62C74.32 17.98 74.94 17.4867 75.74 17.14C76.5533 16.78 77.4867 16.6 78.54 16.6C79.54 16.6 80.4733 16.7533 81.34 17.06C82.22 17.3667 82.9533 17.8 83.54 18.36L82.8 19.88C82.1467 19.3333 81.4733 18.9333 80.78 18.68C80.0867 18.4133 79.3467 18.28 78.56 18.28C77.5333 18.28 76.7267 18.5 76.14 18.94C75.5533 19.3667 75.26 19.9533 75.26 20.7C75.26 21.34 75.5133 21.8267 76.02 22.16C76.54 22.4933 77.3667 22.7933 78.5 23.06C79.6867 23.3267 80.6467 23.6067 81.38 23.9C82.1133 24.1933 82.7 24.5933 83.14 25.1C83.58 25.6067 83.8 26.26 83.8 27.06C83.8 27.8867 83.58 28.6067 83.14 29.22C82.7 29.8333 82.0667 30.3133 81.24 30.66C80.4267 30.9933 79.4667 31.16 78.36 31.16ZM88.6986 22.48V27.54C88.6986 28.2333 88.8453 28.7267 89.1386 29.02C89.4453 29.3 89.8653 29.44 90.3986 29.44C90.7453 29.44 91.0986 29.3867 91.4586 29.28V30.92C91.0186 31.0667 90.5186 31.14 89.9586 31.14C88.9186 31.14 88.1119 30.8467 87.5386 30.26C86.9653 29.6733 86.6786 28.82 86.6786 27.7V22.48H84.7186V20.92H86.6786V18.4L88.6986 17.7V20.92H91.4786V22.48H88.6986ZM102.564 20.92V31H100.564V29.28C100.271 29.88 99.8309 30.34 99.2442 30.66C98.6709 30.98 97.9976 31.14 97.2242 31.14C96.3309 31.14 95.5442 30.9267 94.8642 30.5C94.1976 30.0733 93.6776 29.4733 93.3042 28.7C92.9309 27.9133 92.7442 27 92.7442 25.96C92.7442 24.92 92.9309 24 93.3042 23.2C93.6909 22.4 94.2242 21.78 94.9042 21.34C95.5842 20.9 96.3576 20.68 97.2242 20.68C97.9976 20.68 98.6709 20.8467 99.2442 21.18C99.8176 21.5 100.258 21.96 100.564 22.56V20.92H102.564ZM97.7042 29.54C98.6109 29.54 99.3109 29.2267 99.8042 28.6C100.311 27.96 100.564 27.0667 100.564 25.92C100.564 24.76 100.311 23.8667 99.8042 23.24C99.3109 22.6133 98.6042 22.3 97.6842 22.3C96.7776 22.3 96.0642 22.6267 95.5442 23.28C95.0376 23.92 94.7842 24.8133 94.7842 25.96C94.7842 27.0933 95.0376 27.9733 95.5442 28.6C96.0642 29.2267 96.7842 29.54 97.7042 29.54ZM110.552 20.68C110.858 20.68 111.178 20.7267 111.512 20.82L111.472 22.66C111.112 22.5267 110.718 22.46 110.292 22.46C109.372 22.46 108.678 22.74 108.212 23.3C107.758 23.8467 107.532 24.54 107.532 25.38V31H105.532V23.76C105.532 22.7067 105.478 21.76 105.372 20.92H107.252L107.432 22.74C107.698 22.0733 108.112 21.5667 108.672 21.22C109.232 20.86 109.858 20.68 110.552 20.68ZM116.511 22.48V27.54C116.511 28.2333 116.658 28.7267 116.951 29.02C117.258 29.3 117.678 29.44 118.211 29.44C118.558 29.44 118.911 29.3867 119.271 29.28V30.92C118.831 31.0667 118.331 31.14 117.771 31.14C116.731 31.14 115.924 30.8467 115.351 30.26C114.778 29.6733 114.491 28.82 114.491 27.7V22.48H112.531V20.92H114.491V18.4L116.511 17.7V20.92H119.291V22.48H116.511ZM129.757 26H122.557C122.623 28.36 123.697 29.54 125.777 29.54C126.937 29.54 127.997 29.16 128.957 28.4L129.577 29.84C129.123 30.24 128.543 30.56 127.837 30.8C127.143 31.0267 126.443 31.14 125.737 31.14C124.123 31.14 122.857 30.68 121.937 29.76C121.017 28.8267 120.557 27.5533 120.557 25.94C120.557 24.9133 120.757 24 121.157 23.2C121.57 22.4 122.143 21.78 122.877 21.34C123.61 20.9 124.443 20.68 125.377 20.68C126.737 20.68 127.803 21.12 128.577 22C129.363 22.88 129.757 24.1 129.757 25.66V26ZM125.417 22.18C124.657 22.18 124.037 22.4067 123.557 22.86C123.077 23.3133 122.77 23.96 122.637 24.8H127.977C127.897 23.9467 127.637 23.3 127.197 22.86C126.757 22.4067 126.163 22.18 125.417 22.18ZM141.295 16.28V31H139.295V29.28C139.001 29.88 138.561 30.34 137.975 30.66C137.401 30.98 136.728 31.14 135.955 31.14C135.088 31.14 134.315 30.92 133.635 30.48C132.955 30.04 132.421 29.4267 132.035 28.64C131.661 27.84 131.475 26.92 131.475 25.88C131.475 24.84 131.661 23.9267 132.035 23.14C132.408 22.3533 132.928 21.7467 133.595 21.32C134.275 20.8933 135.061 20.68 135.955 20.68C136.715 20.68 137.381 20.84 137.955 21.16C138.541 21.48 138.981 21.9333 139.275 22.52V16.28H141.295ZM136.415 29.54C137.335 29.54 138.041 29.2267 138.535 28.6C139.041 27.96 139.295 27.0667 139.295 25.92C139.295 24.7733 139.041 23.8867 138.535 23.26C138.041 22.62 137.341 22.3 136.435 22.3C135.515 22.3 134.795 22.6133 134.275 23.24C133.768 23.8667 133.515 24.7467 133.515 25.88C133.515 27.0267 133.768 27.9267 134.275 28.58C134.795 29.22 135.508 29.54 136.415 29.54Z" fill="#373737"/>
</svg>
