<svg width="38" height="51" viewBox="0 0 38 51" fill="none" xmlns="http://www.w3.org/2000/svg">
<path d="M5.52002 18.3376V33C5.52002 34.1046 6.41545 35 7.52002 35H30.016C31.1206 35 32.016 34.1046 32.016 33V18.3869C32.016 17.8222 31.7773 17.2837 31.3587 16.9046L19.6159 6.26803C18.8302 5.55629 17.6255 5.58136 16.8701 6.32516L6.11685 16.9124C5.73503 17.2883 5.52002 17.8017 5.52002 18.3376Z" fill="#373737"/>
<path d="M14.3521 24.416C14.3521 21.9771 16.3292 20 18.768 20C21.2069 20 23.184 21.9771 23.184 24.416V36H14.3521V24.416Z" fill="white"/>
<path d="M10.3069 41.456V50H9.07092V46.172H4.28292V50H3.05892V41.456H4.28292V45.152H9.07092V41.456H10.3069ZM14.7893 50.084C14.1973 50.084 13.6773 49.956 13.2293 49.7C12.7813 49.444 12.4333 49.08 12.1853 48.608C11.9453 48.136 11.8253 47.584 11.8253 46.952C11.8253 46.32 11.9453 45.768 12.1853 45.296C12.4333 44.816 12.7813 44.448 13.2293 44.192C13.6773 43.936 14.1973 43.808 14.7893 43.808C15.3733 43.808 15.8893 43.936 16.3373 44.192C16.7853 44.448 17.1293 44.816 17.3693 45.296C17.6173 45.768 17.7413 46.32 17.7413 46.952C17.7413 47.584 17.6173 48.136 17.3693 48.608C17.1293 49.08 16.7853 49.444 16.3373 49.7C15.8893 49.956 15.3733 50.084 14.7893 50.084ZM14.7773 49.124C15.3373 49.124 15.7653 48.94 16.0613 48.572C16.3573 48.204 16.5053 47.664 16.5053 46.952C16.5053 46.256 16.3533 45.72 16.0493 45.344C15.7533 44.968 15.3333 44.78 14.7893 44.78C14.2373 44.78 13.8093 44.968 13.5053 45.344C13.2013 45.72 13.0493 46.256 13.0493 46.952C13.0493 47.664 13.1973 48.204 13.4933 48.572C13.7973 48.94 14.2253 49.124 14.7773 49.124ZM26.058 43.808C27.402 43.808 28.074 44.616 28.074 46.232V50H26.862V46.292C26.862 45.772 26.77 45.392 26.586 45.152C26.41 44.912 26.122 44.792 25.722 44.792C25.258 44.792 24.89 44.952 24.618 45.272C24.354 45.592 24.222 46.028 24.222 46.58V50H23.01V46.292C23.01 45.772 22.918 45.392 22.734 45.152C22.558 44.912 22.27 44.792 21.87 44.792C21.406 44.792 21.038 44.952 20.766 45.272C20.494 45.592 20.358 46.028 20.358 46.58V50H19.158V45.656C19.158 45.024 19.126 44.456 19.062 43.952H20.19L20.298 44.96C20.474 44.592 20.726 44.308 21.054 44.108C21.382 43.908 21.766 43.808 22.206 43.808C23.142 43.808 23.754 44.196 24.042 44.972C24.226 44.612 24.494 44.328 24.846 44.12C25.206 43.912 25.61 43.808 26.058 43.808ZM34.9703 47H30.6503C30.6903 48.416 31.3343 49.124 32.5823 49.124C33.2783 49.124 33.9143 48.896 34.4903 48.44L34.8623 49.304C34.5903 49.544 34.2423 49.736 33.8183 49.88C33.4023 50.016 32.9823 50.084 32.5583 50.084C31.5903 50.084 30.8303 49.808 30.2783 49.256C29.7263 48.696 29.4503 47.932 29.4503 46.964C29.4503 46.348 29.5703 45.8 29.8103 45.32C30.0583 44.84 30.4023 44.468 30.8423 44.204C31.2823 43.94 31.7823 43.808 32.3423 43.808C33.1583 43.808 33.7983 44.072 34.2623 44.6C34.7343 45.128 34.9703 45.86 34.9703 46.796V47ZM32.3663 44.708C31.9103 44.708 31.5383 44.844 31.2503 45.116C30.9623 45.388 30.7783 45.776 30.6983 46.28H33.9023C33.8543 45.768 33.6983 45.38 33.4343 45.116C33.1703 44.844 32.8143 44.708 32.3663 44.708Z" fill="#373737"/>
</svg>
