<svg width="23" height="23" viewBox="0 0 23 23" fill="none" xmlns="http://www.w3.org/2000/svg">
<path d="M11.5 0C5.15899 0 0 5.15899 0 11.5C0 17.8411 5.15899 23 11.5 23C17.8411 23 23 17.8411 23 11.5C23 5.15899 17.841 0 11.5 0ZM12.2481 18.3233C11.7017 18.4143 10.6146 18.6418 10.0625 18.6875C9.59521 18.7262 9.15424 18.4587 8.88543 18.0748C8.61591 17.6908 8.55133 17.1995 8.71134 16.7587L10.8851 10.7813H8.62499C8.62306 9.53576 9.5573 8.61995 10.7522 8.26848C11.3224 8.10071 12.3848 7.87112 12.9375 7.9063C13.2686 7.92736 13.8458 8.1351 14.1146 8.51908C14.3841 8.90302 14.4487 9.39436 14.2887 9.83516L12.1149 15.8126H14.3743C14.3747 17.0566 13.4753 18.1187 12.2481 18.3233ZM12.9375 7.18752C12.1436 7.18752 11.5 6.54386 11.5 5.75001C11.5 4.95608 12.1436 4.3125 12.9375 4.3125C13.7314 4.3125 14.375 4.95608 14.375 5.75001C14.375 6.5439 13.7315 7.18752 12.9375 7.18752Z" fill="#373737"/>
</svg>
