<svg width="63" height="52" viewBox="0 0 63 52" fill="none" xmlns="http://www.w3.org/2000/svg">
<path d="M0.302641 42.456H1.53864V49.968H5.69064V51H0.302641V42.456ZM11.9523 48H7.6323C7.6723 49.416 8.3163 50.124 9.5643 50.124C10.2603 50.124 10.8963 49.896 11.4723 49.44L11.8443 50.304C11.5723 50.544 11.2243 50.736 10.8003 50.88C10.3843 51.016 9.9643 51.084 9.5403 51.084C8.5723 51.084 7.8123 50.808 7.2603 50.256C6.7083 49.696 6.4323 48.932 6.4323 47.964C6.4323 47.348 6.5523 46.8 6.7923 46.32C7.0403 45.84 7.3843 45.468 7.8243 45.204C8.2643 44.94 8.7643 44.808 9.3243 44.808C10.1403 44.808 10.7803 45.072 11.2443 45.6C11.7163 46.128 11.9523 46.86 11.9523 47.796V48ZM9.3483 45.708C8.8923 45.708 8.5203 45.844 8.2323 46.116C7.9443 46.388 7.7603 46.776 7.6803 47.28H10.8843C10.8363 46.768 10.6803 46.38 10.4163 46.116C10.1523 45.844 9.7963 45.708 9.3483 45.708ZM18.8751 44.952V51H17.6751V49.968C17.4991 50.328 17.2351 50.604 16.8831 50.796C16.5391 50.988 16.1351 51.084 15.6711 51.084C15.1351 51.084 14.6631 50.956 14.2551 50.7C13.8551 50.444 13.5431 50.084 13.3191 49.62C13.0951 49.148 12.9831 48.6 12.9831 47.976C12.9831 47.352 13.0951 46.8 13.3191 46.32C13.5511 45.84 13.8711 45.468 14.2791 45.204C14.6871 44.94 15.1511 44.808 15.6711 44.808C16.1351 44.808 16.5391 44.908 16.8831 45.108C17.2271 45.3 17.4911 45.576 17.6751 45.936V44.952H18.8751ZM15.9591 50.124C16.5031 50.124 16.9231 49.936 17.2191 49.56C17.5231 49.176 17.6751 48.64 17.6751 47.952C17.6751 47.256 17.5231 46.72 17.2191 46.344C16.9231 45.968 16.4991 45.78 15.9471 45.78C15.4031 45.78 14.9751 45.976 14.6631 46.368C14.3591 46.752 14.2071 47.288 14.2071 47.976C14.2071 48.656 14.3591 49.184 14.6631 49.56C14.9751 49.936 15.4071 50.124 15.9591 50.124ZM23.6676 44.808C23.8516 44.808 24.0436 44.836 24.2436 44.892L24.2196 45.996C24.0036 45.916 23.7676 45.876 23.5116 45.876C22.9596 45.876 22.5436 46.044 22.2636 46.38C21.9916 46.708 21.8556 47.124 21.8556 47.628V51H20.6556V46.656C20.6556 46.024 20.6236 45.456 20.5596 44.952H21.6876L21.7956 46.044C21.9556 45.644 22.2036 45.34 22.5396 45.132C22.8756 44.916 23.2516 44.808 23.6676 44.808ZM28.3833 44.808C29.8313 44.808 30.5553 45.616 30.5553 47.232V51H29.3433V47.304C29.3433 46.776 29.2393 46.392 29.0313 46.152C28.8313 45.912 28.5073 45.792 28.0593 45.792C27.5473 45.792 27.1353 45.952 26.8233 46.272C26.5193 46.592 26.3673 47.02 26.3673 47.556V51H25.1673V46.656C25.1673 46.024 25.1353 45.456 25.0713 44.952H26.1993L26.3073 45.996C26.4993 45.612 26.7753 45.32 27.1353 45.12C27.5033 44.912 27.9193 44.808 28.3833 44.808ZM43.7718 42.456V51H42.6558V45.132L40.1238 51H39.2718L36.7038 45.168L36.7158 51H35.5998V42.456H36.5958L39.7038 49.512L42.7758 42.456H43.7718ZM48.2674 51.084C47.6754 51.084 47.1554 50.956 46.7074 50.7C46.2594 50.444 45.9114 50.08 45.6634 49.608C45.4234 49.136 45.3034 48.584 45.3034 47.952C45.3034 47.32 45.4234 46.768 45.6634 46.296C45.9114 45.816 46.2594 45.448 46.7074 45.192C47.1554 44.936 47.6754 44.808 48.2674 44.808C48.8514 44.808 49.3674 44.936 49.8154 45.192C50.2634 45.448 50.6074 45.816 50.8474 46.296C51.0954 46.768 51.2194 47.32 51.2194 47.952C51.2194 48.584 51.0954 49.136 50.8474 49.608C50.6074 50.08 50.2634 50.444 49.8154 50.7C49.3674 50.956 48.8514 51.084 48.2674 51.084ZM48.2554 50.124C48.8154 50.124 49.2434 49.94 49.5394 49.572C49.8354 49.204 49.9834 48.664 49.9834 47.952C49.9834 47.256 49.8314 46.72 49.5274 46.344C49.2314 45.968 48.8114 45.78 48.2674 45.78C47.7154 45.78 47.2874 45.968 46.9834 46.344C46.6794 46.72 46.5274 47.256 46.5274 47.952C46.5274 48.664 46.6754 49.204 46.9714 49.572C47.2754 49.94 47.7034 50.124 48.2554 50.124ZM55.648 44.808C55.832 44.808 56.024 44.836 56.224 44.892L56.2 45.996C55.984 45.916 55.748 45.876 55.492 45.876C54.94 45.876 54.524 46.044 54.244 46.38C53.972 46.708 53.836 47.124 53.836 47.628V51H52.636V46.656C52.636 46.024 52.604 45.456 52.54 44.952H53.668L53.776 46.044C53.936 45.644 54.184 45.34 54.52 45.132C54.856 44.916 55.232 44.808 55.648 44.808ZM62.1906 48H57.8706C57.9106 49.416 58.5546 50.124 59.8026 50.124C60.4986 50.124 61.1346 49.896 61.7106 49.44L62.0826 50.304C61.8106 50.544 61.4626 50.736 61.0386 50.88C60.6226 51.016 60.2026 51.084 59.7786 51.084C58.8106 51.084 58.0506 50.808 57.4986 50.256C56.9466 49.696 56.6706 48.932 56.6706 47.964C56.6706 47.348 56.7906 46.8 57.0306 46.32C57.2786 45.84 57.6226 45.468 58.0626 45.204C58.5026 44.94 59.0026 44.808 59.5626 44.808C60.3786 44.808 61.0186 45.072 61.4826 45.6C61.9546 46.128 62.1906 46.86 62.1906 47.796V48ZM59.5866 45.708C59.1306 45.708 58.7586 45.844 58.4706 46.116C58.1826 46.388 57.9986 46.776 57.9186 47.28H61.1226C61.0746 46.768 60.9186 46.38 60.6546 46.116C60.3906 45.844 60.0346 45.708 59.5866 45.708Z" fill="#96C9D9"/>
<g clip-path="url(#clip0)">
<path d="M32 3C23.1777 3 16 10.1777 16 19C16 27.8223 23.1777 35.0001 32 35.0001C40.8223 35.0001 48.0001 27.8223 48.0001 19C48.0001 10.1777 40.8223 3 32 3ZM33.0408 28.4932C32.2806 28.62 30.7681 28.9365 30 29.0001C29.3499 29.0539 28.7363 28.6817 28.3623 28.1475C27.9874 27.6133 27.8975 26.9297 28.1201 26.3164L31.1445 18.0001H28C27.9973 16.2671 29.2971 14.993 30.9596 14.504C31.7529 14.2705 33.2311 13.9511 34 14.0001C34.4607 14.0294 35.2637 14.3184 35.6377 14.8526C36.0126 15.3868 36.1025 16.0704 35.8799 16.6837L32.8555 25.0001H35.999C35.9996 26.731 34.7483 28.2087 33.0408 28.4932ZM34 13C32.8954 13 32 12.1045 32 11C32 9.89541 32.8954 9 34 9C35.1046 9 36 9.89541 36 11C36 12.1046 35.1047 13 34 13Z" fill="#96C9D9"/>
</g>
<defs>
<clipPath id="clip0">
<rect width="32" height="32" fill="white" transform="translate(16 3)"/>
</clipPath>
</defs>
</svg>
