<svg width="32" height="32" viewBox="0 0 32 32" fill="none" xmlns="http://www.w3.org/2000/svg">
<g clip-path="url(#clip0)">
<path d="M16 0C7.17773 0 0 7.17773 0 16C0 24.8223 7.17773 32.0001 16 32.0001C24.8223 32.0001 32.0001 24.8223 32.0001 16C32.0001 7.17773 24.8223 0 16 0ZM17.0408 25.4932C16.2806 25.62 14.7681 25.9365 14 26.0001C13.3499 26.0539 12.7363 25.6817 12.3623 25.1475C11.9874 24.6133 11.8975 23.9297 12.1201 23.3164L15.1445 15.0001H12C11.9973 13.2671 13.2971 11.993 14.9596 11.504C15.7529 11.2705 17.2311 10.9511 18 11.0001C18.4607 11.0294 19.2637 11.3184 19.6377 11.8526C20.0126 12.3868 20.1025 13.0704 19.8799 13.6837L16.8555 22.0001H19.999C19.9996 23.731 18.7483 25.2087 17.0408 25.4932ZM18 10C16.8954 10 16 9.1045 16 8.00002C16 6.89541 16.8954 6 18 6C19.1046 6 20 6.89541 20 8.00002C20 9.10456 19.1047 10 18 10Z" fill="#373737"/>
</g>
<defs>
<clipPath id="clip0">
<rect width="32" height="32" fill="white"/>
</clipPath>
</defs>
</svg>
