<svg width="278" height="201" viewBox="0 0 278 201" fill="none" xmlns="http://www.w3.org/2000/svg">
<path d="M142.294 198.518C175.119 198.518 201.729 197.494 201.729 196.232C201.729 194.97 175.119 193.947 142.294 193.947C109.47 193.947 82.8602 194.97 82.8602 196.232C82.8602 197.494 109.47 198.518 142.294 198.518Z" fill="#A0C8D7"/>
<path opacity="0.5" d="M37.7284 194.666C58.5652 194.666 75.4568 193.401 75.4568 191.841C75.4568 190.281 58.5652 189.016 37.7284 189.016C16.8916 189.016 0 190.281 0 191.841C0 193.401 16.8916 194.666 37.7284 194.666Z" fill="#A0C8D7"/>
<path d="M274.857 198.523C274.857 199.477 262.014 200.245 246.168 200.245C230.321 200.245 217.478 199.477 217.478 198.523C217.478 197.57 230.321 196.802 246.168 196.802C262.008 196.802 274.857 197.57 274.857 198.523Z" fill="#A0C8D7"/>
<path d="M205.327 61.7375L204.002 63.993H206.646L205.327 61.7375Z" fill="#E7CCA8"/>
<path d="M205.327 65.8767L204.002 68.1322H206.646L205.327 65.8767Z" fill="#E7CCA8"/>
<path d="M208.069 63.4351L206.841 65.8765H209.29L208.069 63.4351Z" fill="#E7CCA8"/>
<path d="M6.21205 75.1924L4.88696 77.4539H7.53105L6.21205 75.1924Z" fill="#E7CCA8"/>
<path d="M6.21205 79.3315L4.88696 81.587H7.53105L6.21205 79.3315Z" fill="#E7CCA8"/>
<path d="M8.95342 76.8901L7.72559 79.3316H10.1752L8.95342 76.8901Z" fill="#E7CCA8"/>
<path d="M202.683 161.638L201.364 163.894H204.002L202.683 161.638Z" fill="#E7CCA8"/>
<path d="M202.683 165.771L201.364 168.033H204.002L202.683 165.771Z" fill="#E7CCA8"/>
<path d="M205.424 163.33L204.203 165.771H206.646L205.424 163.33Z" fill="#E7CCA8"/>
<path d="M150.579 45.7996C150.579 47.3892 149.279 48.6729 147.668 48.6729C146.057 48.6729 144.756 47.3892 144.756 45.7996C144.756 44.21 146.057 42.9263 147.668 42.9263C149.273 42.9263 150.579 44.216 150.579 45.7996Z" stroke="white" stroke-miterlimit="10"/>
<path d="M276.383 168.021H216.043C215.15 168.021 214.426 167.307 214.426 166.425C214.426 165.543 215.15 164.829 216.043 164.829H276.383C277.277 164.829 278 165.543 278 166.425C278 167.307 277.277 168.021 276.383 168.021Z" fill="#EAB197"/>
<path d="M224.377 196.232C223.471 196.232 222.723 195.686 222.687 194.99L221.119 167.037H227.635L226.067 194.99C226.024 195.686 225.282 196.232 224.377 196.232Z" fill="#EAB197"/>
<path d="M268.633 196.232C267.728 196.232 266.98 195.686 266.944 194.99L265.375 167.037H271.891L270.323 194.99C270.281 195.686 269.539 196.232 268.633 196.232Z" fill="#EAB197"/>
<path d="M246.216 196.232C245.311 196.232 244.563 195.686 244.527 194.99L242.958 167.037H249.474L247.906 194.99C247.87 195.686 247.122 196.232 246.216 196.232Z" fill="#EAB197"/>
<path d="M259.753 159.243C260.621 155.422 258.186 151.63 254.314 150.773C250.442 149.916 246.6 152.319 245.731 156.14C244.863 159.961 247.298 163.754 251.17 164.61C255.042 165.467 258.885 163.064 259.753 159.243Z" fill="#E3CABA"/>
<path d="M256.361 151.866H248.952C248.538 151.866 248.204 151.536 248.204 151.128C248.204 150.721 248.538 150.391 248.952 150.391H256.361C256.774 150.391 257.109 150.721 257.109 151.128C257.109 151.536 256.774 151.866 256.361 151.866Z" fill="#E3CABA"/>
<path d="M249.462 138.609C249.723 138.729 250.033 139.185 250.137 139.815C250.24 140.445 250.106 140.985 249.888 141.171C249.632 141.057 249.316 140.595 249.213 139.965C249.11 139.335 249.262 138.801 249.462 138.609Z" fill="#E3CABA"/>
<path d="M249.948 141.109L249.798 141.133L250.472 145.175L250.622 145.151L249.948 141.109Z" fill="#E3CABA"/>
<path d="M251.62 140.997C251.34 140.979 250.878 141.237 250.538 141.746C250.198 142.262 250.106 142.808 250.222 143.084C250.495 143.108 250.964 142.844 251.304 142.334C251.65 141.824 251.723 141.273 251.62 140.997Z" fill="#E3CABA"/>
<path d="M248.192 141.555C248.453 141.447 248.97 141.543 249.462 141.92C249.955 142.298 250.216 142.79 250.198 143.09C249.949 143.204 249.42 143.102 248.927 142.724C248.435 142.346 248.186 141.849 248.192 141.555Z" fill="#E3CABA"/>
<path d="M248.52 143.534C248.781 143.426 249.298 143.528 249.79 143.9C250.283 144.278 250.544 144.77 250.526 145.07C250.277 145.184 249.748 145.082 249.255 144.704C248.763 144.326 248.514 143.828 248.52 143.534Z" fill="#E3CABA"/>
<path d="M251.954 142.982C251.675 142.964 251.213 143.222 250.872 143.732C250.532 144.242 250.441 144.794 250.556 145.069C250.83 145.093 251.298 144.83 251.638 144.32C251.979 143.804 252.058 143.252 251.954 142.982Z" fill="#E3CABA"/>
<path d="M250.605 145.062L250.455 145.086L251.129 149.129L251.278 149.105L250.605 145.062Z" fill="#E3CABA"/>
<path d="M252.283 144.95C252.003 144.932 251.541 145.19 251.201 145.7C250.86 146.216 250.769 146.761 250.885 147.037C251.158 147.061 251.626 146.803 251.966 146.288C252.307 145.778 252.386 145.226 252.283 144.95Z" fill="#E3CABA"/>
<path d="M248.848 145.508C249.11 145.4 249.626 145.496 250.119 145.874C250.611 146.252 250.872 146.744 250.854 147.044C250.605 147.158 250.076 147.056 249.584 146.678C249.091 146.3 248.842 145.802 248.848 145.508Z" fill="#E3CABA"/>
<path d="M249.183 147.494C249.444 147.386 249.961 147.488 250.453 147.859C250.945 148.237 251.207 148.729 251.189 149.029C250.939 149.143 250.41 149.041 249.918 148.663C249.426 148.285 249.171 147.781 249.183 147.494Z" fill="#E3CABA"/>
<path d="M252.611 146.936C252.331 146.918 251.869 147.176 251.529 147.685C251.188 148.195 251.097 148.747 251.213 149.023C251.486 149.047 251.954 148.783 252.295 148.273C252.641 147.763 252.714 147.206 252.611 146.936Z" fill="#E3CABA"/>
<path d="M251.267 149.014L251.117 149.039L251.791 153.081L251.941 153.057L251.267 149.014Z" fill="#E3CABA"/>
<path d="M255.893 141.531C256.1 141.711 256.246 142.179 256.142 142.724C256.039 143.27 255.741 143.666 255.474 143.75C255.267 143.576 255.121 143.102 255.218 142.557C255.328 142.017 255.638 141.627 255.893 141.531Z" fill="#E3CABA"/>
<path d="M255.41 143.713L254.757 147.218L254.907 147.245L255.56 143.74L255.41 143.713Z" fill="#E3CABA"/>
<path d="M257.17 144.158C256.908 144.056 256.398 144.122 255.905 144.428C255.419 144.74 255.158 145.16 255.182 145.418C255.431 145.526 255.954 145.454 256.446 145.148C256.933 144.836 257.176 144.41 257.17 144.158Z" fill="#E3CABA"/>
<path d="M253.747 143.535C254.027 143.529 254.483 143.768 254.829 144.23C255.176 144.692 255.267 145.178 255.152 145.412C254.878 145.424 254.416 145.178 254.07 144.716C253.723 144.254 253.65 143.768 253.747 143.535Z" fill="#E3CABA"/>
<path d="M253.431 145.256C253.711 145.25 254.167 145.49 254.513 145.952C254.86 146.414 254.951 146.899 254.835 147.133C254.562 147.145 254.1 146.899 253.753 146.438C253.407 145.976 253.328 145.49 253.431 145.256Z" fill="#E3CABA"/>
<path d="M256.847 145.874C256.586 145.772 256.075 145.838 255.583 146.144C255.097 146.456 254.835 146.875 254.86 147.133C255.109 147.241 255.632 147.169 256.124 146.863C256.61 146.558 256.859 146.126 256.847 145.874Z" fill="#E3CABA"/>
<path d="M254.775 147.142L254.122 150.646L254.271 150.674L254.925 147.169L254.775 147.142Z" fill="#E3CABA"/>
<path d="M256.531 147.583C256.27 147.481 255.759 147.547 255.267 147.853C254.781 148.165 254.519 148.585 254.544 148.843C254.793 148.951 255.316 148.879 255.808 148.573C256.294 148.267 256.537 147.841 256.531 147.583Z" fill="#E3CABA"/>
<path d="M253.109 146.966C253.389 146.96 253.845 147.2 254.191 147.662C254.538 148.123 254.629 148.609 254.513 148.843C254.24 148.855 253.778 148.609 253.431 148.147C253.085 147.686 253.012 147.2 253.109 146.966Z" fill="#E3CABA"/>
<path d="M254.132 150.568L253.479 154.073L253.628 154.1L254.282 150.595L254.132 150.568Z" fill="#E3CABA"/>
<path d="M260.987 107.543C261.303 107.741 261.637 108.37 261.674 109.204C261.716 110.032 261.455 110.71 261.151 110.92C260.835 110.74 260.5 110.092 260.458 109.258C260.421 108.43 260.701 107.765 260.987 107.543Z" fill="#EAB197"/>
<path d="M261.247 110.841L261.047 110.851L261.308 116.177L261.508 116.167L261.247 110.841Z" fill="#EAB197"/>
<path d="M263.418 110.95C263.059 110.884 262.427 111.148 261.905 111.76C261.382 112.372 261.187 113.073 261.297 113.445C261.649 113.523 262.288 113.247 262.81 112.636C263.327 112.024 263.509 111.322 263.418 110.95Z" fill="#EAB197"/>
<path d="M258.902 111.166C259.254 111.07 259.911 111.268 260.488 111.826C261.066 112.384 261.333 113.061 261.26 113.445C260.92 113.553 260.251 113.343 259.674 112.785C259.09 112.228 258.841 111.544 258.902 111.166Z" fill="#EAB197"/>
<path d="M259.029 113.775C259.382 113.679 260.038 113.877 260.616 114.435C261.193 114.993 261.461 115.671 261.388 116.055C261.047 116.162 260.379 115.953 259.801 115.395C259.218 114.837 258.975 114.153 259.029 113.775Z" fill="#EAB197"/>
<path d="M263.546 113.559C263.187 113.493 262.555 113.757 262.032 114.369C261.509 114.981 261.315 115.683 261.424 116.055C261.777 116.133 262.415 115.857 262.938 115.245C263.454 114.633 263.637 113.931 263.546 113.559Z" fill="#EAB197"/>
<path d="M261.492 116.077L261.292 116.087L261.552 121.413L261.753 121.403L261.492 116.077Z" fill="#EAB197"/>
<path d="M263.673 116.162C263.315 116.096 262.682 116.36 262.16 116.972C261.637 117.584 261.442 118.286 261.552 118.658C261.904 118.736 262.543 118.46 263.065 117.848C263.582 117.236 263.764 116.528 263.673 116.162Z" fill="#EAB197"/>
<path d="M259.157 116.378C259.51 116.282 260.166 116.48 260.743 117.038C261.321 117.596 261.588 118.274 261.515 118.658C261.175 118.766 260.506 118.556 259.929 117.998C259.345 117.434 259.096 116.75 259.157 116.378Z" fill="#EAB197"/>
<path d="M259.285 118.988C259.637 118.892 260.294 119.09 260.871 119.648C261.449 120.206 261.716 120.883 261.643 121.267C261.303 121.375 260.634 121.165 260.057 120.607C259.473 120.05 259.224 119.366 259.285 118.988Z" fill="#EAB197"/>
<path d="M263.801 118.772C263.442 118.706 262.81 118.97 262.288 119.582C261.765 120.194 261.57 120.895 261.68 121.267C262.032 121.345 262.67 121.069 263.193 120.458C263.71 119.846 263.892 119.144 263.801 118.772Z" fill="#EAB197"/>
<path d="M261.759 121.266L261.558 121.276L261.819 126.602L262.02 126.592L261.759 121.266Z" fill="#EAB197"/>
<path d="M265.521 164.757H259.868C257.613 164.757 255.832 162.856 256.015 160.636L258.95 125.035H266.433L269.369 160.636C269.557 162.856 267.776 164.757 265.521 164.757Z" fill="#EAB197"/>
<path d="M267.205 125.142H258.185C257.656 125.142 257.23 124.723 257.23 124.201C257.23 123.679 257.656 123.259 258.185 123.259H267.205C267.734 123.259 268.159 123.679 268.159 124.201C268.159 124.717 267.734 125.142 267.205 125.142Z" fill="#EAB197"/>
<path d="M263.825 132.203C263.91 129.216 264.062 126.228 264.22 123.247C264.378 120.266 264.591 117.284 264.78 114.303C265.01 111.322 265.217 108.34 265.479 105.365L265.88 100.902C266.038 99.4145 266.171 97.9269 266.342 96.4392C266.305 97.9329 266.232 99.4265 266.178 100.92L265.947 105.395C265.789 108.376 265.576 111.358 265.387 114.339C265.15 117.32 264.95 120.302 264.688 123.277C264.427 126.252 264.16 129.228 263.825 132.203Z" fill="#EAB197"/>
<path d="M264.111 128.784C263.655 122.815 263.479 116.84 263.369 110.866C263.284 104.891 263.272 98.9166 263.54 92.936C263.995 98.9046 264.172 104.879 264.281 110.854C264.36 116.828 264.372 122.803 264.111 128.784Z" fill="#EAB197"/>
<path d="M263.339 134.386C263.716 131.417 264.153 128.46 264.609 125.508C265.059 122.551 265.564 119.606 266.038 116.654C266.561 113.709 267.059 110.764 267.606 107.824L268.439 103.416C268.737 101.952 269.016 100.482 269.332 99.0186C269.15 100.5 268.931 101.982 268.731 103.464L268.068 107.896C267.618 110.854 267.114 113.799 266.64 116.75C266.117 119.696 265.618 122.641 265.071 125.58C264.518 128.526 263.965 131.459 263.339 134.386Z" fill="#EAB197"/>
<path d="M262.221 93.0261C262.221 93.374 261.935 93.656 261.582 93.656C261.23 93.656 260.944 93.374 260.944 93.0261C260.944 92.6782 261.23 92.3962 261.582 92.3962C261.935 92.3962 262.221 92.6782 262.221 93.0261Z" stroke="#EAB197" stroke-miterlimit="10"/>
<path d="M265.643 91.4845C266.489 91.4845 267.174 90.8077 267.174 89.9728C267.174 89.138 266.489 88.4612 265.643 88.4612C264.797 88.4612 264.111 89.138 264.111 89.9728C264.111 90.8077 264.797 91.4845 265.643 91.4845Z" stroke="#EAB197" stroke-miterlimit="10"/>
<path d="M268.724 97.759C269.003 97.759 269.229 97.536 269.229 97.2611C269.229 96.9861 269.003 96.7632 268.724 96.7632C268.446 96.7632 268.22 96.9861 268.22 97.2611C268.22 97.536 268.446 97.759 268.724 97.759Z" stroke="#EAB197" stroke-miterlimit="10"/>
<path d="M270.451 108.011C270.451 108.269 270.238 108.479 269.977 108.479C269.715 108.479 269.502 108.269 269.502 108.011C269.502 107.753 269.715 107.543 269.977 107.543C270.238 107.543 270.451 107.753 270.451 108.011Z" stroke="#EAB197" stroke-miterlimit="10"/>
<path d="M258.318 104.057C258.775 104.057 259.145 103.692 259.145 103.242C259.145 102.791 258.775 102.426 258.318 102.426C257.862 102.426 257.492 102.791 257.492 103.242C257.492 103.692 257.862 104.057 258.318 104.057Z" stroke="#EAB197" stroke-miterlimit="10"/>
<path d="M238.46 141.171H217.393V163.822H238.46V141.171Z" fill="#E3CABA"/>
<path d="M236.345 144H220V161.576H236.345V144Z" fill="#EAB197"/>
<path d="M26.2343 37.8152H22.8425V185.825H26.2343V37.8152Z" fill="#EAB197"/>
<path d="M41.8435 191.229H7.23938C7.23938 187.576 14.9893 184.619 24.5445 184.619C34.0997 184.619 41.8435 187.576 41.8435 191.229Z" fill="#EAB197"/>
<path d="M48.3412 39.8487H0.735474L1.61684 36.8014L1.79311 36.2015L3.39172 30.6828L3.56799 30.083L12.2844 0H38.008L45.8065 30.083L45.9646 30.6828L47.393 36.2015L47.551 36.8014L48.3412 39.8487Z" fill="#EAB197"/>
<path d="M3.85986 32.0325L2.23694 34.8038H5.47671L3.85986 32.0325Z" fill="#E5CAA6"/>
<path d="M7.53113 34.8038L5.9082 32.0325H9.15405L7.53113 34.8038Z" fill="#E5CAA6"/>
<path d="M10.7709 32.0325L9.15405 34.8038H12.3938L10.7709 32.0325Z" fill="#E5CAA6"/>
<path d="M14.4482 34.8038L12.8253 32.0325H16.0651L14.4482 34.8038Z" fill="#E5CAA6"/>
<path d="M17.688 32.0325L16.0651 34.8038H19.3048L17.688 32.0325Z" fill="#E5CAA6"/>
<path d="M21.3594 34.8038L19.7365 32.0325H22.9823L21.3594 34.8038Z" fill="#E5CAA6"/>
<path d="M24.5991 32.0325L22.9823 34.8038H26.2221L24.5991 32.0325Z" fill="#E5CAA6"/>
<path d="M28.2704 34.8038L26.6536 32.0325H29.8933L28.2704 34.8038Z" fill="#E5CAA6"/>
<path d="M31.5162 32.0325L29.8933 34.8038H33.1331L31.5162 32.0325Z" fill="#E5CAA6"/>
<path d="M35.1876 34.8038L33.5647 32.0325H36.8045L35.1876 34.8038Z" fill="#E5CAA6"/>
<path d="M38.4274 32.0325L36.8044 34.8038H40.0503L38.4274 32.0325Z" fill="#E5CAA6"/>
<path d="M42.0987 34.8038L40.4818 32.0325H43.7216L42.0987 34.8038Z" fill="#E5CAA6"/>
<path d="M45.3384 32.0325L43.7216 34.8038H46.9613L45.3384 32.0325Z" fill="#E5CAA6"/>
<path d="M45.9646 30.6829H3.39172L3.568 30.083H45.8065L45.9646 30.6829Z" fill="#E5CAA6"/>
<path d="M47.551 36.8013H1.61682L1.79309 36.2014H47.393L47.551 36.8013Z" fill="#E5CAA6"/>
<path d="M53.7141 127.649C54.9541 122.91 57.6225 118.675 60.3638 114.596C62.7951 110.973 65.342 107.368 68.5514 104.393C71.7607 101.411 75.7177 99.0659 80.0698 98.406C79.0061 101.789 77.9424 105.172 76.8787 108.556C75.815 111.939 74.7148 115.394 72.6178 118.267C70.4235 121.267 67.2445 123.462 63.8528 125.034C60.455 126.605 56.8201 127.595 53.2035 128.579" fill="#66A986"/>
<path d="M53.9395 127.71C55.7691 121.298 59.7443 115.467 63.756 110.17C65.8288 107.429 68.1081 104.849 70.8677 102.768C72.1746 101.778 78.8425 97.4172 79.5051 99.4747C79.7968 100.387 78.18 103.68 77.9065 104.55C77.3959 106.175 76.8975 107.801 76.3747 109.42C75.3961 112.462 74.3324 115.539 72.4299 118.154C67.9562 124.279 60.1516 126.456 53.1493 128.364C52.8697 128.442 52.9852 128.874 53.2709 128.796C60.1151 126.93 67.5428 124.831 72.2171 119.156C76.8306 113.559 78.1861 105.173 80.2953 98.467C80.35 98.293 80.1737 98.161 80.0157 98.191C73.4328 99.3788 68.333 103.644 64.3031 108.725C59.8598 114.327 55.4712 120.686 53.5018 127.596C53.4167 127.866 53.8544 127.986 53.9395 127.71Z" fill="#66A986"/>
<path d="M46.4204 143.576C51.2223 133.451 56.0181 123.319 60.82 113.193C61.0692 112.672 60.279 112.216 60.0298 112.738C55.2279 122.863 50.4321 132.995 45.6302 143.12C45.387 143.642 46.1711 144.098 46.4204 143.576Z" fill="#80B996"/>
<path d="M47.1134 121.784C47.393 111.172 51.4533 100.447 54.1582 90.2429C54.2311 89.961 53.7935 89.841 53.7206 90.1229C51.0035 100.381 46.9432 111.112 46.6636 121.784C46.6514 122.071 47.1073 122.071 47.1134 121.784Z" fill="#80B996"/>
<path d="M39.868 124.003C35.2849 119.984 30.6653 115.923 27.073 111.016C23.4868 106.109 20.9643 100.225 21.1649 94.1782C24.0885 98.7552 30.2642 100.465 33.3094 104.964C34.3124 106.445 34.9141 108.155 35.5037 109.841C37.157 114.561 38.8164 119.288 40.4697 124.009" fill="#66A986"/>
<path d="M40.0259 123.847C35.2179 119.63 30.3309 115.359 26.6778 110.08C24.8604 107.453 23.3712 104.58 22.4352 101.532C21.9489 99.9488 21.6206 98.3291 21.4626 96.6855C21.3289 95.2698 20.9034 94.76 21.9671 95.6298C23.4746 96.8655 24.7692 98.1972 26.3861 99.3249C28.6047 100.867 30.9509 102.312 32.6225 104.466C34.7803 107.243 35.6556 110.986 36.8044 114.261C37.9532 117.531 39.0959 120.8 40.2448 124.069C40.342 124.339 40.7796 124.225 40.6824 123.949C39.4059 120.314 38.1356 116.685 36.8591 113.05C35.8562 110.182 35.0721 107.021 33.2546 104.52C30.0939 100.165 24.441 98.5091 21.3532 94.0581C21.2316 93.8782 20.9277 93.9382 20.9277 94.1721C20.8305 107.045 30.6592 116.223 39.6977 124.159C39.9226 124.357 40.2508 124.039 40.0259 123.847Z" fill="#66A986"/>
<path d="M30.9571 101.946C38.4517 117.009 43.3752 133.151 45.5452 149.797C45.6181 150.361 46.5299 150.373 46.4569 149.797C44.2687 132.989 39.3148 116.709 31.7412 101.49C31.4859 100.969 30.6957 101.424 30.9571 101.946Z" fill="#80B996"/>
<path d="M44.481 88.4485C40.7307 75.4736 40.8401 61.4368 44.7971 48.5159C47.5506 52.421 49.6598 56.7699 51.0213 61.3289C52.5409 66.4097 53.1305 71.8144 52.237 77.0392C51.3435 82.264 48.9 87.2968 44.9794 90.914" fill="#66A986"/>
<path d="M44.7002 88.3891C42.7794 81.5387 41.8312 74.4784 41.9953 67.37C42.0865 63.5609 42.4755 59.7638 43.1806 56.0147C43.4845 54.4011 43.8492 52.7995 44.2625 51.2098C44.9737 48.5045 45.4721 49.8421 46.5298 51.6417C53.5624 63.5669 55.623 80.321 44.8096 90.7586C44.5968 90.9625 44.919 91.2805 45.1317 91.0765C57.1183 79.5052 53.532 60.8436 44.9859 48.4025C44.8764 48.2465 44.6272 48.2645 44.5665 48.4565C40.6702 61.5514 40.5669 75.3542 44.2504 88.5091C44.3416 88.7851 44.7792 88.6651 44.7002 88.3891Z" fill="#66A986"/>
<path d="M55.0882 124.003C54.0914 117.477 56.2188 110.782 59.6652 105.126C63.1117 99.4691 67.8224 94.6822 72.4906 89.9553C73.6272 98.9652 71.6882 108.329 67.0626 116.175C65.7922 118.335 64.2848 120.416 62.2668 121.922C60.2488 123.427 57.6472 124.315 55.1612 123.871" fill="#80B996"/>
<path d="M55.3192 124.003C54.45 117.183 56.5288 110.584 60.1393 104.796C61.975 101.856 64.1632 99.151 66.4791 96.5656C67.5306 95.3959 68.6126 94.2442 69.7067 93.1104C70.1747 92.6245 70.6367 92.0127 71.1716 91.6048C71.9921 90.9809 71.8888 90.543 72.4116 91.4548C72.91 92.3126 72.5757 94.5081 72.5635 95.4859C72.5453 96.9975 72.448 98.5092 72.2718 100.015C71.8706 103.326 71.0743 106.613 69.883 109.739C67.5306 115.923 63.1117 124.543 55.149 123.649C54.8572 123.619 54.8633 124.069 55.149 124.099C62.443 124.921 66.7708 117.957 69.3298 112.246C72.4784 105.234 73.5664 97.5554 72.7033 89.9552C72.6851 89.7752 72.4663 89.6432 72.3143 89.7932C63.1603 99.079 53.0641 110.002 54.8512 124.003C54.8998 124.285 55.3557 124.291 55.3192 124.003Z" fill="#80B996"/>
<path d="M48.0004 112.335C47.4351 104.357 49.0641 96.3428 51.7264 88.7845C54.3888 81.2263 58.0722 74.07 61.7436 66.9316C64.181 75.0957 64.959 83.8717 62.9045 92.1378C60.85 100.404 55.7746 108.094 48.3529 112.425" fill="#80B996"/>
<path d="M48.2318 112.336C47.7517 104.112 49.3685 96.0317 52.1463 88.3055C53.6234 84.1964 55.3982 80.1954 57.3008 76.2603C58.2125 74.3647 59.1607 72.4872 60.115 70.6156C60.2245 70.3997 61.1909 68.0542 61.4219 68.0662C62.1878 68.0962 62.2364 69.5598 62.3944 70.2137C66.0718 85.5641 62.7044 103.452 48.2379 112.234C47.9887 112.384 48.2197 112.774 48.4689 112.624C64.3456 102.99 66.6918 83.2486 61.9689 66.8725C61.9203 66.6925 61.6407 66.6385 61.5495 66.8185C54.2373 81.0412 46.8156 95.9477 47.776 112.336C47.7942 112.624 48.2501 112.63 48.2318 112.336Z" fill="#80B996"/>
<path d="M43.0835 83.6085C46.7244 104.526 47.3626 125.815 45.0103 146.912C44.9434 147.488 45.8613 147.482 45.9221 146.912C48.2805 125.737 47.6118 104.364 43.9648 83.3686C43.8615 82.7987 42.9862 83.0387 43.0835 83.6085Z" fill="#80B996"/>
<path d="M44.6025 90.4285C41.1074 87.5492 38.0621 82.6603 37.2416 78.2453C36.421 73.8304 36.6641 69.2894 36.9437 64.8085C37.2294 60.3275 37.5516 55.8046 36.8951 51.3596C40.305 55.8886 43.174 60.8134 45.4291 66.0022C47.1371 69.9313 48.5048 74.0763 48.6567 78.3473C48.8087 82.6183 47.6416 87.0573 44.7787 90.2665" fill="#80B996"/>
<path d="M44.7671 90.2729C39.1142 85.354 36.9443 78.8456 36.9139 71.5573C36.9017 68.1801 37.2117 64.8148 37.3819 61.4496C37.467 59.764 37.5278 58.0784 37.5035 56.3928C37.4974 55.9069 37.0294 52.5117 37.3333 52.3318C38.4274 51.6839 46.1651 68.33 46.5967 69.5537C49.0159 76.3861 49.5386 84.2023 44.6212 90.1109C44.4389 90.3329 44.755 90.6508 44.9434 90.4289C54.687 78.7196 44.5909 61.3716 37.0902 51.252C36.9747 51.096 36.6343 51.12 36.6647 51.366C37.6798 59.2181 35.9535 67.0583 36.5796 74.9165C37.0658 81.041 39.7464 86.5118 44.4389 90.5908C44.6638 90.7828 44.9859 90.4648 44.7671 90.2729Z" fill="#80B996"/>
<path d="M39.4662 121.231C41.2289 115.119 40.1895 106.786 37.2354 101.136C34.2814 95.4911 29.68 90.8182 24.5742 86.9431C24.8538 93.4576 25.3644 100.062 27.5648 106.211C29.7712 112.365 33.5641 118.298 39.4662 121.231Z" fill="#80B996"/>
<path d="M39.6856 121.292C43.3691 107.369 35.4915 95.0897 24.7389 86.7876C24.5991 86.6797 24.3377 86.7336 24.3499 86.9496C24.9091 99.3967 26.9514 114.879 39.3513 121.43C39.6127 121.568 39.8376 121.178 39.5823 121.04C33.9476 118.064 30.331 112.78 28.1002 106.991C26.9514 104.01 26.216 100.884 25.7297 97.7351C25.4015 95.5996 25.1948 93.4521 25.0428 91.2986C24.9942 90.5967 24.8544 89.8229 24.9091 89.1211C24.9881 88.1013 24.593 87.8074 25.6142 88.0413C26.6414 88.2753 28.3191 90.3208 29.0667 91.0226C30.173 92.0604 31.2306 93.1522 32.2275 94.2919C34.4521 96.8353 36.4154 99.6666 37.7466 102.768C40.2023 108.467 40.8405 115.167 39.248 121.172C39.175 121.454 39.6127 121.574 39.6856 121.292Z" fill="#80B996"/>
<path d="M65.227 169.011C65.227 179.16 61.2335 188.002 55.3314 192.603H36.7194C30.8173 188.002 26.8239 179.16 26.8239 169.011C26.8239 159.527 30.3128 151.183 35.5828 146.372H56.462C61.738 151.183 65.227 159.521 65.227 169.011Z" fill="#EAB197"/>
<path d="M37.3697 156.168L32.3733 164.716H42.3722L37.3697 156.168Z" stroke="#E6CAA6" stroke-miterlimit="10"/>
<path d="M37.3698 158.255L34.1969 163.678H40.5427L37.3698 158.255Z" stroke="#E6CAA6" stroke-width="0.5" stroke-miterlimit="10"/>
<path d="M44.5908 184.235L38.549 187.678V180.798L44.5908 184.235Z" stroke="#E6CAA6" stroke-width="0.75" stroke-miterlimit="10"/>
<path d="M42.5851 184.235L39.552 185.963V182.508L42.5851 184.235Z" stroke="#E6CAA6" stroke-width="0.5" stroke-miterlimit="10"/>
<path d="M53.0642 148.885L48.2258 157.157H57.9087L53.0642 148.885Z" stroke="#E6CAA6" stroke-miterlimit="10"/>
<path d="M53.0641 152.023L50.9792 155.586H55.1551L53.0641 152.023Z" stroke="#E6CAA6" stroke-width="0.5" stroke-miterlimit="10"/>
<path d="M53.064 185.213L47.5084 172.61H58.6257L53.064 185.213Z" stroke="#E6CAA6" stroke-miterlimit="10"/>
<path d="M53.0642 182.142L49.5387 174.146H56.5957L53.0642 182.142Z" stroke="#E6CAA6" stroke-width="0.5" stroke-miterlimit="10"/>
<path d="M34.6406 174.559C34.6406 173.72 35.3336 173.036 36.1845 173.036C37.0355 173.036 37.7284 173.72 37.7284 174.559C37.7284 175.399 37.0355 176.083 36.1845 176.083C35.3336 176.083 34.6406 175.399 34.6406 174.559Z" stroke="#E6CAA6" stroke-miterlimit="10"/>
<path d="M53.0642 166.881C54.4339 166.881 55.5442 165.785 55.5442 164.434C55.5442 163.082 54.4339 161.986 53.0642 161.986C51.6946 161.986 50.5842 163.082 50.5842 164.434C50.5842 165.785 51.6946 166.881 53.0642 166.881Z" stroke="#E6CAA6" stroke-miterlimit="10"/>
<path d="M43.0713 152.557C43.6051 152.557 44.0378 152.13 44.0378 151.603C44.0378 151.076 43.6051 150.649 43.0713 150.649C42.5376 150.649 42.1049 151.076 42.1049 151.603C42.1049 152.13 42.5376 152.557 43.0713 152.557Z" stroke="#E6CAA6" stroke-miterlimit="10"/>
<g opacity="0.25">
<path opacity="0.25" d="M57.86 147.788C54.529 164.026 46.8946 179.394 35.8806 191.895C36.1541 192.135 36.4337 192.381 36.7194 192.603H55.3314C61.2335 188.002 65.227 179.16 65.227 169.011C65.227 160.391 62.3458 152.724 57.86 147.788Z" fill="#EAB197"/>
</g>
<path d="M56.4315 146.372H35.6192C34.987 146.372 34.4764 145.868 34.4764 145.244V145.01C34.4764 144.386 34.987 143.882 35.6192 143.882H56.4315C57.0636 143.882 57.5742 144.386 57.5742 145.01V145.244C57.5803 145.868 57.0636 146.372 56.4315 146.372Z" fill="#E3CABA"/>
<path d="M57.7566 119.516C58.3401 117.561 59.0756 115.647 59.8962 113.769C60.7107 111.892 61.6467 110.062 62.6497 108.275C63.6708 106.493 64.7649 104.76 65.9685 103.098C66.5763 102.27 67.1902 101.448 67.8284 100.644C68.4849 99.8527 69.1353 99.0669 69.8343 98.311C69.5425 98.7309 69.2447 99.1508 68.9408 99.5587L68.0655 100.818C67.482 101.658 66.9106 102.504 66.3575 103.356C65.2512 105.071 64.1814 106.799 63.1785 108.569C62.1634 110.332 61.2273 112.138 60.3156 113.961C59.4099 115.791 58.5772 117.651 57.7566 119.516Z" fill="#66A986"/>
<path d="M43.1565 85.27C42.8222 83.4284 42.5547 81.5809 42.2994 79.7333C42.0381 77.8857 41.8192 76.0322 41.6004 74.1846C41.3998 72.331 41.1992 70.4775 41.0412 68.6179L40.8102 65.8285C40.7555 64.8988 40.6826 63.963 40.6461 63.0332C40.8163 63.951 40.95 64.8748 41.1081 65.7986L41.5032 68.5699C41.7645 70.4175 41.9834 72.271 42.2022 74.1246C42.4028 75.9782 42.6034 77.8317 42.7614 79.6973C42.9255 81.5449 43.0714 83.4044 43.1565 85.27Z" fill="#66A986"/>
<path d="M28.8905 95.7375C29.9238 97.3272 30.8417 98.9828 31.7048 100.668C32.574 102.354 33.3399 104.082 34.0571 105.839C34.7561 107.597 35.4004 109.378 35.9475 111.19C36.2149 112.096 36.4763 113.008 36.7134 113.919C36.9322 114.837 37.1571 115.755 37.3334 116.685L36.4277 114.003C36.1298 113.109 35.8198 112.222 35.5038 111.334C34.8595 109.564 34.203 107.801 33.4979 106.061C32.805 104.316 32.0513 102.588 31.2915 100.866C30.5134 99.1447 29.705 97.4471 28.8905 95.7375Z" fill="#66A986"/>
<path d="M50.7422 104.693C51.6965 102.408 52.6447 100.128 53.5382 97.825C54.4318 95.5216 55.3131 93.2181 56.1033 90.8847C56.9421 88.5632 57.6898 86.2117 58.4192 83.8603C58.7839 82.6846 59.1364 81.5028 59.4829 80.3151L60.5101 76.752C60.2974 77.9697 60.0299 79.1754 59.7686 80.3871C59.4829 81.5928 59.179 82.7925 58.869 83.9863C58.2247 86.3797 57.4709 88.7372 56.6747 91.0826C55.8359 93.4101 54.9545 95.7315 53.9637 98.005C52.979 100.266 51.9214 102.51 50.7422 104.693Z" fill="#66A986"/>
<path d="M164.632 80.5732H118.601C107.453 80.5732 98.4148 89.4932 98.4148 100.495V149.197H184.825V100.495C184.825 89.4932 175.786 80.5732 164.632 80.5732Z" fill="#395A69"/>
<path d="M174.595 138.478H108.639V149.197H174.595V138.478Z" fill="#4E5567"/>
<path d="M174.595 149.197H103.527V176.443H174.595V149.197Z" fill="#6BA5C0"/>
<path d="M180.224 180.48H103.016C100.755 180.48 98.9254 178.674 98.9254 176.443H184.314C184.314 178.674 182.479 180.48 180.224 180.48Z" fill="#3F414E"/>
<path d="M100.974 193.095H98.4148L103.016 180.48H106.596L100.974 193.095Z" fill="#3F414E"/>
<path d="M182.266 193.095H184.825L180.223 180.48H176.643L182.266 193.095Z" fill="#3F414E"/>
<path d="M91.0843 88.3893C88.6104 86.7637 86.5316 84.4482 85.553 81.6769C84.5743 78.9055 84.7932 75.6663 86.4525 73.2308C88.1119 70.7954 91.2788 69.3437 94.1782 69.9976C94.2997 66.1345 97.8981 63.3211 101.381 61.5516C105.216 59.602 109.222 58.4743 113.143 60.2439C115.325 61.2336 117.622 62.8413 118.777 64.9228C119.932 66.9983 120.619 69.2898 121.288 71.5692C124.029 69.9616 127.761 70.2075 130.265 72.1571C132.77 74.1066 133.87 77.6338 132.922 80.6391C136.022 79.3434 139.778 78.7675 142.629 80.5371C145.625 82.3967 146.659 86.2178 146.865 89.709C147.042 92.7083 146.738 95.8875 145.011 98.359C142.969 101.286 139.353 102.666 135.93 103.776C130.01 105.689 123.913 107.291 117.683 107.471C111.453 107.651 105.034 106.319 99.9283 102.798C94.8164 99.2767 91.2119 93.3741 91.3943 87.2256" fill="#4E5567"/>
<path d="M87.8202 92.7561C84.7203 92.9181 81.7784 94.8556 80.435 97.621C79.0917 100.386 79.3956 103.86 81.2009 106.349C78.6237 106.385 76.1255 107.897 74.922 110.146C73.7184 112.396 73.8704 115.281 75.2927 117.398C76.4963 119.186 78.4596 120.35 80.4958 121.106C86.1426 123.199 92.5614 122.491 98.1656 120.29C101.387 119.024 104.481 117.23 106.651 114.567C108.821 111.904 109.952 108.263 109.015 104.969C108.359 102.672 106.773 100.722 104.9 99.2226C103.022 97.723 100.852 96.6252 98.6944 95.5635C94.9745 93.7339 91.0782 91.9223 86.9206 91.8503" fill="#3F4553"/>
<path d="M106.086 133.049H88.1911C82.5443 133.049 77.9673 128.532 77.9673 122.959C77.9673 117.387 82.5443 112.87 88.1911 112.87H102.372C104.426 112.87 106.092 114.513 106.092 116.541V133.049H106.086Z" fill="#6BA5C0"/>
<path d="M108.639 176.443H96.7311C92.5796 176.443 89.2122 173.119 89.2122 169.022V112.864H101.12C105.271 112.864 108.639 116.187 108.639 120.284V176.443Z" fill="#6BA5C0"/>
<path d="M110.742 62.6072C112.359 62.2293 114.182 62.5173 115.617 63.489C116.322 63.9749 116.942 64.6048 117.337 65.3546C117.574 65.7085 117.695 66.1164 117.847 66.5003C117.963 66.8962 118.042 67.3101 118.109 67.706C117.908 67.3401 117.78 66.9562 117.574 66.6083C117.361 66.2664 117.191 65.9065 116.936 65.6005C116.492 64.9527 115.914 64.4128 115.27 63.9749C114.632 63.531 113.902 63.2131 113.143 62.9911C112.377 62.7872 111.574 62.6432 110.742 62.6072Z" fill="white"/>
<path d="M137.802 82.3607C139.504 82.3307 141.267 82.9545 142.556 84.1602C142.884 84.4542 143.145 84.8141 143.407 85.162C143.613 85.5519 143.857 85.9178 143.972 86.3377C144.142 86.7396 144.197 87.1715 144.264 87.5914C144.306 88.0173 144.288 88.4432 144.276 88.8571C144.088 88.0353 143.899 87.2315 143.534 86.5117C143.2 85.7799 142.726 85.126 142.136 84.5861C141.559 84.0343 140.878 83.5844 140.149 83.2184C139.401 82.8705 138.623 82.5646 137.802 82.3607Z" fill="white"/>
<path d="M127.56 73.5547C127.937 73.6087 128.296 73.7406 128.642 73.9086C128.989 74.0766 129.305 74.2985 129.585 74.5565C129.864 74.8204 130.095 75.1443 130.253 75.4922C130.417 75.8402 130.478 76.2301 130.466 76.602C130.344 76.2481 130.241 75.9001 130.04 75.6002C129.846 75.3003 129.633 75.0183 129.366 74.7724C128.849 74.2805 128.229 73.8906 127.56 73.5547Z" fill="white"/>
<path d="M136.812 99.5829C137.578 96.8356 137.328 93.7283 135.712 91.3649C134.095 89.0014 130.995 87.5738 128.199 88.2936C129.056 86.308 127.816 83.9386 126.004 82.7209C124.199 81.5032 121.962 81.1253 119.823 80.6454C113.538 79.2357 107.514 76.6863 102.147 73.1651C99.4298 71.3835 98.98 71.7854 97.6975 68.9121C96.9316 70.0219 95.4303 71.8274 95.3877 73.2011C92.9625 71.0176 88.0998 70.7897 86.4464 73.2251C84.7871 75.6605 84.5682 78.8998 85.5468 81.6711C86.5255 84.4425 88.6043 86.7579 91.0782 88.3836L91.3821 87.2198C91.1997 93.3684 94.8042 99.271 99.9161 102.792C105.028 106.313 111.447 107.645 117.671 107.465C123.415 107.297 129.044 105.923 134.526 104.208C135.541 102.786 136.35 101.245 136.812 99.5829Z" fill="#3F4553"/>
<path d="M103.113 120.284V169.484H93.3879V127.986H90.7195C87.9052 127.986 85.6259 125.736 85.6259 122.959C85.6259 120.182 87.9052 117.932 90.7195 117.932H100.731C102.05 117.932 103.113 118.982 103.113 120.284Z" stroke="#96C9D9" stroke-miterlimit="10"/>
<path d="M113.301 79.5713C112.893 76.428 114.911 73.5847 117.805 73.2188C120.704 72.8529 123.385 75.0963 123.798 78.2396C124.205 81.3829 122.187 84.2262 119.294 84.5921C116.395 84.958 113.714 82.7086 113.301 79.5713Z" fill="#8E97FD"/>
<path d="M113.301 79.5728C113.708 82.716 116.395 84.9655 119.294 84.5936C120.497 84.4436 121.543 83.8558 122.333 83.01C118.735 80.7305 118.103 75.0738 117.987 73.2083C117.926 73.2143 117.872 73.2142 117.811 73.2202C114.911 73.5862 112.893 76.4295 113.301 79.5728Z" fill="#8E97FD"/>
<path d="M105.575 92.5584L107.617 101.64L114.778 103.656C114.778 103.656 117.337 101.13 117.337 100.627C117.337 100.123 113.757 90.5369 113.757 90.5369L105.575 92.5584Z" fill="#FDBCA0"/>
<path d="M113.751 90.5427L105.569 92.5583L106.268 95.6595C107.733 96.2834 109.386 96.7453 111.271 96.9732C112.298 97.0992 113.355 96.9072 114.255 96.3914C114.717 96.1274 115.149 95.8035 115.562 95.4616C114.662 92.9842 113.751 90.5427 113.751 90.5427Z" fill="#DF8370"/>
<path d="M94.3241 74.3948C94.3241 74.3948 93.3029 94.0762 111.198 95.0839C116.82 93.0684 120.4 85.4982 119.379 79.4396C118.358 73.387 111.708 63.2914 101.995 66.3207C96.8831 68.3422 94.3241 74.3948 94.3241 74.3948Z" fill="#FDBCA0"/>
<path d="M151.078 97.1055L164.079 81.4191C164.596 80.7953 164.882 80.0155 164.882 79.2057V74.9467C164.882 74.6227 165.094 74.3288 165.404 74.2268C165.903 74.0649 166.413 74.4308 166.413 74.9467V77.934L171.015 69.8598L177.148 69.356L168.966 83.4827L156.694 104.676L151.078 97.1055Z" fill="#FDBCA0"/>
<path d="M208.342 82.9728L229.817 90.0392L236.424 84.5445C238.898 82.4869 242.527 82.289 245.098 84.2265C246.587 85.3483 247.371 86.9259 245.663 89.0314C241.572 94.0762 229.811 99.6249 229.811 99.6249L205.777 94.5801L208.342 82.9728Z" fill="#FDBCA0"/>
<path opacity="0.5" d="M205.789 94.5801L217.721 97.0875C218.487 92.8465 217.891 88.5635 217.338 85.9361L208.348 82.9788L205.789 94.5801Z" fill="#DF8370"/>
<path d="M142.386 119.306C142.386 119.306 169.307 89.7869 181.348 79.7092C183.354 78.0296 185.955 77.2138 188.581 77.4238C197.468 78.1316 216.013 81.4608 216.013 81.4608C216.013 81.4608 219.593 94.5797 212.943 102.15C208.853 101.646 190.447 98.1129 190.447 98.1129L153.12 138.478L142.386 119.306Z" fill="#373737"/>
<path d="M213.964 108.707L231.349 127.878L245.845 130.331C248.538 130.787 250.228 133.595 249.158 136.078C248.465 137.68 246.806 139.839 243.11 138.981C234.418 136.966 226.237 134.441 226.237 134.441L205.783 118.292L213.964 108.707Z" fill="#FDBCA0"/>
<path opacity="0.5" d="M224.674 120.518L213.964 108.707L205.783 118.292L220.079 129.582C222.438 127.176 224.437 124.111 224.674 120.518Z" fill="#DF8370"/>
<path opacity="0.2" d="M181.232 85.546L143.65 121.556L153.126 138.478L190.453 98.1131C190.453 98.1131 208.859 101.646 212.949 102.15C213.375 101.67 213.752 101.16 214.098 100.638C207.412 95.2457 199.431 89.0552 193.486 84.7302C189.742 82.0128 184.563 82.3547 181.232 85.546Z" fill="#739BE0"/>
<path d="M127.56 135.448C127.56 135.448 136.763 148.567 150.056 147.056C162.468 145.64 176.212 127.956 185.888 112.888C186.879 111.34 189.098 111.166 190.332 112.528C197.942 120.944 211.411 133.433 211.411 133.433C211.411 133.433 224.194 127.38 224.194 117.788C220.669 113.613 205.959 98.6409 197.164 89.745C193.371 85.9059 187.232 85.576 183.032 88.9772L141.869 122.329L127.56 135.448Z" fill="#373737"/>
<g opacity="0.5">
<path opacity="0.5" d="M150.056 147.056C162.468 145.64 176.212 127.956 185.888 112.888C186.879 111.34 189.098 111.166 190.332 112.528C197.942 120.944 211.411 133.433 211.411 133.433C211.411 133.433 214.39 132.017 217.472 129.48C210.621 122.749 203.364 116.427 195.741 110.566C193.274 108.671 190.344 106.715 187.274 107.315C184.606 107.843 182.728 110.14 181.093 112.288C177.555 116.931 174.023 121.574 170.486 126.216C166.626 131.285 162.547 136.534 156.767 139.299C151.837 141.651 145.923 141.915 140.799 140.013C136.824 138.538 133.371 135.766 131.031 132.275L127.56 135.454C127.56 135.448 136.763 148.567 150.056 147.056Z" fill="#97B8FF"/>
</g>
<path d="M177.154 133.049H195.049C200.695 133.049 205.272 128.532 205.272 122.959C205.272 117.387 200.695 112.87 195.049 112.87H180.868C178.813 112.87 177.148 114.513 177.148 116.541V133.049H177.154Z" fill="#6BA5C0"/>
<path d="M174.595 176.443H186.502C190.654 176.443 194.021 173.119 194.021 169.022V112.864H182.114C177.962 112.864 174.595 116.187 174.595 120.284V176.443Z" fill="#6BA5C0"/>
<path d="M179.682 120.284V169.484H189.408V127.986H192.076C194.891 127.986 197.17 125.736 197.17 122.959C197.17 120.182 194.891 117.932 192.076 117.932H182.065C180.746 117.932 179.682 118.982 179.682 120.284Z" stroke="#96C9D9" stroke-miterlimit="10"/>
<path d="M98.9253 83.4765L90.2333 86.0019C90.2333 86.0019 92.7923 94.5799 105.575 100.129L107.107 99.6247C107.107 99.6247 114.261 103.578 116.054 96.8054C118.947 95.8096 122.588 94.9818 125.439 94.4119C128.387 93.8241 131.445 94.286 134.077 95.7076L144.3 101.244C145.267 101.766 146.476 101.544 147.188 100.71L154.147 92.5584L161.247 97.8311L151.406 113.29C150.768 114.297 149.449 114.651 148.379 114.105L138.812 109.21L144.434 117.788C144.434 117.788 143.923 133.433 127.561 135.448C121.938 129.9 114.778 122.833 110.687 119.804C106.596 116.775 93.3029 108.197 89.7227 104.664C86.1425 101.13 76.9399 88.5153 76.4293 81.9588C76.4293 78.4257 96.883 75.9062 96.883 75.9062L98.9253 83.4765Z" fill="#FFFFFE"/>
<path d="M95.6552 103.164C84.9694 95.9356 80.441 86.4938 78.5264 79.9973C77.2377 80.6032 76.4293 81.263 76.4293 81.9649C76.9399 88.5273 86.1425 101.136 89.7227 104.67C93.3029 108.203 106.596 116.781 110.687 119.81C111.416 120.35 112.249 121.022 113.143 121.79C110.96 117.219 106.159 110.272 95.6552 103.164Z" fill="#F2F2F2"/>
<path d="M129.05 102.696C129.475 102.576 129.913 102.51 130.357 102.474C130.8 102.432 131.244 102.438 131.694 102.48C132.581 102.564 133.481 102.786 134.289 103.218C135.104 103.626 135.821 104.25 136.344 104.987C136.635 105.341 136.824 105.755 137.037 106.151C137.237 106.553 137.347 106.991 137.505 107.411L137.462 107.327C137.961 107.993 138.423 108.689 138.903 109.366C139.383 110.05 139.833 110.746 140.283 111.454C139.717 110.836 139.158 110.212 138.629 109.576C138.1 108.934 137.547 108.305 137.037 107.651L137.018 107.633L136.988 107.567C136.824 107.183 136.696 106.781 136.508 106.403C136.301 106.043 136.131 105.659 135.857 105.341C135.633 104.993 135.329 104.711 135.037 104.412C134.709 104.16 134.399 103.884 134.022 103.692C133.298 103.278 132.496 102.978 131.645 102.834C130.8 102.69 129.925 102.624 129.05 102.696Z" fill="#97B8FF"/>
<path d="M108.949 80.8552C109.398 81.557 109.787 82.9727 110.924 82.7507C111.313 82.6728 111.495 82.3788 111.793 82.1509C112.839 81.3471 113.386 82.5828 112.644 83.2606C112.261 83.6085 111.726 83.6925 111.234 83.7465C110.948 83.7765 110.942 84.2264 111.234 84.1964C111.951 84.1184 112.705 83.9565 113.167 83.3566C113.538 82.8767 113.611 82.2169 113.203 81.737C112.827 81.3051 112.267 81.2331 111.793 81.545C111.35 81.833 111.1 82.5168 110.377 82.2109C109.86 81.9949 109.617 81.0531 109.344 80.6272C109.186 80.3873 108.791 80.6092 108.949 80.8552Z" fill="#444359"/>
<path d="M106.536 87.4717C108.912 89.4393 112.219 89.0134 113.975 86.482C114.14 86.242 113.744 86.0141 113.58 86.254C112.006 88.5275 109.003 88.9294 106.858 87.1538C106.633 86.9679 106.311 87.2858 106.536 87.4717Z" fill="#444359"/>
<path d="M101.022 79.5236C101.576 78.1199 102.974 77.3461 104.481 77.6101C104.767 77.658 104.888 77.2261 104.603 77.1782C102.84 76.8722 101.229 77.76 100.585 79.4096C100.475 79.6736 100.919 79.7875 101.022 79.5236Z" fill="#444359"/>
<path d="M102.475 83.5126L101.266 82.8228L102.657 82.9427L102.475 83.5126Z" fill="#444359"/>
<path d="M102.767 83.6806C103.411 81.965 105.186 81.1732 106.937 81.7551C107.216 81.845 107.338 81.4131 107.058 81.3232C105.065 80.6633 103.053 81.6291 102.329 83.5666C102.226 83.8306 102.664 83.9505 102.767 83.6806Z" fill="#444359"/>
<path d="M103.557 81.863L103.016 80.2974L104.086 81.5691L103.557 81.863Z" fill="#444359"/>
<path d="M106.055 81.3771L106.426 80.2974L106.663 81.4191L106.055 81.3771Z" fill="#444359"/>
<path d="M115.258 77.6942L116.109 76.5964L115.811 77.9461L115.258 77.6942Z" fill="#444359"/>
<path d="M115.908 77.8502C113.981 77.1063 111.921 77.9401 111.1 79.8117C110.985 80.0756 111.38 80.3036 111.495 80.0396C112.243 78.336 114.03 77.6042 115.793 78.2821C116.06 78.39 116.176 77.9521 115.908 77.8502Z" fill="#444359"/>
<path d="M113.27 77.82L113.033 76.1824L113.848 77.628L113.27 77.82Z" fill="#444359"/>
<path d="M111.429 79.6015L110.742 78.6777L111.805 79.1336L111.429 79.6015Z" fill="#444359"/>
<path d="M165.623 82.9786L171.671 64.263C171.829 63.7771 172.279 63.4412 172.802 63.4292L183.652 63.1473C184.484 63.1233 185.092 63.9151 184.849 64.7009L178.819 84.1424C178.655 84.6642 178.157 85.0121 177.604 84.9942L166.736 84.5563C165.933 84.5083 165.38 83.7344 165.623 82.9786Z" fill="#3F4553"/>
<path d="M164.602 82.9786L170.65 64.263C170.808 63.7771 171.258 63.4412 171.781 63.4292L182.63 63.1473C183.463 63.1233 184.071 63.9151 183.828 64.7009L177.798 84.1424C177.634 84.6642 177.136 85.0121 176.582 84.9942L165.714 84.5563C164.906 84.5083 164.359 83.7344 164.602 82.9786Z" fill="#4E5567"/>
<path d="M181.859 66.1946L177.816 79.2176L177.239 81.0892L176.965 81.971C176.868 82.2829 176.625 82.5168 176.333 82.6128C176.218 82.6488 176.102 82.6668 175.981 82.6608L173.713 82.5708L167.161 82.3069C166.505 82.2769 166.061 81.647 166.255 81.0352L169.386 71.3414L170.571 67.6763L171.167 65.8407C171.191 65.7627 171.227 65.6848 171.276 65.6188C171.446 65.3488 171.744 65.1749 172.078 65.1629L172.394 65.1569L180.886 64.9349C181.561 64.9169 182.053 65.5588 181.859 66.1946Z" fill="#F2EDE4"/>
<g opacity="0.35">
<path opacity="0.35" d="M177.817 79.2177L177.239 81.0893L171.276 65.6189C171.446 65.3489 171.744 65.175 172.079 65.163L172.395 65.157L177.817 79.2177Z" fill="white"/>
</g>
<g opacity="0.35">
<path opacity="0.35" d="M176.333 82.613C176.218 82.649 176.102 82.667 175.981 82.661L173.714 82.571L169.386 71.3417L170.571 67.6765L176.333 82.613Z" fill="white"/>
</g>
<path d="M96.6946 86.3795C98.8038 81.6526 99.363 76.2659 98.2749 71.2091C99.0347 73.6145 101.691 74.9762 104.226 75.2941C106.76 75.6121 109.331 75.1682 111.884 75.2941C114.437 75.4201 117.197 76.3079 118.485 78.4854C118.723 78.8813 118.984 79.3732 119.446 79.4092C120.023 79.4572 120.364 78.7853 120.485 78.2275C121.427 74.0464 119.689 69.4575 116.376 66.6861C113.064 63.9148 108.371 62.949 104.134 63.8908C99.8979 64.8326 96.1658 67.5799 93.7709 71.1491C92.2695 73.3866 91.2544 75.972 91.1025 78.6533C90.9505 81.3287 91.7042 84.0941 93.4001 86.1876C93.8195 86.7035 94.3362 87.2014 94.9926 87.3453C95.6491 87.4893 96.4514 87.1234 96.5548 86.4635" fill="#3F4553"/>
<path d="M96.6369 92.4092C99.7813 91.7764 101.771 88.5583 101.082 85.2214C100.392 81.8845 97.2844 79.6924 94.1399 80.3252C90.9955 80.958 89.0054 84.176 89.6949 87.5129C90.3844 90.8498 93.4924 93.042 96.6369 92.4092Z" fill="#373737"/>
<path d="M93.0901 83.8903C89.6376 73.5007 93.9593 69.5837 94.1538 69.3317L94.2815 69.3197H94.3119L94.4395 69.3137C94.2936 69.5117 92.5552 74.2206 95.3938 82.7626L93.0901 83.8903Z" fill="#373737"/>
<path d="M100.378 89.6968C91.4429 92.0363 89.9719 87.3154 89.9902 83.9082C89.5647 85.0059 89.4431 86.2536 89.7045 87.5194C90.3974 90.8606 93.5035 93.0501 96.646 92.4202C98.2689 92.0843 99.5819 91.0645 100.378 89.6968Z" fill="#373737"/>
</svg>
