<svg width="99" height="99" viewBox="0 0 99 99" fill="none" xmlns="http://www.w3.org/2000/svg">
<circle cx="49.5" cy="49.5" r="49.5" fill="#ECF6FC"/>
<path d="M31.1899 45.9661C34.9619 42.7681 39.9639 41.1281 44.8019 41.4561C50.6239 41.8661 56.1999 44.8181 61.9399 44.1621C63.5799 43.9981 65.2199 43.5061 66.5319 42.5221C68.4179 41.1281 69.5659 38.6681 69.2379 36.2901C68.9099 33.9121 67.0239 31.8621 64.7279 31.3701C62.4319 30.8781 59.8079 32.1901 58.9059 34.4041C58.3319 35.7981 58.4959 37.6021 59.5619 38.6681C60.6279 39.7341 62.5959 39.8981 63.6619 38.7501" stroke="#A0C8D7" stroke-width="3" stroke-miterlimit="10" stroke-linecap="round"/>
<path d="M28.238 52.1982C32.092 49.3282 36.438 47.1142 41.03 45.6382" stroke="#A0C8D7" stroke-width="3" stroke-miterlimit="10" stroke-linecap="round"/>
<path d="M36.848 52.8538C40.62 49.7378 45.54 48.0158 50.378 48.0158C58.168 48.0158 65.384 52.2798 73.174 52.2798C75.388 52.2798 77.848 51.7878 79.406 50.1478C81.128 48.3438 81.292 45.1458 79.652 43.3418C77.93 41.4558 74.568 41.5378 73.01 43.5058C72.19 44.5718 71.944 46.2118 72.846 47.2778C73.748 48.3438 75.716 48.2618 76.29 47.0318" stroke="#77A4BD" stroke-width="3" stroke-miterlimit="10" stroke-linecap="round"/>
<path d="M15.2 63.0222C18.808 65.6462 23.974 65.0722 28.2379 63.5962C33.3219 61.7922 37.9959 58.9222 42.8339 56.3802C44.6379 55.3962 46.4419 54.4942 48.4099 54.0022C51.0339 53.3462 53.8219 53.4282 56.3639 54.3302C57.6759 54.8222 58.9059 55.4782 59.8079 56.4622C61.5299 58.3482 61.8579 61.3822 60.6279 63.5962C59.3159 65.8102 56.5279 67.0402 54.0679 66.4662C53.4119 66.3022 52.6739 66.0562 52.1819 65.5642C50.2959 63.7602 50.9519 59.5782 54.1499 59.8242C55.0519 59.9062 55.8719 60.3982 56.2819 61.2182" stroke="#A0C8D7" stroke-width="3" stroke-miterlimit="10" stroke-linecap="round"/>
</svg>
