<svg width="172" height="117" viewBox="0 0 172 117" fill="none" xmlns="http://www.w3.org/2000/svg">
<path opacity="0.45" d="M67.7924 117C84.4323 117 97.9215 115.332 97.9215 113.275C97.9215 111.217 84.4323 109.55 67.7924 109.55C51.1526 109.55 37.6633 111.217 37.6633 113.275C37.6633 115.332 51.1526 117 67.7924 117Z" fill="url(#paint0_linear)"/>
<path opacity="0.45" d="M127.169 112.176C132.07 112.176 136.042 111.686 136.042 111.082C136.042 110.478 132.07 109.988 127.169 109.988C122.269 109.988 118.296 110.478 118.296 111.082C118.296 111.686 122.269 112.176 127.169 112.176Z" fill="url(#paint1_linear)"/>
<path d="M108.068 89.574C105.517 99.0738 87.1576 101.388 75.5457 101.489C70.5839 101.53 66.8549 101.17 66.114 100.798C65.9926 100.739 65.8772 100.662 65.7557 100.579L65.7496 100.573C65.2638 100.213 64.784 99.6347 64.3589 98.9085C64.3589 98.9085 64.3589 98.9026 64.3528 98.9026C64.3407 98.873 64.3224 98.8435 64.3042 98.8199C64.2981 98.8022 64.286 98.7904 64.2738 98.7668C64.2374 98.7018 64.201 98.631 64.1645 98.566C64.1159 98.4834 64.0734 98.3948 64.0309 98.3062C63.8548 97.9402 63.6908 97.5446 63.5511 97.1254C63.454 96.8361 63.3629 96.5409 63.2961 96.2339C63.2961 96.228 63.29 96.2162 63.29 96.2044C63.2171 95.8973 63.1503 95.5844 63.1139 95.2597C63.1139 95.2538 63.1139 95.2479 63.1078 95.242C63.0471 94.8287 63.0167 94.4036 63.0106 93.9785C63.0106 93.6715 63.0228 93.3704 63.0592 93.0634C63.1199 92.4375 63.2657 91.8176 63.4904 91.2272C63.539 91.1032 63.5876 90.9792 63.6422 90.8611C63.8123 90.4832 64.0248 90.1231 64.2799 89.7806C64.6139 89.3201 65.0269 88.895 65.5249 88.5172C65.8347 88.3873 66.1626 88.2574 66.5027 88.1275C71.3916 86.2795 79.2443 84.7739 79.2443 84.7739C79.2443 84.7739 73.0071 79.1177 64.2921 79.1118H64.2738V66.8312H64.2921L77.4709 64.3337C79.7908 64.6821 82.0622 65.1721 84.2364 65.7744H84.2425C85.5543 66.1404 86.8357 66.5537 88.0868 67.0024C88.7366 67.2386 89.3804 67.4807 90.0059 67.7404C100.118 71.8497 107.375 78.5805 108.317 85.388C108.517 86.7872 108.438 88.1924 108.068 89.574Z" fill="url(#paint2_linear)"/>
<path d="M61.6316 107.181C61.6984 109.371 61.6133 111.225 61.2854 112.388C61.1578 112.849 60.9939 113.197 60.7874 113.421C60.7145 113.504 60.6356 113.563 60.5445 113.604C59.6031 114.083 58.9594 113.221 58.9594 113.221C58.68 113.291 58.4553 113.291 58.267 113.244H58.2609C58.182 113.226 58.1091 113.197 58.0484 113.167C57.5504 112.919 57.4775 112.305 57.4775 112.305C56.5908 112.642 55.8438 111.686 55.8438 111.686C55.8438 111.686 55.6798 111.78 55.4126 111.88C55.4065 111.886 55.4065 111.886 55.4065 111.886C55.3458 111.904 55.2911 111.928 55.2243 111.945C55.2122 111.951 55.2061 111.951 55.2061 111.951C54.5016 112.158 53.3599 112.246 52.5947 111.066C52.0784 110.269 52.1634 108.078 52.455 105.527C52.5521 104.695 52.6736 103.833 52.8011 102.965C53.1655 100.42 53.6089 97.858 53.7789 96.193C54.1737 92.2136 54.8114 92.928 57.4836 92.5974C58.0423 92.5265 58.6739 92.3966 59.3177 92.2313C60.9149 91.8298 62.6336 91.2394 63.6479 90.8616C63.3563 91.5051 63.1741 92.1841 63.0891 92.8749C62.8098 95.0004 63.411 97.2381 64.3098 98.8204C61.8806 100.639 61.5465 104.353 61.6316 107.181Z" fill="url(#paint3_linear)"/>
<g opacity="0.45">
<path opacity="0.45" d="M59.4797 110.728C59.4068 111.17 59.1031 113.52 60.7854 113.42C60.7125 113.502 60.6336 113.562 60.5425 113.603C59.6011 114.081 58.9574 113.219 58.9574 113.219C58.678 113.29 58.4533 113.29 58.265 113.243C58.9331 113.054 59.3886 111.123 59.4797 110.728Z" fill="url(#paint4_linear)"/>
<path opacity="0.45" d="M56.7908 109.365C56.566 111.52 56.566 112.057 57.2341 111.951C57.7989 111.856 58.1512 110.646 58.2483 110.286C58.1512 110.752 57.7503 112.724 58.054 113.167C57.556 112.919 57.4831 112.305 57.4831 112.305C56.5964 112.641 55.8494 111.685 55.8494 111.685C55.8494 111.685 55.6854 111.779 55.4182 111.88C55.7583 111.726 56.4203 111.183 56.7908 109.365Z" fill="url(#paint5_linear)"/>
<path opacity="0.45" d="M52.4612 105.527C52.8256 107.901 53.6516 111.703 55.2124 111.951C54.5079 112.158 53.3661 112.246 52.6009 111.065C52.0786 110.262 52.1636 108.078 52.4612 105.527Z" fill="url(#paint6_linear)"/>
</g>
<g opacity="0.25">
<path opacity="0.25" d="M102.693 82.9688C101.879 88.9319 90.0361 90.101 78.5882 91.2346C72.0777 91.8781 65.8648 92.4921 63.0226 93.9859C63.0226 93.6789 63.0347 93.3778 63.0712 93.0708C66.2049 91.6538 72.0109 91.0811 78.5092 90.4316C89.1191 89.3807 101.144 88.188 101.873 82.8625C103.148 73.5457 84.4124 65.8467 84.2423 65.7759H84.2484C85.5602 66.1419 86.8416 66.5552 88.0927 67.0039C88.7425 67.2401 89.3863 67.4822 90.0118 67.742C95.2955 70.4874 103.652 75.9782 102.693 82.9688Z" fill="white"/>
</g>
<path d="M65.5359 94.4156C65.5298 94.5159 65.5237 94.6222 65.5176 94.7226C65.5055 94.8938 65.4873 95.0709 65.4569 95.2421C65.4508 95.248 65.4508 95.248 65.4508 95.2599V95.2658C65.4083 95.5905 65.3476 95.8975 65.2747 96.2045C65.2443 96.3226 65.214 96.4348 65.1836 96.547C65.1533 96.6532 65.1229 96.7536 65.0925 96.8599C65.0257 97.0842 64.9468 97.3086 64.8617 97.5211C64.7585 97.7927 64.6431 98.0525 64.5277 98.3064C64.4427 98.4835 64.3516 98.6606 64.2605 98.826C64.2423 98.8555 64.2301 98.885 64.2119 98.9086C64.2058 98.9086 64.2058 98.9145 64.2058 98.9145C63.7807 99.6407 63.3009 100.219 62.8151 100.579C62.8151 100.579 62.809 100.579 62.809 100.585C62.6875 100.668 62.5721 100.745 62.4507 100.804C61.7098 101.176 57.9869 101.536 53.019 101.495C46.6908 101.436 38.3705 100.727 31.6839 98.5544C26.0905 96.7418 21.6632 93.9078 20.4971 89.5801C18.5598 82.377 24.7058 74.6485 34.6476 69.5414C35.5282 69.0867 36.4392 68.6557 37.3745 68.2483C38.2794 67.8528 39.2086 67.4749 40.1621 67.1325C43.557 65.8749 47.2434 64.9184 51.0938 64.3457L64.2726 66.8432H64.2909V79.1238H64.2726C55.5576 79.1297 49.3205 84.7859 49.3205 84.7859L49.3447 84.7918C49.8792 84.8981 58.4545 86.5807 63.0398 88.5291C63.5317 88.907 63.9447 89.3321 64.2787 89.7926C64.5338 90.135 64.7463 90.5011 64.9164 90.8731C64.9711 90.997 65.0257 91.1151 65.0682 91.2391C65.1168 91.3631 65.1593 91.4871 65.1958 91.6111C65.2808 91.8591 65.3415 92.1129 65.3901 92.3727C65.4144 92.5026 65.4387 92.6325 65.4569 92.7624C65.4994 93.0222 65.5237 93.282 65.5298 93.5476C65.5602 93.831 65.5541 94.1262 65.5359 94.4156Z" fill="url(#paint7_linear)"/>
<path d="M75.9748 111.068C75.2035 112.248 74.0678 112.16 73.3633 111.953C73.3633 111.953 73.3572 111.953 73.3451 111.947C73.2783 111.93 73.2176 111.906 73.1629 111.888C73.1629 111.888 73.1568 111.888 73.1568 111.882C72.8896 111.788 72.7256 111.687 72.7256 111.687C72.7256 111.687 71.9786 112.644 71.0919 112.307C71.0919 112.307 71.0191 112.916 70.5211 113.169C70.4603 113.199 70.3875 113.228 70.3085 113.246H70.3024C70.1202 113.293 69.8894 113.293 69.6101 113.223C69.6101 113.223 68.9663 114.085 68.025 113.606C67.94 113.559 67.861 113.5 67.7821 113.423C67.0472 112.65 66.8468 110.235 66.9379 107.183C66.9986 105.252 66.8529 102.908 65.9844 101.042C65.8204 100.682 65.6261 100.34 65.4014 100.027C65.0856 99.5721 64.703 99.1707 64.2535 98.8341C64.3507 98.6688 64.4357 98.4976 64.5208 98.3146C64.6422 98.0666 64.7515 97.8009 64.8548 97.5293C64.9398 97.3168 65.0188 97.0924 65.0856 96.868C65.1159 96.7618 65.1463 96.6614 65.1767 96.5551C65.207 96.4429 65.2374 96.3308 65.2678 96.2127C65.3406 95.8998 65.4014 95.5868 65.4439 95.268C65.4439 95.2621 65.4439 95.2562 65.45 95.2503C65.4682 95.0791 65.4925 94.902 65.5046 94.7307C65.5411 94.3352 65.5532 93.9396 65.535 93.5381C65.5228 93.2783 65.4985 93.0126 65.4621 92.7529C65.4439 92.623 65.4196 92.4931 65.3953 92.3632C65.3467 92.1034 65.2799 91.8495 65.201 91.6015C65.1645 91.4776 65.1159 91.3536 65.0734 91.2296C65.0248 91.1056 64.9762 90.9816 64.9216 90.8635C66.3366 91.389 69.1607 92.3514 71.0859 92.5934C72.1365 92.7233 72.8714 92.6938 73.4058 92.8532C74.2257 93.0894 74.5536 93.7802 74.7905 96.195C75.0152 98.4267 75.7319 102.27 76.1084 105.529C76.406 108.08 76.4971 110.265 75.9748 111.068Z" fill="url(#paint8_linear)"/>
<g opacity="0.45">
<path opacity="0.45" d="M69.0946 110.729C69.1674 111.172 69.4711 113.521 67.7888 113.421C67.8617 113.504 67.9407 113.563 68.0318 113.604C68.9731 114.082 69.6169 113.22 69.6169 113.22C69.8962 113.291 70.1209 113.291 70.3092 113.244C69.6351 113.055 69.1857 111.124 69.0946 110.729Z" fill="url(#paint9_linear)"/>
<path opacity="0.45" d="M71.7794 109.365C72.0041 111.52 72.0041 112.058 71.336 111.952C70.7712 111.857 70.4189 110.647 70.3218 110.287C70.4189 110.753 70.8198 112.725 70.5161 113.168C71.0141 112.92 71.087 112.306 71.087 112.306C71.9737 112.642 72.7207 111.686 72.7207 111.686C72.7207 111.686 72.8847 111.78 73.1519 111.881C72.8179 111.727 72.1559 111.184 71.7794 109.365Z" fill="url(#paint10_linear)"/>
<path opacity="0.45" d="M76.1155 105.528C75.7511 107.902 74.9252 111.704 73.3644 111.952C74.0689 112.159 75.2106 112.247 75.9759 111.066C76.4981 110.263 76.407 108.079 76.1155 105.528Z" fill="url(#paint11_linear)"/>
</g>
<g opacity="0.25">
<path opacity="0.25" d="M65.5344 94.4176C65.5283 94.518 65.5222 94.6242 65.5161 94.7246C65.504 94.8958 65.4858 95.073 65.4554 95.2442C65.4493 95.2501 65.4493 95.2501 65.4493 95.2619C62.3156 93.839 54.4569 92.4692 48.2015 91.8493C36.7535 90.7157 24.9108 89.5408 24.097 83.5835C23.2649 77.4786 29.5325 72.5132 34.6522 69.5316C35.3931 69.1006 36.1158 68.705 36.7839 68.3626C37.4094 68.1028 38.0532 67.8607 38.703 67.6245C39.1828 67.4533 39.6747 67.2821 40.1666 67.1227C40.9501 66.8629 41.7396 66.6208 42.5413 66.3965H42.5473C42.3712 66.4673 23.6415 74.1664 24.9169 83.4831C25.6456 88.8086 37.6706 90.0013 48.2804 91.0522C54.633 91.6781 62.2548 93.0419 65.5344 94.4176Z" fill="white"/>
</g>
<path d="M43.8739 58.0165C39.8595 62.421 34.2965 66.7487 27.9318 66.7487C25.4296 66.7487 23.2736 66.5716 21.4213 66.2705C13.6719 65.0424 11.1576 61.8069 10.4592 61.3051C9.59682 60.6792 8.09067 61.0866 4.93261 60.3191C1.77455 59.5516 -0.867288 54.5862 0.268399 54.1256C1.32513 53.7064 3.66938 56.5463 4.31921 56.9951C4.31921 56.9951 4.31922 56.9951 4.32529 57.001C4.37388 57.0305 4.41031 57.0541 4.44068 57.06C4.56821 57.0777 4.61073 56.9537 4.64717 56.7353C4.71397 56.2747 4.72004 55.4068 5.30914 54.6865C6.17154 53.6297 7.0643 53.2754 7.50764 54.0666C7.51371 54.0843 7.52586 54.0961 7.53193 54.1138C7.8781 54.8932 6.26264 55.767 6.791 56.6998C7.33152 57.6622 9.90048 57.3493 10.0948 56.3633C10.2892 55.3773 9.42677 54.6098 8.83767 54.3972C8.63118 54.3205 8.4915 54.1138 8.43684 53.8718C8.33359 53.423 8.54615 52.8444 9.24457 52.7559C10.3135 52.6083 11.8378 52.933 12.2812 54.8459C12.7184 56.753 13.757 58.3707 16.3138 58.6246C24.4458 59.4276 32.2377 52.8326 35.7055 47.5071C36.1427 49.7211 37.4242 52.7145 40.8191 55.7139C41.6876 56.4814 42.6957 57.2548 43.8739 58.0165Z" fill="url(#paint12_linear)"/>
<path d="M123.605 60.308C120.44 61.0755 118.94 60.6682 118.072 61.294C117.513 61.6955 115.776 63.8682 111.094 65.3442C108.555 66.1413 105.154 66.7376 100.599 66.7376C94.2285 66.7376 88.6716 62.4099 84.6572 58.0113L84.6511 58.0054C84.8272 57.8873 85.0034 57.7751 85.1795 57.657C85.3678 57.533 85.55 57.4091 85.72 57.2733C85.8718 57.167 86.0176 57.0607 86.1633 56.9485C86.4731 56.7124 86.7767 56.4762 87.0622 56.24C87.4934 55.8858 87.8942 55.5315 88.2647 55.1832C88.5197 54.947 88.7566 54.7109 88.9752 54.4747C89.3578 54.0732 89.7101 53.6717 90.0259 53.2702C90.7668 52.3374 91.3316 51.4281 91.7568 50.5661C92.3155 49.4384 92.6434 48.3934 92.8196 47.4783C92.8256 47.4783 92.8256 47.4842 92.8256 47.4842C95.8562 52.1366 102.19 57.7633 109.163 58.5663C110.165 58.6844 111.191 58.7021 112.211 58.6017C114.768 58.3537 115.807 56.736 116.244 54.8289C116.687 52.9219 118.206 52.5972 119.28 52.7389C120.355 52.8865 120.283 54.1677 119.687 54.3802C119.098 54.5928 118.23 55.3603 118.43 56.3463C118.631 57.3323 121.193 57.6452 121.734 56.6828C122.275 55.7264 120.574 54.8348 121.017 54.0437C121.461 53.2525 122.353 53.6127 123.216 54.6636C124.084 55.7205 123.684 57.0843 124.084 57.0371C124.479 56.9899 127.115 53.654 128.251 54.1086C129.404 54.5751 126.763 59.5405 123.605 60.308Z" fill="url(#paint13_linear)"/>
<path d="M92.8352 47.4907C92.6591 48.4058 92.3312 49.4509 91.7724 50.5786C91.3473 51.4406 90.7825 52.3498 90.0355 53.2827C89.7197 53.6783 89.3675 54.0797 88.9848 54.4871C88.7662 54.7174 88.5294 54.9595 88.2743 55.1956C87.9038 55.5558 87.5091 55.9041 87.0718 56.2525C86.7863 56.4886 86.4888 56.7248 86.173 56.961C86.0272 57.0731 85.8814 57.1794 85.7296 57.2857C85.5535 57.4156 85.3713 57.5455 85.1891 57.6695C85.0191 57.7875 84.8429 57.8997 84.6668 58.0178L84.6607 58.0119C84.0716 57.3683 83.519 56.7189 83.0028 56.0812C82.9967 56.0812 82.9967 56.0812 82.9967 56.0812C79.8568 52.2376 78.0288 48.8309 78.0288 48.8309C78.0288 48.8309 77.1361 53.6546 77.7312 56.3115C78.3264 58.9743 79.286 62.2865 78.8426 63.9397C78.3993 65.5928 70.4313 68.7575 64.267 68.7575C60.2465 68.7575 55.4548 67.4113 52.485 66.012C50.906 65.2681 49.8492 64.5124 49.6913 63.9397C49.2541 62.2806 50.2075 58.9684 50.8027 56.3115C51.3918 53.6546 50.4991 48.8309 50.4991 48.8309C50.4991 48.8309 48.0151 53.4598 43.8671 58.0178C42.6889 57.2562 41.6808 56.4827 40.8062 55.7093C37.4113 52.71 36.136 49.7166 35.6926 47.5025C35.9356 47.1247 36.1603 46.7527 36.3668 46.3866C39.0207 41.5984 45.7073 27.2631 58.4549 23.7678C60.2647 23.2719 62.2021 22.9944 64.267 22.9944C66.4169 22.9944 68.4332 23.3014 70.3098 23.8387C75.5327 25.3324 79.7354 28.6506 83.0392 32.3584C87.7095 37.5894 90.6125 43.5999 92.1611 46.3866C92.3676 46.7409 92.5923 47.1069 92.8352 47.4907Z" fill="url(#paint14_linear)"/>
<path d="M67.4695 24.9492C67.1719 25.7167 65.3742 26.4843 64.2993 26.4843C63.449 26.4843 62.1372 26.006 61.4813 25.4156C61.3112 25.268 61.1837 25.1027 61.123 24.9492C60.8254 24.1816 61.123 20.9698 61.123 20.9698L64.2993 19.7712L67.4695 20.9698C67.4695 20.9698 67.512 21.4126 67.5484 22.0089C67.6031 23.0185 67.6517 24.465 67.4695 24.9492Z" fill="url(#paint15_linear)"/>
<path d="M72.8173 14.9216C72.3922 17.0825 70.8921 16.7401 70.8921 16.7401C70.8921 16.7401 70.8921 16.7755 70.886 16.8405C70.8678 17.4191 70.6006 20.3534 67.5093 21.5874C66.6591 21.9239 65.6024 22.1365 64.2845 22.1365C63.5436 22.1365 62.8877 22.0715 62.3046 21.9535C61.8491 21.8649 61.4422 21.7409 61.0718 21.5933C57.6222 20.2235 57.6769 16.7401 57.6769 16.7401C57.6769 16.7401 56.195 17.177 55.7638 15.0161C55.612 14.2604 55.7577 13.7113 56.0189 13.3157C56.0189 13.3157 56.025 13.3098 56.0371 13.298C56.2618 12.9437 56.5776 12.7135 56.8388 12.5777C56.857 12.5659 56.8813 12.5541 56.8995 12.5482C57.0149 12.4891 57.1181 12.4537 57.1849 12.4242C57.2032 12.4124 57.2335 12.4065 57.2517 12.4065C57.276 12.3946 57.3003 12.3887 57.3246 12.3887C57.3246 12.3887 57.5736 14.7504 57.9441 14.7858C58.0595 14.7976 58.2477 14.3076 58.4542 13.6286C58.9158 12.1112 59.4624 9.64331 59.4624 9.64331C59.4624 9.64331 61.1629 10.2219 64.491 10.4699C67.8252 10.7179 68.3049 10.1097 68.3049 10.1097C68.3049 10.1097 68.4082 10.281 68.6025 10.4758C68.8272 10.7002 69.1673 10.954 69.6046 11.0131C69.6046 11.0131 70.0844 14.7917 70.4548 14.7917C70.8253 14.7917 71.2626 12.3946 71.2626 12.3946C71.2626 12.3946 73.2485 12.7607 72.8173 14.9216Z" fill="url(#paint16_linear)"/>
<path d="M72.5941 8.90094C73.335 10.5187 71.258 12.3785 71.258 12.3785C71.258 12.3785 70.8208 14.7756 70.4503 14.7756C70.0737 14.7756 69.6 10.9969 69.6 10.9969C68.7862 10.8906 68.3065 10.0936 68.3065 10.0936C68.3065 10.0936 67.8267 10.7017 64.4925 10.4537C61.1583 10.2058 59.4639 9.62715 59.4639 9.62715C59.4639 9.62715 58.3161 14.811 57.9456 14.7697C57.5751 14.7342 57.3261 12.3726 57.3261 12.3726C57.3018 12.3785 57.2776 12.3785 57.2533 12.3903C57.235 12.3962 57.2047 12.3962 57.1865 12.408C57.0893 12.4316 56.9982 12.4789 56.901 12.532C56.8828 12.5379 56.8646 12.5497 56.8403 12.5615C56.5791 12.6973 56.2633 12.9276 56.0386 13.2818C56.0265 13.2936 56.0204 13.2995 56.0204 13.2995C56.0204 13.2995 54.8058 12.0301 54.1863 10.5954C53.9009 9.94007 53.749 9.24928 53.9009 8.63525C54.3806 6.69279 56.3423 7.37767 56.3423 7.37767C56.3423 7.37767 56.154 6.29721 56.2451 5.02191C56.3484 3.51045 56.8281 1.71559 58.4557 1.11336C61.4559 -0.00252041 63.4175 2.22925 63.4175 2.22925C63.4175 2.22925 67.0857 -1.01213 72.005 0.322208C73.499 0.72369 74.4343 1.60931 74.9323 2.66025C74.9384 2.66025 74.9384 2.66616 74.9384 2.66616C75.2177 3.25657 75.3513 3.89422 75.3696 4.53777C75.4242 6.55109 74.3128 8.54078 72.5941 8.90094Z" fill="#2D4D6D"/>
<path opacity="0.45" d="M67.5481 22.01C66.9286 22.0513 65.7018 22.2403 65.3739 23.1259C64.9305 24.3303 63.7705 23.368 62.8292 24.7791C62.4527 25.3459 61.9668 25.4521 61.4809 25.4167C61.3109 25.2691 61.1834 25.1038 61.1226 24.9503C60.9101 24.3953 61.0012 22.5768 61.074 21.5967C61.9182 21.9333 62.975 22.1399 64.2868 22.1399C65.6107 22.1399 66.6675 21.9274 67.5116 21.5908C67.5238 21.7207 67.5359 21.8565 67.5481 22.01Z" fill="url(#paint17_linear)"/>
<path d="M61.4873 15.1311C61.4873 14.7414 61.7606 14.4285 62.0946 14.4285C62.4286 14.4285 62.7019 14.7414 62.7019 15.1311" stroke="url(#paint18_linear)" stroke-width="0.684" stroke-miterlimit="10" stroke-linecap="round" stroke-linejoin="round"/>
<path d="M65.8955 15.1289C65.8955 14.7392 66.1688 14.4263 66.5028 14.4263C66.8369 14.4263 67.1101 14.7392 67.1101 15.1289" stroke="url(#paint19_linear)" stroke-width="0.684" stroke-miterlimit="10" stroke-linecap="round" stroke-linejoin="round"/>
<path d="M61.9674 17.5349H66.6255C66.6255 17.5349 66.2065 19.1881 64.172 19.1881C62.3318 19.194 61.9674 17.5349 61.9674 17.5349Z" fill="white"/>
<path d="M137.413 77.3178C137.413 77.3178 134.218 66.7907 131.637 60.2489C129.056 53.7071 138.512 48.0215 142.381 55.502C146.249 62.9826 143.826 78.0913 143.826 78.0913L137.413 77.3178Z" fill="url(#paint20_linear)"/>
<g opacity="0.45">
<path opacity="0.45" d="M135.315 52.2856C136.377 54.2399 137.209 56.2887 137.987 58.3551C138.746 60.4275 139.451 62.5234 140.058 64.6548C140.671 66.7803 141.169 68.9412 141.497 71.1435C141.801 73.3398 141.971 75.607 141.436 77.8624L140.55 77.6558C141.036 75.607 140.841 73.4107 140.574 71.2734C140.283 69.1243 139.791 66.9929 139.238 64.8792C138.685 62.7655 138.035 60.6695 137.331 58.5913C136.626 56.513 135.886 54.4466 135.211 52.3447L135.315 52.2856Z" fill="#373737"/>
</g>
<path opacity="0.45" d="M132.236 61.804L139.378 63.7996L143.356 57.9309" stroke="#373737" stroke-width="0.6539" stroke-miterlimit="10"/>
<path opacity="0.45" d="M134.282 67.588L141.011 71.0242L144.57 67.3164" stroke="#373737" stroke-width="0.6539" stroke-miterlimit="10"/>
<path d="M172 51.7727C172 51.7727 171.994 51.7786 171.982 51.7786C168.198 54.1108 161.238 69.19 158.754 68.759C156.27 68.3221 155.76 67.1707 155.718 68.328C155.675 69.4852 157.279 70.6306 156.841 71.5162C156.489 72.2247 151.473 75.3893 148.527 78.4182C147.78 79.1798 147.167 79.9355 146.796 80.644C144.95 84.1511 140.492 78.8314 140.492 78.8314C140.492 78.8314 143.76 66.2143 144.98 65.0275C146.207 63.8408 145.867 67.4482 146.887 67.7021C147.908 67.9619 146.201 63.6164 147.865 61.5854C148.375 60.9655 149.037 60.2452 149.754 59.5603C151.375 58.0134 153.264 56.6732 154.23 57.175C155.621 57.8894 154.564 58.7987 155.809 58.7514C157.054 58.7042 154.928 56.8798 156.963 55.0318C158.997 53.1897 166.394 50.3911 172 51.7727Z" fill="url(#paint21_linear)"/>
<g opacity="0.45">
<path opacity="0.45" d="M171.996 51.7681C168.899 53.4271 165.917 55.2279 163.02 57.1467C160.123 59.0656 157.336 61.1439 154.785 63.476C152.253 65.8199 149.896 68.3528 147.935 71.1632C146.945 72.5625 146.088 74.0444 145.293 75.5559C144.515 77.0792 143.896 78.6733 143.349 80.291L142.967 80.1906C143.847 76.843 145.329 73.6429 147.291 70.744C149.234 67.8392 151.572 65.1941 154.172 62.8324C156.771 60.4767 159.565 58.3158 162.547 56.4442C165.516 54.5784 168.662 52.9371 171.996 51.7681Z" fill="#373737"/>
</g>
<path d="M150.239 85.2679L142.429 97.9441C141.968 98.688 141.014 99.0009 140.182 98.6703L129.505 94.3839C128.673 94.0532 128.224 93.1735 128.436 92.3292L128.631 91.5735L132.099 77.9881C132.366 76.9489 133.526 76.3821 134.546 76.7895L149.377 82.7409C150.215 83.0774 150.64 83.9394 150.452 84.7483C150.415 84.9254 150.336 85.1026 150.239 85.2679Z" fill="url(#paint22_linear)"/>
<path d="M152.772 82.6168L151.691 85.1615C151.339 85.9881 150.367 86.3777 149.517 86.0412L132.051 79.033C131.358 78.7555 130.964 78.0765 131.03 77.3916V77.3857C131.043 77.2263 131.079 77.0728 131.146 76.9193L132.227 74.3746C132.579 73.548 133.551 73.1525 134.401 73.4949L151.867 80.5031C152.718 80.8456 153.125 81.7902 152.772 82.6168Z" fill="url(#paint23_linear)"/>
<defs>
<linearGradient id="paint0_linear" x1="67.5995" y1="90.3719" x2="67.9858" y2="156.926" gradientUnits="userSpaceOnUse">
<stop/>
<stop offset="1" stop-opacity="0"/>
</linearGradient>
<linearGradient id="paint1_linear" x1="127.114" y1="104.338" x2="127.228" y2="123.934" gradientUnits="userSpaceOnUse">
<stop/>
<stop offset="1" stop-opacity="0"/>
</linearGradient>
<linearGradient id="paint2_linear" x1="83.9648" y1="56.8769" x2="86.7638" y2="113.31" gradientUnits="userSpaceOnUse">
<stop stop-color="#2D4D6D"/>
<stop offset="1" stop-color="#4B7999"/>
</linearGradient>
<linearGradient id="paint3_linear" x1="72.0284" y1="113.904" x2="45.955" y2="88.3317" gradientUnits="userSpaceOnUse">
<stop stop-color="#FFE5C0"/>
<stop offset="1" stop-color="#FFA992"/>
</linearGradient>
<linearGradient id="paint4_linear" x1="57.7217" y1="121.601" x2="62.8414" y2="96.7848" gradientUnits="userSpaceOnUse">
<stop/>
<stop offset="1" stop-opacity="0"/>
</linearGradient>
<linearGradient id="paint5_linear" x1="54.8855" y1="121.016" x2="60.0051" y2="96.2004" gradientUnits="userSpaceOnUse">
<stop/>
<stop offset="1" stop-opacity="0"/>
</linearGradient>
<linearGradient id="paint6_linear" x1="51.3165" y1="120.28" x2="56.4361" y2="95.4645" gradientUnits="userSpaceOnUse">
<stop/>
<stop offset="1" stop-opacity="0"/>
</linearGradient>
<linearGradient id="paint7_linear" x1="41.2786" y1="58.9945" x2="44.0775" y2="115.424" gradientUnits="userSpaceOnUse">
<stop stop-color="#2D4D6D"/>
<stop offset="1" stop-color="#4B7999"/>
</linearGradient>
<linearGradient id="paint8_linear" x1="74.8387" y1="113.469" x2="65.5395" y2="88.154" gradientUnits="userSpaceOnUse">
<stop stop-color="#FFE5C0"/>
<stop offset="1" stop-color="#FFA992"/>
</linearGradient>
<linearGradient id="paint9_linear" x1="70.8499" y1="121.602" x2="65.7304" y2="96.7861" gradientUnits="userSpaceOnUse">
<stop/>
<stop offset="1" stop-opacity="0"/>
</linearGradient>
<linearGradient id="paint10_linear" x1="73.6881" y1="121.017" x2="68.5685" y2="96.2014" gradientUnits="userSpaceOnUse">
<stop/>
<stop offset="1" stop-opacity="0"/>
</linearGradient>
<linearGradient id="paint11_linear" x1="77.2577" y1="120.281" x2="72.1381" y2="95.4655" gradientUnits="userSpaceOnUse">
<stop/>
<stop offset="1" stop-opacity="0"/>
</linearGradient>
<linearGradient id="paint12_linear" x1="-13.2199" y1="70.5346" x2="67.1732" y2="40.4821" gradientUnits="userSpaceOnUse">
<stop stop-color="#FFE5C0"/>
<stop offset="1" stop-color="#FFA992"/>
</linearGradient>
<linearGradient id="paint13_linear" x1="68.4124" y1="68.2769" x2="153.369" y2="36.5184" gradientUnits="userSpaceOnUse">
<stop stop-color="#FFE5C0"/>
<stop offset="1" stop-color="#FFA992"/>
</linearGradient>
<linearGradient id="paint14_linear" x1="65.7199" y1="23.0283" x2="63.1537" y2="68.7228" gradientUnits="userSpaceOnUse">
<stop stop-color="#96C9D9"/>
<stop offset="1" stop-color="#6BA5C0"/>
</linearGradient>
<linearGradient id="paint15_linear" x1="68.2852" y1="27.0606" x2="59.3274" y2="17.4521" gradientUnits="userSpaceOnUse">
<stop stop-color="#FFE5C0"/>
<stop offset="1" stop-color="#FFA992"/>
</linearGradient>
<linearGradient id="paint16_linear" x1="64.5481" y1="23.5171" x2="64.0583" y2="4.94841" gradientUnits="userSpaceOnUse">
<stop stop-color="#FFE5C0"/>
<stop offset="1" stop-color="#FFA992"/>
</linearGradient>
<linearGradient id="paint17_linear" x1="61.9975" y1="20.137" x2="68.887" y2="30.0584" gradientUnits="userSpaceOnUse">
<stop/>
<stop offset="1" stop-opacity="0"/>
</linearGradient>
<linearGradient id="paint18_linear" x1="61.9452" y1="14.2404" x2="62.1398" y2="15.4264" gradientUnits="userSpaceOnUse">
<stop stop-color="#561111"/>
<stop offset="1" stop-color="#862E2D"/>
</linearGradient>
<linearGradient id="paint19_linear" x1="66.3489" y1="14.2382" x2="66.5436" y2="15.4242" gradientUnits="userSpaceOnUse">
<stop stop-color="#561111"/>
<stop offset="1" stop-color="#862E2D"/>
</linearGradient>
<linearGradient id="paint20_linear" x1="137.683" y1="53.6758" x2="138.249" y2="79.6719" gradientUnits="userSpaceOnUse">
<stop stop-color="#EAF6FD"/>
<stop offset="1" stop-color="#33C2CF"/>
</linearGradient>
<linearGradient id="paint21_linear" x1="161.658" y1="43.6732" x2="151.4" y2="87.0544" gradientUnits="userSpaceOnUse">
<stop stop-color="#F4F9F4"/>
<stop offset="1" stop-color="#DDEAC4"/>
</linearGradient>
<linearGradient id="paint22_linear" x1="132.04" y1="101.844" x2="141.924" y2="78.6675" gradientUnits="userSpaceOnUse">
<stop stop-color="#2D4D6D"/>
<stop offset="1" stop-color="#4B7999"/>
</linearGradient>
<linearGradient id="paint23_linear" x1="147.891" y1="107.751" x2="136.595" y2="51.3269" gradientUnits="userSpaceOnUse">
<stop stop-color="#2D4D6D"/>
<stop offset="1" stop-color="#4B7999"/>
</linearGradient>
</defs>
</svg>
