<svg width="414" height="559" viewBox="0 0 414 559" fill="none" xmlns="http://www.w3.org/2000/svg">
<g opacity="0.4">
<path opacity="0.45" d="M75.4483 558.48C152.14 558.48 214.31 550.519 214.31 540.699C214.31 530.879 152.14 522.918 75.4483 522.918C-1.24306 522.918 -63.4137 530.879 -63.4137 540.699C-63.4137 550.519 -1.24306 558.48 75.4483 558.48Z" fill="url(#paint0_linear)"/>
<path opacity="0.45" d="M349.11 535.451C371.696 535.451 390.005 533.113 390.005 530.229C390.005 527.346 371.696 525.008 349.11 525.008C326.525 525.008 308.216 527.346 308.216 530.229C308.216 533.113 326.525 535.451 349.11 535.451Z" fill="url(#paint1_linear)"/>
<path d="M261.073 427.566C249.317 472.911 164.701 483.959 111.183 484.438C88.3142 484.635 71.1279 482.916 67.7131 481.141C67.1532 480.859 66.6214 480.492 66.0616 480.098L66.0336 480.07C63.7943 478.351 61.5831 475.589 59.6237 472.122C59.6237 472.122 59.6237 472.094 59.5958 472.094C59.5398 471.953 59.4558 471.812 59.3718 471.699C59.3438 471.615 59.2878 471.559 59.2319 471.446C59.0639 471.136 58.896 470.798 58.728 470.488C58.5041 470.093 58.3082 469.67 58.1123 469.248C57.3005 467.5 56.5447 465.612 55.901 463.611C55.4531 462.23 55.0333 460.821 54.7254 459.356C54.7254 459.327 54.6974 459.271 54.6974 459.215C54.3615 457.749 54.0536 456.255 53.8856 454.705C53.8856 454.677 53.8856 454.649 53.8577 454.621C53.5777 452.648 53.4378 450.619 53.4098 448.59C53.4098 447.124 53.4658 445.687 53.6337 444.222C53.9136 441.234 54.5854 438.275 55.621 435.457C55.845 434.865 56.0689 434.273 56.3208 433.709C57.1045 431.906 58.0842 430.187 59.2598 428.552C60.7993 426.354 62.7027 424.325 64.9979 422.521C66.4255 421.901 67.937 421.281 69.5045 420.661C92.037 411.84 128.229 404.653 128.229 404.653C128.229 404.653 99.4825 377.654 59.3158 377.626H59.2319V319.007H59.3158L120.056 307.085C130.748 308.748 141.217 311.087 151.237 313.962H151.265C157.311 315.709 163.217 317.682 168.983 319.824C171.978 320.951 174.946 322.107 177.829 323.347C224.433 342.962 257.882 375.09 262.221 407.584C263.144 414.264 262.78 420.971 261.073 427.566Z" fill="url(#paint2_linear)"/>
<path d="M47.0539 511.609C47.3618 522.065 46.97 530.914 45.4585 536.466C44.8707 538.664 44.1149 540.327 43.1632 541.398C42.8273 541.792 42.4635 542.074 42.0436 542.271C37.7051 544.554 34.738 540.44 34.738 540.44C33.4505 540.778 32.4148 540.778 31.5471 540.552H31.5191C31.1552 540.468 30.8193 540.327 30.5394 540.186C28.2442 539.002 27.9083 536.071 27.9083 536.071C23.8216 537.678 20.3788 533.112 20.3788 533.112C20.3788 533.112 19.623 533.563 18.3915 534.042C18.3635 534.07 18.3634 534.07 18.3634 534.07C18.0835 534.155 17.8316 534.268 17.5237 534.352C17.4678 534.38 17.4397 534.38 17.4397 534.38C14.1928 535.367 8.93059 535.789 5.40376 530.153C3.02455 526.348 3.41639 515.893 4.75994 503.718C5.20779 499.744 5.76763 495.629 6.35543 491.487C8.03488 479.34 10.0782 467.109 10.8619 459.161C12.6813 440.166 15.6203 443.576 27.9363 441.998C30.5114 441.66 33.4225 441.04 36.3895 440.251C43.751 438.334 51.6724 435.516 56.3469 433.712C55.0033 436.784 54.1636 440.025 53.7717 443.323C52.4842 453.468 55.2552 464.149 59.3979 471.702C48.2016 480.383 46.6621 498.109 47.0539 511.609Z" fill="url(#paint3_linear)"/>
<g opacity="0.45">
<path opacity="0.45" d="M37.1362 528.54C36.8003 530.654 35.4008 541.87 43.1542 541.391C42.8183 541.786 42.4545 542.068 42.0346 542.265C37.696 544.548 34.729 540.433 34.729 540.433C33.4415 540.771 32.4058 540.771 31.5381 540.546C34.6171 539.644 36.7164 530.428 37.1362 528.54Z" fill="url(#paint4_linear)"/>
<path opacity="0.45" d="M24.7429 522.033C23.7072 532.32 23.7073 534.884 26.7862 534.377C29.3894 533.926 31.0128 528.149 31.4607 526.43C31.0128 528.656 29.1654 538.069 30.565 540.183C28.2697 538.999 27.9338 536.068 27.9338 536.068C23.8472 537.674 20.4044 533.109 20.4044 533.109C20.4044 533.109 19.6486 533.56 18.417 534.039C19.9845 533.306 23.0354 530.713 24.7429 522.033Z" fill="url(#paint5_linear)"/>
<path opacity="0.45" d="M4.7885 503.717C6.46794 515.046 10.2747 533.196 17.4683 534.38C14.2214 535.366 8.9591 535.789 5.43227 530.152C3.02507 526.319 3.41695 515.892 4.7885 503.717Z" fill="url(#paint6_linear)"/>
</g>
<g opacity="0.25">
<path opacity="0.25" d="M236.3 396.038C232.549 424.502 177.968 430.082 125.205 435.493C95.199 438.565 66.5645 441.496 53.4648 448.626C53.4648 447.161 53.5208 445.723 53.6888 444.258C68.132 437.494 94.8911 434.76 124.841 431.66C173.741 426.644 229.163 420.951 232.522 395.53C238.4 351.058 152.048 314.308 151.264 313.97H151.292C157.338 315.718 163.244 317.69 169.011 319.832C172.006 320.959 174.973 322.115 177.856 323.355C202.208 336.46 240.723 362.67 236.3 396.038Z" fill="white"/>
</g>
<path d="M65.0483 450.678C65.0203 451.157 64.9923 451.664 64.9643 452.143C64.9083 452.961 64.8243 453.806 64.6844 454.623C64.6564 454.652 64.6564 454.652 64.6564 454.708V454.736C64.4605 456.286 64.1805 457.752 63.8447 459.217C63.7047 459.781 63.5648 460.316 63.4248 460.852C63.2849 461.359 63.1449 461.838 63.005 462.345C62.6971 463.416 62.3332 464.487 61.9413 465.502C61.4655 466.798 60.9336 468.038 60.4018 469.25C60.0099 470.096 59.5901 470.941 59.1702 471.73C59.0862 471.871 59.0302 472.012 58.9463 472.125C58.9183 472.125 58.9183 472.153 58.9183 472.153C56.9589 475.619 54.7477 478.381 52.5084 480.1C52.5084 480.1 52.4804 480.1 52.4804 480.129C51.9206 480.523 51.3888 480.889 50.829 481.171C47.4141 482.947 30.2558 484.666 7.35941 484.469C-21.8069 484.187 -60.1542 480.805 -90.972 470.434C-116.751 461.782 -137.157 448.254 -142.531 427.596C-151.46 393.214 -123.133 356.323 -77.3125 331.945C-73.2538 329.775 -69.0553 327.718 -64.7447 325.773C-60.5741 323.885 -56.2915 322.081 -51.8969 320.446C-36.2501 314.444 -19.2598 309.878 -1.51364 307.144L59.2262 319.065H59.3102V377.685H59.2262C19.0595 377.713 -9.68692 404.712 -9.68692 404.712L-9.57498 404.74C-7.1118 405.248 32.4111 413.28 53.5441 422.58C55.8113 424.384 57.7147 426.413 59.2542 428.611C60.4298 430.245 61.4095 431.993 62.1932 433.768C62.4451 434.36 62.697 434.924 62.893 435.516C63.1169 436.107 63.3129 436.699 63.4808 437.291C63.8727 438.475 64.1526 439.687 64.3765 440.927C64.4884 441.547 64.6004 442.167 64.6844 442.787C64.8803 444.027 64.9923 445.267 65.0202 446.535C65.1602 447.888 65.1322 449.297 65.0483 450.678Z" fill="url(#paint7_linear)"/>
<path d="M113.16 530.163C109.606 535.8 104.371 535.377 101.124 534.391C101.124 534.391 101.096 534.391 101.04 534.362C100.732 534.278 100.453 534.165 100.201 534.081C100.201 534.081 100.173 534.081 100.173 534.052C98.9411 533.602 98.1853 533.122 98.1853 533.122C98.1853 533.122 94.7424 537.688 90.6558 536.082C90.6558 536.082 90.3199 538.984 88.0247 540.196C87.7448 540.337 87.4089 540.478 87.045 540.563H87.017C86.1773 540.788 85.1136 540.788 83.8261 540.45C83.8261 540.45 80.8591 544.565 76.5205 542.282C76.1286 542.056 75.7648 541.774 75.4009 541.408C72.014 537.716 71.0903 526.19 71.5102 511.619C71.7901 502.404 71.1183 491.215 67.1156 482.309C66.3599 480.59 65.4642 478.956 64.4285 477.462C62.973 475.292 61.2096 473.376 59.1383 471.769C59.5862 470.98 59.978 470.163 60.3699 469.289C60.9297 468.105 61.4335 466.837 61.9094 465.541C62.3012 464.526 62.6651 463.455 62.973 462.384C63.113 461.877 63.2529 461.398 63.3929 460.891C63.5329 460.355 63.6728 459.82 63.8127 459.256C64.1486 457.762 64.4285 456.269 64.6245 454.747C64.6245 454.719 64.6245 454.691 64.6525 454.662C64.7364 453.845 64.8484 453 64.9044 452.182C65.0723 450.294 65.1283 448.406 65.0443 446.489C64.9884 445.249 64.8764 443.981 64.7084 442.741C64.6245 442.121 64.5125 441.501 64.4006 440.881C64.1766 439.641 63.8687 438.429 63.5048 437.246C63.3369 436.654 63.113 436.062 62.917 435.47C62.6931 434.878 62.4692 434.286 62.2173 433.723C68.7391 436.231 81.7548 440.825 90.6278 441.98C95.4702 442.6 98.8571 442.459 101.32 443.22C105.099 444.348 106.61 447.645 107.702 459.172C108.738 469.825 112.041 488.171 113.776 503.728C115.148 515.903 115.568 526.33 113.16 530.163Z" fill="url(#paint8_linear)"/>
<g opacity="0.45">
<path opacity="0.45" d="M81.4501 528.546C81.786 530.66 83.1855 541.876 75.432 541.397C75.7679 541.792 76.1318 542.074 76.5517 542.271C80.8902 544.554 83.8573 540.439 83.8573 540.439C85.1449 540.777 86.1805 540.777 87.0482 540.552C83.9413 539.65 81.8699 530.434 81.4501 528.546Z" fill="url(#paint9_linear)"/>
<path opacity="0.45" d="M93.8241 522.039C94.8598 532.326 94.8598 534.89 91.7808 534.383C89.1777 533.932 87.5542 528.155 87.1063 526.436C87.5542 528.662 89.4016 538.075 88.0021 540.189C90.2973 539.005 90.6332 536.074 90.6332 536.074C94.7199 537.68 98.1627 533.115 98.1627 533.115C98.1627 533.115 98.9185 533.566 100.15 534.045C98.6106 533.312 95.5596 530.719 93.8241 522.039Z" fill="url(#paint10_linear)"/>
<path opacity="0.45" d="M113.809 503.722C112.129 515.051 108.323 533.201 101.129 534.385C104.376 535.371 109.638 535.794 113.165 530.157C115.572 526.324 115.152 515.897 113.809 503.722Z" fill="url(#paint11_linear)"/>
</g>
<g opacity="0.25">
<path opacity="0.25" d="M65.0414 450.687C65.0134 451.166 64.9854 451.673 64.9574 452.152C64.9014 452.97 64.8174 453.815 64.6775 454.632C64.6495 454.661 64.6495 454.661 64.6495 454.717C50.2063 447.925 13.9862 441.387 -14.8442 438.428C-67.6068 433.016 -122.189 427.408 -125.939 398.972C-129.774 369.831 -100.888 346.13 -77.2915 331.898C-73.8767 329.84 -70.5457 327.952 -67.4668 326.318C-64.5837 325.077 -61.6167 323.922 -58.6217 322.795C-56.4105 321.977 -54.1432 321.16 -51.8759 320.399C-48.2651 319.159 -44.6263 318.004 -40.9316 316.933H-40.9036C-41.7153 317.271 -128.039 354.021 -122.161 398.493C-118.802 423.914 -63.3801 429.606 -14.4803 434.623C14.798 437.61 49.9264 444.12 65.0414 450.687Z" fill="white"/>
</g>
<path d="M332.681 287.87C318.098 291.534 311.184 289.589 307.182 292.577C304.607 294.493 296.601 304.864 275.02 311.91C263.32 315.715 247.646 318.561 226.652 318.561C197.29 318.561 171.679 297.903 153.177 276.907L153.149 276.879C153.961 276.315 154.772 275.78 155.584 275.216C156.452 274.624 157.291 274.033 158.075 273.384C158.775 272.877 159.447 272.37 160.118 271.834C161.546 270.707 162.946 269.58 164.261 268.452C166.248 266.762 168.096 265.071 169.803 263.408C170.979 262.281 172.071 261.153 173.078 260.026C174.842 258.11 176.465 256.193 177.921 254.277C181.335 249.824 183.939 245.484 185.898 241.369C188.473 235.986 189.985 230.998 190.796 226.63C190.824 226.63 190.824 226.658 190.824 226.658C204.792 248.866 233.986 275.724 266.119 279.556C270.738 280.12 275.468 280.205 280.171 279.725C291.955 278.542 296.741 270.82 298.757 261.717C300.8 252.614 307.798 251.064 312.752 251.74C317.706 252.445 317.37 258.56 314.627 259.575C311.912 260.59 307.91 264.253 308.833 268.96C309.757 273.666 321.569 275.16 324.06 270.566C326.551 266.001 318.714 261.745 320.757 257.969C322.801 254.192 326.915 255.911 330.89 260.928C334.893 265.972 333.045 272.483 334.893 272.257C336.712 272.032 348.86 256.109 354.094 258.279C359.412 260.505 347.237 284.207 332.681 287.87Z" fill="url(#paint12_linear)"/>
<path d="M190.868 226.689C190.056 231.058 188.545 236.046 185.97 241.429C184.01 245.544 181.407 249.884 177.964 254.336C176.509 256.225 174.886 258.141 173.122 260.086C172.114 261.185 171.023 262.34 169.847 263.468C168.14 265.187 166.32 266.849 164.305 268.512C162.989 269.64 161.618 270.767 160.162 271.894C159.491 272.43 158.819 272.937 158.119 273.444C157.307 274.064 156.468 274.684 155.628 275.276C154.844 275.84 154.032 276.375 153.221 276.939L153.193 276.911C150.478 273.839 147.93 270.739 145.551 267.695C145.523 267.695 145.523 267.695 145.523 267.695C131.052 249.348 122.627 233.087 122.627 233.087C122.627 233.087 118.512 256.112 121.255 268.794C123.998 281.504 128.421 297.315 126.378 305.206C124.334 313.097 87.6105 328.203 59.1999 328.203C40.67 328.203 18.5853 321.777 4.89787 315.098C-2.37972 311.547 -7.25008 307.94 -7.97784 305.206C-9.99318 297.287 -5.59867 281.476 -2.85558 268.794C-0.14048 256.112 -4.25511 233.087 -4.25511 233.087C-4.25511 233.087 -15.7033 255.182 -34.821 276.939C-40.2512 273.303 -44.8976 269.611 -48.9283 265.919C-64.5751 251.603 -70.4531 237.314 -72.4965 226.746C-71.3768 224.942 -70.3412 223.167 -69.3895 221.419C-57.1575 198.563 -26.3398 130.136 32.4127 113.452C40.754 111.085 49.683 109.76 59.1999 109.76C69.1086 109.76 78.4015 111.226 87.0506 113.79C111.123 120.921 130.492 136.759 145.719 154.458C167.244 179.427 180.624 208.117 187.761 221.419C188.713 223.11 189.749 224.858 190.868 226.689Z" fill="url(#paint13_linear)"/>
<path d="M73.9598 119.091C72.5883 122.755 64.303 126.418 59.3487 126.418C55.43 126.418 49.384 124.135 46.361 121.317C45.5773 120.613 44.9895 119.824 44.7096 119.091C43.338 115.427 44.7096 100.096 44.7096 100.096L59.3487 94.3748L73.9598 100.096C73.9598 100.096 74.1558 102.209 74.3237 105.056C74.5756 109.875 74.7996 116.78 73.9598 119.091Z" fill="url(#paint14_linear)"/>
<path d="M98.6076 71.2264C96.6482 81.5412 89.7345 79.9066 89.7345 79.9066C89.7345 79.9066 89.7346 80.0757 89.7066 80.3857C89.6226 83.1476 88.391 97.1543 74.1437 103.044C70.225 104.651 65.3547 105.665 59.2807 105.665C55.8658 105.665 52.8428 105.355 50.1557 104.792C48.0564 104.369 46.181 103.777 44.4736 103.073C28.5749 96.5343 28.8268 79.9066 28.8268 79.9066C28.8268 79.9066 21.9971 81.9921 20.0097 71.6773C19.31 68.07 19.9817 65.449 21.1853 63.5608C21.1853 63.5608 21.2133 63.5326 21.2693 63.4762C22.305 61.7853 23.7605 60.6861 24.9641 60.038C25.048 59.9816 25.16 59.9252 25.244 59.897C25.7758 59.6152 26.2516 59.4461 26.5595 59.3052C26.6435 59.2488 26.7835 59.2207 26.8674 59.2207C26.9794 59.1643 27.0914 59.1361 27.2033 59.1361C27.2033 59.1361 28.3509 70.4091 30.0584 70.5782C30.5902 70.6346 31.4579 68.2954 32.4096 65.0544C34.5369 57.8115 37.0561 46.0312 37.0561 46.0312C37.0561 46.0312 44.8935 48.7931 60.2324 49.9768C75.5993 51.1605 77.8105 48.2577 77.8105 48.2577C77.8105 48.2577 78.2864 49.075 79.1821 50.005C80.2177 51.0759 81.7852 52.2878 83.8005 52.5696C83.8005 52.5696 86.0118 70.6064 87.7192 70.6064C89.4266 70.6064 91.442 59.1643 91.442 59.1643C91.442 59.1643 100.595 60.9116 98.6076 71.2264Z" fill="url(#paint15_linear)"/>
<path d="M97.5794 42.4872C100.994 50.2092 91.4214 59.0867 91.4214 59.0867C91.4214 59.0867 89.4061 70.5287 87.6986 70.5287C85.9632 70.5287 83.78 52.492 83.78 52.492C80.0292 51.9847 77.8179 48.18 77.8179 48.18C77.8179 48.18 75.6067 51.0828 60.2398 49.8992C44.8729 48.7155 37.0635 45.9536 37.0635 45.9536C37.0635 45.9536 31.7732 70.6978 30.0658 70.5006C28.3584 70.3315 27.2107 59.0585 27.2107 59.0585C27.0988 59.0866 26.9868 59.0867 26.8749 59.143C26.7909 59.1712 26.6509 59.1712 26.567 59.2276C26.1191 59.3403 25.6993 59.5658 25.2514 59.8194C25.1674 59.8476 25.0834 59.9039 24.9715 59.9603C23.7679 60.6085 22.3124 61.7076 21.2767 63.3986C21.2207 63.4549 21.1928 63.4831 21.1928 63.4831C21.1928 63.4831 15.5946 57.4239 12.7396 50.5755C11.424 47.4473 10.7242 44.1499 11.424 41.219C13.6353 31.9469 22.6763 35.2161 22.6763 35.2161C22.6763 35.2161 21.8085 30.0587 22.2284 23.9713C22.7042 16.7566 24.9155 8.18907 32.417 5.31446C46.2444 -0.0120308 55.2854 10.641 55.2854 10.641C55.2854 10.641 72.1918 -4.83124 94.8643 1.53801C101.75 3.45442 106.061 7.68179 108.356 12.6983C108.384 12.6983 108.384 12.7265 108.384 12.7265C109.671 15.5447 110.287 18.5884 110.371 21.6603C110.623 31.2705 105.501 40.768 97.5794 42.4872Z" fill="#2D4D6D"/>
<path opacity="0.45" d="M74.3221 105.061C71.4671 105.258 65.813 106.16 64.3015 110.387C62.2581 116.136 56.9119 111.543 52.5733 118.278C50.8379 120.984 48.5986 121.491 46.3594 121.322C45.5756 120.617 44.9878 119.828 44.7079 119.096C43.7283 116.446 44.1481 107.766 44.484 103.088C48.3747 104.694 53.2451 105.681 59.2911 105.681C65.3931 105.681 70.2635 104.666 74.1542 103.06C74.2102 103.68 74.2662 104.328 74.3221 105.061Z" fill="url(#paint16_linear)"/>
<path d="M46.3887 72.2243C46.3887 70.3643 47.6483 68.8706 49.1877 68.8706C50.7272 68.8706 51.9868 70.3643 51.9868 72.2243" stroke="url(#paint17_linear)" stroke-width="0.684" stroke-miterlimit="10" stroke-linecap="round" stroke-linejoin="round"/>
<path d="M66.7061 72.2151C66.7061 70.355 67.9656 68.8613 69.5051 68.8613C71.0446 68.8613 72.3042 70.355 72.3042 72.2151" stroke="url(#paint18_linear)" stroke-width="0.684" stroke-miterlimit="10" stroke-linecap="round" stroke-linejoin="round"/>
<path d="M48.6018 83.7004H70.0707C70.0707 83.7004 68.1393 91.5916 58.7624 91.5916C50.2813 91.6197 48.6018 83.7004 48.6018 83.7004Z" fill="white"/>
<path d="M396.321 369.064C396.321 369.064 381.598 318.815 369.702 287.588C357.806 256.362 401.387 229.222 419.217 264.93C437.047 300.637 425.879 372.756 425.879 372.756L396.321 369.064Z" fill="url(#paint19_linear)"/>
<g opacity="0.45">
<path opacity="0.45" d="M386.652 249.577C391.55 258.905 395.385 268.685 398.968 278.548C402.467 288.44 405.714 298.445 408.513 308.619C411.34 318.765 413.635 329.08 415.147 339.592C416.546 350.076 417.33 360.898 414.867 371.663L410.78 370.677C413.019 360.898 412.124 350.414 410.892 340.212C409.549 329.953 407.281 319.779 404.734 309.69C402.187 299.601 399.192 289.596 395.945 279.676C392.698 269.755 389.283 259.892 386.176 249.859L386.652 249.577Z" fill="#373737"/>
</g>
<path opacity="0.45" d="M372.464 295.012L405.381 304.537L423.715 276.524" stroke="#373737" stroke-width="0.6539" stroke-miterlimit="10"/>
<path opacity="0.45" d="M381.893 322.621L412.907 339.023L429.309 321.325" stroke="#373737" stroke-width="0.6539" stroke-miterlimit="10"/>
<path d="M555.731 247.13C555.731 247.13 555.703 247.158 555.647 247.158C538.209 258.29 506.131 330.268 494.683 328.211C483.235 326.125 480.884 320.63 480.688 326.153C480.492 331.677 487.881 337.144 485.866 341.372C484.243 344.754 461.122 359.86 447.547 374.317C444.104 377.953 441.277 381.56 439.569 384.942C431.06 401.682 410.515 376.29 410.515 376.29C410.515 376.29 425.574 316.064 431.2 310.399C436.854 304.735 435.287 321.954 439.989 323.166C444.692 324.406 436.826 303.664 444.496 293.969C446.847 291.01 449.898 287.571 453.201 284.302C460.675 276.918 469.38 270.521 473.83 272.917C480.24 276.327 475.37 280.667 481.108 280.441C486.846 280.216 477.049 271.507 486.426 262.686C495.803 253.893 529.895 240.535 555.731 247.13Z" fill="url(#paint20_linear)"/>
<path d="M455.437 407.012L419.441 467.52C417.314 471.071 412.919 472.565 409.085 470.987L359.877 450.526C356.042 448.948 353.971 444.749 354.951 440.719L355.846 437.111L371.829 372.263C373.061 367.303 378.407 364.598 383.109 366.542L451.462 394.95C455.325 396.557 457.285 400.671 456.417 404.532C456.249 405.378 455.885 406.223 455.437 407.012Z" fill="url(#paint21_linear)"/>
<path d="M467.113 394.357L462.13 406.503C460.507 410.449 456.028 412.309 452.11 410.703L371.608 377.25C368.417 375.925 366.598 372.684 366.906 369.415V369.387C366.962 368.626 367.13 367.893 367.438 367.161L372.42 355.014C374.044 351.068 378.522 349.18 382.441 350.815L462.942 384.267C466.861 385.902 468.736 390.411 467.113 394.357Z" fill="url(#paint22_linear)"/>
</g>
<defs>
<linearGradient id="paint0_linear" x1="74.559" y1="431.376" x2="76.4688" y2="749.061" gradientUnits="userSpaceOnUse">
<stop/>
<stop offset="1" stop-opacity="0"/>
</linearGradient>
<linearGradient id="paint1_linear" x1="348.856" y1="498.04" x2="349.419" y2="591.58" gradientUnits="userSpaceOnUse">
<stop/>
<stop offset="1" stop-opacity="0"/>
</linearGradient>
<linearGradient id="paint2_linear" x1="149.985" y1="271.491" x2="163.821" y2="540.818" gradientUnits="userSpaceOnUse">
<stop stop-color="#2D4D6D"/>
<stop offset="1" stop-color="#4B7999"/>
</linearGradient>
<linearGradient id="paint3_linear" x1="94.9721" y1="543.703" x2="-29.324" y2="425.994" gradientUnits="userSpaceOnUse">
<stop stop-color="#FFE5C0"/>
<stop offset="1" stop-color="#FFA992"/>
</linearGradient>
<linearGradient id="paint4_linear" x1="29.034" y1="580.442" x2="54.2689" y2="462.337" gradientUnits="userSpaceOnUse">
<stop/>
<stop offset="1" stop-opacity="0"/>
</linearGradient>
<linearGradient id="paint5_linear" x1="15.9619" y1="577.65" x2="41.1965" y2="459.547" gradientUnits="userSpaceOnUse">
<stop/>
<stop offset="1" stop-opacity="0"/>
</linearGradient>
<linearGradient id="paint6_linear" x1="-0.487201" y1="574.138" x2="24.7474" y2="456.034" gradientUnits="userSpaceOnUse">
<stop/>
<stop offset="1" stop-opacity="0"/>
</linearGradient>
<linearGradient id="paint7_linear" x1="-46.7511" y1="281.601" x2="-32.9168" y2="550.91" gradientUnits="userSpaceOnUse">
<stop stop-color="#2D4D6D"/>
<stop offset="1" stop-color="#4B7999"/>
</linearGradient>
<linearGradient id="paint8_linear" x1="107.924" y1="541.624" x2="62.3461" y2="421.824" gradientUnits="userSpaceOnUse">
<stop stop-color="#FFE5C0"/>
<stop offset="1" stop-color="#FFA992"/>
</linearGradient>
<linearGradient id="paint9_linear" x1="89.5403" y1="580.448" x2="64.3059" y2="462.343" gradientUnits="userSpaceOnUse">
<stop/>
<stop offset="1" stop-opacity="0"/>
</linearGradient>
<linearGradient id="paint10_linear" x1="102.621" y1="577.656" x2="77.3869" y2="459.553" gradientUnits="userSpaceOnUse">
<stop/>
<stop offset="1" stop-opacity="0"/>
</linearGradient>
<linearGradient id="paint11_linear" x1="119.073" y1="574.143" x2="93.8382" y2="456.039" gradientUnits="userSpaceOnUse">
<stop/>
<stop offset="1" stop-opacity="0"/>
</linearGradient>
<linearGradient id="paint12_linear" x1="78.3061" y1="325.908" x2="473.142" y2="183.396" gradientUnits="userSpaceOnUse">
<stop stop-color="#FFE5C0"/>
<stop offset="1" stop-color="#FFA992"/>
</linearGradient>
<linearGradient id="paint13_linear" x1="65.8964" y1="109.922" x2="53.2128" y2="327.988" gradientUnits="userSpaceOnUse">
<stop stop-color="#96C9D9"/>
<stop offset="1" stop-color="#6BA5C0"/>
</linearGradient>
<linearGradient id="paint14_linear" x1="77.7196" y1="129.169" x2="34.8819" y2="84.8029" gradientUnits="userSpaceOnUse">
<stop stop-color="#FFE5C0"/>
<stop offset="1" stop-color="#FFA992"/>
</linearGradient>
<linearGradient id="paint15_linear" x1="60.4955" y1="112.255" x2="58.0742" y2="23.6254" gradientUnits="userSpaceOnUse">
<stop stop-color="#FFE5C0"/>
<stop offset="1" stop-color="#FFA992"/>
</linearGradient>
<linearGradient id="paint16_linear" x1="48.7403" y1="96.1204" x2="82.013" y2="142.385" gradientUnits="userSpaceOnUse">
<stop/>
<stop offset="1" stop-opacity="0"/>
</linearGradient>
<linearGradient id="paint17_linear" x1="48.4989" y1="67.973" x2="49.4593" y2="73.6234" gradientUnits="userSpaceOnUse">
<stop stop-color="#561111"/>
<stop offset="1" stop-color="#862E2D"/>
</linearGradient>
<linearGradient id="paint18_linear" x1="68.7958" y1="67.9637" x2="69.7563" y2="73.6141" gradientUnits="userSpaceOnUse">
<stop stop-color="#561111"/>
<stop offset="1" stop-color="#862E2D"/>
</linearGradient>
<linearGradient id="paint19_linear" x1="397.567" y1="256.213" x2="400.364" y2="380.297" gradientUnits="userSpaceOnUse">
<stop stop-color="#EAF6FD"/>
<stop offset="1" stop-color="#33C2CF"/>
</linearGradient>
<linearGradient id="paint20_linear" x1="508.065" y1="208.468" x2="457.548" y2="414.747" gradientUnits="userSpaceOnUse">
<stop stop-color="#F4F9F4"/>
<stop offset="1" stop-color="#DDEAC4"/>
</linearGradient>
<linearGradient id="paint21_linear" x1="371.561" y1="486.135" x2="419.882" y2="376.729" gradientUnits="userSpaceOnUse">
<stop stop-color="#2D4D6D"/>
<stop offset="1" stop-color="#4B7999"/>
</linearGradient>
<linearGradient id="paint22_linear" x1="444.616" y1="514.331" x2="388.925" y2="245.751" gradientUnits="userSpaceOnUse">
<stop stop-color="#2D4D6D"/>
<stop offset="1" stop-color="#4B7999"/>
</linearGradient>
</defs>
</svg>
