<svg width="256" height="70" viewBox="0 0 256 70" fill="none" xmlns="http://www.w3.org/2000/svg">
<rect width="256" height="70" rx="10" fill="#6BA5C0"/>
<path d="M24.6665 43.0346C22.6625 43.0346 21.0065 42.5066 19.6985 41.4506L20.4725 40.0826C21.1205 40.5866 21.7805 40.9526 22.4525 41.1806C23.1365 41.4086 23.8925 41.5226 24.7205 41.5226C25.6925 41.5226 26.4365 41.3486 26.9525 41.0006C27.4685 40.6526 27.7265 40.1606 27.7265 39.5246C27.7265 39.1286 27.5945 38.8046 27.3305 38.5526C27.0665 38.2886 26.7425 38.0846 26.3585 37.9406C25.9865 37.7846 25.4465 37.5986 24.7385 37.3826C23.8385 37.1186 23.1065 36.8666 22.5425 36.6266C21.9905 36.3746 21.5165 36.0146 21.1205 35.5466C20.7245 35.0666 20.5265 34.4366 20.5265 33.6566C20.5265 32.9126 20.7245 32.2586 21.1205 31.6946C21.5285 31.1306 22.1045 30.6986 22.8485 30.3986C23.5925 30.0866 24.4625 29.9306 25.4585 29.9306C26.3465 29.9306 27.1865 30.0686 27.9785 30.3446C28.7825 30.6206 29.4545 31.0106 29.9945 31.5146L29.2205 32.8826C28.6685 32.4026 28.0685 32.0426 27.4205 31.8026C26.7725 31.5626 26.1065 31.4426 25.4225 31.4426C24.4625 31.4426 23.7185 31.6286 23.1905 32.0006C22.6625 32.3726 22.3985 32.8826 22.3985 33.5306C22.3985 33.9626 22.5365 34.3226 22.8125 34.6106C23.0885 34.8986 23.4305 35.1266 23.8385 35.2946C24.2465 35.4506 24.8165 35.6366 25.5485 35.8526C26.4245 36.1046 27.1325 36.3506 27.6725 36.5906C28.2125 36.8186 28.6685 37.1606 29.0405 37.6166C29.4245 38.0606 29.6165 38.6426 29.6165 39.3626C29.6165 40.5026 29.1725 41.4026 28.2845 42.0626C27.4085 42.7106 26.2025 43.0346 24.6665 43.0346ZM35.6431 43.0166C34.7671 43.0166 33.9991 42.8366 33.3391 42.4766C32.6791 42.1166 32.1691 41.6066 31.8091 40.9466C31.4611 40.2746 31.2871 39.4946 31.2871 38.6066C31.2871 37.5986 31.4731 36.7166 31.8451 35.9606C32.2291 35.2046 32.7631 34.6226 33.4471 34.2146C34.1311 33.8066 34.9231 33.6026 35.8231 33.6026C36.6991 33.6026 37.4611 33.7886 38.1091 34.1606C38.7691 34.5206 39.2731 35.0306 39.6211 35.6906C39.9811 36.3506 40.1611 37.1246 40.1611 38.0126C40.1611 39.0206 39.9691 39.9026 39.5851 40.6586C39.2131 41.4146 38.6851 41.9966 38.0011 42.4046C37.3291 42.8126 36.5431 43.0166 35.6431 43.0166ZM35.6611 41.5946C36.5131 41.5946 37.1671 41.2646 37.6231 40.6046C38.0911 39.9446 38.3251 39.0626 38.3251 37.9586C38.3251 37.0226 38.1091 36.3026 37.6771 35.7986C37.2451 35.2946 36.6271 35.0426 35.8231 35.0426C34.9591 35.0426 34.2931 35.3726 33.8251 36.0326C33.3571 36.6806 33.1231 37.5566 33.1231 38.6606C33.1231 39.6206 33.3331 40.3526 33.7531 40.8566C34.1851 41.3486 34.8211 41.5946 35.6611 41.5946ZM50.5301 33.8186L49.8281 42.8906H48.0461L48.1541 41.5226C47.8541 42.0026 47.4401 42.3746 46.9121 42.6386C46.3961 42.8906 45.8261 43.0166 45.2021 43.0166C44.2061 43.0166 43.4441 42.7526 42.9161 42.2246C42.4001 41.6846 42.1421 40.9046 42.1421 39.8846C42.1421 39.6446 42.1481 39.4646 42.1601 39.3446L42.5921 33.8186H44.4101L43.9601 39.2366C43.9481 39.3206 43.9421 39.4466 43.9421 39.6146C43.9421 40.9106 44.5481 41.5586 45.7601 41.5586C46.5041 41.5586 47.0981 41.3246 47.5421 40.8566C47.9981 40.3886 48.2561 39.7406 48.3161 38.9126L48.7301 33.8186H50.5301ZM57.891 33.6026C58.911 33.6026 59.685 33.8726 60.213 34.4126C60.741 34.9526 61.005 35.7446 61.005 36.7886C61.005 37.0046 60.999 37.1726 60.987 37.2926L60.537 42.8906H58.737L59.169 37.4006C59.181 37.3166 59.187 37.1906 59.187 37.0226C59.187 35.7266 58.569 35.0786 57.333 35.0786C56.553 35.0786 55.935 35.3126 55.479 35.7806C55.023 36.2486 54.765 36.8966 54.705 37.7246L54.291 42.8906H52.473L52.995 36.3746C53.043 35.8826 53.067 35.3126 53.067 34.6646C53.067 34.2926 53.061 34.0106 53.049 33.8186H54.741L54.777 35.2586C55.077 34.7426 55.497 34.3406 56.037 34.0526C56.589 33.7526 57.207 33.6026 57.891 33.6026ZM72.4849 29.6426L71.4229 42.8906H69.6409L69.7489 41.5406C69.4489 42.0086 69.0409 42.3746 68.5249 42.6386C68.0089 42.8906 67.4449 43.0166 66.8329 43.0166C66.0649 43.0166 65.3869 42.8426 64.7989 42.4946C64.2229 42.1346 63.7729 41.6246 63.4489 40.9646C63.1249 40.3046 62.9629 39.5366 62.9629 38.6606C62.9629 37.6646 63.1429 36.7826 63.5029 36.0146C63.8629 35.2466 64.3669 34.6526 65.0149 34.2326C65.6629 33.8126 66.4069 33.6026 67.2469 33.6026C67.9429 33.6026 68.5489 33.7466 69.0649 34.0346C69.5809 34.3226 69.9709 34.7366 70.2349 35.2766L70.6669 29.6426H72.4849ZM67.3549 41.5946C68.1829 41.5946 68.8309 41.2766 69.2989 40.6406C69.7789 39.9926 70.0189 39.1226 70.0189 38.0306C70.0189 37.0586 69.8029 36.3206 69.3709 35.8166C68.9389 35.3006 68.3149 35.0426 67.4989 35.0426C66.6589 35.0426 65.9989 35.3606 65.5189 35.9966C65.0389 36.6206 64.7989 37.4846 64.7989 38.5886C64.7989 39.5366 65.0209 40.2746 65.4649 40.8026C65.9089 41.3306 66.5389 41.5946 67.3549 41.5946ZM77.4056 43.0166C75.9296 43.0166 74.6636 42.6326 73.6076 41.8646L74.2736 40.5686C75.2816 41.2886 76.3376 41.6486 77.4416 41.6486C78.1016 41.6486 78.5996 41.5466 78.9356 41.3426C79.2716 41.1386 79.4396 40.8386 79.4396 40.4426C79.4396 40.0706 79.2716 39.7886 78.9356 39.5966C78.5996 39.4046 78.0776 39.2066 77.3696 39.0026C76.7336 38.8226 76.2116 38.6486 75.8036 38.4806C75.4076 38.3006 75.0656 38.0426 74.7776 37.7066C74.5016 37.3706 74.3636 36.9266 74.3636 36.3746C74.3636 35.5346 74.6936 34.8626 75.3536 34.3586C76.0256 33.8546 76.9196 33.6026 78.0356 33.6026C78.6956 33.6026 79.3196 33.7046 79.9076 33.9086C80.5076 34.1126 81.0056 34.4006 81.4016 34.7726L80.7536 36.0506C79.8776 35.3426 78.9716 34.9886 78.0356 34.9886C77.3996 34.9886 76.9076 35.1026 76.5596 35.3306C76.2236 35.5466 76.0556 35.8586 76.0556 36.2666C76.0556 36.5306 76.1456 36.7466 76.3256 36.9146C76.5056 37.0826 76.7216 37.2206 76.9736 37.3286C77.2376 37.4246 77.6156 37.5446 78.1076 37.6886C78.7436 37.8686 79.2596 38.0486 79.6556 38.2286C80.0636 38.3966 80.4116 38.6546 80.6996 39.0026C80.9876 39.3386 81.1316 39.7826 81.1316 40.3346C81.1316 41.1746 80.7956 41.8346 80.1236 42.3146C79.4516 42.7826 78.5456 43.0166 77.4056 43.0166Z" fill="#373737"/>
</svg>
