<svg width="176" height="46" viewBox="0 0 176 46" fill="none" xmlns="http://www.w3.org/2000/svg">
<rect width="176" height="46" rx="10" fill="#96C9D9"/>
<path d="M79.7355 16.76V31H78.1555L69.9955 20.24V31H68.0555V16.76H69.6155L77.7955 27.54V16.76H79.7355ZM91.4755 26H84.2755C84.3421 28.36 85.4155 29.54 87.4955 29.54C88.6555 29.54 89.7155 29.16 90.6755 28.4L91.2955 29.84C90.8421 30.24 90.2621 30.56 89.5555 30.8C88.8621 31.0267 88.1621 31.14 87.4555 31.14C85.8421 31.14 84.5755 30.68 83.6555 29.76C82.7355 28.8267 82.2755 27.5533 82.2755 25.94C82.2755 24.9133 82.4755 24 82.8755 23.2C83.2888 22.4 83.8621 21.78 84.5955 21.34C85.3288 20.9 86.1621 20.68 87.0955 20.68C88.4555 20.68 89.5221 21.12 90.2955 22C91.0821 22.88 91.4755 24.1 91.4755 25.66V26ZM87.1355 22.18C86.3755 22.18 85.7555 22.4067 85.2755 22.86C84.7955 23.3133 84.4888 23.96 84.3555 24.8H89.6955C89.6155 23.9467 89.3555 23.3 88.9155 22.86C88.4755 22.4067 87.8821 22.18 87.1355 22.18ZM102.996 31H100.596L97.6158 27.28L94.6758 31H92.2558L96.4558 25.82L92.4958 20.92H94.9158L97.6158 24.36L100.336 20.92H102.776L98.8158 25.82L102.996 31ZM107.136 22.48V27.54C107.136 28.2333 107.283 28.7267 107.576 29.02C107.883 29.3 108.303 29.44 108.836 29.44C109.183 29.44 109.536 29.3867 109.896 29.28V30.92C109.456 31.0667 108.956 31.14 108.396 31.14C107.356 31.14 106.549 30.8467 105.976 30.26C105.403 29.6733 105.116 28.82 105.116 27.7V22.48H103.156V20.92H105.116V18.4L107.136 17.7V20.92H109.916V22.48H107.136Z" fill="#373737"/>
</svg>
