<svg width="111" height="120" viewBox="0 0 111 120" fill="none" xmlns="http://www.w3.org/2000/svg">
<path d="M47.0978 117.824L49.4578 115.665C49.4903 114.569 49.5553 113.477 49.6455 112.392C49.6744 112.063 49.9631 111.824 50.2878 111.846C50.6162 111.875 50.858 112.164 50.8327 112.489C50.7461 113.535 50.6848 114.587 50.6523 115.64C50.6559 115.643 50.6631 115.647 50.6667 115.654L52.9149 118.312C53.1278 118.565 53.0953 118.942 52.8463 119.155C52.7345 119.249 52.5973 119.296 52.4602 119.296C52.2906 119.296 52.1246 119.224 52.0055 119.086L50.6234 117.452C50.6234 117.799 50.6198 118.15 50.627 118.497C50.627 118.511 50.6306 118.529 50.6306 118.544V118.728C50.6343 119.057 50.3708 119.325 50.0424 119.332C50.0388 119.332 50.0352 119.332 50.0352 119.332C49.7104 119.332 49.447 119.072 49.4398 118.746C49.4326 118.269 49.429 117.791 49.4326 117.314L47.9061 118.71C47.7907 118.815 47.6463 118.866 47.5056 118.866C47.3432 118.866 47.1844 118.801 47.0653 118.67C46.838 118.424 46.856 118.045 47.0978 117.824Z" fill="#96C9D9"/>
<path d="M47.4348 118.193L47.4353 118.193L49.7954 116.034L49.9514 115.891L49.9576 115.68C49.9898 114.594 50.0542 113.51 50.1438 112.433L49.6455 112.392M47.4348 118.193L50.6306 118.544C50.6306 118.537 50.6297 118.528 50.6288 118.52C50.6279 118.512 50.627 118.504 50.627 118.497L50.1272 118.507C50.1271 118.506 50.1271 118.505 50.1271 118.504C50.1216 118.238 50.1223 117.968 50.123 117.706C50.1232 117.62 50.1234 117.535 50.1234 117.452V116.086L51.0053 117.129L52.3847 118.76C52.4077 118.786 52.4348 118.796 52.4602 118.796C52.4821 118.796 52.5038 118.789 52.5227 118.774C52.5626 118.738 52.5673 118.676 52.5325 118.634C52.5324 118.634 52.5323 118.634 52.5322 118.634L50.2982 115.993L50.1459 115.84L50.1525 115.624C50.1853 114.563 50.2471 113.503 50.3343 112.45C50.338 112.398 50.2995 112.351 50.249 112.344C50.1911 112.343 50.1479 112.386 50.1436 112.435L49.6455 112.392M47.4348 118.193C47.3989 118.226 47.3926 118.288 47.4325 118.331L47.4343 118.333C47.4466 118.346 47.4583 118.354 47.4686 118.358C47.4791 118.363 47.4914 118.366 47.5056 118.366C47.5269 118.366 47.5499 118.358 47.5696 118.34C47.5697 118.34 47.5698 118.34 47.57 118.34L49.0951 116.945L49.9412 116.171L49.9326 117.318C49.929 117.79 49.9326 118.262 49.9397 118.736C49.9416 118.793 49.9858 118.832 50.0348 118.832L47.4348 118.193ZM49.6455 112.392C49.5553 113.477 49.4903 114.569 49.4578 115.665L50.6523 115.64C50.6848 114.587 50.7461 113.535 50.8327 112.489C50.858 112.164 50.6162 111.875 50.2878 111.846C49.9631 111.824 49.6744 112.063 49.6455 112.392Z" stroke="#2B2E34" stroke-opacity="0.04"/>
<path d="M64.9425 115.686C64.9642 114.023 65.0219 112.305 65.1266 111.061C65.1554 110.732 65.4441 110.493 65.7689 110.515C66.0973 110.543 66.3391 110.833 66.3138 111.158C66.2164 112.337 66.1586 114.001 66.137 115.611C66.1514 115.625 66.1622 115.636 66.1767 115.647L68.4249 118.305C68.6378 118.558 68.6053 118.934 68.3563 119.148C68.2444 119.242 68.1073 119.289 67.9702 119.289C67.8006 119.289 67.6346 119.216 67.5155 119.079L66.1262 117.437C66.1262 117.806 66.1298 118.16 66.1334 118.489C66.1334 118.504 66.137 118.522 66.137 118.536V118.721C66.1406 119.05 65.8772 119.318 65.5488 119.325C65.5452 119.325 65.5416 119.325 65.5416 119.325C65.2168 119.325 64.9534 119.064 64.9461 118.739C64.9389 118.298 64.9353 117.817 64.9317 117.31L63.4089 118.703C63.2934 118.808 63.149 118.858 63.0083 118.858C62.8459 118.858 62.6871 118.793 62.5681 118.663C62.3479 118.421 62.3624 118.041 62.6077 117.82L64.9425 115.686Z" fill="#96C9D9"/>
<path d="M65.1266 111.061L65.6248 111.103C65.5216 112.329 65.4641 114.033 65.4425 115.693L65.4397 115.909L65.2798 116.056L62.9451 118.189L62.9451 118.189L62.942 118.192C62.9073 118.223 62.9004 118.285 62.9376 118.326C62.9497 118.339 62.9612 118.347 62.9713 118.351C62.9818 118.356 62.9941 118.358 63.0083 118.358C63.0296 118.358 63.0526 118.351 63.0723 118.333C63.0724 118.333 63.0726 118.333 63.0727 118.333L64.5943 116.941L65.4237 116.183L65.4317 117.307C65.4353 117.813 65.4389 118.291 65.446 118.729C65.4477 118.785 65.4921 118.825 65.5411 118.825C65.5984 118.822 65.6376 118.776 65.637 118.726H65.637V118.721V118.556C65.6366 118.553 65.6362 118.548 65.6358 118.543C65.6348 118.532 65.6334 118.513 65.6334 118.489H66.1334M65.1266 111.061L65.6247 111.104C65.629 111.055 65.6721 111.012 65.7301 111.013C65.7806 111.02 65.8191 111.067 65.8154 111.119C65.7166 112.315 65.6587 113.991 65.637 115.604L65.6342 115.814L65.783 115.964C65.7838 115.964 65.7847 115.965 65.7857 115.966C65.7926 115.973 65.8047 115.986 65.8209 116L68.0422 118.627C68.0423 118.627 68.0423 118.627 68.0424 118.627C68.0773 118.669 68.0725 118.731 68.0327 118.766C68.0138 118.782 67.9921 118.789 67.9702 118.789C67.9447 118.789 67.9176 118.779 67.8946 118.753L66.5079 117.114L65.6262 116.072V117.437C65.6262 117.809 65.6298 118.166 65.6334 118.495L66.1334 118.489M65.1266 111.061C65.0219 112.305 64.9642 114.023 64.9425 115.686L66.137 115.611C66.1586 114.001 66.2164 112.337 66.3138 111.158C66.3391 110.833 66.0973 110.543 65.7689 110.515C65.4441 110.493 65.1554 110.732 65.1266 111.061ZM66.1334 118.489C66.1334 118.497 66.1343 118.505 66.1352 118.513C66.1361 118.521 66.137 118.529 66.137 118.536V118.721L68.3563 119.148C68.2444 119.242 68.1073 119.289 67.9702 119.289C67.8006 119.289 67.6346 119.216 67.5155 119.079L66.6289 118.031C66.6273 117.838 66.6262 117.64 66.6262 117.437H66.1262L65.7445 117.76L66.1305 118.216C66.1314 118.309 66.1324 118.4 66.1334 118.489Z" stroke="#2B2E34" stroke-opacity="0.04"/>
<path d="M0.0269547 41.3413C0.257912 31.587 2.08026 23.652 5.60228 17.0731C8.88975 10.932 13.8985 6.11087 19.3403 3.85404C27.7304 0.37476 36.2973 -0.778974 44.1136 0.515811C52.897 1.97335 60.6267 6.60998 65.3179 13.2358C71.1314 21.4494 72.0805 31.8981 72.9935 42.0032L73.1306 43.4933C74.058 53.5694 75.6711 64.9549 83.1698 72.5608C85.1943 74.6151 89.355 77.9172 94.4612 76.9624C95.5005 76.7671 96.4568 76.4307 97.3084 75.9569C97.6188 75.7833 97.9472 75.5808 98.2503 75.371C97.3734 73.1323 96.861 70.7814 96.7347 68.3763C96.6733 67.1828 96.6986 65.6529 97.4528 64.416C97.8136 63.8265 98.4704 63.2405 99.2318 63.3708C99.9355 63.4901 100.437 64.152 100.682 65.2876C101.119 67.2985 101.112 69.4215 100.69 71.4577L102.566 66.8103C102.779 66.2822 103.021 65.6818 103.494 65.2587C103.959 64.8428 104.764 64.6257 105.33 65.0489C105.745 65.3599 105.933 65.9133 105.904 66.7415C105.839 68.7705 105.092 70.7272 103.891 72.3475C105.006 71.5048 106.157 70.7055 107.337 69.964C108.123 69.4685 109.145 68.9586 110.047 69.4143C110.613 69.7036 110.989 70.3583 111 71.0816C111.01 71.6458 110.816 72.2498 110.422 72.8827C109.405 74.5175 107.51 75.6929 105.226 76.1088C104.468 76.2463 103.707 76.3005 102.956 76.3005C101.974 76.3005 101.011 76.2065 100.098 76.0871C100.632 83.6497 95.0278 91.8488 89.9901 97.5958C89.3117 98.3697 88.5972 99.1256 87.8646 99.8417C81.2753 106.298 72.8852 110.536 63.6038 112.099C60.9695 112.544 58.3208 112.761 55.6757 112.761C49.1512 112.761 42.6665 111.419 36.5896 108.782C20.1162 101.628 6.94109 86.0223 3.02573 69.0164C0.828072 59.4647 -0.182343 50.1516 0.0269547 41.3413Z" fill="#EAF6FD"/>
<path d="M105.226 76.1088C104.468 76.2463 103.707 76.3005 102.956 76.3005C102.154 76.3005 101.364 76.2377 100.603 76.1496C100.601 76.117 100.599 76.0845 100.597 76.0519L100.098 76.0871L100.033 76.5829C100.064 76.5869 100.094 76.5909 100.125 76.5948C100.382 84.0147 94.9153 91.9771 89.9901 97.5958C89.3117 98.3697 88.5972 99.1256 87.8646 99.8417C81.2753 106.298 72.8852 110.536 63.6038 112.099C60.9695 112.544 58.3208 112.761 55.6757 112.761C49.1512 112.761 42.6665 111.419 36.5896 108.782M105.226 76.1088L105.136 75.6169M105.226 76.1088L105.137 75.6169C105.136 75.6169 105.136 75.6169 105.136 75.6169M105.226 76.1088C107.51 75.6929 109.405 74.5175 110.422 72.8827C110.816 72.2498 111.01 71.6458 111 71.0816L3.02573 69.0164M105.136 75.6169C104.413 75.748 103.683 75.8005 102.956 75.8005C102.005 75.8005 101.066 75.7094 100.163 75.5914L99.556 75.512L99.5991 76.1224C99.857 79.773 98.6334 83.6166 96.6914 87.2885C94.7521 90.9553 92.1184 94.4093 89.6141 97.2662C88.9439 98.0308 88.2382 98.7773 87.5151 99.4842L87.5147 99.4846C80.9999 105.867 72.7036 110.06 63.5208 111.606L63.5206 111.606C60.9143 112.046 58.2934 112.261 55.6757 112.261C49.22 112.261 42.803 110.933 36.7886 108.324M105.136 75.6169C107.313 75.2206 109.07 74.109 109.998 72.6185C110.357 72.0409 110.508 71.5315 110.5 71.0912L110.5 71.0891C110.491 70.5218 110.197 70.0532 109.821 69.8604C109.517 69.707 109.174 69.7029 108.785 69.8134C108.389 69.9259 107.986 70.1462 107.603 70.3871L107.603 70.3874C106.436 71.1207 105.296 71.9117 104.192 72.7463L103.489 72.0496C104.636 70.5025 105.343 68.6426 105.404 66.7255L105.404 66.7241C105.431 65.96 105.251 65.6148 105.031 65.4493C104.879 65.3363 104.682 65.2959 104.454 65.3327C104.221 65.3703 103.991 65.4849 103.827 65.6312C103.455 65.9641 103.251 66.45 103.03 66.9972L103.03 66.9975L101.153 71.6449L100.2 71.3562C100.609 69.3854 100.615 67.3331 100.194 65.3937L100.194 65.3932C99.9613 64.3173 99.539 63.93 99.1482 63.8637L99.1475 63.8636C98.9243 63.8254 98.6979 63.8865 98.4703 64.0389C98.2388 64.1939 98.0312 64.4288 97.8794 64.6767C97.2115 65.7724 97.173 67.1638 97.234 68.3501C97.3574 70.7011 97.8583 72.9993 98.7158 75.1887L98.8601 75.5571L98.5348 75.7822C98.2174 76.0018 97.8754 76.2127 97.5525 76.3933L97.5515 76.3939C96.6485 76.8962 95.6405 77.2495 94.5536 77.4538L94.5531 77.4538C89.1838 78.4579 84.8586 74.9869 82.8137 72.9118C75.1739 65.1627 73.5585 53.5982 72.6327 43.5391L73.1306 43.4933L72.6327 43.5391L72.4956 42.049L72.4955 42.0482C71.5798 31.9135 70.6319 21.6091 64.9098 13.5247C60.3036 7.01894 52.6976 2.44713 44.0319 1.00909C36.3207 -0.268289 27.8485 0.867089 19.5319 4.3159C14.2155 6.5207 9.28648 11.2503 6.04309 17.3091C2.56763 23.801 0.75647 31.6539 0.526817 41.3532C0.318611 50.1174 1.32364 59.3886 3.51298 68.9043M36.7886 108.324C36.7887 108.324 36.7887 108.324 36.7888 108.324L36.5896 108.782M36.7886 108.324L36.5896 108.782M36.7886 108.324C20.4558 101.231 7.3915 85.75 3.51298 68.9043M36.5896 108.782C20.1162 101.628 6.94109 86.0223 3.02573 69.0164M3.02573 69.0164L3.51299 68.9043C3.51299 68.9043 3.51298 68.9043 3.51298 68.9043M3.02573 69.0164L3.51298 68.9043M101.464 69.5409C101.412 70.2186 101.317 70.8936 101.179 71.5592L100.69 71.4577L100.226 71.2705L100.971 69.4264C101.069 68.0364 100.975 66.6368 100.682 65.2876C100.437 64.152 99.9355 63.4901 99.2318 63.3708L101.464 69.5409ZM101.464 69.5409L102.566 66.8103L101.464 69.5409Z" stroke="#2B2E34" stroke-opacity="0.04"/>
<path d="M53.5358 63.0455C56.484 61.7037 59.6416 62.0436 61.7707 62.568C65.188 63.4071 68.5946 65.2914 71.9001 68.1703C74.8303 70.7274 77.3563 73.7582 79.7994 76.6877C80.3551 77.3532 80.9866 78.1091 81.2681 79.0205C81.5387 79.8813 81.4521 81.0495 80.6546 81.715C79.9148 82.3334 78.8828 82.2864 78.0636 82.1815C75.6603 81.8632 73.358 80.9771 71.3624 79.6281C73.2353 81.7945 75.1659 84.395 76.963 87.1871C77.313 87.7296 78.0347 89.0786 77.1759 89.8562C76.5011 90.4674 75.2994 90.283 74.4694 89.8526C70.9546 88.0298 67.8981 86.1165 64.6648 84.0911C64.4302 83.9465 64.1956 83.7982 63.9611 83.6499C64.0621 83.7512 64.1596 83.8524 64.2606 83.9537C66.516 86.2395 68.8472 88.6012 70.4205 91.3571C70.8608 92.1275 71.2974 92.9521 71.4129 93.8671C71.5428 94.9051 71.1675 95.9034 70.4638 96.4097C70.0055 96.7388 69.4715 96.8545 68.9338 96.8545C68.4141 96.8545 67.8909 96.7497 67.429 96.6303C63.3657 95.5959 59.2807 93.151 55.2787 89.3643C50.7751 85.1002 48.1228 80.695 47.3975 76.279C46.4881 70.7418 49.126 65.0527 53.5358 63.0455Z" fill="#EAF6FD"/>
<path d="M69.9863 91.605C68.4513 88.9163 66.1701 86.6008 63.9058 84.306C63.8537 84.2538 63.8028 84.2019 63.7537 84.1518C63.7039 84.1009 63.6558 84.0518 63.6071 84.0031L64.2283 83.2273C64.4632 83.3758 64.6954 83.5226 64.9272 83.6656L64.9302 83.6674C68.1653 85.6939 71.2054 87.5966 74.6996 89.4087C75.0594 89.5953 75.4975 89.726 75.9049 89.7456C76.316 89.7653 76.6352 89.6713 76.8402 89.4856L76.8403 89.4855C77.0778 89.2705 77.1326 88.9632 77.0358 88.5467C76.9383 88.1277 76.7067 87.712 76.5428 87.4581L76.5425 87.4577C74.7565 84.6827 72.8398 82.1016 70.9841 79.9551L71.6424 79.2139C73.5746 80.52 75.8033 81.3777 78.1282 81.6857C78.954 81.7914 79.777 81.797 80.3339 81.3314L80.3343 81.3311C80.9162 80.8455 81.0285 79.9255 80.7911 79.1705L80.7903 79.168C80.5434 78.3685 79.9829 77.6875 79.4156 77.0082L79.4154 77.0079L79.4146 77.007C76.9674 74.0724 74.4664 71.0734 71.5714 68.5472C68.3116 65.7081 64.9746 63.8696 61.6514 63.0536L61.6511 63.0535C59.5695 62.5408 56.543 62.2262 53.7429 63.5005C49.58 65.3954 47.0102 70.8354 47.8909 76.198C48.5928 80.4715 51.1682 84.7838 55.6224 89.0011C59.5814 92.7472 63.5937 95.138 67.5523 96.1458L67.5541 96.1462C68.0006 96.2616 68.4763 96.3545 68.9338 96.3545C69.4013 96.3545 69.823 96.2542 70.1718 96.0038C70.6948 95.6275 71.0292 94.8287 70.9168 93.9296C70.8151 93.124 70.4275 92.3771 69.9864 91.6052L69.9863 91.605Z" stroke="#2B2E34" stroke-opacity="0.04"/>
<path d="M37.878 25.2325C38.3038 25.3374 38.5672 25.7677 38.4626 26.1945C38.1703 27.3953 38.6394 28.7696 39.5993 29.5436C40.5592 30.3176 42.0027 30.4731 43.1069 29.927C44.2111 29.3808 44.9653 28.1367 44.9365 26.9034C44.9256 26.4622 45.2757 26.1005 45.7123 26.0896C46.1454 26.0824 46.5135 26.4296 46.5243 26.8672C46.564 28.7298 45.4742 30.531 43.807 31.3556C43.1394 31.6847 42.4068 31.8474 41.6707 31.8474C40.57 31.8474 39.4694 31.4858 38.5997 30.7877C37.1527 29.6232 36.4742 27.6267 36.9145 25.8184C37.0191 25.3916 37.4522 25.1276 37.878 25.2325Z" fill="#3F4553"/>
<path d="M36.9145 25.8184L37.4003 25.9367C37.0059 27.5566 37.6171 29.3549 38.9129 30.398C39.6885 31.0204 40.6769 31.3474 41.6707 31.3474C42.3333 31.3474 42.9897 31.201 43.5856 30.9073C45.0779 30.169 46.0596 28.5477 46.0244 26.8789C46.0201 26.7198 45.8832 26.588 45.7227 26.5895C45.56 26.5947 45.4324 26.7296 45.4363 26.8911L45.4363 26.8917C45.4698 28.3196 44.6068 29.743 43.3286 30.3752C42.0505 31.0073 40.3979 30.8298 39.2855 29.9328C38.1754 29.0378 37.6385 27.466 37.9768 26.0763L37.977 26.0754C38.0153 25.9191 37.9187 25.7574 37.7584 25.718C37.603 25.6797 37.4395 25.777 37.4001 25.9375L36.9145 25.8184ZM36.9145 25.8184C36.4742 27.6267 37.1527 29.6232 38.5997 30.7877L44.9365 26.9034C44.9653 28.1367 44.2111 29.3808 43.1069 29.927C42.0027 30.4731 40.5592 30.3176 39.5993 29.5436C38.6394 28.7696 38.1703 27.3953 38.4626 26.1945C38.5672 25.7677 38.3038 25.3374 37.878 25.2325C37.4522 25.1276 37.0191 25.3916 36.9145 25.8184Z" stroke="#2B2E34" stroke-opacity="0.04"/>
<path d="M10.936 25.8184C11.0406 25.3916 11.47 25.1276 11.8959 25.2325C12.3217 25.3374 12.5851 25.7677 12.4805 26.1945C12.1882 27.3953 12.6573 28.7696 13.6172 29.5436C14.5771 30.3176 16.0205 30.4731 17.1248 29.927C18.229 29.3808 18.9832 28.1367 18.9544 26.9034C18.9435 26.4622 19.2936 26.1005 19.7302 26.0896C20.1669 26.0824 20.5313 26.4296 20.5422 26.8672C20.5819 28.7262 19.4921 30.531 17.8249 31.3556C17.1573 31.6847 16.4247 31.8474 15.6885 31.8474C14.5879 31.8474 13.4873 31.4858 12.6176 30.7877C11.1741 29.6232 10.4957 27.6267 10.936 25.8184Z" fill="#3F4553"/>
<path d="M18.9544 26.9034C18.9832 28.1367 18.229 29.3808 17.1248 29.927C16.0205 30.4731 14.5771 30.3176 13.6172 29.5436C12.6573 28.7696 12.1882 27.3953 12.4805 26.1945C12.5851 25.7677 12.3217 25.3374 11.8959 25.2325C11.47 25.1276 11.0406 25.3916 10.936 25.8184M18.9544 26.9034L17.8249 31.3556C17.1573 31.6847 16.4247 31.8474 15.6885 31.8474C14.5879 31.8474 13.4873 31.4858 12.6176 30.7877C11.1741 29.6232 10.4957 27.6267 10.936 25.8184M18.9544 26.9034C18.9435 26.4622 19.2936 26.1005 19.7302 26.0896L18.9544 26.9034ZM10.936 25.8184L11.4218 25.9367C11.0274 27.5566 11.6386 29.3551 12.9311 30.3982C13.7066 31.0205 14.6949 31.3474 15.6885 31.3474C16.3512 31.3474 17.0076 31.201 17.6035 30.9072C19.0956 30.1691 20.0774 28.5443 20.0423 26.8789C20.038 26.7184 19.9032 26.588 19.7406 26.5895C19.5779 26.5947 19.4502 26.7296 19.4542 26.8911L19.4542 26.8917C19.4876 28.3196 18.6247 29.743 17.3464 30.3752C16.0683 31.0073 14.4157 30.8298 13.3034 29.9328C12.1933 29.0378 11.6564 27.466 11.9947 26.0763L11.9949 26.0754C12.0332 25.9191 11.9366 25.7574 11.7763 25.718C11.623 25.6802 11.4615 25.7748 11.4216 25.9375L10.936 25.8184Z" stroke="#2B2E34" stroke-opacity="0.04"/>
<path d="M12.4298 47.6779C12.6427 47.1788 13.0505 46.7484 13.3392 46.4699C13.7794 46.0431 14.2233 45.62 14.6672 45.1968C16.1142 43.8189 17.7345 42.4264 19.7626 40.8134C19.943 40.6687 20.1415 40.4987 20.3472 40.3179C21.1916 39.5801 22.2453 38.665 23.3207 38.665C23.7104 38.665 24.0424 38.8676 24.3961 39.0846L24.5115 39.1533C25.1322 39.5294 25.6915 39.9924 26.1715 40.5349C26.9546 41.4101 27.9 42.8134 28.0047 43.8803C28.0083 43.9274 28.0119 43.9744 28.0119 44.0214C28.0119 44.0576 28.0119 44.0901 28.0083 44.1263C27.9397 45.1426 27.0845 45.8189 26.3267 46.4157C26.1751 46.535 26.0308 46.6508 25.8972 46.7629C24.9951 47.5296 23.9233 48.4229 22.7902 49.2186C20.7766 50.6328 18.4743 51.7395 15.941 52.5062C15.8219 52.5424 15.692 52.5641 15.5585 52.5641C15.3095 52.5641 15.0641 52.4845 14.9342 52.2567C14.8223 52.0614 14.7826 51.7286 15.2337 51.2584L19.878 46.4012C18.7991 46.7954 17.7273 47.1679 16.6267 47.4898C15.8761 47.7104 15.1796 47.8841 14.5048 48.0215C14.4579 48.0323 14.3749 48.054 14.2702 48.0866C13.5774 48.2855 12.8701 48.4627 12.5525 48.2674C12.4587 48.2096 12.3973 48.1264 12.3757 48.0215C12.3504 47.8877 12.3901 47.7719 12.4298 47.6779Z" fill="#3F4553"/>
<path d="M14.9342 52.2567C14.8223 52.0614 14.7826 51.7286 15.2337 51.2584L14.9342 52.2567ZM14.9342 52.2567C15.0641 52.4845 15.3095 52.5641 15.5585 52.5641C15.692 52.5641 15.8219 52.5424 15.941 52.5062C18.4743 51.7395 20.7766 50.6328 22.7902 49.2186C23.9233 48.4229 24.9951 47.5296 25.8972 46.7629L14.9342 52.2567ZM13.6863 46.8298L13.6872 46.8289C14.1252 46.4044 14.567 45.9832 15.0105 45.5603L15.012 45.5589L13.6863 46.8298ZM13.6863 46.8298C13.4085 47.0977 13.0734 47.4601 12.8997 47.8511C12.9728 47.8547 13.0714 47.8488 13.1976 47.8302C13.4627 47.791 13.7819 47.7065 14.1271 47.6075C14.2396 47.5726 14.3326 47.5481 14.3921 47.5343L14.3921 47.5342L14.405 47.5315C15.0648 47.3972 15.7475 47.2271 16.4857 47.0101L16.4863 47.0099C17.5717 46.6925 18.6317 46.3242 19.7064 45.9316L20.2394 46.7467L15.5951 51.604L15.5945 51.6046C15.4121 51.7947 15.3722 51.9126 15.3636 51.9564C15.3572 51.9892 15.3635 52.0002 15.3678 52.0076L15.3681 52.0081L15.3686 52.009C15.375 52.0203 15.3824 52.029 15.405 52.039C15.4335 52.0517 15.4838 52.0641 15.5585 52.0641C15.6384 52.0641 15.7194 52.051 15.7957 52.0278L15.7962 52.0277C18.2821 51.2752 20.5357 50.191 22.5028 48.8094L22.5029 48.8094C23.6157 48.028 24.6726 47.1475 25.5734 46.3819L25.5757 46.38C25.715 46.263 25.8639 46.1436 26.0173 46.0228L26.3267 46.4157M13.6863 46.8298L26.3267 46.4157M20.0738 41.2047L20.0753 41.2035C20.2641 41.0521 20.4688 40.8766 20.6767 40.6939M20.0738 41.2047L24.5115 39.1533M20.0738 41.2047C18.0541 42.8111 16.4457 44.1937 15.0122 45.5587L20.0738 41.2047ZM20.6767 40.6939C20.6769 40.6938 20.6771 40.6936 20.6773 40.6934L20.3472 40.3179L20.6762 40.6944C20.6763 40.6942 20.6765 40.6941 20.6767 40.6939ZM20.6767 40.6939C21.1032 40.3213 21.5499 39.9337 22.0161 39.6364C22.4853 39.3372 22.9211 39.165 23.3207 39.165C23.5451 39.165 23.7559 39.2784 24.1346 39.5107L24.1403 39.5143L24.1404 39.5143L24.2541 39.5819M24.2541 39.5819C24.2535 39.5816 24.253 39.5812 24.2524 39.5809L24.5115 39.1533M24.2541 39.5819C24.8323 39.9326 25.3519 40.363 25.797 40.8662L25.7989 40.8683L25.7989 40.8683C26.1711 41.2843 26.5826 41.8272 26.911 42.3882C27.2438 42.9571 27.4635 43.4983 27.5066 43.9242M24.2541 39.5819L24.2558 39.583L24.5115 39.1533M24.5115 39.1533L27.5066 43.9242M27.5066 43.9242C27.5064 43.9224 27.5063 43.9205 27.5062 43.9186L28.0047 43.8803M27.5066 43.9242L28.0047 43.8803M27.5066 43.9242C27.5101 43.9709 27.5119 43.9977 27.5119 44.0214C27.5119 44.0605 27.5115 44.0689 27.5108 44.0766L27.51 44.0846L27.5094 44.0926C27.4847 44.4592 27.3193 44.7838 27.046 45.1033C26.7663 45.4302 26.4033 45.7189 26.0173 46.0228L26.3267 46.4157M27.5066 43.9242L26.3267 46.4157M27.5066 43.9242C27.5067 43.9258 27.5069 43.9275 27.5071 43.9292L28.0047 43.8803M27.5066 43.9242L28.0047 43.8803" stroke="#2B2E34" stroke-opacity="0.04"/>
<path d="M39.0542 37.0666C40.8549 36.0612 44.2687 36.6616 45.7013 37.8442C46.0369 38.1191 46.5927 38.6978 46.5638 39.4609C46.5458 39.9962 46.2174 40.5351 45.6689 40.9474C44.8641 41.5441 43.7671 41.8552 42.6484 41.8552C41.8401 41.8552 41.0245 41.6924 40.3028 41.3633C39.6497 41.0631 39.1264 40.6544 38.7547 40.1408C38.3145 39.5332 38.1268 38.7629 38.2639 38.1336C38.3614 37.667 38.6356 37.2981 39.0542 37.0666Z" fill="#6BA5C0"/>
<path d="M39.298 37.5032L39.298 37.5032L39.2962 37.5042C39.0035 37.666 38.8207 37.9133 38.7534 38.2358L38.7534 38.2358L38.7525 38.24C38.6507 38.7073 38.7881 39.3347 39.1596 39.8475L39.1598 39.8477C39.4729 40.2804 39.923 40.6383 40.5109 40.9086C41.1615 41.2052 41.9051 41.3552 42.6484 41.3552C43.6822 41.3552 44.668 41.0665 45.3697 40.5467C45.8363 40.1955 46.0526 39.7841 46.0641 39.444L46.0641 39.444L46.0642 39.442C46.0835 38.9297 45.6983 38.488 45.3845 38.231L45.3845 38.231L45.383 38.2298C44.7641 37.7189 43.6534 37.2953 42.448 37.1303C41.2397 36.9648 40.0627 37.0762 39.298 37.5032Z" stroke="#2B2E34" stroke-opacity="0.04"/>
<path d="M7.86484 37.3958C7.96588 36.9328 8.24013 36.5639 8.65873 36.3288C10.4594 35.3234 13.8732 35.9238 15.3058 37.1064C15.6414 37.3813 16.1972 37.96 16.1683 38.7231C16.1502 39.2584 15.8219 39.7973 15.2734 40.2096C14.4686 40.8063 13.3716 41.1174 12.2529 41.1174C11.4446 41.1174 10.6291 40.9546 9.90732 40.6255C9.25416 40.3253 8.73091 39.9166 8.35922 39.403C7.91536 38.7954 7.72771 38.0251 7.86484 37.3958Z" fill="#6BA5C0"/>
<path d="M14.989 37.4932L14.989 37.4932L14.9875 37.492C14.3686 36.9811 13.2579 36.5576 12.0525 36.3925C10.8445 36.227 9.66778 36.3383 8.90306 36.7651C8.60767 36.9311 8.42354 37.1809 8.35337 37.5022C8.25159 37.9693 8.38892 38.5961 8.76297 39.1081L8.76427 39.1099C9.07741 39.5426 9.52746 39.9005 10.1154 40.1708C10.766 40.4674 11.5096 40.6174 12.2529 40.6174C13.2867 40.6174 14.2725 40.3287 14.9742 39.8089C15.4408 39.4577 15.6571 39.0463 15.6686 38.7062L15.6686 38.7062L15.6686 38.7042C15.688 38.1919 15.3028 37.7502 14.989 37.4932Z" stroke="#2B2E34" stroke-opacity="0.04"/>
<path d="M33.7351 86.1596C34.1934 86.5466 34.7708 87.0276 35.3445 87.2265C35.857 87.4037 35.9544 87.2301 36.1096 86.7816C36.2359 86.4272 36.2684 86.0691 36.2684 85.693C36.2647 84.9226 37.4592 84.9226 37.4592 85.693C37.4628 86.6659 37.1741 88.2826 36.0338 88.5358C34.944 88.7781 33.6557 87.6533 32.8907 87.0059C32.3025 86.5104 33.1505 85.6677 33.7351 86.1596Z" fill="#6BA5C0"/>
<path d="M35.1811 87.699L35.1808 87.6989C34.506 87.465 33.8597 86.9193 33.4191 86.5472L33.4132 86.5422C33.4131 86.5421 33.4131 86.542 33.413 86.542C33.3907 86.5233 33.3745 86.5166 33.365 86.5139C33.3551 86.5109 33.3443 86.5098 33.331 86.5113C33.3011 86.5148 33.2602 86.5325 33.2263 86.5664C33.2088 86.5838 33.2001 86.5983 33.1958 86.6074C33.1996 86.6116 33.2051 86.617 33.2128 86.6235L33.2137 86.6242C33.2328 86.6404 33.2521 86.6568 33.2716 86.6733C33.6517 86.9952 34.1104 87.3838 34.5974 87.6755C35.1241 87.991 35.5751 88.1255 35.9253 88.0477L35.9254 88.0476C36.2576 87.9739 36.5209 87.6936 36.7088 87.2049C36.8939 86.7233 36.9609 86.1421 36.9592 85.6949L36.9592 85.6949V85.693C36.9592 85.6625 36.9536 85.6491 36.9523 85.6462C36.9509 85.6433 36.9496 85.6414 36.9465 85.6387C36.9377 85.6311 36.9092 85.6152 36.8624 85.6152C36.8156 85.6152 36.7878 85.6311 36.7798 85.638C36.777 85.6404 36.776 85.6419 36.7749 85.6444C36.7738 85.6469 36.7682 85.6601 36.7683 85.6907H36.7684V85.693C36.7684 86.0957 36.7342 86.5173 36.5814 86.9472C36.5429 87.0584 36.4982 87.1821 36.4423 87.292C36.3855 87.4036 36.2979 87.5407 36.1524 87.645C35.8289 87.877 35.4563 87.7942 35.1811 87.699Z" stroke="#2B2E34" stroke-opacity="0.04"/>
<path d="M26.1246 86.6262C26.5829 86.9228 27.0521 87.1976 27.5428 87.4363C27.8965 87.6099 28.4161 87.9101 28.8708 87.9897C29.0765 87.5738 29.1054 86.76 29.1703 86.4345C29.3183 85.6822 30.4658 86.0005 30.3215 86.7528C30.1519 87.6172 30.1482 89.3242 28.8744 89.2121C27.7666 89.1145 26.4278 88.2465 25.522 87.6606C24.8797 87.241 25.4787 86.2066 26.1246 86.6262Z" fill="#6BA5C0"/>
<path d="M25.8523 87.0455L25.853 87.046C26.3231 87.3502 26.81 87.6358 27.3233 87.8856C27.3725 87.9097 27.4344 87.9414 27.5038 87.9769C27.6403 88.0467 27.8055 88.1311 27.9592 88.2022C28.2023 88.3145 28.4927 88.4311 28.7846 88.4822L29.1531 88.5467L29.319 88.2113C29.4619 87.9223 29.528 87.54 29.5686 87.2468C29.5864 87.1186 29.6011 86.9916 29.6139 86.881C29.6166 86.8581 29.6191 86.8359 29.6216 86.8145C29.6372 86.6817 29.649 86.5904 29.6606 86.5323L29.6609 86.531L29.6609 86.531C29.6632 86.5193 29.6657 86.511 29.6678 86.5055C29.6776 86.5043 29.6957 86.504 29.7221 86.5113C29.7676 86.5239 29.8016 86.55 29.8182 86.5729C29.8254 86.583 29.8295 86.5924 29.8317 86.6022C29.8338 86.6114 29.836 86.6289 29.8305 86.6578C29.8017 86.8051 29.7755 86.9867 29.7499 87.1643C29.7362 87.2591 29.7227 87.3529 29.709 87.4397C29.6661 87.7123 29.6153 87.9673 29.5398 88.1842C29.4632 88.4044 29.3755 88.5419 29.2867 88.6188C29.2148 88.6811 29.1125 88.7311 28.9183 88.7141L25.8523 87.0455ZM25.8523 87.0455C25.8391 87.0369 25.8295 87.0325 25.8239 87.0304C25.822 87.0296 25.8204 87.0291 25.8192 87.0287C25.8166 87.0302 25.8121 87.0329 25.8063 87.0379C25.7959 87.0469 25.7836 87.0608 25.7726 87.0799C25.7486 87.121 25.7443 87.1607 25.748 87.1834C25.7495 87.1931 25.7524 87.2001 25.7565 87.2065C25.7605 87.2126 25.7705 87.2257 25.7954 87.2419L25.522 87.6606L25.7936 87.2407M25.8523 87.0455L25.7936 87.2407M25.7936 87.2407L25.7944 87.2413M25.7936 87.2407L25.7944 87.2413M25.7944 87.2413C26.25 87.536 26.7908 87.8858 27.3516 88.1751M25.7944 87.2413L27.3516 88.1751M27.3516 88.1751C27.9198 88.4681 28.4621 88.6738 28.9182 88.7141L27.3516 88.1751Z" stroke="#2B2E34" stroke-opacity="0.04"/>
<path d="M18.8387 87.8199C19.0769 87.9754 19.3114 88.1309 19.5496 88.2865C19.7661 88.4275 20.0656 88.7096 20.3146 88.7675C20.3832 88.782 20.4048 88.8 20.4085 88.8109C20.4157 88.8036 20.4265 88.7964 20.4482 88.782C20.5275 88.7313 20.5889 88.5071 20.6214 88.4275C20.7405 88.1237 20.7982 87.8127 20.8162 87.4872C20.8595 86.724 22.0504 86.7168 22.0071 87.4872C21.9602 88.3045 21.7292 89.5812 20.8704 89.9357C19.961 90.3082 18.9325 89.3136 18.2324 88.8543C17.5973 88.4311 18.1928 87.3968 18.8387 87.8199Z" fill="#6BA5C0"/>
<path d="M20.8162 87.4872L21.3155 87.5148C21.2951 87.8826 21.229 88.2475 21.0869 88.61L21.0869 88.61L21.0843 88.6165C21.0844 88.6163 21.0843 88.6163 21.0843 88.6166C21.0839 88.6175 21.0823 88.6218 21.0788 88.6316L21.0637 88.6746C21.0519 88.7083 21.0353 88.7552 21.0157 88.8034C20.9969 88.8499 20.9699 88.9112 20.9342 88.9714C20.9068 89.0176 20.8445 89.1159 20.7348 89.1917L20.411 89.5162C20.5108 89.5209 20.5998 89.5061 20.6803 89.4732C20.9206 89.3737 21.1233 89.1226 21.2738 88.7127C21.4211 88.3117 21.4859 87.8426 21.5079 87.4585L22.0071 87.4872M20.8162 87.4872L21.3154 87.5155C21.3171 87.4861 21.3234 87.4707 21.3269 87.4638C21.3306 87.4566 21.3356 87.4501 21.3436 87.4436C21.3623 87.4283 21.3991 87.4123 21.4457 87.4121C21.4792 87.412 21.4986 87.4198 21.5065 87.424C21.5076 87.43 21.5089 87.4412 21.5079 87.4591L22.0071 87.4872M20.8162 87.4872C20.8595 86.724 22.0504 86.7168 22.0071 87.4872M20.8162 87.4872C20.7995 87.7897 20.7484 88.0798 20.6457 88.3631C20.6852 88.3866 20.7458 88.429 20.7993 88.4973C20.8004 88.4987 20.8015 88.5001 20.8026 88.5015C20.834 88.5425 20.8628 88.5925 20.8829 88.6531L20.4567 88.7948L20.5855 88.9876L20.7255 89.197C20.7268 89.196 20.7281 89.1949 20.7296 89.1937L22.0071 87.4872M18.5653 88.2386L18.5647 88.2382C18.5513 88.2294 18.5416 88.2249 18.5359 88.2226C18.5344 88.222 18.5331 88.2216 18.5321 88.2212C18.5246 88.2257 18.5061 88.2389 18.4875 88.2709C18.4635 88.3122 18.4586 88.353 18.4624 88.3775C18.4641 88.388 18.4672 88.3958 18.4715 88.4026C18.4755 88.4089 18.4852 88.4217 18.5087 88.4375C18.6511 88.5311 18.8084 88.6467 18.9614 88.7591C19.0103 88.795 19.0587 88.8306 19.1061 88.865C19.3122 89.0148 19.5159 89.1567 19.7193 89.2718C19.8561 89.3493 19.9802 89.4075 20.0933 89.4478L20.0073 89.189C19.8557 89.1229 19.7232 89.0324 19.6286 88.9645C19.545 88.9046 19.4856 88.8591 19.4356 88.8207C19.3777 88.7764 19.3324 88.7417 19.2767 88.7054L19.2762 88.7051C19.1564 88.6269 19.0376 88.5487 18.9197 88.4711L18.9193 88.4709C18.801 88.393 18.6836 88.3158 18.5653 88.2386ZM20.4564 88.7949L20.4085 88.8109L20.3909 88.7934C20.3769 88.7849 20.3532 88.7756 20.3146 88.7675C20.1393 88.7267 19.9389 88.5748 19.7601 88.4392C19.685 88.3823 19.6137 88.3282 19.5496 88.2865C19.4305 88.2087 19.3123 88.1309 19.1941 88.0532C19.076 87.9754 18.9578 87.8977 18.8387 87.8199L20.4564 88.7949ZM20.2114 89.2567L20.2114 89.2567C20.2134 89.2572 20.2135 89.2571 20.2114 89.2567Z" stroke="#2B2E34" stroke-opacity="0.04"/>
<path d="M33.4753 93.5378C34.0166 93.9031 34.5579 94.2684 35.0992 94.6301C35.3662 94.8073 35.5791 95.0605 35.9256 94.7856C36.1782 94.5867 36.1998 94.0369 36.207 93.7512C36.2178 92.9845 37.4087 92.9809 37.3979 93.7512C37.387 94.6373 36.9793 96.0225 35.9328 96.1744C35.4817 96.2395 35.0992 96.0442 34.7275 95.8164C34.096 95.4258 33.4897 94.9845 32.869 94.5686C32.2375 94.1454 32.833 93.1111 33.4753 93.5378Z" fill="#6BA5C0"/>
<path d="M34.8227 95.0467L34.8227 95.0467L34.8214 95.0458C34.2796 94.6838 33.738 94.3183 33.1975 93.9536C33.1838 93.9446 33.1742 93.9402 33.1687 93.9382C33.1608 93.9431 33.1439 93.9563 33.1266 93.986C33.1026 94.0273 33.0975 94.0684 33.1013 94.0933C33.1029 94.104 33.106 94.1117 33.1102 94.1184C33.1142 94.1247 33.1238 94.1374 33.1474 94.1532L33.1474 94.1532C33.3714 94.3033 33.5872 94.4522 33.7996 94.5987C34.1976 94.8732 34.5838 95.1395 34.9896 95.3906C35.3554 95.6147 35.6013 95.717 35.8611 95.6796C36.155 95.6369 36.4081 95.4179 36.605 95.0175C36.8006 94.6197 36.8932 94.1277 36.8979 93.7451L36.8979 93.7442C36.8984 93.7134 36.8929 93.7006 36.8922 93.699C36.8914 93.6973 36.8912 93.6969 36.8896 93.6955C36.8838 93.6905 36.8581 93.6747 36.8113 93.6748C36.7648 93.6749 36.7344 93.6907 36.7232 93.7003C36.7189 93.7039 36.7167 93.7069 36.7149 93.7109C36.7131 93.7146 36.7074 93.7283 36.707 93.7583L36.707 93.7583L36.7069 93.7638C36.7032 93.907 36.6958 94.1525 36.6494 94.3949C36.6083 94.6095 36.5139 94.9583 36.2356 95.1779C36.1006 95.2848 35.946 95.366 35.7701 95.3954C35.5902 95.4254 35.4303 95.3941 35.2996 95.3427C35.1771 95.2945 35.0749 95.2264 35.0041 95.1765C34.9635 95.1478 34.9358 95.1274 34.912 95.1099C34.882 95.0877 34.8582 95.0703 34.8227 95.0467ZM33.5011 95.0003C33.2911 94.8555 33.0809 94.7106 32.869 94.5686L35.9328 96.1744C35.4817 96.2395 35.0992 96.0442 34.7275 95.8164C34.3115 95.5591 33.9065 95.2798 33.5011 95.0003Z" stroke="#2B2E34" stroke-opacity="0.04"/>
<path d="M25.4066 94.7059C26.0237 95.2014 26.7165 95.762 27.5104 95.9284C28.6002 96.1563 28.7626 95.4618 28.7229 94.5613C28.6904 93.7909 29.8813 93.7945 29.9138 94.5613C29.9643 95.7512 29.6503 96.9519 28.3079 97.1436C26.8645 97.3462 25.6231 96.4022 24.5622 95.5559C23.9631 95.0712 24.8112 94.2285 25.4066 94.7059Z" fill="#6BA5C0"/>
<path d="M27.4081 96.4178L27.4079 96.4178C26.502 96.2279 25.7331 95.6099 25.1459 95.1378C25.1283 95.1238 25.111 95.1098 25.0938 95.096C25.071 95.0778 25.0537 95.0708 25.0424 95.0677C25.0305 95.0644 25.0174 95.0633 25.0019 95.0652C24.9674 95.0696 24.9242 95.0895 24.89 95.1237C24.8769 95.1369 24.8689 95.148 24.8641 95.1562C24.8673 95.1592 24.8711 95.1626 24.8757 95.1664C25.4081 95.591 25.9465 96.0071 26.5179 96.2972C27.0831 96.5842 27.6492 96.731 28.2378 96.6486C28.7419 96.5764 29.0187 96.3328 29.1873 96.0005C29.3715 95.6376 29.4379 95.1392 29.4142 94.5825L29.4142 94.5824C29.4129 94.5524 29.4068 94.5373 29.4038 94.5313C29.4007 94.525 29.3966 94.5196 29.3899 94.5141C29.3739 94.5008 29.3396 94.4849 29.2932 94.4849C29.2531 94.4848 29.2316 94.4963 29.2255 94.5002C29.225 94.5017 29.2245 94.504 29.2239 94.5073C29.2229 94.5136 29.2218 94.5243 29.2225 94.5402L28.7229 94.5613L29.2224 94.5393C29.2421 94.9855 29.2277 95.5383 28.9562 95.9454C28.8054 96.1715 28.5856 96.3389 28.3004 96.4189C28.0289 96.4952 27.7274 96.4846 27.4081 96.4178Z" stroke="#2B2E34" stroke-opacity="0.04"/>
<path d="M32.5806 100.753C33.0966 101.158 33.8472 101.458 34.5112 101.346C35.1607 101.238 35.0561 100.507 34.9767 99.9971C34.8612 99.2448 36.0088 98.9193 36.1279 99.6788C36.283 100.684 36.2938 101.939 35.1896 102.399C34.0385 102.88 32.6491 102.312 31.7398 101.596C31.1335 101.126 31.9815 100.283 32.5806 100.753Z" fill="#6BA5C0"/>
<path d="M34.9976 101.937L34.9968 101.937C34.5554 102.122 34.0423 102.116 33.5103 101.965C32.9784 101.814 32.4613 101.527 32.0491 101.203L32.0462 101.201L32.0462 101.201C32.0449 101.2 32.0436 101.199 32.0424 101.198C32.0469 101.191 32.053 101.184 32.0614 101.176C32.0955 101.142 32.1396 101.121 32.1762 101.116C32.2033 101.112 32.2325 101.115 32.2718 101.146L34.9976 101.937ZM34.9976 101.937C35.3691 101.782 35.5561 101.507 35.6441 101.13C35.7377 100.729 35.7086 100.241 35.6338 99.7558L34.9976 101.937ZM34.5936 101.839L34.5112 101.346L35.6321 99.7464C35.6237 99.747 35.6128 99.7487 35.5992 99.7525C35.5528 99.7655 35.5133 99.7936 35.4913 99.8229C35.4751 99.8446 35.4633 99.8716 35.4709 99.9212L34.9767 99.9971L35.4707 99.9202C35.4715 99.925 35.4723 99.9298 35.473 99.9348C35.5103 100.174 35.5704 100.559 35.5099 100.908C35.4774 101.095 35.4048 101.309 35.2453 101.491C35.0794 101.68 34.8547 101.796 34.5936 101.839Z" stroke="#2B2E34" stroke-opacity="0.04"/>
<path d="M32.9919 69.3781C33.5223 70.1014 34.2368 71.0273 35.2328 71.0092C36.3695 70.9911 36.467 69.7578 36.5103 68.8826C36.5464 68.1158 37.7408 68.1122 37.7011 68.8826C37.6326 70.275 37.2897 71.8664 35.6947 72.1629C34.042 72.4667 32.8475 71.1828 31.9634 69.9784C31.5087 69.3636 32.5444 68.7668 32.9919 69.3781Z" fill="#6BA5C0"/>
<path d="M35.2412 71.5091C34.5749 71.521 34.0319 71.2142 33.6106 70.8498C33.1932 70.4886 32.8521 70.033 32.5887 69.6737L32.5884 69.6734C32.5719 69.6508 32.5578 69.6404 32.5486 69.635C32.5389 69.6294 32.5273 69.6252 32.5123 69.6232C32.4787 69.6187 32.4322 69.6266 32.3902 69.651C32.3761 69.6591 32.3663 69.6668 32.3597 69.673C32.3613 69.6755 32.3632 69.6782 32.3654 69.6811L32.3664 69.6826C32.8004 70.2736 33.2812 70.8419 33.8287 71.2274C34.3639 71.6043 34.9414 71.7929 35.6038 71.6713C36.2179 71.5569 36.5829 71.2082 36.82 70.7165C37.0693 70.1994 37.1684 69.5348 37.2017 68.858L37.2017 68.858L37.2018 68.8568C37.2026 68.8409 37.2016 68.8304 37.2007 68.8244C37.2004 68.8225 37.2001 68.8211 37.1998 68.8199C37.1926 68.8157 37.1719 68.8061 37.1349 68.8062C37.0881 68.8062 37.0526 68.8222 37.0355 68.8363C37.0283 68.8423 37.0238 68.8481 37.0205 68.8547C37.0174 68.861 37.0111 68.8762 37.0097 68.9061L37.0097 68.9061L37.0097 68.9073C36.9886 69.3331 36.9536 69.9454 36.7443 70.4567C36.6361 70.7212 36.4709 70.9865 36.2127 71.1872C35.9485 71.3924 35.6216 71.503 35.2412 71.5091ZM35.2412 71.5091C35.2411 71.5091 35.2409 71.5091 35.2408 71.5091L35.2328 71.0092L35.2419 71.5091C35.2417 71.5091 35.2414 71.5091 35.2412 71.5091ZM36.5103 68.8826C36.5464 68.1158 37.7408 68.1122 37.7011 68.8826H36.5103Z" stroke="#2B2E34" stroke-opacity="0.04"/>
<path d="M24.479 69.5483C25.0672 70.2572 25.7492 70.8576 26.5792 71.2663C26.9978 71.4724 27.1025 71.5303 27.568 71.3567C28.0443 71.1795 28.0371 71.1071 28.1706 70.6623C28.3041 70.2174 28.3799 69.7617 28.4449 69.3024C28.5531 68.5429 29.7007 68.8684 29.596 69.6206C29.4192 70.872 29.0836 72.778 27.4706 72.7636C26.0091 72.7527 24.5151 71.4507 23.6382 70.391C23.151 69.8051 23.9882 68.9552 24.479 69.5483Z" fill="#6BA5C0"/>
<path d="M24.0938 69.8671L24.0942 69.8676C24.7149 70.6156 25.4498 71.2675 26.3583 71.7148L24.0938 69.8671ZM24.0938 69.8671C24.0888 69.8611 24.0845 69.8564 24.0809 69.8528C24.0726 69.8574 24.0608 69.8655 24.0469 69.8795C24.0136 69.9131 23.9954 69.9545 23.9917 69.9861C23.9901 70.0001 23.9913 70.0118 23.9943 70.0224C23.9973 70.0325 24.0041 70.049 24.0226 70.0713L24.0234 70.0722C24.4402 70.5759 24.9999 71.1319 25.6191 71.5591C26.2445 71.9906 26.8849 72.2592 27.4743 72.2636L27.475 72.2636M24.0938 69.8671L27.475 72.2636M27.475 72.2636C27.7713 72.2663 27.9869 72.1834 28.1579 72.0549C28.3366 71.9206 28.4911 71.7172 28.6224 71.4477C28.8908 70.8971 29.0116 70.183 29.1009 69.5514M27.475 72.2636L29.596 69.6206M27.7427 71.8252C27.9747 71.7388 28.2215 71.637 28.3928 71.4165C28.4768 71.3083 28.5248 71.1954 28.5584 71.1005C28.5824 71.0329 28.6064 70.9515 28.6295 70.8735C28.6362 70.8506 28.6429 70.8279 28.6495 70.806C28.7944 70.3234 28.8743 69.8369 28.94 69.3724L28.9206 69.3696C28.925 69.3694 28.9315 69.3695 28.9402 69.3707M27.7427 71.8252L29.596 69.6206M27.7427 71.8252C27.4918 71.9187 27.2525 71.9851 26.9888 71.9493M27.7427 71.8252L26.9888 71.9493M28.9402 69.3707C28.9434 69.3496 28.9476 69.3413 28.9476 69.3414C28.9476 69.3414 28.9471 69.3425 28.9458 69.3444C28.9402 69.3527 28.9306 69.3617 28.9202 69.3672C28.9187 69.368 28.9175 69.3686 28.9165 69.3691L28.4449 69.3024L28.9156 69.3695C28.914 69.3702 28.9132 69.3704 28.9132 69.3704C28.9132 69.3705 28.9148 69.3701 28.918 69.3698L28.9399 69.3729C28.94 69.3722 28.9401 69.3714 28.9402 69.3707ZM28.9402 69.3707C28.9472 69.3716 28.9556 69.3733 28.9655 69.3761C29.0122 69.3891 29.0536 69.4179 29.0774 69.4493C29.0956 69.4732 29.1076 69.502 29.1009 69.5514M29.1009 69.5514C29.1009 69.5511 29.1009 69.5509 29.101 69.5507L29.596 69.6206M29.1009 69.5514C29.1009 69.5515 29.1008 69.5516 29.1008 69.5518L29.596 69.6206M26.9888 71.9493C26.7718 71.9199 26.5726 71.8211 26.4026 71.7367M26.9888 71.9493L26.4026 71.7367M26.4026 71.7367C26.3876 71.7293 26.3729 71.722 26.3583 71.7148L26.4026 71.7367Z" stroke="#2B2E34" stroke-opacity="0.04"/>
<path d="M16.7241 70.9514C17.2438 71.4144 18.1026 72.1811 18.8243 72.3005C19.7193 72.4488 19.9394 70.767 20.0008 70.1594C20.0802 69.4035 21.2746 69.3926 21.1916 70.1594C21.0761 71.2697 20.7405 73.0564 19.5028 73.4759C18.2722 73.8919 16.7205 72.5428 15.8797 71.7978C15.3095 71.2842 16.154 70.4415 16.7241 70.9514Z" fill="#6BA5C0"/>
<path d="M16.3908 71.3241L16.3915 71.3248L16.4022 71.3343C16.6588 71.5629 17.0181 71.883 17.4076 72.1615C17.7914 72.4359 18.264 72.7146 18.7426 72.7938L16.3908 71.3241ZM16.3908 71.3241C16.3688 71.3045 16.3538 71.2983 16.3469 71.2961C16.3396 71.2937 16.332 71.2927 16.3221 71.2937C16.2989 71.2961 16.2615 71.3107 16.2279 71.3443C16.2016 71.3706 16.1934 71.3922 16.1911 71.4007C16.1941 71.4053 16.2006 71.4137 16.2132 71.4252C16.636 71.7999 17.1996 72.2908 17.7976 72.6406C18.4163 73.0026 18.9434 73.1371 19.3425 73.0023C19.7571 72.8617 20.0724 72.4744 20.3033 71.8923C20.5309 71.3185 20.6381 70.6483 20.6943 70.1077L20.6943 70.1077L20.6945 70.1056C20.6951 70.1004 20.6954 70.0958 20.6956 70.0918C20.687 70.0899 20.6751 70.0883 20.6594 70.0884C20.6116 70.0886 20.5674 70.1051 20.5401 70.1264C20.5279 70.136 20.5196 70.146 20.5137 70.1564C20.5081 70.1663 20.501 70.1832 20.498 70.2116L20.0008 70.1594M16.3908 71.3241L18.8243 72.3005C19.7193 72.4488 19.9394 70.767 20.0008 70.1594M20.0008 70.1594C20.0802 69.4035 21.2746 69.3926 21.1916 70.1594M20.0008 70.1594L20.4982 70.2096C20.4672 70.5169 20.3926 71.1436 20.1948 71.685C20.0968 71.9532 19.9523 72.2476 19.7293 72.4689C19.4878 72.7085 19.1508 72.8613 18.7428 72.7938L21.1916 70.1594M21.1916 70.1594C21.0761 71.2697 20.7405 73.0564 19.5028 73.4759L21.1916 70.1594Z" stroke="#2B2E34" stroke-opacity="0.04"/>
<path d="M8.99073 71.6023C9.36964 71.8736 9.74854 72.1484 10.1274 72.4197C10.3873 72.6078 10.8925 73.125 11.2173 73.1503C12.2132 73.2371 12.3648 71.3491 12.289 70.7451C12.1916 69.9856 13.3861 69.9929 13.4799 70.7451C13.635 71.9712 13.1804 73.5554 12.0112 74.1774C10.7301 74.8574 9.32994 73.313 8.38808 72.6331C7.771 72.1918 8.36643 71.1538 8.99073 71.6023Z" fill="#6BA5C0"/>
<path d="M8.69968 72.0089L8.69901 72.0084C8.69317 72.0042 8.68817 72.001 8.68401 71.9986C8.67681 72.0053 8.667 72.0166 8.65657 72.0346C8.63225 72.0766 8.62494 72.1222 8.62935 72.1539C8.63131 72.168 8.63535 72.1787 8.64072 72.1878C8.64581 72.1963 8.65608 72.21 8.67891 72.2264L8.67891 72.2264L8.68075 72.2277C8.87038 72.3646 9.07995 72.5362 9.2876 72.7063C9.35419 72.7609 9.42058 72.8153 9.48605 72.8683C9.76672 73.0956 10.0493 73.314 10.3343 73.4893C10.9215 73.8503 11.3805 73.946 11.7766 73.7359C12.2264 73.4965 12.5651 73.0571 12.7753 72.5088C12.9856 71.9603 13.0513 71.3409 12.9838 70.8079L12.9837 70.807C12.9777 70.7586 12.9593 70.7354 12.9367 70.7181C12.9066 70.695 12.8598 70.6784 12.8112 70.6782C12.8007 70.6782 12.7919 70.6789 12.7848 70.6799C12.7848 70.6804 12.7849 70.681 12.785 70.6815L12.785 70.6815L12.7851 70.6829C12.8311 71.0495 12.8079 71.7404 12.6359 72.3438C12.5499 72.6457 12.4138 72.9727 12.1912 73.2261C11.9539 73.4961 11.6109 73.6857 11.1762 73.6486C10.9874 73.6334 10.8197 73.5547 10.7001 73.487C10.5719 73.4144 10.4479 73.3243 10.3399 73.2398C10.2377 73.1598 10.1383 73.0757 10.0546 73.0048C10.0492 73.0002 10.0439 72.9957 10.0386 72.9912C9.94582 72.9127 9.88148 72.859 9.83519 72.8254C9.64546 72.6896 9.45583 72.5529 9.26695 72.4168L9.26676 72.4166C9.0772 72.28 8.88839 72.144 8.69968 72.0089ZM12.289 70.7451C12.1916 69.9856 13.3861 69.9929 13.4799 70.7451H12.289Z" stroke="#2B2E34" stroke-opacity="0.04"/>
<path d="M33.3203 78.2135C33.7894 78.6692 35.1066 79.7398 35.6803 78.9984C36.1098 78.445 36.1783 77.4432 36.3407 76.7849C36.5211 76.0363 37.6723 76.3545 37.4919 77.1032C37.2357 78.1593 37.0949 79.7579 35.9762 80.2968C34.7818 80.8682 33.3095 79.8627 32.4795 79.0634C31.9238 78.5246 32.7682 77.6819 33.3203 78.2135Z" fill="#6BA5C0"/>
<path d="M36.8268 76.9021L36.8268 76.9021C36.8332 76.8756 36.8404 76.8647 36.842 76.8626C36.8471 76.8604 36.8739 76.8522 36.9184 76.8645C36.9637 76.877 36.9916 76.9013 37.0023 76.9168C37.0067 76.9231 37.0088 76.9285 37.0099 76.9346C37.011 76.9405 37.0129 76.9564 37.0058 76.986L37.4919 77.1032M36.8268 76.9021L35.6803 78.9984C35.1066 79.7398 33.7894 78.6692 33.3203 78.2135L32.9735 78.5737C32.9733 78.5735 32.9731 78.5733 32.9729 78.5732C32.9518 78.553 32.9383 78.5475 32.9344 78.5461C32.9302 78.5446 32.9263 78.5439 32.9204 78.5444C32.9052 78.5457 32.8719 78.5565 32.8388 78.5898C32.8055 78.6233 32.7982 78.653 32.7977 78.6614C32.7975 78.6638 32.7977 78.6648 32.7986 78.667C32.7994 78.6692 32.8049 78.6824 32.8271 78.7041C33.2173 79.0797 33.7456 79.49 34.2966 79.7383C34.8525 79.9887 35.3515 80.0411 35.7599 79.846C36.1403 79.6625 36.3943 79.2821 36.5849 78.7306C36.7156 78.3524 36.7945 77.9718 36.8744 77.586C36.9155 77.3872 36.957 77.1871 37.006 76.9853L37.4919 77.1032M36.8268 76.9021L36.8262 76.9047C36.7897 77.0523 36.7576 77.2235 36.7211 77.4213C36.7193 77.4312 36.7175 77.4411 36.7156 77.4511C36.6816 77.6359 36.6441 77.8396 36.5983 78.0415C36.5047 78.4542 36.3617 78.9358 36.0756 79.3046L36.8268 76.9021ZM37.4919 77.1032C37.6723 76.3545 36.5211 76.0363 36.3407 76.7849L37.4919 77.1032Z" stroke="#2B2E34" stroke-opacity="0.04"/>
<path d="M25.2116 78.9697C25.6843 79.4146 26.5576 80.5755 27.2541 80.5177C28.214 80.4345 28.4016 79.1505 28.546 78.4019C28.6903 77.646 29.8378 77.9679 29.6971 78.7202C29.4625 79.9498 29.0115 81.3423 27.6474 81.6822C26.2834 82.0258 25.2477 80.637 24.3744 79.816C23.8078 79.288 24.6523 78.4453 25.2116 78.9697Z" fill="#6BA5C0"/>
<path d="M25.2116 78.9697L24.8696 79.3345C24.8695 79.3344 24.8694 79.3343 24.8694 79.3342C24.8692 79.3341 24.8691 79.334 24.8689 79.3338L25.2116 78.9697ZM29.0434 78.471C29.0366 78.4716 29.0332 78.4727 29.0332 78.4726C29.0331 78.4726 29.0336 78.4724 29.0344 78.472C29.0395 78.4694 29.0449 78.4647 29.0477 78.4608C29.0481 78.4603 29.0482 78.46 29.0482 78.46C29.0482 78.46 29.0461 78.4632 29.0434 78.471ZM29.2056 78.6282C29.2057 78.628 29.2057 78.6278 29.2058 78.6276C29.2058 78.6272 29.2059 78.6268 29.206 78.6265L29.6971 78.7202L29.2056 78.6282ZM24.6867 79.4153C24.6867 79.4153 24.6867 79.4153 24.6867 79.4153C24.6867 79.4154 24.6867 79.4155 24.6867 79.4156C24.6867 79.4158 24.6865 79.4147 24.6867 79.4153L24.6867 79.4153Z" stroke="#2B2E34" stroke-opacity="0.04"/>
<path d="M17.637 79.7908C17.9293 80.0802 18.2252 80.3623 18.5319 80.6299C18.7088 80.7854 19.2717 81.4184 19.499 81.422C20.1161 81.4328 20.3182 80.1489 20.3002 79.7185C20.2713 78.9481 21.4621 78.9518 21.491 79.7185C21.5307 80.7637 21.0219 82.1996 19.9357 82.5829C19.4377 82.7565 19.0299 82.5649 18.633 82.261C17.9834 81.7619 17.3736 81.2158 16.789 80.6372C16.2477 80.0946 17.0921 79.252 17.637 79.7908Z" fill="#6BA5C0"/>
<path d="M19.499 81.422L19.4911 81.9219C19.3587 81.9198 19.2492 81.8757 19.1835 81.8442C19.111 81.8095 19.044 81.7665 18.987 81.7259C18.8728 81.6447 18.7569 81.543 18.6558 81.4488C18.5528 81.3529 18.4529 81.2531 18.372 81.1722C18.2841 81.0843 18.2312 81.0313 18.2023 81.0059C17.8851 80.7291 17.5814 80.4393 17.2852 80.1462C17.2642 80.1254 17.2511 80.1202 17.2483 80.1191C17.2452 80.118 17.2427 80.1175 17.2381 80.1179C17.2253 80.1189 17.1928 80.1285 17.1588 80.1624C17.1248 80.1963 17.1158 80.2281 17.1149 80.2395C17.1146 80.2434 17.115 80.2453 17.1159 80.2477C17.1168 80.2501 17.1218 80.2626 17.1421 80.2832C17.7145 80.8497 18.3081 81.3808 18.9372 81.8643C19.2894 82.1337 19.5145 82.1999 19.7702 82.1111C20.1465 81.9779 20.4618 81.6471 20.6848 81.1826C20.907 80.7196 21.0082 80.1803 20.9914 79.7375L20.9914 79.7373C20.9902 79.7073 20.9841 79.6924 20.9814 79.6868C20.9785 79.6809 20.9747 79.6759 20.9684 79.6707C20.9533 79.658 20.9195 79.6422 20.8732 79.6421C20.8309 79.642 20.8087 79.6547 20.8033 79.6585C20.8029 79.66 20.8021 79.6627 20.8014 79.6668C20.8004 79.673 20.7993 79.6835 20.7998 79.6991C20.8112 79.977 20.7559 80.4656 20.6118 80.8949C20.5393 81.1105 20.4322 81.3493 20.27 81.5424C20.1024 81.7421 19.8422 81.9281 19.4903 81.9219L19.499 81.422ZM19.499 81.422C20.1161 81.4328 20.3182 80.1489 20.3002 79.7185M19.499 81.422C19.3255 81.4192 18.9563 81.0496 18.7126 80.8057C18.6372 80.7302 18.5738 80.6667 18.5319 80.6299C18.2252 80.3623 17.9293 80.0802 17.637 79.7908L20.3002 79.7185M20.3002 79.7185C20.2713 78.9481 21.4621 78.9518 21.491 79.7185C21.5307 80.7637 21.0219 82.1996 19.9357 82.5829L20.3002 79.7185Z" stroke="#2B2E34" stroke-opacity="0.04"/>
<path d="M10.2865 79.7837C10.6437 80.2394 11.0262 80.7313 11.5603 80.9845C12.1016 81.2412 13.1589 81.1472 12.8919 80.2973C12.6609 79.5631 13.8085 79.2484 14.043 79.979C14.3895 81.0785 13.5956 82.1635 12.4841 82.3118C11.185 82.4854 10.1854 81.5704 9.44205 80.6264C8.97293 80.0333 9.81013 79.1797 10.2865 79.7837Z" fill="#6BA5C0"/>
<path d="M13.3689 80.1474L13.3688 80.1473C13.3641 80.1322 13.3624 80.1216 13.3617 80.1152C13.3613 80.1108 13.3613 80.1079 13.3614 80.1064C13.3654 80.1015 13.3836 80.0825 13.4256 80.0709C13.4706 80.0585 13.5078 80.0648 13.5262 80.0731C13.5339 80.0765 13.539 80.0805 13.5435 80.0855C13.5478 80.0903 13.5575 80.1029 13.5666 80.1308C13.8074 80.8983 13.2591 81.704 12.418 81.8162L12.4179 81.8162C11.4118 81.9506 10.5712 81.2521 9.83486 80.3171L9.83422 80.3162C9.81696 80.2944 9.81024 80.2776 9.80718 80.2661C9.80396 80.2541 9.80281 80.2403 9.80494 80.2238C9.80968 80.1873 9.8305 80.1427 9.86479 80.1082C9.8741 80.0988 9.88229 80.0921 9.88903 80.0874C9.89046 80.0891 9.89197 80.0909 9.89355 80.0929C9.90487 80.1074 9.91632 80.122 9.92789 80.1368C10.2642 80.5664 10.7084 81.1339 11.346 81.4362L13.3689 80.1474ZM13.3689 80.1474C13.4652 80.454 13.4633 80.7694 13.3082 81.0447M13.3689 80.1474L13.3082 81.0447M13.3082 81.0447C13.158 81.3115 12.9104 81.4573 12.6846 81.5311M13.3082 81.0447L12.6846 81.5311M12.6846 81.5311C12.2522 81.6725 11.7203 81.6137 11.3461 81.4363L12.6846 81.5311Z" stroke="#2B2E34" stroke-opacity="0.04"/>
<path d="M66.4545 91.9141C66.6024 91.6646 67.0138 91.5018 67.27 91.7007C67.8149 92.1239 68.3634 92.5434 68.9083 92.9666C69.1646 93.1619 69.2981 93.4802 69.1213 93.784C68.9733 94.0335 68.5619 94.1963 68.3057 93.9974C67.7608 93.5742 67.2123 93.1547 66.6674 92.7315C66.4148 92.5362 66.2777 92.2179 66.4545 91.9141Z" fill="#96C9D9"/>
<path d="M68.6052 93.3642L68.6052 93.3643L68.6017 93.3615C68.3301 93.1506 68.0574 92.9405 67.784 92.7297L67.7836 92.7294C67.518 92.5247 67.2515 92.3193 66.9857 92.113C66.9811 92.1138 66.9753 92.1151 66.9682 92.1173C66.9473 92.1237 66.9253 92.1348 66.9071 92.1484C66.8924 92.1593 66.8859 92.1675 66.8846 92.1693C66.8762 92.1845 66.8751 92.1929 66.8748 92.1956C66.8744 92.1989 66.8743 92.2052 66.8777 92.2162C66.8856 92.2417 66.9122 92.2888 66.9732 92.3359L66.9741 92.3366C67.2457 92.5475 67.5183 92.7576 67.7918 92.9684L67.7921 92.9686C68.0578 93.1734 68.3242 93.3788 68.59 93.5851C68.5946 93.5843 68.6005 93.583 68.6075 93.5808C68.6284 93.5744 68.6504 93.5633 68.6686 93.5497C68.6833 93.5387 68.6898 93.5305 68.6912 93.5288C68.7 93.5128 68.7013 93.5037 68.7016 93.5007C68.702 93.497 68.7021 93.4909 68.699 93.4805C68.6917 93.4566 68.6663 93.4107 68.6052 93.3642Z" stroke="#2B2E34" stroke-opacity="0.04"/>
<path d="M56.2746 87.3782C56.4225 87.1214 56.8303 86.9731 57.0901 87.1648C57.7505 87.6531 58.4145 88.1377 59.0749 88.626C59.3347 88.8177 59.461 89.1432 59.2878 89.4434C59.1398 89.7001 58.732 89.8484 58.4722 89.6567C57.8118 89.1685 57.1478 88.6838 56.4875 88.1956C56.2276 88.0039 56.1013 87.6784 56.2746 87.3782Z" fill="#96C9D9"/>
<path d="M58.4722 89.6567C58.142 89.4126 57.8109 89.1694 57.4798 88.9262C57.1487 88.6829 56.8177 88.4397 56.4875 88.1956C56.2276 88.0039 56.1013 87.6784 56.2746 87.3782L56.6951 87.6611C56.6945 87.6666 56.6947 87.6742 56.698 87.6853C56.7052 87.7097 56.7292 87.7525 56.7843 87.7932L56.7847 87.7935C57.1142 88.0371 57.4447 88.2799 57.7759 88.5232L57.7762 88.5234C58.1021 88.7629 58.4288 89.0028 58.7546 89.2437M58.4722 89.6567L58.7691 89.2544C58.7637 89.2504 58.7581 89.2475 58.7533 89.2457C58.7491 89.2441 58.7467 89.2438 58.7467 89.2438L58.7467 89.2438C58.7475 89.2439 58.7502 89.2441 58.7546 89.2437M58.4722 89.6567L58.7695 89.2547C58.7645 89.251 58.7596 89.2474 58.7546 89.2437M58.4722 89.6567C58.732 89.8484 59.1398 89.7001 59.2878 89.4434C59.461 89.1432 59.3347 88.8177 59.0749 88.626L58.8548 89.1933M58.7546 89.2437C58.7603 89.2433 58.769 89.2421 58.7802 89.2387C58.8001 89.2329 58.8199 89.2229 58.8357 89.2111C58.8498 89.2006 58.8548 89.1932 58.8548 89.1932C58.8548 89.1932 58.8548 89.1932 58.8548 89.1933M58.8548 89.1933C58.8647 89.1761 58.8666 89.1655 58.8672 89.1605C58.8678 89.1549 58.8677 89.1473 58.8644 89.1362C58.8571 89.1118 58.8332 89.069 58.778 89.0283L58.7776 89.028C58.4481 88.7844 58.1177 88.5416 57.7865 88.2983L57.7862 88.2981C57.4602 88.0587 57.1336 87.8187 56.8077 87.5778C56.802 87.5782 56.7934 87.5795 56.7821 87.5828C56.7623 87.5887 56.7425 87.5987 56.7266 87.6105C56.7126 87.621 56.7075 87.6284 56.7075 87.6284L58.8548 89.1933Z" stroke="#2B2E34" stroke-opacity="0.04"/>
<path d="M62.6258 91.2557C63.048 91.668 63.5424 91.9537 64.1053 92.1164C64.8415 92.3298 64.5276 93.4799 63.7878 93.2702C63.0264 93.0495 62.348 92.6553 61.7814 92.102C61.2329 91.5631 62.0773 90.7168 62.6258 91.2557Z" fill="#96C9D9"/>
<path d="M61.7814 92.102L62.1308 91.7443C62.6376 92.2393 63.2431 92.5915 63.9252 92.7894C63.9537 92.7974 63.9672 92.7955 63.9692 92.7952C63.9714 92.7949 63.9724 92.7945 63.9748 92.7929C63.9826 92.7877 64.0052 92.7657 64.0178 92.7198C64.0304 92.674 64.023 92.6402 64.0169 92.6269C64.0146 92.6219 64.0123 92.6192 64.0092 92.6165C64.0062 92.614 63.9948 92.605 63.9661 92.5967C63.325 92.4112 62.7582 92.0838 62.2765 91.6134L62.2765 91.6134L62.2754 91.6123C62.2539 91.5912 62.2404 91.5857 62.2371 91.5845C62.2336 91.5833 62.2307 91.5827 62.2258 91.5831C62.2124 91.5842 62.1798 91.5941 62.1462 91.6278C62.1125 91.6616 62.1042 91.6926 62.1035 91.7026C62.1033 91.7059 62.1036 91.7072 62.1044 91.7093C62.1052 91.7113 62.1103 91.7242 62.1318 91.7453L61.7814 92.102ZM61.7814 92.102C62.348 92.6553 63.0264 93.0495 63.7878 93.2702C64.5276 93.4799 64.8415 92.3298 64.1053 92.1164C63.5424 91.9537 63.048 91.668 62.6258 91.2557C62.0773 90.7168 61.2329 91.5631 61.7814 92.102Z" stroke="#2B2E34" stroke-opacity="0.04"/>
<path d="M75.5231 75.1362C76.1041 75.6063 76.7681 75.9753 77.4718 76.232C78.1899 76.4888 77.8795 77.6462 77.1542 77.3858C76.2448 77.0567 75.4293 76.5937 74.6787 75.9825C74.0833 75.4978 74.9313 74.6551 75.5231 75.1362Z" fill="#96C9D9"/>
<path d="M75.2086 75.5248L75.2077 75.5242C75.1852 75.5058 75.1683 75.499 75.1575 75.496C75.1463 75.4929 75.1339 75.4917 75.119 75.4936C75.0857 75.4977 75.0431 75.517 75.0089 75.5511C74.9954 75.5646 74.9873 75.576 74.9825 75.5844C74.9857 75.5874 74.9896 75.5908 74.9943 75.5947L74.9944 75.5948C75.7015 76.1706 76.4677 76.6055 77.3236 76.9154C77.3346 76.9193 77.3429 76.9213 77.3487 76.9225C77.3549 76.9144 77.3645 76.8986 77.3718 76.8718C77.3845 76.8251 77.3793 76.7815 77.3679 76.7551C77.3629 76.7436 77.357 76.7355 77.3502 76.729C77.3438 76.7229 77.3305 76.7125 77.3034 76.7028L77.3034 76.7029L77.3004 76.7017C76.5475 76.427 75.8346 76.0315 75.2086 75.5248Z" stroke="#2B2E34" stroke-opacity="0.04"/>
<path d="M70.0778 70.8212C70.8248 71.2299 71.5682 71.6349 72.3152 72.0436C72.99 72.4125 72.3873 73.4433 71.7125 73.0744C70.9655 72.6657 70.2222 72.2606 69.4752 71.8519C68.804 71.483 69.403 70.4523 70.0778 70.8212Z" fill="#96C9D9"/>
<path d="M72.0752 72.4823L72.0753 72.4823C72.1016 72.4967 72.1094 72.5072 72.1098 72.5077L72.1098 72.5078C72.1099 72.5079 72.1099 72.5077 72.1098 72.5076C72.1098 72.5076 72.1098 72.5076 72.1098 72.5079C72.1108 72.5131 72.1123 72.5422 72.0883 72.5833C72.0645 72.624 72.0342 72.6442 72.0174 72.6502C72.0107 72.6526 72.0055 72.6532 71.9998 72.6527C71.9944 72.6523 71.9789 72.6502 71.9524 72.6357C71.5787 72.4312 71.206 72.2277 70.8335 72.0243L70.8335 72.0243L70.8333 72.0242C70.4607 71.8208 70.0884 71.6175 69.7152 71.4133L72.0752 72.4823ZM72.0752 72.4823C71.7019 72.278 71.3295 72.0747 70.9569 71.8712M72.0752 72.4823L70.9569 71.8712M70.9569 71.8712L70.9564 71.871M70.9569 71.8712L70.9564 71.871M70.9564 71.871C70.584 71.6677 70.2115 71.4642 69.838 71.2599L70.9564 71.871Z" stroke="#2B2E34" stroke-opacity="0.04"/>
<path d="M67.2197 74.7453C67.2991 74.4596 67.6528 74.21 67.9523 74.3294C68.4719 74.5319 68.9916 74.7345 69.5148 74.9334C69.8143 75.0491 70.0236 75.3348 69.9298 75.6676C69.8504 75.9533 69.4968 76.2028 69.1973 76.0835C68.6776 75.8809 68.158 75.6784 67.6347 75.4795C67.3352 75.3638 67.1295 75.078 67.2197 74.7453Z" fill="#96C9D9"/>
<path d="M67.2197 74.7453C67.2991 74.4596 67.6528 74.21 67.9523 74.3294L67.6989 74.9101C67.6997 74.9159 67.702 74.9237 67.7082 74.9338C67.7216 74.9559 67.7548 74.9896 67.814 75.0127C68.3338 75.2104 68.8499 75.4114 69.3636 75.6117C69.3687 75.6098 69.3759 75.6065 69.3849 75.6011C69.4025 75.5903 69.4195 75.5752 69.4324 75.559C69.4438 75.5445 69.4475 75.535 69.448 75.5337C69.4481 75.5336 69.4481 75.5335 69.4481 75.5336L69.4486 75.5319C69.4534 75.5148 69.4526 75.5056 69.452 75.5016C69.4513 75.4971 69.4495 75.4901 69.4434 75.4801C69.4298 75.458 69.3958 75.4237 69.3356 75.4001C68.8157 75.2025 68.2997 75.0014 67.7859 74.8012C67.7808 74.8031 67.7736 74.8063 67.7647 74.8118C67.747 74.8226 67.73 74.8377 67.7171 74.8539C67.706 74.8679 67.7022 74.8772 67.7016 74.879C67.7018 74.8781 67.702 74.8771 67.7023 74.8761L67.2197 74.7453ZM67.2197 74.7453C67.1295 75.078 67.3352 75.3638 67.6347 75.4795M67.2197 74.7453L67.7015 74.8792C67.7014 74.8793 67.7014 74.8793 67.7015 74.8791L67.6347 75.4795M67.6347 75.4795C68.1575 75.6782 68.6766 75.8806 69.1958 76.0829M67.6347 75.4795L69.1958 76.0829M69.1973 76.0835C69.4968 76.2028 69.8504 75.9533 69.9298 75.6676L69.1973 76.0835ZM69.1973 76.0835L69.1958 76.0829M69.1973 76.0835L69.1958 76.0829" stroke="#2B2E34" stroke-opacity="0.04"/>
<path d="M63.8239 66.0939C64.5096 66.5062 65.2241 66.857 65.9747 67.1355C66.6892 67.3995 66.3788 68.5532 65.6571 68.2892C64.8091 67.9746 63.9971 67.5948 63.2213 67.1282C62.5645 66.7304 63.16 65.696 63.8239 66.0939Z" fill="#96C9D9"/>
<path d="M65.8014 67.6045L65.8007 67.6043C65.0187 67.3141 64.2765 66.9494 63.5667 66.5226C63.5399 66.5066 63.5257 66.5048 63.5235 66.5045C63.5213 66.5043 63.5205 66.5043 63.5183 66.5051C63.5106 66.5077 63.4837 66.5223 63.46 66.5633C63.4364 66.604 63.4344 66.6393 63.4372 66.6551C63.4384 66.6612 63.4401 66.6652 63.4429 66.6692C63.4455 66.673 63.4547 66.685 63.4804 66.7006L63.2213 67.1282L63.479 66.6998C64.2248 67.1483 65.0078 67.5149 65.8297 67.8199C65.8387 67.8232 65.8458 67.8252 65.8512 67.8264C65.8571 67.8181 65.8654 67.8032 65.872 67.7791C65.8847 67.7325 65.8798 67.688 65.8679 67.6601C65.8627 67.6478 65.8563 67.639 65.849 67.6319C65.842 67.6252 65.8284 67.6145 65.8014 67.6045ZM65.864 67.8282C65.864 67.8282 65.8638 67.8282 65.8635 67.8282C65.8638 67.8282 65.864 67.8282 65.864 67.8282Z" stroke="#2B2E34" stroke-opacity="0.04"/>
<path d="M60.4209 69.0739C61.3844 69.5839 62.384 69.9745 63.4305 70.2675C64.1703 70.4736 63.8563 71.6237 63.113 71.4212C61.969 71.1029 60.8684 70.6653 59.8183 70.1083C59.1398 69.7467 59.7389 68.7159 60.4209 69.0739Z" fill="#96C9D9"/>
<path d="M60.4209 69.0739C61.3844 69.5839 62.384 69.9745 63.4305 70.2675C64.1703 70.4736 63.8563 71.6237 63.113 71.4212M60.4209 69.0739L60.1885 69.5166C60.1882 69.5165 60.188 69.5164 60.1877 69.5163M60.4209 69.0739C59.7389 68.7159 59.1398 69.7467 59.8183 70.1083M60.4209 69.0739L60.187 69.5159C60.1873 69.516 60.1875 69.5161 60.1877 69.5163M60.1877 69.5163C61.1846 70.0438 62.2175 70.4471 63.2957 70.749L63.2963 70.7491C63.3253 70.7572 63.3366 70.7661 63.3391 70.7682C63.3417 70.7703 63.3433 70.7723 63.3452 70.7763C63.3505 70.7875 63.3582 70.8198 63.3457 70.8654C63.3332 70.911 63.3103 70.9343 63.3006 70.9408C63.2972 70.9431 63.295 70.9439 63.2917 70.9444C63.2886 70.945 63.2743 70.9468 63.2454 70.939M60.1877 69.5163C60.1611 69.5024 60.1448 69.5001 60.138 69.4996C60.1308 69.4992 60.1241 69.5 60.1159 69.503C60.0965 69.5102 60.0652 69.532 60.0416 69.5727C60.0195 69.6106 60.0196 69.6373 60.0203 69.6438M63.2454 70.939C63.2459 70.9392 63.2464 70.9393 63.247 70.9395L63.113 71.4212M63.2454 70.939C62.1364 70.6304 61.07 70.2063 60.0525 69.6666L59.8183 70.1083M63.2454 70.939C63.245 70.939 63.2447 70.9389 63.2444 70.9388L63.113 71.4212M63.113 71.4212L59.8183 70.1083M59.8183 70.1083L60.0535 69.6671C60.0396 69.6597 60.0311 69.6535 60.0263 69.6495C60.0231 69.6468 60.0213 69.6449 60.0203 69.6438M60.0203 69.6438C60.0203 69.6443 60.0204 69.6448 60.0205 69.645C60.0205 69.6455 60.0205 69.6449 60.02 69.6439C60.0196 69.6431 60.0193 69.6426 60.0193 69.6426C60.0193 69.6426 60.0194 69.6426 60.0194 69.6427C60.0195 69.6429 60.0198 69.6432 60.0203 69.6438Z" stroke="#2B2E34" stroke-opacity="0.04"/>
<path d="M57.0866 64.1158C57.8733 64.3726 58.6239 64.7161 59.324 65.1538C59.9735 65.5588 59.3781 66.5932 58.7213 66.1845C58.1042 65.8011 57.4583 65.4937 56.7654 65.2659C56.0437 65.0272 56.3541 63.8734 57.0866 64.1158Z" fill="#96C9D9"/>
<path d="M56.7654 65.2659L56.9216 64.7909C57.6545 65.0319 58.3364 65.3567 58.9852 65.7598L58.9855 65.76C59.0119 65.7764 59.0254 65.7782 59.0263 65.7783L59.0263 65.7783C59.0269 65.7784 59.0259 65.7785 59.0263 65.7783C59.0305 65.7769 59.0562 65.7644 59.08 65.7234C59.1036 65.6828 59.1065 65.6459 59.1033 65.6275C59.1021 65.6201 59.0999 65.6151 59.0967 65.6103C59.0937 65.6058 59.0844 65.5936 59.0594 65.578L59.0589 65.5777C58.3955 65.163 57.6821 64.8361 56.9314 64.5911L56.9314 64.5911L56.9296 64.5905C56.9144 64.5855 56.904 64.5836 56.898 64.5829C56.8963 64.5828 56.8949 64.5826 56.8938 64.5826C56.8877 64.5887 56.8728 64.6064 56.8629 64.6426C56.8503 64.6887 56.8562 64.7283 56.8655 64.7493C56.8694 64.7582 56.8737 64.7639 56.8788 64.7685C56.8835 64.7728 56.8956 64.7823 56.9224 64.7912L56.7654 65.2659ZM56.7654 65.2659C56.0437 65.0272 56.3541 63.8734 57.0866 64.1158C57.8733 64.3726 58.6239 64.7161 59.324 65.1538C59.9735 65.5588 59.3781 66.5932 58.7213 66.1845C58.1042 65.8011 57.4583 65.4937 56.7654 65.2659Z" stroke="#2B2E34" stroke-opacity="0.04"/>
<path d="M52.5831 67.0199C53.1966 67.1718 53.8101 67.3237 54.4235 67.472C55.1669 67.6564 54.853 68.8066 54.106 68.6257C53.4925 68.4738 52.879 68.3219 52.2656 68.1736C51.5222 67.9892 51.8398 66.8354 52.5831 67.0199Z" fill="#96C9D9"/>
<path d="M52.463 67.5052L52.4627 67.5052C52.4342 67.4981 52.4195 67.5001 52.415 67.5009C52.4103 67.5017 52.406 67.5033 52.4003 67.5073C52.3861 67.5171 52.3617 67.5446 52.3489 67.5911C52.336 67.6381 52.3449 67.6672 52.3476 67.6728C52.3477 67.673 52.3477 67.6731 52.3478 67.6732C52.3482 67.6735 52.3576 67.6812 52.3849 67.6881C52.9988 67.8365 53.6125 67.9884 54.2245 68.14C54.2533 68.1468 54.2686 68.1449 54.2739 68.1439C54.2794 68.1429 54.2843 68.141 54.2902 68.1369C54.3047 68.1268 54.3289 68.0994 54.3414 68.0537C54.3541 68.0074 54.3452 67.979 54.3426 67.9735C54.3423 67.9729 54.3423 67.9728 54.3423 67.9728C54.3423 67.9728 54.3423 67.9729 54.3421 67.9728L54.3421 67.9728C54.3416 67.9723 54.3319 67.9646 54.3042 67.9575C53.6899 67.809 53.0758 67.657 52.4633 67.5053L52.463 67.5052Z" stroke="#2B2E34" stroke-opacity="0.04"/>
<path d="M55.4843 73.0456C56.2312 73.2337 56.9782 73.4254 57.7252 73.6134C58.4686 73.8015 58.1546 74.9552 57.4077 74.7671C56.6607 74.5791 55.9137 74.3874 55.1667 74.1993C54.4269 74.0076 54.7409 72.8575 55.4843 73.0456Z" fill="#96C9D9"/>
<path d="M57.7252 73.6134L57.6031 74.0983C57.2291 74.0041 56.8551 73.9091 56.4818 73.8142L56.4816 73.8141C56.108 73.7191 55.735 73.6243 55.3622 73.5305L55.3616 73.5303C55.3327 73.523 55.318 73.525 55.3138 73.5257C55.3094 73.5265 55.3057 73.5279 55.3007 73.5313C55.288 73.5401 55.2641 73.5662 55.2515 73.6122C55.2388 73.6586 55.2473 73.6887 55.2508 73.6962C55.2518 73.6982 55.2521 73.6984 55.2528 73.699L55.253 73.6991L55.253 73.6991C55.2539 73.6999 55.2636 73.7078 55.2909 73.715C55.6642 73.809 56.0375 73.9039 56.4101 73.9986L56.4104 73.9986C56.7839 74.0936 57.1569 74.1884 57.5297 74.2823C57.5592 74.2897 57.5745 74.2878 57.5791 74.2869C57.584 74.2861 57.5881 74.2845 57.5933 74.2809C57.6065 74.2718 57.6305 74.2453 57.6431 74.1993C57.6558 74.153 57.6471 74.1233 57.6438 74.1165C57.6431 74.1149 57.6429 74.1148 57.6424 74.1144C57.6423 74.1143 57.6422 74.1143 57.6421 74.1142L57.6421 74.1142C57.6413 74.1135 57.6312 74.1054 57.6026 74.0982L57.7252 73.6134ZM57.7252 73.6134C58.4686 73.8015 58.1546 74.9552 57.4077 74.7671C57.0342 74.6731 56.6607 74.5782 56.2872 74.4832C55.9137 74.3883 55.5402 74.2934 55.1667 74.1993C54.4269 74.0076 54.7409 72.8575 55.4843 73.0456C55.8577 73.1396 56.2312 73.2346 56.6047 73.3295C56.9782 73.4245 57.3517 73.5194 57.7252 73.6134Z" stroke="#2B2E34" stroke-opacity="0.04"/>
<path d="M61.8716 75.8556C62.5933 76.3076 63.3295 76.7308 64.0837 77.125C64.7658 77.4795 64.1631 78.5103 63.4811 78.1558C62.7269 77.7616 61.9907 77.3384 61.269 76.8863C60.623 76.4813 61.2184 75.4469 61.8716 75.8556Z" fill="#96C9D9"/>
<path d="M63.8532 77.5687L63.8532 77.5687L63.8521 77.5682C63.0861 77.1678 62.3388 76.7382 61.6064 76.2794C61.5842 76.2655 61.5716 76.2625 61.5683 76.2619C61.5628 76.2642 61.5385 76.2773 61.5156 76.3167C61.4918 76.3578 61.4887 76.3952 61.4918 76.414C61.4931 76.4217 61.4953 76.4267 61.4984 76.4312C61.5012 76.4355 61.5102 76.4474 61.5346 76.4627C62.2454 76.9079 62.97 77.3245 63.712 77.7124C63.7386 77.7261 63.7549 77.7284 63.7621 77.7288C63.7696 77.7293 63.7769 77.7283 63.7857 77.7251C63.8066 77.7174 63.8385 77.6946 63.8623 77.6539C63.8733 77.6351 63.8793 77.6177 63.8819 77.6043C63.8833 77.597 63.8836 77.5919 63.8835 77.5888C63.8827 77.588 63.8815 77.587 63.88 77.5857C63.8754 77.582 63.867 77.5759 63.8532 77.5687Z" stroke="#2B2E34" stroke-opacity="0.04"/>
<path d="M68.1867 80.6369C68.6666 81.0529 69.2151 81.3965 69.8033 81.6388C70.1028 81.7617 70.3121 82.0366 70.2183 82.373C70.1425 82.6551 69.7853 82.9119 69.4858 82.7889C68.6955 82.467 67.9918 82.0402 67.3458 81.4832C66.7648 80.9805 67.6093 80.1378 68.1867 80.6369Z" fill="#96C9D9"/>
<path d="M68.1867 80.6369L67.8597 81.0152C67.8376 80.9961 67.822 80.9898 67.814 80.9873C67.8055 80.9847 67.7963 80.9836 67.7848 80.9849C67.7582 80.9878 67.7193 81.004 67.6858 81.0376C67.665 81.0585 67.6563 81.0756 67.6527 81.0848C67.6566 81.0895 67.6629 81.0964 67.673 81.1051L67.3458 81.4832L67.6723 81.1046C68.2706 81.6204 68.9209 82.0165 69.6538 82.3174C69.6591 82.3153 69.6657 82.312 69.6733 82.3074C69.6915 82.2962 69.7088 82.2807 69.7216 82.2644C69.7326 82.2505 69.7357 82.242 69.7358 82.2421L69.7367 82.2386C69.7421 82.2192 69.741 82.2097 69.7406 82.2069C69.7401 82.2037 69.7388 82.198 69.7331 82.1889C69.7202 82.1681 69.6842 82.1304 69.6134 82.1013L69.6129 82.1011C68.9725 81.8373 68.3781 81.4645 67.8592 81.0148L68.1867 80.6369ZM68.1867 80.6369C67.6093 80.1378 66.7648 80.9805 67.3458 81.4832C67.9918 82.0402 68.6955 82.467 69.4858 82.7889C69.7853 82.9119 70.1425 82.6551 70.2183 82.373C70.3121 82.0366 70.1028 81.7617 69.8033 81.6388C69.2151 81.3965 68.6666 81.0529 68.1867 80.6369Z" stroke="#2B2E34" stroke-opacity="0.04"/>
<path d="M72.7083 85.4542C73.2424 85.805 73.7729 86.1559 74.307 86.5067C74.9457 86.9262 74.3503 87.9606 73.7043 87.5375C73.1702 87.1866 72.6398 86.8358 72.1057 86.485C71.467 86.0655 72.066 85.0311 72.7083 85.4542Z" fill="#96C9D9"/>
<path d="M73.7043 87.5375L73.9783 87.1192C73.9917 87.128 74.0014 87.1325 74.0071 87.1348C74.0086 87.1353 74.0099 87.1358 74.011 87.1362C74.0184 87.1318 74.0366 87.1187 74.0549 87.0872C74.0786 87.0464 74.0831 87.0065 74.0794 86.9833C74.0778 86.9734 74.0748 86.9661 74.0707 86.9597C74.0668 86.9536 74.0569 86.9407 74.0325 86.9246L74.0324 86.9246C73.7651 86.749 73.4987 86.5734 73.2327 86.3981L73.2325 86.3979C72.9663 86.2225 72.7005 86.0473 72.4338 85.8721L72.4333 85.8718C72.4185 85.8621 72.4084 85.8577 72.4029 85.8557C72.3952 85.8604 72.377 85.8737 72.3588 85.9051C72.3348 85.9462 72.3303 85.9862 72.3339 86.0093C72.3355 86.0191 72.3383 86.0261 72.3424 86.0324C72.3462 86.0383 72.3558 86.0511 72.3802 86.0671L72.3802 86.0671C72.6476 86.2428 72.9141 86.4184 73.1802 86.5938L73.1803 86.5938C73.4464 86.7693 73.7122 86.9444 73.9788 87.1196L73.7043 87.5375ZM73.7043 87.5375C74.3503 87.9606 74.9457 86.9262 74.307 86.5067C74.0399 86.3313 73.7738 86.1559 73.5076 85.9804C73.2415 85.805 72.9754 85.6296 72.7083 85.4542L73.7043 87.5375Z" stroke="#2B2E34" stroke-opacity="0.04"/>
<path d="M59.7246 81.1362C60.2082 81.2736 60.6953 81.4075 61.1789 81.5449C61.9151 81.7511 61.6047 82.9048 60.8613 82.6986C60.3778 82.5612 59.8906 82.4274 59.4071 82.29C58.6709 82.0802 58.9849 80.9264 59.7246 81.1362Z" fill="#96C9D9"/>
<path d="M61.0441 82.0264L61.0441 82.0264C61.0722 82.0343 61.083 82.0429 61.0854 82.0448C61.0878 82.0469 61.0896 82.049 61.0917 82.0534C61.0974 82.0656 61.105 82.099 61.0925 82.1451C61.0799 82.1913 61.0571 82.214 61.0485 82.2198C61.0456 82.2218 61.0441 82.2223 61.0414 82.2227C61.0388 82.2231 61.025 82.225 60.9961 82.2171C60.7539 82.1483 60.511 82.0804 60.2693 82.0129L60.2688 82.0127C60.026 81.9449 59.7845 81.8774 59.5441 81.8091C59.5158 81.801 59.5048 81.7923 59.5023 81.7901C59.4996 81.7879 59.4976 81.7855 59.4954 81.7807C59.4895 81.768 59.482 81.734 59.4946 81.6877C59.5073 81.6413 59.5302 81.6189 59.5382 81.6135C59.5407 81.6118 59.5418 81.6115 59.5437 81.6112L61.0441 82.0264ZM61.0441 82.0264L61.0422 82.0259M61.0441 82.0264L61.0422 82.0259M61.0422 82.0259C60.8017 81.9575 60.5601 81.89 60.3172 81.8221M61.0422 82.0259L60.3172 81.8221M60.3172 81.8221L60.3166 81.822M60.3172 81.8221L60.3166 81.822M60.3166 81.822C60.0744 81.7543 59.831 81.6862 59.5882 81.6172L60.3166 81.822Z" stroke="#2B2E34" stroke-opacity="0.04"/>
<path d="M54.4631 77.0385C55.1091 77.4689 55.7875 77.7799 56.5381 77.9824C57.2779 78.185 56.9639 79.3351 56.2206 79.1362C55.3833 78.9083 54.5858 78.5539 53.8605 78.0728C53.2254 77.6497 53.8208 76.6117 54.4631 77.0385Z" fill="#96C9D9"/>
<path d="M54.1368 77.6561C54.8153 78.1061 55.563 78.4389 56.3506 78.6534L56.5381 77.9824C55.7875 77.7799 55.1091 77.4689 54.4631 77.0385L54.1864 77.4549C54.1728 77.4459 54.1631 77.4413 54.1574 77.4392C54.1495 77.4443 54.1327 77.4577 54.1156 77.4872C54.0916 77.5288 54.0865 77.5703 54.0904 77.5955C54.0921 77.6064 54.0953 77.6143 54.0997 77.6212C54.1038 77.6277 54.1137 77.6407 54.1377 77.6567L53.8605 78.0728L54.1368 77.6561Z" stroke="#2B2E34" stroke-opacity="0.04"/>
<path d="M49.2668 71.4321C50.0138 71.6274 50.7571 71.8263 51.5041 72.0216C52.2439 72.2169 51.9299 73.3707 51.1866 73.1754L48.9492 72.5859C48.2058 72.3869 48.5234 71.2332 49.2668 71.4321Z" fill="#96C9D9"/>
<path d="M49.1403 71.9159L49.1403 71.9159L49.1375 71.9151C49.1084 71.9073 49.0939 71.9092 49.0904 71.9098C49.0868 71.9104 49.084 71.9114 49.0799 71.9142C49.0687 71.9217 49.0452 71.9465 49.0325 71.9925C49.0198 72.0386 49.0279 72.0699 49.0324 72.0793C49.0338 72.0823 49.0348 72.0834 49.0366 72.0849C49.0384 72.0863 49.0491 72.0949 49.0778 72.1027C49.078 72.1027 49.0782 72.1028 49.0785 72.1028L51.3136 72.6918C51.3137 72.6918 51.3137 72.6918 51.3138 72.6918C51.3427 72.6994 51.3571 72.6975 51.3606 72.6969C51.3643 72.6963 51.3672 72.6952 51.3715 72.6923C51.3829 72.6845 51.4066 72.6593 51.4193 72.613C51.432 72.5665 51.4237 72.5352 51.4195 72.5263C51.4182 72.5235 51.4175 72.5229 51.4162 72.5218C51.415 72.5209 51.4049 72.5126 51.3765 72.5051L51.5041 72.0216L51.3776 72.5054C51.0035 72.4076 50.6303 72.3088 50.2579 72.2104L50.2576 72.2103C49.8849 72.1117 49.513 72.0133 49.1403 71.9159Z" stroke="#2B2E34" stroke-opacity="0.04"/>
<path d="M50.7354 78.9261L52.8176 80.4379C53.4311 80.8863 52.8393 81.9207 52.215 81.4686L50.1328 79.9568C49.5193 79.512 50.1111 78.474 50.7354 78.9261Z" fill="#96C9D9"/>
<path d="M50.4263 79.5521L50.4265 79.5522L52.5082 81.0637C52.5083 81.0637 52.5083 81.0638 52.5084 81.0638C52.5141 81.0679 52.519 81.0711 52.5232 81.0736C52.5298 81.067 52.5384 81.0566 52.5476 81.0406C52.5715 80.9993 52.5793 80.9533 52.5747 80.9198C52.5726 80.9048 52.5683 80.8929 52.5623 80.8827C52.5567 80.8731 52.5459 80.8587 52.523 80.8419C52.5228 80.8417 52.5227 80.8416 52.5225 80.8415L50.4422 79.3311C50.4421 79.331 50.442 79.331 50.442 79.3309C50.4366 79.327 50.4319 79.3239 50.4279 79.3215C50.4211 79.3282 50.4123 79.3388 50.4029 79.3551C50.3788 79.3969 50.3711 79.4431 50.3757 79.4764C50.3777 79.4912 50.382 79.5027 50.3877 79.5124C50.3931 79.5215 50.4036 79.5356 50.4263 79.5521ZM52.5396 81.0816C52.5396 81.0816 52.5395 81.0815 52.5391 81.0815L52.5396 81.0816Z" stroke="#2B2E34" stroke-opacity="0.04"/>
<path d="M56.0075 83.6134C56.6354 84.004 57.2885 84.2825 58.0031 84.4633C58.7464 84.655 58.4325 85.8051 57.6855 85.617C56.8808 85.4109 56.1121 85.0818 55.4084 84.6441C54.7553 84.2427 55.3507 83.2083 56.0075 83.6134Z" fill="#96C9D9"/>
<path d="M55.6703 84.2182L55.6703 84.2182L55.6725 84.2196C56.3327 84.6301 57.0538 84.9389 57.8083 85.1324C57.8375 85.1396 57.8527 85.1377 57.8575 85.1369C57.8625 85.136 57.8666 85.1344 57.8717 85.1309C57.8848 85.1219 57.9085 85.0959 57.9209 85.0504C57.9335 85.0046 57.925 84.975 57.9215 84.9677C57.9205 84.9656 57.9202 84.9653 57.919 84.9644C57.9179 84.9634 57.9074 84.955 57.8782 84.9475L58.0031 84.4633L57.8804 84.948C57.1159 84.7546 56.4154 84.4559 55.7444 84.0386C55.7187 84.0228 55.7055 84.0212 55.7046 84.0211L55.7046 84.0211C55.7043 84.021 55.7043 84.021 55.7043 84.021C55.7043 84.021 55.7044 84.021 55.704 84.0211C55.6991 84.0228 55.6732 84.0357 55.6495 84.0766C55.6261 84.1172 55.6236 84.1533 55.6266 84.1705C55.6278 84.1774 55.6298 84.1819 55.6328 84.1863C55.6357 84.1905 55.6449 84.2026 55.6703 84.2182Z" stroke="#2B2E34" stroke-opacity="0.04"/>
<path d="M62.8928 86.008C63.5785 86.4239 64.2893 86.7928 65.0291 87.093C65.3286 87.2159 65.5343 87.4908 65.4441 87.8272C65.3683 88.1129 65.0075 88.3661 64.7116 88.2431C63.8744 87.9031 63.066 87.5089 62.2902 87.0387C61.6334 86.6445 62.2324 85.6101 62.8928 86.008Z" fill="#96C9D9"/>
<path d="M64.9611 87.6978L64.9612 87.6976C64.9667 87.6772 64.9656 87.6663 64.965 87.6622C64.9643 87.6577 64.9626 87.6513 64.9569 87.642C64.9441 87.6213 64.9092 87.5844 64.84 87.5558C64.8397 87.5557 64.8395 87.5556 64.8392 87.5555L64.9611 87.6978ZM64.9611 87.6978C64.9611 87.6978 64.9581 87.706 64.9474 87.7195C64.9347 87.7355 64.9176 87.7508 64.8994 87.7619C64.8919 87.7665 64.8853 87.7697 64.88 87.7718L64.9611 87.6978Z" stroke="#2B2E34" stroke-opacity="0.04"/>
<path d="M1.95766 63.8955C2.27522 65.5954 2.63247 67.3061 3.02581 69.024C5.18378 78.3986 10.1601 87.3463 16.9515 94.6883C16.9912 95.2488 17.0237 95.8094 17.049 96.37C17.0851 97.144 17.0923 97.8963 16.8072 98.5871C16.5402 99.2309 15.8942 99.8999 15.075 99.8999C15.0426 99.8999 15.0101 99.8999 14.9776 99.8963C14.0755 99.8385 13.4728 99.0211 13.0975 98.4135C12.365 97.2236 11.7623 95.8926 11.3473 94.5761C11.3473 95.1512 11.3257 95.7299 11.2788 96.3013C11.203 97.2489 10.889 97.8203 10.3477 98.0012C9.93275 98.1386 9.43114 97.9939 9.07028 97.625C8.75633 97.3104 8.58672 96.8945 8.45321 96.5292C7.99491 95.2959 7.68456 93.9721 7.53661 92.6701C7.51496 92.8003 7.4933 92.9305 7.46443 93.0607C7.284 93.8492 6.76797 94.5978 6.15089 94.9667C5.72507 95.2235 5.26677 95.2922 4.82652 95.1693C4.17336 94.9884 3.65732 94.417 3.24594 93.426C2.51338 91.6502 2.268 89.7695 2.0587 87.8346C1.37667 81.5053 1.14932 75.0748 1.38028 68.713C1.43441 67.1108 1.54267 65.4507 1.95766 63.8955Z" fill="#EAF6FD"/>
<path d="M5.89433 94.5376C6.37887 94.2479 6.82215 93.6239 6.97667 92.9508C7.00199 92.8363 7.02149 92.7197 7.04338 92.5881L8.03341 92.6137C8.17695 93.8768 8.47816 95.1609 8.9219 96.355L8.92282 96.3575C9.05598 96.7218 9.19533 97.0425 9.42424 97.2719L9.42771 97.2754C9.68119 97.5345 9.98955 97.5927 10.1898 97.5267C10.4332 97.4452 10.709 97.1535 10.7804 96.2614L10.7804 96.2604C10.8261 95.7037 10.8473 95.1388 10.8473 94.5761L11.8242 94.4258C12.227 95.7037 12.8126 96.9968 13.5229 98.1507C13.7033 98.4428 13.9196 98.7531 14.1798 98.9943C14.4374 99.233 14.71 99.3781 15.0096 99.3974L15.0213 99.3981L15.0325 99.3993C15.033 99.3994 15.0354 99.3996 15.0403 99.3997C15.0484 99.3999 15.0577 99.3999 15.075 99.3999C15.614 99.3999 16.1206 98.9372 16.3453 98.3956C16.5829 97.8193 16.5858 97.1709 16.5495 96.3933L16.5495 96.3925C16.527 95.8944 16.4988 95.3963 16.4649 94.8981C9.68182 87.5235 4.7054 78.5493 2.53856 69.1362L2.53843 69.1356C2.35 68.3126 2.1698 67.4912 1.99823 66.6718C1.9363 67.3535 1.9032 68.043 1.87999 68.7299L1.87995 68.7311C1.64986 75.0691 1.87637 81.4756 2.55582 87.781C2.76527 89.7173 3.0058 91.5325 3.70795 93.2348C4.0954 94.168 4.52532 94.5671 4.95993 94.6874L4.96103 94.6877C5.25772 94.7706 5.57479 94.7303 5.89268 94.5386L5.89433 94.5376Z" stroke="#2B2E34" stroke-opacity="0.04"/>
<path d="M10.3621 91.1183V92.5107C10.3621 93.2811 9.1713 93.2811 9.1713 92.5107V91.1183C9.1713 90.3479 10.3621 90.3479 10.3621 91.1183Z" fill="#96C9D9"/>
<path d="M9.86212 92.5107V91.1183C9.86212 91.0876 9.85647 91.074 9.85514 91.071C9.85377 91.068 9.85246 91.0662 9.84948 91.0636C9.84095 91.0562 9.81302 91.0405 9.76671 91.0405C9.7204 91.0405 9.69247 91.0562 9.68394 91.0636C9.68096 91.0662 9.67965 91.068 9.67828 91.071C9.67695 91.074 9.6713 91.0876 9.6713 91.1183V92.5107C9.6713 92.5415 9.67695 92.555 9.67828 92.558C9.67965 92.561 9.68096 92.5629 9.68394 92.5654C9.69247 92.5728 9.7204 92.5885 9.76671 92.5885C9.81302 92.5885 9.84095 92.5728 9.84948 92.5654C9.85246 92.5629 9.85377 92.561 9.85514 92.558C9.85647 92.555 9.86212 92.5415 9.86212 92.5107Z" stroke="#2B2E34" stroke-opacity="0.04"/>
<path d="M13.1444 91.965V93.1585C13.1444 93.9289 11.9536 93.9289 11.9536 93.1585V91.965C11.95 91.1946 13.1444 91.1946 13.1444 91.965Z" fill="#96C9D9"/>
<path d="M12.4536 91.9626H12.4536V91.965V93.1585C12.4536 93.1892 12.4592 93.2028 12.4605 93.2058C12.4619 93.2088 12.4632 93.2106 12.4662 93.2132C12.4747 93.2206 12.5027 93.2363 12.549 93.2363C12.5953 93.2363 12.6232 93.2206 12.6318 93.2132C12.6347 93.2106 12.6361 93.2088 12.6374 93.2058C12.6388 93.2028 12.6444 93.1892 12.6444 93.1585V91.965C12.6444 91.9345 12.6388 91.9211 12.6375 91.9182C12.6362 91.9152 12.6348 91.9133 12.6317 91.9107C12.6229 91.9031 12.5944 91.8872 12.5476 91.8872C12.5008 91.8872 12.473 91.9031 12.465 91.91C12.4623 91.9124 12.4612 91.9139 12.4601 91.9164C12.459 91.9189 12.4534 91.9321 12.4536 91.9626Z" stroke="#2B2E34" stroke-opacity="0.04"/>
<path d="M15.4286 95.2487V96.4422C15.4286 97.2126 14.2378 97.2126 14.2378 96.4422V95.2487C14.2378 94.4783 15.4286 94.4783 15.4286 95.2487Z" fill="#96C9D9"/>
<path d="M14.9286 96.4422V95.2487C14.9286 95.2179 14.923 95.2044 14.9217 95.2014C14.9203 95.1984 14.919 95.1965 14.916 95.194C14.9075 95.1866 14.8795 95.1709 14.8332 95.1709C14.7869 95.1709 14.759 95.1866 14.7505 95.194C14.7475 95.1965 14.7462 95.1984 14.7448 95.2014C14.7435 95.2044 14.7378 95.2179 14.7378 95.2487V96.4422C14.7378 96.4729 14.7435 96.4865 14.7448 96.4895C14.7462 96.4925 14.7475 96.4943 14.7505 96.4969C14.759 96.5043 14.7869 96.52 14.8332 96.52C14.8795 96.52 14.9075 96.5043 14.916 96.4969C14.919 96.4943 14.9203 96.4925 14.9217 96.4895C14.923 96.4865 14.9286 96.4729 14.9286 96.4422Z" stroke="#2B2E34" stroke-opacity="0.04"/>
<path d="M3.01141 70.3585V72.2501C3.01141 73.0204 1.82058 73.0204 1.82058 72.2501V70.3585C1.81698 69.5882 3.01141 69.5882 3.01141 70.3585Z" fill="#96C9D9"/>
<path d="M2.32058 70.3562L2.32058 70.3562V70.3585V72.2501C2.32058 72.2808 2.32623 72.2944 2.32757 72.2973C2.32894 72.3004 2.33025 72.3022 2.33323 72.3048C2.34176 72.3121 2.36969 72.3278 2.416 72.3278C2.46231 72.3278 2.49024 72.3121 2.49877 72.3048C2.50175 72.3022 2.50306 72.3004 2.50443 72.2973C2.50576 72.2944 2.51141 72.2808 2.51141 72.2501V70.3585C2.51141 70.328 2.50579 70.3146 2.5045 70.3117C2.50316 70.3088 2.50185 70.3069 2.49874 70.3042C2.48988 70.2966 2.46141 70.2808 2.41465 70.2808C2.36784 70.2808 2.34005 70.2966 2.33199 70.3036C2.32928 70.3059 2.32826 70.3074 2.32711 70.31C2.326 70.3125 2.32044 70.3257 2.32058 70.3562Z" stroke="#2B2E34" stroke-opacity="0.04"/>
<path d="M3.20978 75.3352V77.6246C3.20978 78.3949 2.01893 78.3949 2.01893 77.6246V75.3352C2.01893 74.5685 3.20978 74.5648 3.20978 75.3352Z" fill="#96C9D9"/>
<path d="M2.70978 77.6246V75.3352C2.70978 75.3045 2.70413 75.291 2.70289 75.2883C2.70163 75.2855 2.70048 75.2839 2.69769 75.2815C2.6895 75.2744 2.66173 75.2587 2.61511 75.2588C2.56849 75.2589 2.54008 75.2747 2.53124 75.2823C2.52814 75.285 2.5269 75.2868 2.52564 75.2896C2.52444 75.2922 2.51893 75.3053 2.51893 75.3352V77.6246C2.51893 77.6553 2.52458 77.6689 2.52591 77.6719C2.52728 77.6749 2.52859 77.6767 2.53157 77.6793C2.5401 77.6867 2.56804 77.7024 2.61435 77.7024C2.66066 77.7024 2.6886 77.6867 2.69714 77.6793C2.70011 77.6767 2.70143 77.6749 2.7028 77.6719C2.70413 77.6689 2.70978 77.6553 2.70978 77.6246Z" stroke="#2B2E34" stroke-opacity="0.04"/>
<path d="M3.59589 80.8142C3.63919 81.4435 3.6825 82.0728 3.72219 82.7058C3.77271 83.4725 2.58187 83.4689 2.53135 82.7058C2.48805 82.0765 2.44474 81.4471 2.40505 80.8142C2.35453 80.0438 3.54537 80.0475 3.59589 80.8142Z" fill="#96C9D9"/>
<path d="M3.09707 80.8485L3.09707 80.8485L3.09697 80.8471C3.09497 80.8168 3.0883 80.8004 3.08421 80.7925C3.07994 80.7843 3.07421 80.7771 3.06554 80.77C3.04559 80.7537 3.00802 80.7379 2.96182 80.7378C2.9313 80.7377 2.91305 80.7443 2.9047 80.7483C2.90376 80.7545 2.90291 80.7653 2.90398 80.7815L2.90407 80.7829C2.94365 81.414 2.98684 82.0417 3.03016 82.6712L3.03017 82.6714L3.03026 82.6727C3.03221 82.7023 3.03872 82.718 3.04258 82.7254C3.04664 82.7332 3.05217 82.7402 3.06081 82.7472C3.08074 82.7634 3.11863 82.7794 3.16542 82.7795C3.19572 82.7795 3.21411 82.7732 3.22281 82.7691C3.22361 82.7631 3.22423 82.7532 3.22327 82.7386L3.22317 82.7371C3.18359 82.106 3.1404 81.4783 3.09708 80.8488L3.09707 80.8485Z" stroke="#2B2E34" stroke-opacity="0.04"/>
<path d="M3.9821 85.5923C4.32491 85.5923 4.55226 85.8672 4.57752 86.189C4.6136 86.652 4.64969 87.1185 4.68578 87.5815C4.71104 87.9034 4.39347 88.1782 4.09035 88.1782C3.74753 88.1782 3.52019 87.9034 3.49493 87.5815C3.45884 87.1185 3.42276 86.652 3.38668 86.189C3.36142 85.8672 3.67897 85.5923 3.9821 85.5923Z" fill="#96C9D9"/>
<path d="M4.07905 86.2282C4.07904 86.2281 4.07904 86.2281 4.07904 86.228C4.07445 86.17 4.05257 86.1315 4.03529 86.1132C4.02728 86.1047 4.0203 86.1003 4.01464 86.0978C4.00946 86.0956 3.99974 86.0923 3.9821 86.0923C3.98118 86.0923 3.97118 86.0927 3.95427 86.1C3.93748 86.1072 3.92045 86.1183 3.90651 86.1316C3.89352 86.144 3.88794 86.1529 3.88574 86.1575L3.9393 86.8466L3.9934 87.5424C3.9934 87.5424 3.99341 87.5425 3.99341 87.5425C3.99799 87.6005 4.01988 87.6391 4.03715 87.6574C4.04517 87.6658 4.05215 87.6702 4.0578 87.6727C4.06298 87.675 4.0727 87.6782 4.09035 87.6782C4.09126 87.6782 4.10127 87.6778 4.11819 87.6705C4.13497 87.6634 4.152 87.6522 4.16595 87.6389C4.17894 87.6265 4.18451 87.6176 4.18672 87.613L4.13315 86.924L4.07905 86.2282ZM3.88445 86.1612C3.88451 86.1612 3.88474 86.1606 3.88495 86.1593L3.88445 86.1612ZM4.18801 87.6093C4.18795 87.6093 4.18772 87.6099 4.18751 87.6112L4.18801 87.6093Z" stroke="#2B2E34" stroke-opacity="0.04"/>
<path d="M5.42197 78.7455C5.71067 78.6659 6.1004 78.8432 6.15453 79.1614C6.27361 79.8414 6.32414 80.5213 6.28805 81.2085C6.24836 81.9716 5.0539 81.9789 5.0972 81.2085C5.12968 80.6298 5.10803 80.0511 5.00698 79.4797C4.94925 79.1614 5.08998 78.8359 5.42197 78.7455Z" fill="#96C9D9"/>
<path d="M5.55483 79.2275L5.55336 79.2279C5.53641 79.2326 5.52875 79.238 5.52537 79.2408C5.52157 79.2439 5.51648 79.2492 5.51114 79.2594C5.49939 79.2818 5.48755 79.3276 5.49895 79.3905L5.49935 79.3926C5.60833 80.009 5.63062 80.6271 5.59641 81.2365L5.59641 81.2366C5.59542 81.2542 5.59665 81.2654 5.59776 81.2713C5.60577 81.2755 5.62562 81.2837 5.65999 81.2836C5.70703 81.2834 5.74369 81.2673 5.76189 81.2523C5.76964 81.246 5.77435 81.2398 5.77778 81.233C5.78103 81.2266 5.78721 81.2117 5.78873 81.1825L5.78874 81.1823C5.82239 80.5416 5.77607 79.9039 5.6643 79.2608C5.66013 79.2571 5.65314 79.2519 5.64258 79.2463C5.62491 79.237 5.60419 79.2304 5.58453 79.2278C5.56572 79.2253 5.55566 79.2274 5.55487 79.2275C5.55482 79.2275 5.55481 79.2275 5.55483 79.2275Z" stroke="#2B2E34" stroke-opacity="0.04"/>
<path d="M7.28387 86.1886V87.3821C7.28387 88.1525 6.09303 88.1525 6.09303 87.3821V86.1886C6.08942 85.4183 7.28387 85.4183 7.28387 86.1886Z" fill="#96C9D9"/>
<path d="M6.59303 86.1863H6.59303V86.1886V87.3821C6.59303 87.4129 6.59868 87.4264 6.60001 87.4294C6.60138 87.4324 6.6027 87.4343 6.60567 87.4368C6.61421 87.4442 6.64214 87.4599 6.68845 87.4599C6.73476 87.4599 6.7627 87.4442 6.77123 87.4368C6.77421 87.4343 6.77552 87.4324 6.77689 87.4294C6.77823 87.4264 6.78387 87.4129 6.78387 87.3821V86.1886C6.78387 86.1581 6.77825 86.1447 6.77696 86.1418C6.77563 86.1389 6.77431 86.137 6.7712 86.1343C6.76234 86.1267 6.73387 86.1108 6.6871 86.1108C6.64029 86.1108 6.6125 86.1267 6.60443 86.1337C6.60172 86.136 6.60071 86.1375 6.59956 86.14C6.59844 86.1425 6.59288 86.1557 6.59303 86.1863Z" stroke="#2B2E34" stroke-opacity="0.04"/>
<path d="M5.89111 91.068V92.5617C5.89111 93.3321 4.70025 93.3321 4.70025 92.5617V91.068C4.70025 90.2976 5.89111 90.2976 5.89111 91.068Z" fill="#96C9D9"/>
<path d="M5.39111 92.5617V91.068C5.39111 91.0373 5.38546 91.0237 5.38413 91.0207C5.38276 91.0177 5.38145 91.0159 5.37847 91.0133C5.36994 91.0059 5.342 90.9902 5.29568 90.9902C5.24937 90.9902 5.22142 91.0059 5.21289 91.0133C5.20991 91.0159 5.2086 91.0177 5.20723 91.0207C5.2059 91.0237 5.20025 91.0373 5.20025 91.068V92.5617C5.20025 92.5924 5.2059 92.606 5.20723 92.609C5.2086 92.612 5.20991 92.6138 5.21289 92.6164C5.22142 92.6238 5.24937 92.6395 5.29568 92.6395C5.342 92.6395 5.36994 92.6238 5.37847 92.6164C5.38145 92.6138 5.38276 92.612 5.38413 92.609C5.38546 92.606 5.39111 92.5924 5.39111 92.5617Z" stroke="#2B2E34" stroke-opacity="0.04"/>
<path d="M8.87527 86.4893C8.90053 86.1674 9.13149 85.8926 9.4707 85.8926C9.77383 85.8926 10.0914 86.1674 10.0661 86.4893C10.0337 86.9053 10.0517 87.3139 10.1383 87.7262C10.2033 88.0409 10.0445 88.3736 9.72332 88.4604C9.4274 88.5436 9.05571 88.3592 8.99075 88.0445C8.87888 87.5273 8.83558 87.0101 8.87527 86.4893Z" fill="#96C9D9"/>
<path d="M8.87527 86.4893L9.37383 86.5273C9.3382 86.9948 9.37662 87.4634 9.47945 87.9388L9.47947 87.9388L9.47954 87.9391C9.4821 87.9429 9.48986 87.9518 9.50925 87.9624C9.52555 87.9713 9.5437 87.9771 9.56037 87.9793C9.577 87.9816 9.58627 87.9796 9.588 87.9791L9.588 87.9791L9.59286 87.9778C9.61027 87.973 9.62332 87.9642 9.63525 87.942C9.64952 87.9154 9.6582 87.8736 9.64864 87.8273L10.1383 87.7262M8.87527 86.4893L9.37374 86.5284C9.37814 86.4724 9.39976 86.4336 9.4181 86.4143C9.42664 86.4052 9.43415 86.4006 9.44008 86.3979C9.44549 86.3956 9.45467 86.3926 9.4707 86.3926C9.47162 86.3926 9.48163 86.393 9.49855 86.4003C9.51534 86.4075 9.53236 86.4186 9.54631 86.4319C9.5593 86.4443 9.56488 86.4532 9.56709 86.4578C9.53222 86.9119 9.55182 87.3665 9.64899 87.829L10.1383 87.7262M8.87527 86.4893C8.83558 87.0101 8.87888 87.5273 8.99075 88.0445L10.0661 86.4893M8.87527 86.4893C8.90053 86.1674 9.13149 85.8926 9.4707 85.8926C9.77383 85.8926 10.0914 86.1674 10.0661 86.4893M10.1383 87.7262C10.0517 87.3139 10.0337 86.9053 10.0661 86.4893M10.1383 87.7262C10.2033 88.0409 10.0445 88.3736 9.72332 88.4604L10.0661 86.4893M9.56838 86.4615C9.56844 86.4615 9.56834 86.4608 9.56787 86.4596L9.56838 86.4615ZM9.47847 87.9373C9.47845 87.9373 9.47858 87.9376 9.47895 87.9382L9.47847 87.9373Z" stroke="#2B2E34" stroke-opacity="0.04"/>
</svg>
