<svg width="357" height="100" viewBox="0 0 357 100" fill="none" xmlns="http://www.w3.org/2000/svg">
<path d="M15.5553 25.1143C24.9061 31.877 65.975 37.7808 110.955 41.9222C110.943 41.9948 110.939 42.0714 110.939 42.144C98.0632 51.2658 81.2606 57.7382 64.2247 60.311C88.9336 60.311 111.514 51.7578 132.755 43.7692L132.674 43.7611C132.401 43.741 132.123 43.7168 131.849 43.6926H131.853L132.674 43.7611C154.458 45.4629 176.121 46.7251 194.621 47.451C194.871 47.459 195.12 47.4711 195.37 47.4792C175.779 60.8029 145.783 73.8283 124.973 80.224C124.872 80.2563 124.816 80.349 124.84 80.4458C124.86 80.5265 124.933 80.5869 125.017 80.595C125.033 80.595 125.049 80.595 125.062 80.595C150.539 77.5907 188.864 63.9887 210.032 48.0115C236.962 48.9229 263.586 49.4673 287.249 49.7818C270.917 63.9685 249.306 78.1795 233.159 86.6036C233.067 86.652 233.031 86.7568 233.071 86.8456C233.107 86.9222 233.188 86.9666 233.272 86.9585C233.288 86.9585 233.304 86.9544 233.316 86.9504C253.487 80.7523 280.827 65.8881 299.665 49.927C333.621 50.2899 359.766 50.2012 369.004 50.1528V20.9365C252.956 37.4622 131.298 42.753 15.5553 25.1143Z" fill="#E3CABA"/>
<path d="M5.59277 45.8055C7.98279 43.882 10.1072 40.1316 12.2196 37.9137C14.332 35.6958 16.6054 33.5585 19.3575 32.1753C22.1096 30.7921 25.417 30.2437 28.314 31.2922C31.211 32.3447 33.4964 35.2361 33.2268 38.2645C33.0015 40.8172 31.1265 42.9424 29.0503 44.4909C22.4275 49.4268 12.7427 49.9672 5.59277 45.8055Z" fill="#E3CABA"/>
<path d="M31.3196 33.2925C31.3196 33.2925 31.0701 33.5304 30.6396 33.9458C30.201 34.3652 29.5894 34.9257 28.8008 35.579C28.0242 36.2444 27.0706 36.9581 26.0245 37.7001C24.9703 38.43 23.8075 39.1559 22.6165 39.8294C21.4135 40.4907 20.1822 41.0996 18.9993 41.6158C17.8123 42.1199 16.6857 42.5594 15.7 42.878C14.7182 43.2127 13.8853 43.4466 13.3019 43.5999C12.7145 43.7531 12.3805 43.8378 12.3805 43.8378C12.3805 43.8378 12.7185 43.7652 13.3099 43.6402C13.9014 43.5111 14.7464 43.3135 15.7442 43.0232C16.7461 42.749 17.8968 42.3538 19.116 41.8981C20.3311 41.4303 21.5986 40.8698 22.8459 40.2528C24.0851 39.6237 25.2922 38.9382 26.3987 38.2446C27.4931 37.5388 28.499 36.8493 29.3198 36.2081C30.1487 35.583 30.8287 35.0064 31.2793 34.6152C31.73 34.22 31.9915 33.9901 31.9915 33.9901C32.1927 33.8167 32.2088 33.5143 32.0317 33.3167C31.8547 33.1191 31.5489 33.103 31.3477 33.2804C31.3276 33.2844 31.3236 33.2885 31.3196 33.2925Z" fill="#E3CABA"/>
<path d="M28.7767 35.9457C28.7767 35.9457 28.8169 36.4861 28.7565 37.2604C28.7042 38.0467 28.5191 39.0952 28.1892 40.1074C27.8593 41.1196 27.3966 42.0874 26.958 42.7608C26.5275 43.4424 26.1613 43.8416 26.1613 43.8416C26.1613 43.8416 26.5476 43.4625 27.0224 42.8052C27.5052 42.1519 28.0363 41.2002 28.4306 40.1921C28.8249 39.1799 29.0865 38.1193 29.1871 37.3047C29.2997 36.4821 29.2876 35.9457 29.2876 35.9457V35.9215C29.2836 35.7804 29.1669 35.6675 29.0221 35.6675C28.8772 35.6715 28.7646 35.7885 28.7646 35.9296C28.7726 35.9377 28.7726 35.9417 28.7767 35.9457Z" fill="#E3CABA"/>
<path d="M22.8983 39.7767C22.8983 39.7767 22.854 40.2122 22.7172 40.8333C22.5844 41.4624 22.343 42.2931 22.0171 43.0956C21.6912 43.894 21.2768 44.6643 20.8824 45.1845C20.4962 45.7128 20.1542 45.9991 20.1542 45.9991C20.1542 45.9991 20.5163 45.741 20.9468 45.2369C21.3894 44.7409 21.8682 43.9949 22.2666 43.2045C22.6609 42.4141 22.9787 41.5833 23.1638 40.9462C23.357 40.301 23.4374 39.8735 23.4374 39.8735L23.4415 39.8574C23.4696 39.7082 23.369 39.567 23.2202 39.5428C23.0713 39.5146 22.9264 39.6154 22.8983 39.7606C22.9023 39.7646 22.9023 39.7687 22.8983 39.7767Z" fill="#E3CABA"/>
<path d="M17.3697 42.3055C17.3697 42.3055 17.2732 42.6039 17.0841 43.0192C16.8949 43.4427 16.6012 43.9871 16.2512 44.5032C15.9011 45.0194 15.4947 45.4993 15.1487 45.8179C14.8067 46.1405 14.5411 46.3179 14.5411 46.3179C14.5411 46.3179 14.8188 46.1606 15.1849 45.8582C15.5551 45.5598 15.9977 45.1001 16.388 44.6041C16.7783 44.104 17.1203 43.5677 17.3416 43.1442C17.5709 42.7208 17.6836 42.4264 17.6836 42.4264L17.6876 42.4143C17.7238 42.3297 17.6795 42.2288 17.591 42.1966C17.5025 42.1643 17.4059 42.2046 17.3697 42.2934C17.3738 42.2974 17.3697 42.3014 17.3697 42.3055Z" fill="#E3CABA"/>
<path d="M29.0342 35.7765C29.0342 35.7765 28.5835 35.466 27.815 35.095C27.0586 34.7281 26.0044 34.357 24.9181 34.1272C23.8317 33.8973 22.7212 33.8086 21.8923 33.8409C21.0634 33.861 20.5203 33.9659 20.5203 33.9659C20.5203 33.9659 21.0675 33.8933 21.8923 33.9215C22.7131 33.9377 23.8035 34.0909 24.8577 34.3772C25.9079 34.6635 26.9138 35.087 27.6139 35.4821C28.3099 35.8652 28.7445 36.204 28.7445 36.204C28.8572 36.2927 29.0221 36.2725 29.1106 36.1637C29.1992 36.0507 29.179 35.8894 29.0664 35.8047C29.0624 35.8007 29.0583 35.8007 29.0543 35.7967L29.0342 35.7765Z" fill="#E3CABA"/>
<path d="M23.2845 39.5751C23.2845 39.5751 22.8781 39.3977 22.2263 39.1961C21.5825 38.9904 20.7094 38.7807 19.8242 38.6597C18.939 38.5428 18.0377 38.5146 17.3738 38.5952C16.7059 38.6638 16.2875 38.813 16.2875 38.813C16.2875 38.813 16.718 38.696 17.3819 38.6799C18.0418 38.6517 18.9229 38.7444 19.7759 38.9259C20.633 39.1114 21.4658 39.3775 22.0694 39.6235C22.6689 39.8614 23.0592 40.0671 23.0592 40.0671C23.192 40.1397 23.361 40.0873 23.4334 39.9542C23.5058 39.8211 23.4535 39.6558 23.3207 39.5872C23.3167 39.5832 23.3087 39.5792 23.3006 39.5792L23.2845 39.5751Z" fill="#E3CABA"/>
<path d="M17.579 42.2043C17.579 42.2043 17.2772 42.1115 16.7944 42.0188C16.3196 41.926 15.6798 41.8494 15.0401 41.8333C14.4003 41.8212 13.7606 41.8736 13.2898 41.9663C12.819 42.055 12.5213 42.172 12.5213 42.172C12.5213 42.172 12.8271 42.0792 13.2979 42.0188C13.7686 41.9542 14.4003 41.9462 15.028 41.9986C15.6557 42.0551 16.2753 42.172 16.726 42.293C17.1766 42.4099 17.4703 42.5228 17.4703 42.5228C17.5588 42.5551 17.6554 42.5148 17.6916 42.426C17.7238 42.3414 17.6836 42.2405 17.5951 42.2083C17.591 42.2083 17.587 42.2043 17.583 42.2043H17.579Z" fill="#E3CABA"/>
<path d="M0.53107 0.374023C3.84651 2.41453 9.27434 3.39445 12.8352 4.9833C16.3961 6.57215 19.9248 8.38683 22.7252 11.0685C25.5257 13.7502 27.5415 17.432 27.4369 21.2751C27.3322 25.1182 24.741 28.9895 20.9428 29.9008C17.744 30.6711 14.3924 29.3242 11.6644 27.5055C2.96535 21.6985 -1.63362 10.4999 0.53107 0.374023Z" fill="#E3CABA"/>
<path d="M26.1614 25.7392C26.1614 25.7392 25.7711 25.5416 25.0911 25.1948C24.4071 24.8439 23.4696 24.3439 22.351 23.6704C21.7877 23.3438 21.1963 22.9647 20.5726 22.5615C19.9449 22.1622 19.3092 21.7025 18.6413 21.2388C17.3296 20.2831 15.9736 19.2023 14.67 18.0611C13.3824 16.9037 12.1432 15.6899 11.0367 14.5003C10.4975 13.8954 9.96238 13.3187 9.49162 12.7421C9.01281 12.1694 8.56619 11.6291 8.1759 11.1089C7.3752 10.0846 6.75557 9.19337 6.33712 8.56428C5.91866 7.9352 5.67725 7.57227 5.67725 7.57227C5.67725 7.57227 5.90659 7.93922 6.3009 8.58444C6.69924 9.22966 7.29071 10.141 8.05519 11.1935C8.42939 11.7299 8.85589 12.2864 9.3186 12.8792C9.76924 13.476 10.2883 14.0688 10.8073 14.6979C11.8776 15.9319 13.0807 17.1981 14.34 18.4079C15.6155 19.6056 16.9433 20.7468 18.2389 21.755C18.8988 22.2469 19.5224 22.7389 20.1461 23.1623C20.7657 23.5938 21.3532 24.0011 21.9125 24.352C23.0109 25.0698 23.9846 25.6303 24.6485 25.9973C25.3164 26.3642 25.6987 26.578 25.6987 26.578C25.932 26.707 26.2257 26.6264 26.3585 26.3965C26.4913 26.1666 26.4068 25.8763 26.1734 25.7472C26.1734 25.7472 26.1654 25.7432 26.1614 25.7392Z" fill="#E3CABA"/>
<path d="M21.9809 23.7711C21.9809 23.7711 21.3412 24.0332 20.3634 24.2752C19.3776 24.5292 18.0217 24.7228 16.6537 24.743C15.2856 24.7591 13.9176 24.5938 12.9157 24.3478C12.4128 24.2308 12.0064 24.1018 11.7207 24.001C11.4391 23.8961 11.2781 23.8397 11.2781 23.8397C11.2781 23.8397 11.4351 23.9042 11.7127 24.0211C11.9903 24.134 12.3967 24.2873 12.8956 24.4244C13.8895 24.7228 15.2615 24.9527 16.6496 25.0011C18.0378 25.0495 19.434 24.9124 20.46 24.6986C20.971 24.6018 21.4096 24.4809 21.6952 24.3962C21.9849 24.3075 22.1459 24.2591 22.1459 24.2591L22.1579 24.255C22.2947 24.2147 22.3712 24.0695 22.331 23.9324C22.2867 23.7953 22.1418 23.7227 22.005 23.763C21.997 23.7671 21.989 23.7711 21.9809 23.7711Z" fill="#E3CABA"/>
<path d="M14.9194 18.4077C14.9194 18.4077 14.3722 18.5247 13.5554 18.6134C12.7306 18.7061 11.6201 18.7505 10.5096 18.6819C9.40306 18.6094 8.29657 18.4279 7.50392 18.1658C7.10559 18.0407 6.7837 17.9077 6.5624 17.8028C6.34513 17.6939 6.2204 17.6294 6.2204 17.6294C6.2204 17.6294 6.34111 17.698 6.55033 17.823C6.76358 17.9399 7.07742 18.0972 7.47174 18.2464C8.25634 18.5569 9.36283 18.811 10.4814 18.9521C11.604 19.0893 12.7386 19.1134 13.5876 19.0691C14.4446 19.0288 14.9999 18.9441 14.9999 18.9441L15.016 18.94C15.1649 18.9158 15.2695 18.7787 15.2453 18.6295C15.2212 18.4803 15.0804 18.3795 14.9315 18.4037C14.9275 18.4037 14.9234 18.4037 14.9194 18.4077Z" fill="#E3CABA"/>
<path d="M9.5802 12.8833C9.5802 12.8833 9.17784 12.8874 8.59039 12.8309C7.99893 12.7785 7.2103 12.6414 6.44179 12.4357C5.67329 12.226 4.9249 11.9357 4.39781 11.6574C3.86669 11.3832 3.54883 11.1372 3.54883 11.1372C3.54883 11.1372 3.85462 11.3993 4.37367 11.7018C4.88869 12.0123 5.62903 12.343 6.39351 12.597C7.16202 12.847 7.95467 13.0245 8.55821 13.1132C9.16577 13.2059 9.56813 13.2221 9.56813 13.2221H9.5802C9.67274 13.2261 9.75321 13.1535 9.75724 13.0608C9.76126 12.968 9.68884 12.8914 9.59227 12.8874C9.58825 12.8833 9.58422 12.8833 9.5802 12.8833Z" fill="#E3CABA"/>
<path d="M22.2023 23.9286C22.2023 23.9286 22.2425 23.7632 22.3149 23.4729C22.3833 23.1866 22.4799 22.739 22.5403 22.2268C22.6891 21.1904 22.7173 19.7992 22.5684 18.4241C22.4115 17.0489 22.0816 15.7061 21.7114 14.7382C21.5344 14.2543 21.3573 13.8591 21.2245 13.5889C21.0877 13.3188 21.0113 13.1655 21.0113 13.1655C21.0113 13.1655 21.0797 13.3228 21.2044 13.597C21.3211 13.8712 21.4821 14.2705 21.6349 14.7624C21.9528 15.7383 22.2184 17.0852 22.3069 18.4442C22.3914 19.8032 22.2988 21.1622 22.1057 22.1583C22.0172 22.6623 21.9166 23.0535 21.8321 23.3438C21.7476 23.6302 21.6953 23.7955 21.6953 23.7955C21.6551 23.9326 21.7315 24.0738 21.8723 24.1141C22.0091 24.1544 22.154 24.0778 22.1983 23.9407C22.2023 23.9366 22.2023 23.9326 22.2023 23.9286Z" fill="#E3CABA"/>
<path d="M15.2334 18.6982C15.2334 18.6982 15.2897 18.1498 15.2776 17.3029C15.2736 16.4641 15.1811 15.3511 14.9799 14.2583C14.7747 13.1654 14.4528 12.0928 14.0907 11.3427C13.9177 10.9636 13.7406 10.6652 13.6078 10.4596C13.471 10.2579 13.3906 10.145 13.3906 10.145C13.3906 10.145 13.463 10.262 13.5837 10.4717C13.7004 10.6814 13.8573 10.9919 14.0062 11.375C14.316 12.1412 14.5695 13.2138 14.7023 14.2986C14.835 15.3834 14.8552 16.4803 14.8109 17.2948C14.7707 18.1014 14.6821 18.6498 14.6821 18.6498C14.658 18.799 14.7626 18.9361 14.9115 18.9603C15.0604 18.9845 15.2052 18.8837 15.2253 18.7345C15.2253 18.7305 15.2253 18.7224 15.2293 18.7184L15.2334 18.6982Z" fill="#E3CABA"/>
<path d="M9.7411 13.0486C9.7411 13.0486 9.73305 12.6534 9.6566 12.0525C9.58418 11.4557 9.42323 10.6734 9.18584 9.91123C8.94845 9.14907 8.63059 8.41513 8.32882 7.89896C8.03107 7.37875 7.77356 7.07227 7.77356 7.07227C7.77356 7.07227 8.01498 7.39085 8.28053 7.92315C8.55414 8.45143 8.82774 9.19342 9.02087 9.95558C9.21401 10.7177 9.33069 11.4961 9.37093 12.0808C9.41519 12.6615 9.39909 13.0567 9.39909 13.0567C9.39507 13.1494 9.46749 13.226 9.56406 13.2301C9.6566 13.2341 9.73707 13.1615 9.7411 13.0688C9.7411 13.0647 9.7411 13.0647 9.7411 13.0607V13.0486Z" fill="#E3CABA"/>
<path d="M45.2091 68.9767C47.9049 67.3233 50.5887 63.7907 53.039 61.8027C55.4934 59.8186 58.1007 57.9314 61.0822 56.8708C64.0637 55.8102 67.4918 55.6529 70.2761 57.0684C73.0604 58.4838 74.9596 61.6857 74.2595 64.7142C73.668 67.2669 71.4671 69.1904 69.1455 70.501C61.738 74.6828 51.8561 74.0537 45.2091 68.9767Z" fill="#E3CABA"/>
<path d="M73.0564 59.4799C73.0564 59.4799 72.7707 59.6896 72.2718 60.0566C71.7688 60.4235 71.0687 60.9195 70.1715 61.4841C69.7289 61.7744 69.242 62.0648 68.7189 62.3672C68.1999 62.6778 67.6326 62.9721 67.0532 63.2867C65.8823 63.8916 64.5988 64.4844 63.2951 65.0207C61.9834 65.5409 60.6476 66.0047 59.3762 66.3797C58.7364 66.5531 58.1208 66.7386 57.5293 66.8757C56.9379 67.0209 56.3786 67.1499 55.8555 67.2508C54.8134 67.4685 53.9403 67.6016 53.3247 67.6822C52.7091 67.7629 52.359 67.8113 52.359 67.8113C52.359 67.8113 52.7131 67.779 53.3287 67.7226C53.9443 67.6621 54.8295 67.5653 55.8797 67.3879C56.4067 67.3112 56.9741 67.2024 57.5736 67.0814C58.1731 66.9685 58.8008 66.8072 59.4486 66.658C60.7442 66.3273 62.1082 65.9159 63.4561 65.4441C64.7959 64.9562 66.1197 64.4078 67.3348 63.8392C67.9344 63.5407 68.5218 63.2665 69.061 62.9721C69.6041 62.6818 70.1151 62.4076 70.5779 62.1293C71.5033 61.597 72.2718 61.097 72.7828 60.7542C73.2978 60.4074 73.5915 60.2098 73.5915 60.2098C73.8048 60.0687 73.8571 59.7864 73.7163 59.5807C73.5754 59.375 73.2857 59.3266 73.0765 59.4678C73.0644 59.4718 73.0604 59.4799 73.0564 59.4799Z" fill="#E3CABA"/>
<path d="M70.1031 61.831C70.1031 61.831 70.0669 62.3794 69.8939 63.1577C69.7289 63.9481 69.3869 64.9845 68.9081 65.9644C68.4293 66.9443 67.8177 67.8678 67.2785 68.4969C66.7434 69.13 66.3169 69.4929 66.3169 69.4929C66.3169 69.4929 66.7635 69.1582 67.3349 68.5453C67.9143 67.9444 68.5862 67.0451 69.1294 66.0733C69.6726 65.1014 70.083 64.057 70.3003 63.2505C70.5296 62.4318 70.594 61.8915 70.594 61.8915L70.598 61.8673C70.6141 61.7342 70.5175 61.6132 70.3807 61.6011C70.2439 61.589 70.1192 61.6858 70.1031 61.8189C70.1031 61.8229 70.1031 61.8269 70.1031 61.831Z" fill="#E3CABA"/>
<path d="M63.609 64.9923C63.609 64.9923 63.5003 65.4238 63.271 66.0367C63.0457 66.6578 62.6795 67.4643 62.2329 68.2345C61.7863 69.0007 61.2552 69.7306 60.7804 70.2064C60.3136 70.6904 59.9274 70.9404 59.9274 70.9404C59.9274 70.9404 60.3297 70.7226 60.8367 70.2629C61.3517 69.8153 61.9432 69.1176 62.4582 68.3676C62.9692 67.6175 63.4038 66.815 63.6814 66.194C63.9671 65.5649 64.1079 65.1415 64.1079 65.1415L64.1119 65.1254C64.1562 64.9883 64.0797 64.8471 63.9429 64.8028C63.8061 64.7624 63.6573 64.8391 63.613 64.9721C63.613 64.9802 63.609 64.9842 63.609 64.9923Z" fill="#E3CABA"/>
<path d="M57.6421 66.8717C57.6421 66.8717 57.5013 67.162 57.2478 67.5613C56.9984 67.9645 56.6161 68.4807 56.1896 68.9606C55.7591 69.4364 55.2803 69.8719 54.886 70.1542C54.4917 70.4405 54.1979 70.5817 54.1979 70.5817C54.1979 70.5817 54.4997 70.4567 54.9141 70.1946C55.3286 69.9365 55.8436 69.5252 56.3103 69.0695C56.773 68.6097 57.1955 68.1097 57.4812 67.7064C57.7709 67.3032 57.9278 67.0249 57.9278 67.0249L57.9318 67.0169C57.9761 66.9402 57.9479 66.8435 57.8675 66.7991C57.791 66.7588 57.6904 66.787 57.6462 66.8636C57.6462 66.8677 57.6421 66.8677 57.6421 66.8717Z" fill="#E3CABA"/>
<path d="M70.3566 61.702C70.3566 61.702 69.9462 61.331 69.2219 60.8673C68.5138 60.4035 67.4958 59.8954 66.4296 59.5284C65.3633 59.1655 64.2528 58.9356 63.4119 58.863C62.5709 58.7824 62.0076 58.8187 62.0076 58.8187C62.0076 58.8187 62.575 58.8106 63.4038 58.9356C64.2327 59.0526 65.319 59.3389 66.341 59.7502C67.3671 60.1656 68.3247 60.714 68.9805 61.198C69.6323 61.6698 70.0267 62.065 70.0267 62.065C70.1232 62.1618 70.2801 62.1618 70.3767 62.065C70.4773 61.9722 70.4773 61.815 70.3848 61.7222C70.3807 61.7182 70.3807 61.7182 70.3767 61.7141L70.3566 61.702Z" fill="#E3CABA"/>
<path d="M63.9954 64.8471C63.9954 64.8471 63.6091 64.6172 62.9814 64.3309C62.3618 64.0446 61.5088 63.726 60.6276 63.4921C59.7464 63.2623 58.8452 63.1211 58.1611 63.1211C57.4771 63.109 57.0305 63.2098 57.0305 63.2098C57.0305 63.2098 57.4852 63.1453 58.1571 63.2018C58.8291 63.2502 59.7062 63.4518 60.5512 63.7381C61.3921 64.0284 62.2008 64.3994 62.7802 64.718C63.3556 65.0326 63.7218 65.2866 63.7218 65.2866C63.8384 65.3673 64.0034 65.339 64.0879 65.2221C64.1724 65.1051 64.1483 64.9438 64.0275 64.8632C64.0235 64.8591 64.0195 64.8551 64.0115 64.8551L63.9954 64.8471Z" fill="#E3CABA"/>
<path d="M57.8512 66.8033C57.8512 66.8033 57.5575 66.6702 57.0868 66.5169C56.62 66.3637 55.9843 66.2064 55.3405 66.1137C54.6927 66.0209 54.0409 65.9927 53.55 66.033C53.0632 66.0653 52.7453 66.1459 52.7453 66.1459C52.7453 66.1459 53.0672 66.0895 53.554 66.0854C54.0409 66.0774 54.6807 66.1419 55.3083 66.275C55.936 66.4081 56.5476 66.5976 56.9862 66.775C57.4247 66.9484 57.7104 67.0976 57.7104 67.0976C57.7909 67.138 57.8875 67.1097 57.9317 67.0331C57.976 66.9565 57.9478 66.8597 57.8673 66.8194C57.8633 66.8194 57.8633 66.8154 57.8593 66.8154L57.8512 66.8033Z" fill="#E3CABA"/>
<path d="M103.588 87.9261C106.424 86.1881 109.249 82.466 111.832 80.3771C114.415 78.2882 117.159 76.3041 120.298 75.1871C123.436 74.0701 127.045 73.9047 129.974 75.3968C132.903 76.8889 134.903 80.2561 134.167 83.4419C133.543 86.1276 131.23 88.152 128.783 89.5311C120.986 93.9347 110.585 93.2693 103.588 87.9261Z" fill="#E3CABA"/>
<path d="M132.899 77.9332C132.899 77.9332 132.598 78.1549 132.074 78.5421C131.543 78.9292 130.807 79.4494 129.865 80.0463C129.403 80.3487 128.884 80.6552 128.337 80.9778C127.793 81.3044 127.194 81.6149 126.586 81.9456C125.351 82.5828 124.003 83.2078 122.627 83.7724C121.247 84.3208 119.839 84.8088 118.499 85.204C117.827 85.3895 117.179 85.583 116.555 85.7242C115.932 85.8774 115.344 86.0145 114.793 86.1194C113.699 86.3452 112.777 86.4864 112.129 86.5751C111.482 86.6598 111.112 86.7081 111.112 86.7081C111.112 86.7081 111.482 86.6718 112.134 86.6154C112.781 86.5549 113.711 86.4501 114.817 86.2646C115.372 86.1839 115.968 86.067 116.6 85.9419C117.231 85.825 117.891 85.6556 118.575 85.4983C119.939 85.1515 121.376 84.716 122.792 84.22C124.204 83.7079 125.592 83.1312 126.872 82.5303C127.504 82.2158 128.123 81.9295 128.691 81.619C129.262 81.3165 129.801 81.0222 130.284 80.7318C131.258 80.1713 132.07 79.647 132.606 79.2841C133.145 78.9171 133.455 78.7115 133.455 78.7115C133.676 78.5623 133.736 78.2638 133.587 78.0501C133.438 77.8364 133.137 77.7799 132.915 77.9332C132.911 77.9251 132.903 77.9291 132.899 77.9332Z" fill="#E3CABA"/>
<path d="M129.789 80.4052C129.789 80.4052 129.749 80.9819 129.568 81.8045C129.395 82.6352 129.033 83.7241 128.53 84.7604C128.027 85.7928 127.383 86.7646 126.812 87.426C126.248 88.0954 125.802 88.4744 125.802 88.4744C125.802 88.4744 126.273 88.1196 126.876 87.4784C127.488 86.8453 128.192 85.8976 128.763 84.8733C129.335 83.8491 129.765 82.7522 129.994 81.9013C130.236 81.0424 130.304 80.4697 130.304 80.4697L130.308 80.4455C130.324 80.3044 130.224 80.1794 130.079 80.1633C129.934 80.1471 129.805 80.252 129.789 80.3931C129.789 80.3972 129.789 80.4012 129.789 80.4052Z" fill="#E3CABA"/>
<path d="M122.957 83.7323C122.957 83.7323 122.84 84.188 122.603 84.8332C122.366 85.4865 121.979 86.3373 121.513 87.1479C121.042 87.9544 120.483 88.7206 119.984 89.2247C119.489 89.7368 119.086 89.9949 119.086 89.9949C119.086 89.9949 119.509 89.7651 120.044 89.2852C120.587 88.8134 121.207 88.0794 121.75 87.289C122.289 86.4986 122.744 85.6558 123.038 84.9985C123.339 84.3371 123.488 83.8895 123.488 83.8895L123.492 83.8734C123.541 83.7323 123.46 83.579 123.315 83.5347C123.17 83.4903 123.013 83.5709 122.965 83.7121C122.957 83.7202 122.957 83.7282 122.957 83.7323Z" fill="#E3CABA"/>
<path d="M116.676 85.7122C116.676 85.7122 116.527 86.0187 116.262 86.4381C115.996 86.8655 115.598 87.4059 115.147 87.91C114.697 88.4101 114.19 88.8698 113.775 89.1641C113.361 89.4626 113.051 89.6158 113.051 89.6158C113.051 89.6158 113.369 89.4827 113.803 89.2085C114.242 88.9383 114.781 88.5068 115.272 88.0229C115.759 87.539 116.206 87.0107 116.503 86.5913C116.809 86.1679 116.974 85.8735 116.974 85.8735L116.978 85.8655C117.022 85.7848 116.994 85.684 116.914 85.6396C116.829 85.5953 116.729 85.6275 116.68 85.7082C116.676 85.7082 116.676 85.7082 116.676 85.7122Z" fill="#E3CABA"/>
<path d="M130.059 80.2722C130.059 80.2722 129.628 79.8811 128.864 79.3931C128.115 78.9011 127.049 78.3729 125.927 77.9857C124.804 77.6026 123.637 77.3607 122.748 77.2881C121.863 77.2034 121.267 77.2437 121.267 77.2437C121.267 77.2437 121.863 77.2357 122.736 77.3687C123.609 77.4897 124.752 77.7922 125.83 78.2277C126.908 78.6672 127.918 79.2399 128.61 79.752C129.298 80.248 129.713 80.6634 129.713 80.6634C129.813 80.7642 129.978 80.7642 130.083 80.6634C130.188 80.5626 130.192 80.4013 130.091 80.3005C130.087 80.2964 130.087 80.2964 130.083 80.2924L130.059 80.2722Z" fill="#E3CABA"/>
<path d="M123.363 83.5791C123.363 83.5791 122.957 83.3371 122.297 83.0387C121.645 82.7363 120.744 82.4015 119.823 82.1556C118.897 81.9136 117.944 81.7684 117.223 81.7644C116.503 81.7523 116.032 81.8571 116.032 81.8571C116.032 81.8571 116.511 81.7886 117.215 81.8491C117.923 81.9015 118.849 82.1112 119.734 82.4137C120.619 82.7161 121.472 83.1073 122.08 83.446C122.683 83.7767 123.07 84.0428 123.07 84.0428C123.194 84.1275 123.367 84.0993 123.456 83.9783C123.544 83.8573 123.516 83.688 123.396 83.5993C123.392 83.5952 123.384 83.5912 123.379 83.5871L123.363 83.5791Z" fill="#E3CABA"/>
<path d="M116.897 85.6396C116.897 85.6396 116.588 85.4985 116.093 85.3412C115.602 85.1799 114.934 85.0146 114.254 84.9138C113.574 84.817 112.886 84.7887 112.371 84.8291C111.856 84.8654 111.522 84.946 111.522 84.946C111.522 84.946 111.86 84.8855 112.371 84.8815C112.882 84.8734 113.558 84.942 114.218 85.0791C114.878 85.2162 115.521 85.4178 115.984 85.6073C116.447 85.7888 116.745 85.9461 116.745 85.9461C116.829 85.9904 116.93 85.9582 116.978 85.8775C117.022 85.7969 116.994 85.696 116.909 85.6517C116.905 85.6517 116.905 85.6477 116.901 85.6477L116.897 85.6396Z" fill="#E3CABA"/>
<path d="M209.183 92.64C212.019 90.9019 214.844 87.1799 217.427 85.091C220.01 83.0021 222.754 81.018 225.893 79.901C229.031 78.784 232.64 78.6186 235.57 80.1107C238.499 81.6027 240.499 84.97 239.762 88.1557C239.139 90.8415 236.825 92.8658 234.379 94.245C226.581 98.6446 216.176 97.9832 209.183 92.64Z" fill="#E3CABA"/>
<path d="M238.491 82.6473C238.491 82.6473 238.189 82.8691 237.666 83.2562C237.135 83.6433 236.399 84.1635 235.457 84.7604C234.994 85.0628 234.475 85.3693 233.928 85.6919C233.385 86.0186 232.785 86.329 232.178 86.6597C230.943 87.2969 229.595 87.9219 228.219 88.4865C226.838 89.0349 225.43 89.5229 224.09 89.9181C223.418 90.1036 222.771 90.2971 222.147 90.4383C221.523 90.5915 220.936 90.7286 220.385 90.8335C219.29 91.0593 218.369 91.2005 217.721 91.2892C217.073 91.3739 216.703 91.4222 216.703 91.4222C216.703 91.4222 217.073 91.386 217.725 91.3295C218.373 91.269 219.302 91.1642 220.409 90.9787C220.964 90.898 221.559 90.7811 222.191 90.6561C222.823 90.5391 223.483 90.3697 224.167 90.2125C225.531 89.8657 226.967 89.4301 228.384 88.9341C229.796 88.422 231.188 87.8453 232.463 87.2445C233.095 86.9299 233.715 86.6436 234.282 86.3331C234.853 86.0306 235.393 85.7363 235.875 85.4459C236.849 84.8854 237.662 84.3611 238.197 83.9982C238.736 83.6312 239.046 83.4256 239.046 83.4256C239.267 83.2764 239.328 82.978 239.179 82.7642C239.03 82.5505 238.728 82.494 238.503 82.6473C238.503 82.6392 238.495 82.6433 238.491 82.6473Z" fill="#E3CABA"/>
<path d="M235.38 85.1191C235.38 85.1191 235.34 85.6957 235.159 86.5184C234.986 87.3491 234.624 88.4379 234.121 89.4743C233.618 90.5066 232.974 91.4785 232.403 92.1398C231.84 92.8093 231.393 93.1883 231.393 93.1883C231.393 93.1883 231.864 92.8335 232.467 92.1923C233.079 91.5592 233.783 90.6115 234.354 89.5872C234.926 88.5629 235.356 87.4661 235.586 86.6152C235.827 85.7562 235.895 85.1836 235.895 85.1836L235.899 85.1594C235.915 85.0183 235.815 84.8933 235.67 84.8771C235.525 84.861 235.396 84.9658 235.38 85.107C235.384 85.107 235.38 85.115 235.38 85.1191Z" fill="#E3CABA"/>
<path d="M228.549 88.4461C228.549 88.4461 228.432 88.9018 228.194 89.547C227.957 90.2003 227.571 91.0512 227.104 91.8618C226.633 92.6683 226.074 93.4345 225.575 93.9386C225.08 94.4507 224.678 94.7088 224.678 94.7088C224.678 94.7088 225.1 94.4789 225.635 93.9991C226.179 93.5272 226.798 92.7933 227.341 92.0029C227.881 91.2125 228.335 90.3697 228.629 89.7124C228.931 89.051 229.08 88.6034 229.08 88.6034L229.084 88.5873C229.132 88.4461 229.051 88.2929 228.907 88.2485C228.762 88.2042 228.605 88.2848 228.557 88.426C228.553 88.434 228.549 88.4381 228.549 88.4461Z" fill="#E3CABA"/>
<path d="M222.268 90.4261C222.268 90.4261 222.119 90.7326 221.853 91.152C221.588 91.5794 221.189 92.1198 220.739 92.6239C220.288 93.1239 219.781 93.5836 219.367 93.878C218.952 94.1764 218.643 94.3297 218.643 94.3297C218.643 94.3297 218.96 94.1966 219.395 93.9224C219.833 93.6522 220.373 93.2207 220.864 92.7368C221.35 92.2529 221.797 91.7246 222.095 91.3052C222.401 90.8818 222.566 90.5874 222.566 90.5874L222.57 90.5793C222.614 90.4987 222.586 90.3979 222.505 90.3535C222.421 90.3091 222.32 90.3414 222.272 90.4221C222.272 90.418 222.268 90.4221 222.268 90.4261Z" fill="#E3CABA"/>
<path d="M235.65 84.9819C235.65 84.9819 235.219 84.5908 234.455 84.1028C233.707 83.6109 232.64 83.0826 231.518 82.6955C230.395 82.3124 229.228 82.0704 228.339 81.9978C227.454 81.9131 226.858 81.9534 226.858 81.9534C226.858 81.9534 227.454 81.9454 228.327 82.0785C229.2 82.1994 230.343 82.5019 231.421 82.9374C232.499 83.377 233.509 83.9496 234.201 84.4617C234.89 84.9578 235.304 85.3731 235.304 85.3731C235.405 85.4739 235.569 85.4739 235.674 85.3731C235.779 85.2723 235.783 85.111 235.682 85.0102C235.678 85.0061 235.678 85.0061 235.674 85.0021L235.65 84.9819Z" fill="#E3CABA"/>
<path d="M228.955 88.293C228.955 88.293 228.548 88.051 227.889 87.7526C227.237 87.4501 226.335 87.1154 225.414 86.8694C224.489 86.6275 223.535 86.4823 222.815 86.4783C222.095 86.4662 221.624 86.571 221.624 86.571C221.624 86.571 222.103 86.5024 222.807 86.5629C223.515 86.6154 224.44 86.8251 225.326 87.1275C226.211 87.43 227.064 87.8211 227.671 88.1599C228.275 88.4906 228.661 88.7567 228.661 88.7567C228.786 88.8414 228.959 88.8132 229.047 88.6922C229.136 88.5712 229.108 88.4018 228.987 88.3131C228.983 88.3091 228.975 88.305 228.971 88.301L228.955 88.293Z" fill="#E3CABA"/>
<path d="M222.489 90.3535C222.489 90.3535 222.179 90.2123 221.684 90.0551C221.193 89.8938 220.525 89.7284 219.845 89.6276C219.165 89.5308 218.477 89.5026 217.962 89.5429C217.447 89.5792 217.113 89.6599 217.113 89.6599C217.113 89.6599 217.451 89.5994 217.962 89.5954C218.473 89.5873 219.149 89.6558 219.809 89.7929C220.469 89.9301 221.113 90.1317 221.576 90.3212C222.038 90.5027 222.336 90.6599 222.336 90.6599C222.42 90.7043 222.521 90.672 222.569 90.5914C222.614 90.5107 222.585 90.4099 222.501 90.3656C222.497 90.3656 222.497 90.3615 222.493 90.3615L222.489 90.3535Z" fill="#E3CABA"/>
<path d="M234.954 58.3551C237.967 58.7261 242.188 57.7341 245.242 57.722C248.296 57.7139 251.398 57.8671 254.239 58.8309C257.08 59.7947 259.659 61.678 260.757 64.3193C261.856 66.9607 261.164 70.3763 258.701 72.1587C256.625 73.6588 253.796 73.7718 251.269 73.3685C243.218 72.0861 236.483 65.888 234.954 58.3551Z" fill="#E3CABA"/>
<path d="M261.208 67.6785C261.208 67.6785 260.866 67.6664 260.27 67.6382C259.666 67.6099 258.842 67.5616 257.832 67.4486C257.329 67.4002 256.786 67.3277 256.21 67.243C255.635 67.1664 255.035 67.0494 254.412 66.9405C253.172 66.6986 251.865 66.38 250.577 66.009C249.294 65.6219 248.026 65.1783 246.867 64.7145C246.292 64.4685 245.729 64.2468 245.214 63.9967C244.695 63.7588 244.204 63.5249 243.765 63.2951C242.872 62.8474 242.156 62.4321 241.657 62.1377C241.158 61.8393 240.876 61.6699 240.876 61.6699C240.876 61.6699 241.154 61.8514 241.637 62.17C242.12 62.4845 242.824 62.9281 243.697 63.412C244.127 63.662 244.61 63.912 245.121 64.1742C245.628 64.4444 246.183 64.6903 246.751 64.9605C247.898 65.4767 249.153 65.9687 250.432 66.4123C251.716 66.8397 253.024 67.2107 254.271 67.5051C254.895 67.6382 255.498 67.7834 256.077 67.8842C256.657 67.993 257.204 68.0898 257.715 68.1584C258.729 68.3116 259.606 68.4003 260.198 68.4487C260.793 68.4971 261.135 68.5254 261.135 68.5254C261.381 68.5455 261.602 68.3721 261.63 68.1422C261.658 67.9124 261.485 67.7067 261.24 67.6906C261.22 67.6785 261.212 67.6785 261.208 67.6785Z" fill="#E3CABA"/>
<path d="M257.558 67.6581C257.558 67.6581 257.176 68.0331 256.549 68.4969C255.921 68.9727 255.004 69.5211 254.026 69.9526C253.048 70.3841 252.01 70.6946 251.213 70.8358C250.417 70.985 249.877 70.9971 249.877 70.9971C249.877 70.9971 250.417 71.0132 251.225 70.9043C252.034 70.8075 253.096 70.5454 254.118 70.1583C255.136 69.7712 256.106 69.255 256.786 68.7993C257.478 68.3396 257.876 67.9887 257.876 67.9887L257.892 67.9726C257.989 67.8839 257.997 67.7428 257.909 67.654C257.82 67.5653 257.667 67.5613 257.571 67.65C257.563 67.65 257.558 67.654 257.558 67.6581Z" fill="#E3CABA"/>
<path d="M250.823 66.166C250.823 66.166 250.465 66.416 249.905 66.7266C249.342 67.0451 248.558 67.4161 247.737 67.7146C246.916 68.0089 246.067 68.2267 245.415 68.2953C244.763 68.3759 244.325 68.3275 244.325 68.3275C244.325 68.3275 244.755 68.4041 245.419 68.3678C246.083 68.3436 246.96 68.1823 247.813 67.9404C248.666 67.6944 249.499 67.3677 250.103 67.0814C250.714 66.7951 251.088 66.5693 251.088 66.5693L251.105 66.5612C251.225 66.4886 251.261 66.3394 251.189 66.2306C251.117 66.1217 250.96 66.0894 250.839 66.162C250.835 66.162 250.831 66.166 250.823 66.166Z" fill="#E3CABA"/>
<path d="M245.299 64.0611C245.299 64.0611 245.009 64.1902 244.57 64.3313C244.128 64.4765 243.52 64.6297 242.901 64.7265C242.281 64.8233 241.653 64.8555 241.186 64.8313C240.72 64.8071 240.414 64.7426 240.414 64.7426C240.414 64.7426 240.712 64.8273 241.182 64.8797C241.649 64.9362 242.285 64.9362 242.917 64.8757C243.548 64.8152 244.176 64.6942 244.639 64.5732C245.109 64.4523 245.403 64.3394 245.403 64.3394L245.411 64.3353C245.492 64.3031 245.536 64.2184 245.504 64.1418C245.476 64.0651 245.383 64.0288 245.303 64.0611C245.303 64.0571 245.299 64.0571 245.299 64.0611Z" fill="#E3CABA"/>
<path d="M257.824 67.7148C257.824 67.7148 257.767 67.2067 257.542 66.4526C257.329 65.7025 256.923 64.7468 256.387 63.8636C255.852 62.9805 255.196 62.1699 254.633 61.6296C254.078 61.0811 253.643 60.7827 253.643 60.7827C253.643 60.7827 254.058 61.1053 254.577 61.678C255.104 62.2425 255.699 63.0813 256.174 63.9765C256.645 64.8718 256.987 65.8275 257.148 66.5574C257.317 67.2793 257.345 67.7914 257.345 67.7914C257.353 67.9164 257.466 68.0092 257.598 67.9971C257.731 67.985 257.832 67.8761 257.824 67.7511C257.824 67.747 257.824 67.743 257.824 67.739V67.7148Z" fill="#E3CABA"/>
<path d="M251.197 66.2873C251.197 66.2873 251.068 65.9002 250.799 65.3275C250.537 64.759 250.127 64.0331 249.64 63.3556C249.153 62.6781 248.59 62.0531 248.095 61.6538C247.608 61.2465 247.222 61.061 247.222 61.061C247.222 61.061 247.592 61.2748 248.039 61.7103C248.493 62.1377 248.996 62.791 249.423 63.4887C249.845 64.1863 250.191 64.9243 250.401 65.4929C250.614 66.0534 250.714 66.4486 250.714 66.4486C250.747 66.5777 250.883 66.6502 251.02 66.618C251.157 66.5817 251.241 66.4526 251.209 66.3236C251.209 66.3196 251.205 66.3115 251.205 66.3075L251.197 66.2873Z" fill="#E3CABA"/>
<path d="M245.496 64.1337C245.496 64.1337 245.371 63.8675 245.125 63.4844C244.888 63.1013 244.53 62.6214 244.123 62.1779C243.717 61.7343 243.262 61.335 242.884 61.081C242.51 60.8229 242.228 60.6938 242.228 60.6938C242.228 60.6938 242.498 60.839 242.852 61.1173C243.21 61.3915 243.629 61.8149 243.999 62.2746C244.369 62.7344 244.687 63.2263 244.892 63.6135C245.097 63.9925 245.206 64.2668 245.206 64.2668C245.234 64.3434 245.327 64.3797 245.407 64.3474C245.487 64.3151 245.532 64.2305 245.5 64.1538C245.5 64.1498 245.496 64.1498 245.496 64.1458V64.1337Z" fill="#E3CABA"/>
<path d="M161.515 99.9998C161.149 96.814 158.908 92.7491 158.099 89.6239C157.286 86.4946 156.65 83.2765 157.005 80.1149C157.359 76.9534 158.823 73.816 161.539 71.9973C164.255 70.1786 168.327 69.9931 170.999 72.0497C173.252 73.7837 174.117 76.655 174.322 79.3447C174.974 87.9302 169.687 96.4591 161.515 99.9998Z" fill="#E3CABA"/>
<path d="M165.241 70.6546C165.241 70.6546 165.313 71.0094 165.442 71.6264C165.571 72.2515 165.732 73.1104 165.865 74.175C165.945 74.7033 166.001 75.28 166.058 75.8889C166.122 76.4978 166.146 77.1431 166.186 77.8084C166.235 79.1432 166.219 80.5627 166.13 81.9822C166.026 83.3976 165.857 84.8131 165.631 86.1237C165.502 86.777 165.394 87.4141 165.249 88.0069C165.112 88.6037 164.979 89.1643 164.831 89.6764C164.553 90.7088 164.271 91.5516 164.066 92.1403C163.857 92.7291 163.736 93.0638 163.736 93.0638C163.736 93.0638 163.869 92.7331 164.106 92.1565C164.34 91.5758 164.657 90.741 164.979 89.7208C165.152 89.2127 165.309 88.6562 165.474 88.0634C165.647 87.4746 165.784 86.8415 165.941 86.1882C166.227 84.8776 166.46 83.4622 166.625 82.0346C166.774 80.6071 166.854 79.1674 166.862 77.8165C166.85 77.139 166.858 76.4857 166.818 75.8647C166.79 75.2437 166.754 74.6549 166.697 74.1145C166.609 73.0338 166.476 72.1144 166.376 71.4974C166.275 70.8764 166.215 70.5175 166.215 70.5175C166.174 70.2594 165.921 70.0779 165.647 70.1102C165.378 70.1424 165.193 70.3723 165.233 70.6304C165.237 70.6384 165.241 70.6465 165.241 70.6546Z" fill="#E3CABA"/>
<path d="M166.174 74.4009C166.174 74.4009 166.701 74.6953 167.393 75.2155C168.098 75.7357 168.963 76.5302 169.715 77.4214C170.463 78.3126 171.091 79.2925 171.457 80.0708C171.836 80.8451 171.992 81.3975 171.992 81.3975C171.992 81.3975 171.868 80.841 171.534 80.0426C171.212 79.2401 170.636 78.2198 169.928 77.2762C169.22 76.3325 168.379 75.4736 167.679 74.8969C166.975 74.3082 166.468 73.9936 166.468 73.9936L166.448 73.9815C166.323 73.9049 166.158 73.9331 166.082 74.0501C166.005 74.167 166.042 74.3203 166.166 74.3969C166.166 74.3929 166.17 74.3969 166.174 74.4009Z" fill="#E3CABA"/>
<path d="M166.247 81.6877C166.247 81.6877 166.625 81.9901 167.124 82.4821C167.631 82.9741 168.262 83.6838 168.814 84.446C169.365 85.2082 169.836 86.0228 170.081 86.676C170.343 87.3253 170.403 87.785 170.403 87.785C170.403 87.785 170.375 87.3213 170.162 86.6518C169.96 85.9784 169.546 85.1235 169.047 84.3129C168.544 83.5024 167.953 82.7362 167.47 82.1918C166.983 81.6393 166.629 81.3127 166.629 81.3127L166.617 81.3006C166.504 81.1957 166.323 81.1957 166.218 81.3006C166.114 81.4054 166.118 81.5707 166.231 81.6756C166.235 81.6796 166.243 81.6837 166.247 81.6877Z" fill="#E3CABA"/>
<path d="M165.297 87.906C165.297 87.906 165.518 88.1682 165.796 88.5835C166.078 88.9989 166.412 89.5796 166.685 90.1885C166.955 90.7974 167.16 91.4305 167.253 91.9185C167.349 92.4024 167.353 92.733 167.353 92.733C167.353 92.733 167.373 92.4064 167.305 91.9104C167.244 91.4184 167.08 90.7651 166.846 90.1361C166.609 89.5029 166.311 88.894 166.049 88.4504C165.788 88.0028 165.583 87.7286 165.583 87.7286L165.575 87.7205C165.518 87.6439 165.41 87.6238 165.329 87.6762C165.253 87.7246 165.233 87.8294 165.289 87.906C165.293 87.898 165.293 87.902 165.297 87.906Z" fill="#E3CABA"/>
<path d="M166.17 74.1105C166.17 74.1105 165.607 74.3041 164.806 74.7275C164.01 75.1429 163.032 75.8123 162.163 76.5906C161.298 77.3729 160.549 78.256 160.079 78.9738C159.6 79.6876 159.374 80.2078 159.374 80.2078C159.374 80.2078 159.636 79.6997 160.151 79.0182C160.658 78.3327 161.451 77.4979 162.348 76.7801C163.245 76.0623 164.239 75.4614 165.028 75.1066C165.804 74.7436 166.38 74.5823 166.38 74.5823C166.52 74.542 166.593 74.4008 166.545 74.2678C166.496 74.1347 166.347 74.0581 166.207 74.0984C166.202 74.0984 166.198 74.1024 166.194 74.1024L166.17 74.1105Z" fill="#E3CABA"/>
<path d="M166.287 81.2724C166.287 81.2724 165.881 81.5063 165.297 81.9337C164.722 82.3531 164.002 82.962 163.358 83.6395C162.714 84.317 162.151 85.059 161.825 85.6679C161.491 86.2728 161.378 86.7204 161.378 86.7204C161.378 86.7204 161.527 86.2849 161.901 85.7123C162.267 85.1356 162.879 84.4461 163.563 83.8291C164.247 83.2121 164.995 82.6677 165.587 82.3007C166.166 81.9337 166.593 81.7281 166.593 81.7281C166.73 81.6635 166.778 81.5022 166.701 81.3692C166.625 81.2401 166.456 81.1877 166.319 81.2522C166.315 81.2563 166.307 81.2563 166.303 81.2603L166.287 81.2724Z" fill="#E3CABA"/>
<path d="M165.325 87.6844C165.325 87.6844 165.056 87.882 164.681 88.2328C164.307 88.5756 163.857 89.0716 163.458 89.5999C163.06 90.1322 162.726 90.7048 162.533 91.1605C162.336 91.6122 162.263 91.9308 162.263 91.9308C162.263 91.9308 162.356 91.6162 162.585 91.1807C162.806 90.7452 163.177 90.2008 163.599 89.7007C164.026 89.2047 164.504 88.745 164.887 88.4385C165.265 88.128 165.547 87.9465 165.547 87.9465C165.623 87.8941 165.643 87.7932 165.587 87.7166C165.53 87.64 165.422 87.6198 165.341 87.6723C165.337 87.6723 165.337 87.6763 165.333 87.6763L165.325 87.6844Z" fill="#E3CABA"/>
<path d="M274.824 98.7333C273.399 95.8258 269.911 92.6562 268.084 89.9422C266.261 87.2242 264.571 84.3691 263.839 81.264C263.107 78.1589 263.437 74.7433 265.396 72.1947C267.356 69.6461 271.15 68.2347 274.373 69.3678C277.089 70.3235 278.883 72.7834 279.982 75.2716C283.502 83.2118 281.37 92.8981 274.824 98.7333Z" fill="#E3CABA"/>
<path d="M268.45 69.7994C268.45 69.7994 268.639 70.1139 268.969 70.6583C269.299 71.2108 269.742 71.977 270.233 72.9448C270.486 73.4247 270.736 73.9489 270.993 74.5135C271.259 75.07 271.5 75.6749 271.762 76.2959C272.257 77.546 272.719 78.8969 273.118 80.268C273.496 81.6431 273.814 83.0304 274.043 84.345C274.14 85.0023 274.256 85.6395 274.317 86.2444C274.389 86.8492 274.449 87.4219 274.482 87.9542C274.566 89.0148 274.586 89.9019 274.59 90.523C274.59 91.144 274.59 91.4988 274.59 91.4988C274.59 91.4988 274.606 91.144 274.635 90.527C274.659 89.906 274.679 89.0188 274.643 87.9542C274.635 87.4219 274.594 86.8452 274.55 86.2322C274.514 85.6193 274.429 84.9781 274.361 84.3127C274.188 82.986 273.934 81.5746 273.609 80.1712C273.267 78.7719 272.86 77.3847 272.41 76.1023C272.172 75.4652 271.955 74.8441 271.709 74.2675C271.472 73.6868 271.243 73.1424 271.005 72.6464C270.555 71.6503 270.12 70.8196 269.818 70.2631C269.513 69.7026 269.335 69.384 269.335 69.384C269.211 69.1541 268.909 69.0574 268.664 69.1703C268.418 69.2832 268.322 69.5574 268.446 69.7873C268.446 69.7873 268.45 69.7953 268.45 69.7994Z" fill="#E3CABA"/>
<path d="M270.603 73.0656C270.603 73.0656 271.202 73.1826 272.031 73.4648C272.876 73.7431 273.963 74.231 274.973 74.848C275.982 75.465 276.904 76.203 277.515 76.8321C278.135 77.4531 278.469 77.929 278.469 77.929C278.469 77.929 278.163 77.437 277.58 76.7837C277.004 76.1223 276.111 75.3279 275.125 74.6504C274.136 73.973 273.049 73.4124 272.192 73.0817C271.327 72.739 270.74 72.5938 270.74 72.5938L270.716 72.5898C270.571 72.5535 270.426 72.6341 270.39 72.7672C270.353 72.9003 270.442 73.0374 270.587 73.0737C270.591 73.0616 270.599 73.0656 270.603 73.0656Z" fill="#E3CABA"/>
<path d="M273.126 79.9494C273.126 79.9494 273.584 80.1228 274.224 80.4333C274.872 80.7479 275.709 81.2278 276.489 81.7802C277.266 82.3367 277.99 82.9658 278.445 83.5062C278.911 84.0385 279.125 84.4579 279.125 84.4579C279.125 84.4579 278.944 84.0304 278.517 83.4578C278.099 82.8811 277.419 82.1956 276.67 81.5786C275.918 80.9656 275.105 80.4172 274.461 80.0502C273.814 79.6752 273.367 79.4736 273.367 79.4736L273.351 79.4655C273.21 79.401 273.037 79.4534 272.973 79.5865C272.908 79.7155 272.969 79.8728 273.114 79.9373C273.114 79.9454 273.122 79.9494 273.126 79.9494Z" fill="#E3CABA"/>
<path d="M274.325 86.1274C274.325 86.1274 274.622 86.3088 275.025 86.6153C275.431 86.9218 275.942 87.3735 276.409 87.8654C276.872 88.3615 277.278 88.8978 277.527 89.3293C277.785 89.7608 277.898 90.0713 277.898 90.0713C277.898 90.0713 277.805 89.7527 277.576 89.3091C277.354 88.8615 276.976 88.2929 276.542 87.7646C276.107 87.2364 275.616 86.7484 275.218 86.4097C274.82 86.0629 274.534 85.8653 274.534 85.8653L274.526 85.8572C274.445 85.8007 274.337 85.8169 274.28 85.8895C274.224 85.962 274.24 86.0629 274.321 86.1193C274.321 86.1234 274.321 86.1233 274.325 86.1274Z" fill="#E3CABA"/>
<path d="M270.498 72.7957C270.498 72.7957 270.032 73.1465 269.416 73.7958C268.8 74.4289 268.1 75.3604 267.541 76.3645C266.986 77.3687 266.571 78.4333 266.37 79.2559C266.161 80.0786 266.117 80.6391 266.117 80.6391C266.117 80.6391 266.193 80.0786 266.451 79.2761C266.7 78.4695 267.171 77.4412 267.774 76.4895C268.382 75.5379 269.122 74.6668 269.75 74.0861C270.362 73.5094 270.852 73.1788 270.852 73.1788C270.969 73.0981 270.993 72.9449 270.905 72.832C270.816 72.7191 270.647 72.6949 270.527 72.7755C270.523 72.7795 270.519 72.7796 270.515 72.7836L270.498 72.7957Z" fill="#E3CABA"/>
<path d="M273.025 79.5462C273.025 79.5462 272.719 79.893 272.313 80.4737C271.907 81.0463 271.432 81.8448 271.05 82.6795C270.671 83.5143 270.386 84.3894 270.285 85.0669C270.172 85.7403 270.217 86.2 270.217 86.2C270.217 86.2 270.209 85.7403 270.374 85.087C270.526 84.4297 270.872 83.5909 271.311 82.7965C271.75 82.0061 272.277 81.26 272.711 80.7358C273.138 80.2156 273.472 79.889 273.472 79.889C273.58 79.7841 273.572 79.6188 273.456 79.518C273.339 79.4171 273.162 79.4212 273.053 79.522C273.049 79.526 273.045 79.53 273.041 79.5341L273.025 79.5462Z" fill="#E3CABA"/>
<path d="M274.28 85.9095C274.28 85.9095 274.091 86.1797 273.858 86.6232C273.621 87.0628 273.359 87.6677 273.158 88.2928C272.961 88.9178 272.836 89.563 272.808 90.051C272.772 90.5389 272.812 90.8655 272.812 90.8655C272.812 90.8655 272.796 90.5389 272.864 90.059C272.924 89.5791 273.093 88.9501 273.327 88.3492C273.564 87.7483 273.862 87.1717 274.119 86.7603C274.373 86.353 274.578 86.0909 274.578 86.0909C274.634 86.0184 274.618 85.9175 274.538 85.8611C274.457 85.8087 274.349 85.8208 274.292 85.8933C274.288 85.8974 274.288 85.8974 274.288 85.9014L274.28 85.9095Z" fill="#E3CABA"/>
</svg>
