<svg width="110" height="110" viewBox="0 0 110 110" fill="none" xmlns="http://www.w3.org/2000/svg">
<g opacity="0.3">
<path d="M55.2981 54.5238V109.035C25.196 109.035 0.774414 84.6259 0.774414 54.5238C0.774414 47.1067 2.25037 40.037 4.94183 33.5999V54.5238H55.2981Z" fill="#BABCC6"/>
<path d="M109.822 54.5239C109.822 84.6261 85.4125 109.035 55.298 109.035V54.5239H109.822Z" fill="#BABCC6"/>
<path d="M109.822 54.5237H55.298V0C85.4125 0 109.822 24.4092 109.822 54.5237Z" fill="#BABCC6"/>
<path d="M55.2984 0V54.5237H4.94215V33.5998C13.1406 13.8666 32.6133 0 55.2984 0Z" fill="#BABCC6"/>
</g>
<path d="M55.2985 54.5226V98.4726C31.0285 98.4726 11.3385 78.7926 11.3385 54.5226C11.3385 48.5426 12.5285 42.8426 14.6985 37.6526V54.5226H55.2985Z" fill="#3F414E"/>
<path d="M99.2585 54.5225C99.2585 78.7925 79.5785 98.4725 55.2985 98.4725V54.5225H99.2585Z" fill="#3F414E"/>
<path d="M99.2585 54.5225H55.2985V10.5625C79.5785 10.5625 99.2585 30.2425 99.2585 54.5225Z" fill="#3F414E"/>
<path d="M55.2985 10.5625V54.5225H14.6985V37.6525C21.3085 21.7425 37.0085 10.5625 55.2985 10.5625Z" fill="#3F414E"/>
<rect x="45.3087" y="42.0596" width="6.81957" height="24.9159" rx="3.40979" fill="#FBFBFB"/>
<rect x="58.4688" y="42.0596" width="6.81957" height="24.9159" rx="3.40979" fill="#FBFBFB"/>
</svg>
