<svg width="110" height="110" viewBox="0 0 110 110" fill="none" xmlns="http://www.w3.org/2000/svg">
<g opacity="0.3">
<path d="M55.2981 54.5236V109.035C25.196 109.035 0.774414 84.6258 0.774414 54.5236C0.774414 47.1066 2.25037 40.0369 4.94183 33.5997V54.5236H55.2981Z" fill="#BABCC6"/>
<path d="M109.822 54.5238C109.822 84.6259 85.4125 109.035 55.298 109.035V54.5238H109.822Z" fill="#BABCC6"/>
<path d="M109.822 54.5237H55.298V0C85.4125 0 109.822 24.4092 109.822 54.5237Z" fill="#BABCC6"/>
<path d="M55.2985 0V54.5237H4.94217V33.5998C13.1406 13.8666 32.6133 0 55.2985 0Z" fill="#BABCC6"/>
</g>
<path d="M55.2985 54.5225V98.4725C31.0285 98.4725 11.3385 78.7925 11.3385 54.5225C11.3385 48.5425 12.5285 42.8425 14.6985 37.6525V54.5225H55.2985Z" fill="#3F414E"/>
<path d="M99.2585 54.5225C99.2585 78.7925 79.5785 98.4725 55.2985 98.4725V54.5225H99.2585Z" fill="#3F414E"/>
<path d="M99.2585 54.5225H55.2985V10.5625C79.5785 10.5625 99.2585 30.2425 99.2585 54.5225Z" fill="#3F414E"/>
<path d="M55.2985 10.5625V54.5225H14.6985V37.6525C21.3085 21.7425 37.0085 10.5625 55.2985 10.5625Z" fill="#3F414E"/>
<path d="M64.4801 51.5282L50.557 42.4625C48.5305 41.1471 46 42.7943 46 45.4252V63.5683C46 66.211 48.5305 67.8582 50.557 66.531L64.4801 57.4653C66.5066 56.1499 66.5066 52.8554 64.4801 51.5282Z" fill="white"/>
</svg>
