<svg width="257" height="70" viewBox="0 0 257 70" fill="none" xmlns="http://www.w3.org/2000/svg">
<rect width="256.516" height="70" rx="10" fill="#EAF6FD"/>
<path d="M28.766 33.258C29.114 33.366 29.402 33.564 29.63 33.852C29.858 34.128 30.05 34.518 30.206 35.022L31.43 39H29.468L28.172 34.734C28.04 34.278 27.806 33.966 27.47 33.798C27.134 33.618 26.678 33.528 26.102 33.528H23.438L23.006 39H21.17L22.16 26.184H27.596C28.904 26.184 29.912 26.484 30.62 27.084C31.34 27.684 31.7 28.518 31.7 29.586C31.7 30.558 31.454 31.362 30.962 31.998C30.47 32.622 29.738 33.042 28.766 33.258ZM27.074 32.034C28.97 32.034 29.918 31.254 29.918 29.694C29.918 28.35 29.084 27.678 27.416 27.678H23.906L23.564 32.034H27.074ZM35.1428 34.5V34.734C35.1428 35.682 35.3708 36.414 35.8268 36.93C36.2948 37.446 36.9728 37.704 37.8608 37.704C38.9408 37.704 39.9068 37.368 40.7588 36.696L41.2268 37.974C40.8428 38.334 40.3328 38.616 39.6968 38.82C39.0728 39.024 38.4308 39.126 37.7708 39.126C36.8708 39.126 36.0848 38.946 35.4128 38.586C34.7528 38.226 34.2428 37.716 33.8828 37.056C33.5228 36.384 33.3428 35.61 33.3428 34.734C33.3428 33.75 33.5288 32.88 33.9008 32.124C34.2848 31.356 34.8188 30.762 35.5028 30.342C36.1868 29.922 36.9668 29.712 37.8428 29.712C39.0308 29.712 39.9668 30.054 40.6508 30.738C41.3348 31.422 41.6768 32.4 41.6768 33.672C41.6768 33.936 41.6588 34.212 41.6228 34.5H35.1428ZM37.9328 31.044C37.2128 31.044 36.6248 31.248 36.1688 31.656C35.7248 32.052 35.4248 32.64 35.2688 33.42H40.1108C40.1228 32.664 39.9308 32.082 39.5348 31.674C39.1508 31.254 38.6168 31.044 37.9328 31.044ZM44.411 25.752H46.229L45.167 39H43.349L44.411 25.752ZM56.8318 29.928L56.1118 39H54.3298L54.4378 37.614C54.1498 38.094 53.7418 38.466 53.2138 38.73C52.6978 38.994 52.1278 39.126 51.5038 39.126C50.7358 39.126 50.0578 38.952 49.4698 38.604C48.8938 38.244 48.4438 37.734 48.1198 37.074C47.8078 36.414 47.6518 35.64 47.6518 34.752C47.6518 33.756 47.8318 32.88 48.1918 32.124C48.5518 31.356 49.0498 30.762 49.6858 30.342C50.3338 29.922 51.0778 29.712 51.9178 29.712C52.6138 29.712 53.2198 29.862 53.7358 30.162C54.2518 30.45 54.6478 30.864 54.9238 31.404L55.0318 29.928H56.8318ZM52.0258 37.704C52.8538 37.704 53.5078 37.386 53.9878 36.75C54.4678 36.102 54.7078 35.232 54.7078 34.14C54.7078 33.168 54.4858 32.43 54.0418 31.926C53.6098 31.41 52.9858 31.152 52.1698 31.152C51.3298 31.152 50.6698 31.47 50.1898 32.106C49.7098 32.742 49.4698 33.612 49.4698 34.716C49.4698 35.664 49.6918 36.402 50.1358 36.93C50.5918 37.446 51.2218 37.704 52.0258 37.704ZM63.7685 34.356L67.1525 39H64.9925L62.6165 35.616L59.6825 39H57.4865L61.6445 34.32L58.4225 29.928H60.5645L62.7605 33.042L65.4605 29.928H67.6565L63.7685 34.356ZM77.363 29.928L76.643 39H74.861L74.969 37.614C74.681 38.094 74.273 38.466 73.745 38.73C73.229 38.994 72.659 39.126 72.035 39.126C71.267 39.126 70.589 38.952 70.001 38.604C69.425 38.244 68.975 37.734 68.651 37.074C68.339 36.414 68.183 35.64 68.183 34.752C68.183 33.756 68.363 32.88 68.723 32.124C69.083 31.356 69.581 30.762 70.217 30.342C70.865 29.922 71.609 29.712 72.449 29.712C73.145 29.712 73.751 29.862 74.267 30.162C74.783 30.45 75.179 30.864 75.455 31.404L75.563 29.928H77.363ZM72.557 37.704C73.385 37.704 74.039 37.386 74.519 36.75C74.999 36.102 75.239 35.232 75.239 34.14C75.239 33.168 75.017 32.43 74.573 31.926C74.141 31.41 73.517 31.152 72.701 31.152C71.861 31.152 71.201 31.47 70.721 32.106C70.241 32.742 70.001 33.612 70.001 34.716C70.001 35.664 70.223 36.402 70.667 36.93C71.123 37.446 71.753 37.704 72.557 37.704ZM81.9238 35.886L81.9058 36.174C81.9058 37.122 82.3738 37.596 83.3098 37.596C83.6218 37.596 83.9398 37.548 84.2638 37.452L84.1558 38.928C83.7598 39.06 83.3098 39.126 82.8058 39.126C81.9298 39.126 81.2578 38.898 80.7898 38.442C80.3218 37.986 80.0878 37.326 80.0878 36.462C80.0878 36.282 80.0938 36.144 80.1058 36.048L80.4658 31.332H78.7018L78.8278 29.928H80.5738L80.7538 27.66L82.6078 27.03L82.3918 29.928H84.8938L84.7858 31.332H82.2838L81.9238 35.886ZM86.5729 29.928H88.3909L87.6709 39H85.8529L86.5729 29.928ZM88.8409 25.968L88.6969 27.876H86.5729L86.7169 25.968H88.8409ZM94.4937 39.126C93.6177 39.126 92.8497 38.946 92.1897 38.586C91.5297 38.226 91.0197 37.716 90.6597 37.056C90.3117 36.384 90.1377 35.604 90.1377 34.716C90.1377 33.708 90.3237 32.826 90.6957 32.07C91.0797 31.314 91.6137 30.732 92.2977 30.324C92.9817 29.916 93.7737 29.712 94.6737 29.712C95.5497 29.712 96.3117 29.898 96.9597 30.27C97.6197 30.63 98.1237 31.14 98.4717 31.8C98.8317 32.46 99.0117 33.234 99.0117 34.122C99.0117 35.13 98.8197 36.012 98.4357 36.768C98.0637 37.524 97.5357 38.106 96.8517 38.514C96.1797 38.922 95.3937 39.126 94.4937 39.126ZM94.5117 37.704C95.3637 37.704 96.0177 37.374 96.4737 36.714C96.9417 36.054 97.1757 35.172 97.1757 34.068C97.1757 33.132 96.9597 32.412 96.5277 31.908C96.0957 31.404 95.4777 31.152 94.6737 31.152C93.8097 31.152 93.1437 31.482 92.6757 32.142C92.2077 32.79 91.9737 33.666 91.9737 34.77C91.9737 35.73 92.1837 36.462 92.6037 36.966C93.0357 37.458 93.6717 37.704 94.5117 37.704ZM106.195 29.712C107.215 29.712 107.989 29.982 108.517 30.522C109.045 31.062 109.309 31.854 109.309 32.898C109.309 33.114 109.303 33.282 109.291 33.402L108.841 39H107.041L107.473 33.51C107.485 33.426 107.491 33.3 107.491 33.132C107.491 31.836 106.873 31.188 105.637 31.188C104.857 31.188 104.239 31.422 103.783 31.89C103.327 32.358 103.069 33.006 103.009 33.834L102.595 39H100.777L101.299 32.484C101.347 31.992 101.371 31.422 101.371 30.774C101.371 30.402 101.365 30.12 101.353 29.928H103.045L103.081 31.368C103.381 30.852 103.801 30.45 104.341 30.162C104.893 29.862 105.511 29.712 106.195 29.712ZM126.631 39.162C125.683 38.766 124.861 38.238 124.165 37.578C123.637 38.082 123.043 38.466 122.383 38.73C121.735 38.994 121.045 39.126 120.313 39.126C119.473 39.126 118.735 38.982 118.099 38.694C117.463 38.406 116.965 38.01 116.605 37.506C116.257 36.99 116.083 36.402 116.083 35.742C116.083 34.914 116.329 34.194 116.821 33.582C117.313 32.97 118.063 32.388 119.071 31.836C118.579 31.26 118.231 30.756 118.027 30.324C117.823 29.88 117.721 29.43 117.721 28.974C117.721 28.098 118.021 27.396 118.621 26.868C119.233 26.328 120.025 26.058 120.997 26.058C121.921 26.058 122.659 26.298 123.211 26.778C123.763 27.246 124.039 27.882 124.039 28.686C124.039 29.358 123.841 29.958 123.445 30.486C123.049 31.002 122.371 31.542 121.411 32.106L124.165 35.166C124.717 34.122 125.035 32.868 125.119 31.404H126.703C126.559 33.348 126.061 34.986 125.209 36.318C125.857 37.014 126.673 37.548 127.657 37.92L126.631 39.162ZM121.051 27.372C120.559 27.372 120.163 27.522 119.863 27.822C119.563 28.11 119.413 28.494 119.413 28.974C119.413 29.274 119.485 29.574 119.629 29.874C119.785 30.174 120.073 30.57 120.493 31.062C121.249 30.63 121.771 30.246 122.059 29.91C122.347 29.574 122.491 29.196 122.491 28.776C122.491 28.356 122.359 28.02 122.095 27.768C121.831 27.504 121.483 27.372 121.051 27.372ZM120.403 37.704C120.931 37.704 121.429 37.602 121.897 37.398C122.377 37.194 122.809 36.9 123.193 36.516L119.989 32.88C119.257 33.312 118.717 33.744 118.369 34.176C118.033 34.596 117.865 35.088 117.865 35.652C117.865 36.276 118.093 36.774 118.549 37.146C119.017 37.518 119.635 37.704 120.403 37.704ZM146.707 26.184L145.699 39H144.025L144.709 30.252L140.227 39H138.949L135.817 30.234L135.133 39H133.459L134.449 26.184H135.961L139.759 36.804L145.195 26.184H146.707ZM150.139 34.5V34.734C150.139 35.682 150.367 36.414 150.823 36.93C151.291 37.446 151.969 37.704 152.857 37.704C153.937 37.704 154.903 37.368 155.755 36.696L156.223 37.974C155.839 38.334 155.329 38.616 154.693 38.82C154.069 39.024 153.427 39.126 152.767 39.126C151.867 39.126 151.081 38.946 150.409 38.586C149.749 38.226 149.239 37.716 148.879 37.056C148.519 36.384 148.339 35.61 148.339 34.734C148.339 33.75 148.525 32.88 148.897 32.124C149.281 31.356 149.815 30.762 150.499 30.342C151.183 29.922 151.963 29.712 152.839 29.712C154.027 29.712 154.963 30.054 155.647 30.738C156.331 31.422 156.673 32.4 156.673 33.672C156.673 33.936 156.655 34.212 156.619 34.5H150.139ZM152.929 31.044C152.209 31.044 151.621 31.248 151.165 31.656C150.721 32.052 150.421 32.64 150.265 33.42H155.107C155.119 32.664 154.927 32.082 154.531 31.674C154.147 31.254 153.613 31.044 152.929 31.044ZM167.687 25.752L166.625 39H164.843L164.951 37.65C164.651 38.118 164.243 38.484 163.727 38.748C163.211 39 162.647 39.126 162.035 39.126C161.267 39.126 160.589 38.952 160.001 38.604C159.425 38.244 158.975 37.734 158.651 37.074C158.327 36.414 158.165 35.646 158.165 34.77C158.165 33.774 158.345 32.892 158.705 32.124C159.065 31.356 159.569 30.762 160.217 30.342C160.865 29.922 161.609 29.712 162.449 29.712C163.145 29.712 163.751 29.856 164.267 30.144C164.783 30.432 165.173 30.846 165.437 31.386L165.869 25.752H167.687ZM162.557 37.704C163.385 37.704 164.033 37.386 164.501 36.75C164.981 36.102 165.221 35.232 165.221 34.14C165.221 33.168 165.005 32.43 164.573 31.926C164.141 31.41 163.517 31.152 162.701 31.152C161.861 31.152 161.201 31.47 160.721 32.106C160.241 32.73 160.001 33.594 160.001 34.698C160.001 35.646 160.223 36.384 160.667 36.912C161.111 37.44 161.741 37.704 162.557 37.704ZM170.034 29.928H171.852L171.132 39H169.314L170.034 29.928ZM172.302 25.968L172.158 27.876H170.034L170.178 25.968H172.302ZM176.389 35.886L176.371 36.174C176.371 37.122 176.839 37.596 177.775 37.596C178.087 37.596 178.405 37.548 178.729 37.452L178.621 38.928C178.225 39.06 177.775 39.126 177.271 39.126C176.395 39.126 175.723 38.898 175.255 38.442C174.787 37.986 174.553 37.326 174.553 36.462C174.553 36.282 174.559 36.144 174.571 36.048L174.931 31.332H173.167L173.293 29.928H175.039L175.219 27.66L177.073 27.03L176.857 29.928H179.359L179.251 31.332H176.749L176.389 35.886ZM189.336 29.928L188.616 39H186.834L186.942 37.614C186.654 38.094 186.246 38.466 185.718 38.73C185.202 38.994 184.632 39.126 184.008 39.126C183.24 39.126 182.562 38.952 181.974 38.604C181.398 38.244 180.948 37.734 180.624 37.074C180.312 36.414 180.156 35.64 180.156 34.752C180.156 33.756 180.336 32.88 180.696 32.124C181.056 31.356 181.554 30.762 182.19 30.342C182.838 29.922 183.582 29.712 184.422 29.712C185.118 29.712 185.724 29.862 186.24 30.162C186.756 30.45 187.152 30.864 187.428 31.404L187.536 29.928H189.336ZM184.53 37.704C185.358 37.704 186.012 37.386 186.492 36.75C186.972 36.102 187.212 35.232 187.212 34.14C187.212 33.168 186.99 32.43 186.546 31.926C186.114 31.41 185.49 31.152 184.674 31.152C183.834 31.152 183.174 31.47 182.694 32.106C182.214 32.742 181.974 33.612 181.974 34.716C181.974 35.664 182.196 36.402 182.64 36.93C183.096 37.446 183.726 37.704 184.53 37.704ZM193.896 35.886L193.878 36.174C193.878 37.122 194.346 37.596 195.282 37.596C195.594 37.596 195.912 37.548 196.236 37.452L196.128 38.928C195.732 39.06 195.282 39.126 194.778 39.126C193.902 39.126 193.23 38.898 192.762 38.442C192.294 37.986 192.06 37.326 192.06 36.462C192.06 36.282 192.066 36.144 192.078 36.048L192.438 31.332H190.674L190.8 29.928H192.546L192.726 27.66L194.58 27.03L194.364 29.928H196.866L196.758 31.332H194.256L193.896 35.886ZM198.546 29.928H200.364L199.644 39H197.826L198.546 29.928ZM200.814 25.968L200.67 27.876H198.546L198.69 25.968H200.814ZM206.466 39.126C205.59 39.126 204.822 38.946 204.162 38.586C203.502 38.226 202.992 37.716 202.632 37.056C202.284 36.384 202.11 35.604 202.11 34.716C202.11 33.708 202.296 32.826 202.668 32.07C203.052 31.314 203.586 30.732 204.27 30.324C204.954 29.916 205.746 29.712 206.646 29.712C207.522 29.712 208.284 29.898 208.932 30.27C209.592 30.63 210.096 31.14 210.444 31.8C210.804 32.46 210.984 33.234 210.984 34.122C210.984 35.13 210.792 36.012 210.408 36.768C210.036 37.524 209.508 38.106 208.824 38.514C208.152 38.922 207.366 39.126 206.466 39.126ZM206.484 37.704C207.336 37.704 207.99 37.374 208.446 36.714C208.914 36.054 209.148 35.172 209.148 34.068C209.148 33.132 208.932 32.412 208.5 31.908C208.068 31.404 207.45 31.152 206.646 31.152C205.782 31.152 205.116 31.482 204.648 32.142C204.18 32.79 203.946 33.666 203.946 34.77C203.946 35.73 204.156 36.462 204.576 36.966C205.008 37.458 205.644 37.704 206.484 37.704ZM218.167 29.712C219.187 29.712 219.961 29.982 220.489 30.522C221.017 31.062 221.281 31.854 221.281 32.898C221.281 33.114 221.275 33.282 221.263 33.402L220.813 39H219.013L219.445 33.51C219.457 33.426 219.463 33.3 219.463 33.132C219.463 31.836 218.845 31.188 217.609 31.188C216.829 31.188 216.211 31.422 215.755 31.89C215.299 32.358 215.041 33.006 214.981 33.834L214.567 39H212.749L213.271 32.484C213.319 31.992 213.343 31.422 213.343 30.774C213.343 30.402 213.337 30.12 213.325 29.928H215.017L215.053 31.368C215.353 30.852 215.773 30.45 216.313 30.162C216.865 29.862 217.483 29.712 218.167 29.712Z" fill="#373737"/>
</svg>
