<svg width="66" height="55" viewBox="0 0 66 55" fill="none" xmlns="http://www.w3.org/2000/svg">
<path d="M7.02638 54.096C6.36238 54.096 5.75438 54.008 5.20238 53.832C4.65838 53.656 4.18638 53.392 3.78638 53.04L4.23038 52.128C4.64638 52.464 5.07838 52.708 5.52638 52.86C5.97438 53.012 6.47838 53.088 7.03838 53.088C7.67838 53.088 8.17438 52.968 8.52638 52.728C8.87838 52.488 9.05438 52.148 9.05438 51.708C9.05438 51.34 8.89038 51.064 8.56238 50.88C8.23438 50.688 7.71438 50.512 7.00238 50.352C6.32238 50.208 5.76638 50.044 5.33438 49.86C4.90238 49.668 4.56238 49.416 4.31438 49.104C4.06638 48.784 3.94238 48.376 3.94238 47.88C3.94238 47.384 4.07438 46.948 4.33838 46.572C4.60238 46.188 4.97438 45.892 5.45438 45.684C5.94238 45.468 6.50238 45.36 7.13438 45.36C7.73438 45.36 8.29438 45.452 8.81438 45.636C9.34238 45.82 9.78238 46.08 10.1344 46.416L9.69038 47.328C9.29838 47 8.89438 46.76 8.47838 46.608C8.06238 46.448 7.61838 46.368 7.14638 46.368C6.53038 46.368 6.04638 46.5 5.69438 46.764C5.34238 47.02 5.16638 47.372 5.16638 47.82C5.16638 48.204 5.31838 48.496 5.62238 48.696C5.93438 48.896 6.43038 49.076 7.11038 49.236C7.82238 49.396 8.39838 49.564 8.83838 49.74C9.27838 49.916 9.63038 50.156 9.89438 50.46C10.1584 50.764 10.2904 51.156 10.2904 51.636C10.2904 52.132 10.1584 52.564 9.89438 52.932C9.63038 53.3 9.25038 53.588 8.75438 53.796C8.26638 53.996 7.69038 54.096 7.02638 54.096ZM17.2481 47.952V54H16.0481V52.968C15.8721 53.328 15.6081 53.604 15.2561 53.796C14.9121 53.988 14.5081 54.084 14.0441 54.084C13.5081 54.084 13.0361 53.956 12.6281 53.7C12.2281 53.444 11.9161 53.084 11.6921 52.62C11.4681 52.148 11.3561 51.6 11.3561 50.976C11.3561 50.352 11.4681 49.8 11.6921 49.32C11.9241 48.84 12.2441 48.468 12.6521 48.204C13.0601 47.94 13.5241 47.808 14.0441 47.808C14.5081 47.808 14.9121 47.908 15.2561 48.108C15.6001 48.3 15.8641 48.576 16.0481 48.936V47.952H17.2481ZM14.3321 53.124C14.8761 53.124 15.2961 52.936 15.5921 52.56C15.8961 52.176 16.0481 51.64 16.0481 50.952C16.0481 50.256 15.8961 49.72 15.5921 49.344C15.2961 48.968 14.8721 48.78 14.3201 48.78C13.7761 48.78 13.3481 48.976 13.0361 49.368C12.7321 49.752 12.5801 50.288 12.5801 50.976C12.5801 51.656 12.7321 52.184 13.0361 52.56C13.3481 52.936 13.7801 53.124 14.3321 53.124ZM21.5846 46.14C20.9206 46.14 20.5886 46.52 20.5886 47.28V47.952H22.0046V48.888H20.5886V54H19.3766V48.888H18.2126V47.952H19.3766V47.184C19.3766 46.512 19.5446 46 19.8806 45.648C20.2246 45.296 20.7046 45.12 21.3206 45.12C21.6406 45.12 21.9326 45.16 22.1966 45.24V46.236C21.9806 46.172 21.7766 46.14 21.5846 46.14ZM28.3371 51H24.0171C24.0571 52.416 24.7011 53.124 25.9491 53.124C26.6451 53.124 27.2811 52.896 27.8571 52.44L28.2291 53.304C27.9571 53.544 27.6091 53.736 27.1851 53.88C26.7691 54.016 26.3491 54.084 25.9251 54.084C24.9571 54.084 24.1971 53.808 23.6451 53.256C23.0931 52.696 22.8171 51.932 22.8171 50.964C22.8171 50.348 22.9371 49.8 23.1771 49.32C23.4251 48.84 23.7691 48.468 24.2091 48.204C24.6491 47.94 25.1491 47.808 25.7091 47.808C26.5251 47.808 27.1651 48.072 27.6291 48.6C28.1011 49.128 28.3371 49.86 28.3371 50.796V51ZM25.7331 48.708C25.2771 48.708 24.9051 48.844 24.6171 49.116C24.3291 49.388 24.1451 49.776 24.0651 50.28H27.2691C27.2211 49.768 27.0651 49.38 26.8011 49.116C26.5371 48.844 26.1811 48.708 25.7331 48.708ZM33.0351 45.456H36.5871C37.4831 45.456 38.1791 45.676 38.6751 46.116C39.1791 46.548 39.4311 47.14 39.4311 47.892C39.4311 48.644 39.1751 49.24 38.6631 49.68C38.1591 50.112 37.4671 50.328 36.5871 50.328H34.2711V54H33.0351V45.456ZM36.4431 49.344C37.0351 49.344 37.4791 49.22 37.7751 48.972C38.0791 48.724 38.2311 48.364 38.2311 47.892C38.2311 47.428 38.0791 47.072 37.7751 46.824C37.4791 46.576 37.0351 46.452 36.4431 46.452H34.2711V49.344H36.4431ZM40.8255 45.168H42.0255V54H40.8255V45.168ZM49.3341 47.952V54H48.1341V52.968C47.9581 53.328 47.6941 53.604 47.3421 53.796C46.9981 53.988 46.5941 54.084 46.1301 54.084C45.5941 54.084 45.1221 53.956 44.7141 53.7C44.3141 53.444 44.0021 53.084 43.7781 52.62C43.5541 52.148 43.4421 51.6 43.4421 50.976C43.4421 50.352 43.5541 49.8 43.7781 49.32C44.0101 48.84 44.3301 48.468 44.7381 48.204C45.1461 47.94 45.6101 47.808 46.1301 47.808C46.5941 47.808 46.9981 47.908 47.3421 48.108C47.6861 48.3 47.9501 48.576 48.1341 48.936V47.952H49.3341ZM46.4181 53.124C46.9621 53.124 47.3821 52.936 47.6781 52.56C47.9821 52.176 48.1341 51.64 48.1341 50.952C48.1341 50.256 47.9821 49.72 47.6781 49.344C47.3821 48.968 46.9581 48.78 46.4061 48.78C45.8621 48.78 45.4341 48.976 45.1221 49.368C44.8181 49.752 44.6661 50.288 44.6661 50.976C44.6661 51.656 44.8181 52.184 45.1221 52.56C45.4341 52.936 45.8661 53.124 46.4181 53.124ZM53.7426 54.084C53.1346 54.084 52.6026 53.956 52.1466 53.7C51.6986 53.444 51.3546 53.084 51.1146 52.62C50.8746 52.148 50.7546 51.6 50.7546 50.976C50.7546 50.352 50.8786 49.8 51.1266 49.32C51.3826 48.84 51.7386 48.468 52.1946 48.204C52.6506 47.94 53.1826 47.808 53.7906 47.808C54.2146 47.808 54.6226 47.88 55.0146 48.024C55.4066 48.16 55.7226 48.348 55.9626 48.588L55.5906 49.464C55.0226 49.016 54.4506 48.792 53.8746 48.792C53.2906 48.792 52.8346 48.984 52.5066 49.368C52.1786 49.744 52.0146 50.276 52.0146 50.964C52.0146 51.652 52.1786 52.184 52.5066 52.56C52.8346 52.928 53.2906 53.112 53.8746 53.112C54.4666 53.112 55.0386 52.888 55.5906 52.44L55.9626 53.316C55.7066 53.556 55.3786 53.744 54.9786 53.88C54.5866 54.016 54.1746 54.084 53.7426 54.084ZM62.2628 51H57.9428C57.9828 52.416 58.6268 53.124 59.8748 53.124C60.5708 53.124 61.2068 52.896 61.7828 52.44L62.1548 53.304C61.8828 53.544 61.5348 53.736 61.1108 53.88C60.6948 54.016 60.2748 54.084 59.8508 54.084C58.8828 54.084 58.1228 53.808 57.5708 53.256C57.0188 52.696 56.7428 51.932 56.7428 50.964C56.7428 50.348 56.8628 49.8 57.1028 49.32C57.3508 48.84 57.6948 48.468 58.1348 48.204C58.5748 47.94 59.0748 47.808 59.6348 47.808C60.4508 47.808 61.0908 48.072 61.5548 48.6C62.0268 49.128 62.2628 49.86 62.2628 50.796V51ZM59.6588 48.708C59.2028 48.708 58.8308 48.844 58.5428 49.116C58.2548 49.388 58.0708 49.776 57.9908 50.28H61.1948C61.1468 49.768 60.9908 49.38 60.7268 49.116C60.4628 48.844 60.1068 48.708 59.6588 48.708Z" fill="#373737"/>
<path d="M45.8063 12.2128C44.7009 9.16004 42.6044 6.74945 39.7431 5.24145C37.1296 3.86408 34.0017 3.33868 30.935 3.76178C28.6667 4.07471 26.5126 4.91514 24.7052 6.19231C21.1761 8.68632 18.8611 12.7248 18.5128 16.9949C18.4604 17.6357 18.5492 18.2773 18.6351 18.8976C18.7249 19.5484 18.8101 20.163 18.7054 20.6045L18.7051 20.6058C18.6821 20.7039 18.4225 21.6238 16.4448 23.6986C15.9488 24.219 15.7599 24.9845 15.9518 25.6961C16.1436 26.408 16.6859 26.9523 17.3668 27.1165C17.6487 27.1847 17.9047 27.2445 18.1282 27.2969C18.2022 27.3143 18.2727 27.3308 18.3393 27.3465C18.3517 28.9891 18.372 30.9228 18.4007 31.2848C18.4678 32.1281 18.8175 32.8345 19.4121 33.3274C20.2365 34.0109 21.483 34.2339 23.0176 33.9729C24.201 33.7712 24.9045 34.0894 25.1094 34.9175C25.1277 35.0812 25.1819 35.5837 25.2168 36.1327C25.2837 37.1799 26.1118 38.0001 27.1024 38.0001H39.3312C40.374 38.0001 41.222 37.1012 41.222 35.9961V32.4106C41.222 29.8825 41.597 28.1628 42.3363 27.2993C44.1709 25.1568 45.4813 22.7496 46.1258 20.3377C46.8647 17.573 46.757 14.8395 45.8063 12.2128ZM39.923 19.8886C38.7377 22.5673 36.4682 25.2121 33.1777 27.7497C32.9619 27.916 32.7092 27.9991 32.4564 27.9991C32.2035 27.9991 31.9508 27.916 31.7349 27.7494C29.462 25.9967 26.4443 23.2113 24.9767 19.8949C24.3362 18.4467 24.2829 16.7654 24.8307 15.2815C25.35 13.876 26.344 12.7969 27.6299 12.2429C29.8417 11.2902 31.5666 12.3998 32.4535 13.2213C33.3369 12.3966 35.0566 11.2826 37.2699 12.2364C38.556 12.7904 39.55 13.8698 40.0691 15.2752C40.6171 16.7591 40.5639 18.4407 39.923 19.8886Z" fill="#373737"/>
</svg>
