<svg width="70" height="72" viewBox="0 0 70 72" fill="none" xmlns="http://www.w3.org/2000/svg">
<path d="M33.0039 6.50253C26.8188 6.99753 21.2898 9.29816 16.5703 13.3313C15.7117 14.0625 13.7484 16.0763 13.0648 16.9313C9.69062 21.1107 7.57422 25.83 6.73203 31.0613C6.29453 33.7388 6.22891 36.7425 6.54062 39.4313C7.12578 44.505 9.02344 49.4157 11.982 53.4994C15.0719 57.7632 19.1789 61.0763 23.9531 63.1407C24.9977 63.5907 26.9172 64.2432 28.1094 64.5413C33.8789 66.0038 40.0039 65.5875 45.5109 63.36C50.4711 61.3519 54.8078 57.9319 58.007 53.5163C59.85 50.9682 61.3375 47.9982 62.2781 44.9944C64.8047 36.9338 63.8203 27.9957 59.6203 20.8125C58.8109 19.4232 57.9688 18.2082 56.9133 16.9032C56.2023 16.0313 54.3047 14.0794 53.4297 13.3313C49.5195 9.98441 44.9313 7.7794 40.0313 6.89628C38.3195 6.58128 37.5266 6.51941 35.3281 6.49691C34.2016 6.49128 33.157 6.49128 33.0039 6.50253ZM43.5969 21.1219C43.925 21.24 50.2633 25.4588 50.575 25.7682C51.2094 26.4038 51.2039 27.2532 50.5641 27.8888C50.318 28.1363 44.0836 32.2988 43.7008 32.4732C43.3945 32.6138 42.9898 32.6194 42.7984 32.4957C42.4156 32.2369 42.3609 31.7475 42.5688 30.4707C42.6398 30.0319 42.7164 29.5369 42.7383 29.3682L42.7766 29.0644L42.4156 29.1038C41.0266 29.25 39.6047 30.0769 38.1938 31.5619C36.9305 32.9007 36.0117 34.1832 34.0703 37.35C32.1563 40.4719 30.9969 42.0582 29.6734 43.3519C28.2352 44.7694 26.8242 45.5738 25.1234 45.9619C24.6422 46.0688 24.3797 46.0857 22.75 46.1082C20.9781 46.1363 20.907 46.1307 20.6062 46.0125C20.1906 45.855 19.7367 45.4275 19.5398 45.0113C19.4086 44.7357 19.3867 44.6232 19.3867 44.2125C19.3867 43.6107 19.5562 43.1888 19.9664 42.795C20.4695 42.3113 20.5898 42.2832 22.668 42.2438C24.2758 42.21 24.5164 42.1875 24.8938 42.0807C26.9773 41.49 28.8641 39.9319 30.9148 37.1138C31.5547 36.2307 32.1891 35.2463 33.4141 33.2157C34.6172 31.2244 35.2352 30.2738 35.9023 29.3907C37.8766 26.7807 39.9766 25.4307 42.3773 25.2225L42.8313 25.1832L42.7984 24.7557C42.7766 24.5194 42.6891 23.8838 42.5961 23.3438C42.5086 22.8038 42.4375 22.2188 42.4375 22.0388C42.4375 21.2232 42.8805 20.8744 43.5969 21.1219ZM25.0742 25.8694C27.3656 26.3813 29.2469 27.7144 31.1938 30.2175C31.6805 30.8419 32.4625 31.9332 32.7195 32.3438C32.8016 32.4788 32.7906 32.5069 32.0961 33.6769L31.3797 34.8694L30.9039 34.2675C29.3945 32.3775 27.3984 30.7463 25.7852 30.0994C24.6969 29.6607 24.5219 29.6325 22.5586 29.5932C20.8141 29.5594 20.8086 29.5594 20.5023 29.4132C20.0703 29.205 19.775 28.9069 19.5672 28.4738C19.4031 28.1363 19.3867 28.0519 19.3867 27.6188C19.3922 27.2082 19.4141 27.0957 19.5453 26.8313C19.8133 26.2969 20.1742 25.9763 20.7539 25.7794C20.9234 25.7232 21.3773 25.7119 22.75 25.7288C24.3195 25.7457 24.593 25.7625 25.0742 25.8694ZM37.625 39.2288C39.5828 41.2932 41.3164 42.525 42.5469 42.7275C42.7164 42.7557 42.7656 42.7444 42.7656 42.6825C42.7656 42.6375 42.6945 42.1425 42.6016 41.58C42.5141 41.0119 42.4375 40.41 42.4375 40.23C42.443 39.3188 43.0172 39.015 43.8703 39.4763C44.4172 39.7744 50.3508 43.7288 50.5641 43.9425C50.6625 44.0325 50.8102 44.2407 50.8922 44.3982C51.1984 44.9719 51.0453 45.6863 50.5094 46.1588C50.2141 46.4232 44.0836 50.49 43.7336 50.6588C43.3727 50.8275 42.9461 50.8388 42.7547 50.6813C42.4539 50.4394 42.3609 49.8825 42.4922 49.1569C42.5906 48.6394 42.8203 47.0082 42.8203 46.8282V46.6538L42.3719 46.5919C41.1633 46.4175 39.6813 45.6525 38.2266 44.4488C37.0563 43.4813 35.3719 41.6082 34.2563 40.0332L33.7805 39.3694L34.1906 38.6832C34.4148 38.3063 34.7813 37.6932 35.0055 37.3219L35.4047 36.6469L36.0938 37.4907C36.4711 37.9519 37.1602 38.7338 37.625 39.2288Z" fill="#373737"/>
</svg>
