<svg width="176" height="46" viewBox="0 0 176 46" fill="none" xmlns="http://www.w3.org/2000/svg">
<rect width="176" height="46" rx="10" fill="#EAF6FD"/>
<path d="M36.319 31.16C35.2123 31.16 34.199 31.0133 33.279 30.72C32.3723 30.4267 31.5857 29.9867 30.919 29.4L31.659 27.88C32.3523 28.44 33.0723 28.8467 33.819 29.1C34.5657 29.3533 35.4057 29.48 36.339 29.48C37.4057 29.48 38.2323 29.28 38.819 28.88C39.4057 28.48 39.699 27.9133 39.699 27.18C39.699 26.5667 39.4257 26.1067 38.879 25.8C38.3323 25.48 37.4657 25.1867 36.279 24.92C35.1457 24.68 34.219 24.4067 33.499 24.1C32.779 23.78 32.2123 23.36 31.799 22.84C31.3857 22.3067 31.179 21.6267 31.179 20.8C31.179 19.9733 31.399 19.2467 31.839 18.62C32.279 17.98 32.899 17.4867 33.699 17.14C34.5123 16.78 35.4457 16.6 36.499 16.6C37.499 16.6 38.4323 16.7533 39.299 17.06C40.179 17.3667 40.9123 17.8 41.499 18.36L40.759 19.88C40.1057 19.3333 39.4323 18.9333 38.739 18.68C38.0457 18.4133 37.3057 18.28 36.519 18.28C35.4923 18.28 34.6857 18.5 34.099 18.94C33.5123 19.3667 33.219 19.9533 33.219 20.7C33.219 21.34 33.4723 21.8267 33.979 22.16C34.499 22.4933 35.3257 22.7933 36.459 23.06C37.6457 23.3267 38.6057 23.6067 39.339 23.9C40.0723 24.1933 40.659 24.5933 41.099 25.1C41.539 25.6067 41.759 26.26 41.759 27.06C41.759 27.8867 41.539 28.6067 41.099 29.22C40.659 29.8333 40.0257 30.3133 39.199 30.66C38.3857 30.9933 37.4257 31.16 36.319 31.16ZM50.9552 31L46.1352 26.24V31H44.1352V16.28H46.1352V25.48L50.6152 20.94H53.1152L48.2952 25.78L53.5352 31H50.9552ZM54.7602 20.92H56.7602V31H54.7602V20.92ZM56.9202 16.52V18.64H54.5802V16.52H56.9202ZM65.0612 20.68C65.9278 20.68 66.7012 20.9 67.3812 21.34C68.0612 21.78 68.5878 22.4 68.9612 23.2C69.3478 24 69.5412 24.92 69.5412 25.96C69.5412 27 69.3545 27.9133 68.9812 28.7C68.6078 29.4733 68.0812 30.0733 67.4012 30.5C66.7212 30.9267 65.9412 31.14 65.0612 31.14C64.2878 31.14 63.6078 30.98 63.0212 30.66C62.4478 30.3267 62.0145 29.8533 61.7212 29.24V35.32H59.7212V23.76C59.7212 22.7067 59.6678 21.76 59.5612 20.92H61.4412L61.6412 22.78C61.9078 22.1133 62.3412 21.6 62.9412 21.24C63.5412 20.8667 64.2478 20.68 65.0612 20.68ZM64.6012 29.54C65.5078 29.54 66.2145 29.2267 66.7212 28.6C67.2278 27.9733 67.4812 27.0933 67.4812 25.96C67.4812 24.8133 67.2278 23.92 66.7212 23.28C66.2145 22.6267 65.5078 22.3 64.6012 22.3C63.6678 22.3 62.9545 22.6133 62.4612 23.24C61.9678 23.8667 61.7212 24.76 61.7212 25.92C61.7212 27.08 61.9678 27.9733 62.4612 28.6C62.9678 29.2267 63.6812 29.54 64.6012 29.54ZM80.8207 18.48H76.0007V16.76H87.7207V18.48H82.9007V31H80.8207V18.48ZM96.7038 20.92V31H94.7438V29.32C94.4238 29.9067 93.9838 30.36 93.4238 30.68C92.8638 30.9867 92.2305 31.14 91.5238 31.14C89.0972 31.14 87.8838 29.7933 87.8838 27.1V20.92H89.8838V27.08C89.8838 27.9067 90.0505 28.52 90.3838 28.92C90.7305 29.3067 91.2505 29.5 91.9438 29.5C92.7705 29.5 93.4305 29.2333 93.9238 28.7C94.4305 28.1667 94.6838 27.46 94.6838 26.58V20.92H96.7038ZM102.283 22.48V27.54C102.283 28.2333 102.429 28.7267 102.723 29.02C103.029 29.3 103.449 29.44 103.983 29.44C104.329 29.44 104.683 29.3867 105.043 29.28V30.92C104.603 31.0667 104.103 31.14 103.543 31.14C102.503 31.14 101.696 30.8467 101.123 30.26C100.549 29.6733 100.263 28.82 100.263 27.7V22.48H98.3026V20.92H100.263V18.4L102.283 17.7V20.92H105.063V22.48H102.283ZM111.268 31.14C110.282 31.14 109.415 30.9267 108.668 30.5C107.922 30.0733 107.342 29.4667 106.928 28.68C106.528 27.8933 106.328 26.9733 106.328 25.92C106.328 24.8667 106.528 23.9467 106.928 23.16C107.342 22.36 107.922 21.7467 108.668 21.32C109.415 20.8933 110.282 20.68 111.268 20.68C112.242 20.68 113.102 20.8933 113.848 21.32C114.595 21.7467 115.168 22.36 115.568 23.16C115.982 23.9467 116.188 24.8667 116.188 25.92C116.188 26.9733 115.982 27.8933 115.568 28.68C115.168 29.4667 114.595 30.0733 113.848 30.5C113.102 30.9267 112.242 31.14 111.268 31.14ZM111.248 29.54C112.182 29.54 112.895 29.2333 113.388 28.62C113.882 28.0067 114.128 27.1067 114.128 25.92C114.128 24.76 113.875 23.8667 113.368 23.24C112.875 22.6133 112.175 22.3 111.268 22.3C110.348 22.3 109.635 22.6133 109.128 23.24C108.622 23.8667 108.368 24.76 108.368 25.92C108.368 27.1067 108.615 28.0067 109.108 28.62C109.615 29.2333 110.328 29.54 111.248 29.54ZM123.569 20.68C123.876 20.68 124.196 20.7267 124.529 20.82L124.489 22.66C124.129 22.5267 123.736 22.46 123.309 22.46C122.389 22.46 121.696 22.74 121.229 23.3C120.776 23.8467 120.549 24.54 120.549 25.38V31H118.549V23.76C118.549 22.7067 118.496 21.76 118.389 20.92H120.269L120.449 22.74C120.716 22.0733 121.129 21.5667 121.689 21.22C122.249 20.86 122.876 20.68 123.569 20.68ZM126.069 20.92H128.069V31H126.069V20.92ZM128.229 16.52V18.64H125.889V16.52H128.229ZM140.25 20.92V31H138.25V29.28C137.956 29.88 137.516 30.34 136.93 30.66C136.356 30.98 135.683 31.14 134.91 31.14C134.016 31.14 133.23 30.9267 132.55 30.5C131.883 30.0733 131.363 29.4733 130.99 28.7C130.616 27.9133 130.43 27 130.43 25.96C130.43 24.92 130.616 24 130.99 23.2C131.376 22.4 131.91 21.78 132.59 21.34C133.27 20.9 134.043 20.68 134.91 20.68C135.683 20.68 136.356 20.8467 136.93 21.18C137.503 21.5 137.943 21.96 138.25 22.56V20.92H140.25ZM135.39 29.54C136.296 29.54 136.996 29.2267 137.49 28.6C137.996 27.96 138.25 27.0667 138.25 25.92C138.25 24.76 137.996 23.8667 137.49 23.24C136.996 22.6133 136.29 22.3 135.37 22.3C134.463 22.3 133.75 22.6267 133.23 23.28C132.723 23.92 132.47 24.8133 132.47 25.96C132.47 27.0933 132.723 27.9733 133.23 28.6C133.75 29.2267 134.47 29.54 135.39 29.54ZM143.217 16.28H145.217V31H143.217V16.28Z" fill="#373737"/>
</svg>
