<svg width="255" height="71" viewBox="0 0 255 71" fill="none" xmlns="http://www.w3.org/2000/svg">
<rect y="0.890625" width="255" height="70" rx="10" fill="#E3CABA"/>
<path d="M23.4174 29.6226H19.0794L19.2054 28.0746H29.7534L29.6274 29.6226H25.3074L24.4074 40.8906H22.5354L23.4174 29.6226ZM33.0514 41.0166C32.1754 41.0166 31.4074 40.8366 30.7474 40.4766C30.0874 40.1166 29.5774 39.6066 29.2174 38.9466C28.8694 38.2746 28.6954 37.4946 28.6954 36.6066C28.6954 35.5986 28.8814 34.7166 29.2534 33.9606C29.6374 33.2046 30.1714 32.6226 30.8554 32.2146C31.5394 31.8066 32.3314 31.6026 33.2314 31.6026C34.1074 31.6026 34.8694 31.7886 35.5174 32.1606C36.1774 32.5206 36.6814 33.0306 37.0294 33.6906C37.3894 34.3506 37.5694 35.1246 37.5694 36.0126C37.5694 37.0206 37.3774 37.9026 36.9934 38.6586C36.6214 39.4146 36.0934 39.9966 35.4094 40.4046C34.7374 40.8126 33.9514 41.0166 33.0514 41.0166ZM33.0694 39.5946C33.9214 39.5946 34.5754 39.2646 35.0314 38.6046C35.4994 37.9446 35.7334 37.0626 35.7334 35.9586C35.7334 35.0226 35.5174 34.3026 35.0854 33.7986C34.6534 33.2946 34.0354 33.0426 33.2314 33.0426C32.3674 33.0426 31.7014 33.3726 31.2334 34.0326C30.7654 34.6806 30.5314 35.5566 30.5314 36.6606C30.5314 37.6206 30.7414 38.3526 31.1614 38.8566C31.5934 39.3486 32.2294 39.5946 33.0694 39.5946ZM53.4752 27.6426L52.4132 40.8906H50.6312L50.7392 39.5406C50.4392 40.0086 50.0312 40.3746 49.5152 40.6386C48.9992 40.8906 48.4352 41.0166 47.8232 41.0166C47.0552 41.0166 46.3772 40.8426 45.7892 40.4946C45.2132 40.1346 44.7632 39.6246 44.4392 38.9646C44.1152 38.3046 43.9532 37.5366 43.9532 36.6606C43.9532 35.6646 44.1332 34.7826 44.4932 34.0146C44.8532 33.2466 45.3572 32.6526 46.0052 32.2326C46.6532 31.8126 47.3972 31.6026 48.2372 31.6026C48.9332 31.6026 49.5392 31.7466 50.0552 32.0346C50.5712 32.3226 50.9612 32.7366 51.2252 33.2766L51.6572 27.6426H53.4752ZM48.3452 39.5946C49.1732 39.5946 49.8212 39.2766 50.2892 38.6406C50.7692 37.9926 51.0092 37.1226 51.0092 36.0306C51.0092 35.0586 50.7932 34.3206 50.3612 33.8166C49.9292 33.3006 49.3052 33.0426 48.4892 33.0426C47.6492 33.0426 46.9892 33.3606 46.5092 33.9966C46.0292 34.6206 45.7892 35.4846 45.7892 36.5886C45.7892 37.5366 46.0112 38.2746 46.4552 38.8026C46.8992 39.3306 47.5292 39.5946 48.3452 39.5946ZM59.278 41.0166C58.402 41.0166 57.634 40.8366 56.974 40.4766C56.314 40.1166 55.804 39.6066 55.444 38.9466C55.096 38.2746 54.922 37.4946 54.922 36.6066C54.922 35.5986 55.108 34.7166 55.48 33.9606C55.864 33.2046 56.398 32.6226 57.082 32.2146C57.766 31.8066 58.558 31.6026 59.458 31.6026C60.334 31.6026 61.096 31.7886 61.744 32.1606C62.404 32.5206 62.908 33.0306 63.256 33.6906C63.616 34.3506 63.796 35.1246 63.796 36.0126C63.796 37.0206 63.604 37.9026 63.22 38.6586C62.848 39.4146 62.32 39.9966 61.636 40.4046C60.964 40.8126 60.178 41.0166 59.278 41.0166ZM59.296 39.5946C60.148 39.5946 60.802 39.2646 61.258 38.6046C61.726 37.9446 61.96 37.0626 61.96 35.9586C61.96 35.0226 61.744 34.3026 61.312 33.7986C60.88 33.2946 60.262 33.0426 59.458 33.0426C58.594 33.0426 57.928 33.3726 57.46 34.0326C56.992 34.6806 56.758 35.5566 56.758 36.6606C56.758 37.6206 56.968 38.3526 57.388 38.8566C57.82 39.3486 58.456 39.5946 59.296 39.5946ZM71.5478 28.0746H73.4198L72.5378 39.3426H78.7658L78.6398 40.8906H70.5578L71.5478 28.0746ZM81.0115 31.8186H82.8295L82.1095 40.8906H80.2915L81.0115 31.8186ZM83.2795 27.8586L83.1355 29.7666H81.0115L81.1555 27.8586H83.2795ZM88.0503 41.0166C86.5743 41.0166 85.3083 40.6326 84.2523 39.8646L84.9183 38.5686C85.9263 39.2886 86.9823 39.6486 88.0863 39.6486C88.7463 39.6486 89.2443 39.5466 89.5803 39.3426C89.9163 39.1386 90.0843 38.8386 90.0843 38.4426C90.0843 38.0706 89.9163 37.7886 89.5803 37.5966C89.2443 37.4046 88.7223 37.2066 88.0143 37.0026C87.3783 36.8226 86.8563 36.6486 86.4483 36.4806C86.0523 36.3006 85.7103 36.0426 85.4223 35.7066C85.1463 35.3706 85.0083 34.9266 85.0083 34.3746C85.0083 33.5346 85.3383 32.8626 85.9983 32.3586C86.6703 31.8546 87.5643 31.6026 88.6803 31.6026C89.3403 31.6026 89.9643 31.7046 90.5523 31.9086C91.1523 32.1126 91.6503 32.4006 92.0463 32.7726L91.3983 34.0506C90.5223 33.3426 89.6163 32.9886 88.6803 32.9886C88.0443 32.9886 87.5523 33.1026 87.2043 33.3306C86.8683 33.5466 86.7003 33.8586 86.7003 34.2666C86.7003 34.5306 86.7903 34.7466 86.9703 34.9146C87.1503 35.0826 87.3663 35.2206 87.6183 35.3286C87.8823 35.4246 88.2603 35.5446 88.7523 35.6886C89.3883 35.8686 89.9043 36.0486 90.3003 36.2286C90.7083 36.3966 91.0563 36.6546 91.3443 37.0026C91.6323 37.3386 91.7763 37.7826 91.7763 38.3346C91.7763 39.1746 91.4403 39.8346 90.7683 40.3146C90.0963 40.7826 89.1903 41.0166 88.0503 41.0166ZM96.2432 37.7766L96.2252 38.0646C96.2252 39.0126 96.6932 39.4866 97.6292 39.4866C97.9412 39.4866 98.2592 39.4386 98.5832 39.3426L98.4752 40.8186C98.0792 40.9506 97.6292 41.0166 97.1252 41.0166C96.2492 41.0166 95.5772 40.7886 95.1092 40.3326C94.6412 39.8766 94.4072 39.2166 94.4072 38.3526C94.4072 38.1726 94.4132 38.0346 94.4252 37.9386L94.7852 33.2226H93.0212L93.1472 31.8186H94.8932L95.0732 29.5506L96.9272 28.9206L96.7112 31.8186H99.2132L99.1052 33.2226H96.6032L96.2432 37.7766Z" fill="#373737"/>
</svg>
