<svg width="414" height="555" viewBox="0 0 414 555" fill="none" xmlns="http://www.w3.org/2000/svg">
<g opacity="0.4">
<path d="M96.5 554.576C297.808 554.576 461 537.556 461 516.561C461 495.566 297.808 478.546 96.5 478.546C-104.808 478.546 -268 495.566 -268 516.561C-268 537.556 -104.808 554.576 96.5 554.576Z" fill="#2B2E34" fill-opacity="0.45"/>
<path d="M49.8487 351.745L19.1531 401.614L78.0293 471.539H137.4L192.751 400.432L158.487 351.745H49.8487Z" fill="#3F4553"/>
<path d="M19.1527 401.615C19.1527 401.615 -112.894 411.825 -146.019 446.411C-179.143 480.998 -163.559 518.55 -131.294 518.55C-71.9023 518.55 53.7604 522.183 113.217 518.55L116.764 437.577L19.1527 401.615Z" fill="#3F4553"/>
<path d="M189.333 399.896C189.333 399.896 327.613 411.826 360.738 446.412C393.862 480.998 374.774 503.912 346.013 518.551C305.537 539.165 159.647 535.747 83.9832 510.705L97.9767 437.577L189.333 399.896Z" fill="#3F4553"/>
<path d="M195.416 467.821L186.065 443.66L197.716 438.479C197.716 438.479 196.104 424.185 210.355 421.433C224.607 418.682 241.588 427.882 258.14 420.466C273.401 413.631 292.081 407.332 309.514 416.79C312.093 418.188 313.297 421.262 312.416 424.056L312.351 424.271C311.47 427.087 308.719 428.828 305.774 428.527C299.626 427.904 288.663 428.033 277.83 434.589C259.15 445.938 195.416 467.821 195.416 467.821Z" fill="#FEBBA0"/>
<path d="M304.205 469.197C304.205 469.197 211.925 452.796 17.5407 450.26L-1.22485 475.71C-1.22485 475.71 47.14 503.353 92.5385 513.349C137.937 523.344 294.661 554.814 364.65 506.341L304.205 469.197Z" fill="#3F4553"/>
<path d="M92.5386 513.37C46.0008 502.622 -2.68652 475.065 -2.68652 475.065L0.215383 470.143" stroke="#6E758F" stroke-width="1.5925" stroke-miterlimit="10" stroke-linecap="round"/>
<path d="M17.5408 450.26C17.5408 450.26 231.099 445.38 288.083 478.44" stroke="#6E758F" stroke-width="1.5925" stroke-miterlimit="10" stroke-linecap="round"/>
<path d="M3.26732 471.497L17.5189 449.786L3.26732 442.069C3.26732 442.069 -1.71962 429.581 -15.6917 425.711C-29.6853 421.864 -39.6377 428.076 -55.5659 419.392C-70.2473 411.374 -88.3895 403.657 -106.489 411.718C-109.154 412.9 -110.616 415.866 -109.95 418.725L-109.907 418.94C-109.24 421.821 -106.639 423.755 -103.694 423.691C-97.5251 423.54 -86.5839 424.529 -76.309 431.924C-58.5752 444.692 3.26732 471.497 3.26732 471.497Z" fill="#FEBBA0"/>
<path d="M125.964 451.033L184.345 445.294" stroke="#6E758F" stroke-width="1.5925" stroke-miterlimit="10" stroke-linecap="round"/>
<path d="M51.7183 425.733L84.2839 449.314" stroke="#6E758F" stroke-width="1.5925" stroke-miterlimit="10" stroke-linecap="round"/>
<path d="M43.314 104.826C44.6897 118.283 56.4047 128.084 69.474 126.752C82.5433 125.419 92.0228 113.425 90.6471 99.9898C89.2714 86.5336 77.5563 76.7317 64.487 78.0644C51.4393 79.3756 41.9598 91.3701 43.314 104.826Z" fill="#3F4553"/>
<path d="M92.1307 114.607C92.1307 114.607 50.6014 108.331 44.0667 69.1443C38.306 34.515 61.5426 6.76432 87.0148 1.97083C87.0363 1.97083 148.234 96.2931 92.1307 114.607Z" fill="#3F4553"/>
<path d="M93.0758 5.68911C90.0235 7.1938 87.1216 9.17138 84.4776 11.7293C60.8111 34.4931 75.7935 78.6878 96.988 98.6357C108.725 109.663 125.878 114.8 140.86 109.168C162.764 100.936 169.621 76.1299 165.172 54.0325C161.861 37.5669 152.726 22.0257 139.248 12.3527C125.771 2.70124 107.564 -1.38291 93.0758 5.68911Z" fill="#FDBCA0"/>
<path d="M89.142 85.3089C84.9933 89.4145 77.7709 91.0912 72.225 89.1351C66.6792 87.179 62.1221 81.9556 60.6819 75.8939C59.3922 70.4555 60.7894 64.2648 64.7875 60.933C68.7857 57.6012 75.9867 57.8161 79.4045 62.1367L89.142 85.3089Z" fill="#FDBCA0"/>
<path d="M83.0802 70.8639L87.4438 148.979C88.0242 163.424 99.7392 174.902 114.184 175.182C130.865 175.525 143.955 160.952 141.827 144.4L133.014 71.8742L83.0802 70.8639Z" fill="#FDBCA0"/>
<path d="M138.947 120.841L137.85 110.136C137.85 110.136 116.355 116.735 96.9875 98.6144C96.9875 98.6359 108.144 118.992 138.947 120.841Z" fill="#DF8370"/>
<path d="M74.5466 59.0627C102.534 57.6225 128.07 38.8355 142.171 14.6315C142.171 14.6315 116.42 -9.80886 78.7812 4.48566C47.5912 16.3082 74.5466 59.0627 74.5466 59.0627Z" fill="#3F4553"/>
<path d="M77.6206 77.0334C74.3963 77.3558 71.5804 75.6147 71.3225 73.1427C71.129 71.2726 72.4402 69.5315 74.4608 68.6287" stroke="#444359" stroke-width="1.1144" stroke-miterlimit="10" stroke-linecap="round"/>
<path d="M144.858 70.9278C145.503 68.9717 146.621 67.424 147.868 65.9623L148.47 67.8539C147.051 67.3165 146.277 66.4997 145.482 65.7043C144.729 64.866 144.063 64.0277 143.461 63.1249C142.257 61.3408 141.247 59.4492 140.516 57.4501C142.021 58.9763 143.397 60.5454 144.837 62.0501C145.568 62.781 146.256 63.5333 147.008 64.1782C147.717 64.8015 148.556 65.4464 149.136 65.5969L150.877 66.0053L149.738 67.4885C148.577 69.0147 147.287 70.4334 145.503 71.4651C145.288 71.5941 145.03 71.5081 144.901 71.3147C144.837 71.1642 144.837 71.0352 144.858 70.9278Z" fill="#444359"/>
<path d="M151.156 77.7641C150.297 79.5267 148.835 81.0529 146.943 81.9772C145.073 82.9445 142.752 83.138 140.688 82.5361C138.582 81.9557 136.948 80.58 135.551 79.1613C134.927 78.3875 134.304 77.5921 133.788 76.7753C133.337 75.894 132.864 75.0342 132.52 74.1313C133.315 74.7332 134.003 75.3781 134.691 76.0229L136.819 77.7856C138.324 78.7744 139.742 79.8492 141.376 80.2361C142.945 80.7305 144.622 80.709 146.277 80.2576C147.911 79.7847 149.544 78.8604 151.156 77.7641Z" fill="#444359"/>
<path d="M128.651 49.6694C129.489 52.1629 129.962 54.7424 129.79 57.5153C129.683 58.8695 129.36 60.3527 128.35 61.6639C127.318 62.9966 125.577 63.577 124.051 63.534C122.482 63.5125 120.934 62.8247 119.881 61.8574C118.784 60.8901 117.925 59.7723 117.28 58.59C115.99 56.204 115.173 53.7106 114.765 51.0881C114.7 50.6797 114.98 50.2928 115.388 50.2068C115.775 50.1423 116.119 50.3788 116.226 50.7227L116.248 50.7657C116.979 53.0872 117.946 55.4302 119.193 57.4508C120.44 59.4069 122.138 61.2125 124.137 61.148C125.126 61.191 126.05 60.9331 126.609 60.2237C127.232 59.5359 127.533 58.4181 127.705 57.2788C128.027 54.9788 127.813 52.4423 127.426 50.0133V49.9703C127.361 49.6264 127.619 49.2825 127.963 49.2395C128.242 49.1965 128.543 49.39 128.651 49.6694Z" fill="#444359"/>
<path d="M159.863 44.7897C160.572 46.8962 160.959 49.0458 160.916 51.3458C160.895 52.4851 160.68 53.7318 159.949 54.9141C159.239 56.1608 157.649 56.9346 156.273 56.8701C154.833 56.8486 153.522 56.0963 152.683 55.215C151.823 54.3122 151.157 53.3449 150.663 52.3131C149.695 50.2495 149.094 48.143 148.793 45.9289C148.728 45.5205 149.029 45.1336 149.459 45.0691C149.824 45.0261 150.168 45.2411 150.276 45.585L150.297 45.628C150.921 47.5626 151.673 49.5402 152.64 51.2598C153.608 52.9365 154.919 54.5486 156.359 54.4627C157.09 54.4841 157.67 54.2692 158.057 53.6673C158.487 53.0654 158.702 52.1411 158.831 51.1738C159.046 49.2392 158.874 47.1112 158.638 45.0906V45.0476C158.595 44.7037 158.852 44.3813 159.196 44.3168C159.476 44.3168 159.777 44.5102 159.863 44.7897Z" fill="#444359"/>
<path d="M183.078 156.072C182.884 142.96 140.366 132.47 140.366 132.47C137.701 135.415 133.122 140.381 113.841 140.381C95.3975 140.381 88.0245 135.609 85.1441 132.47H66.8944C62.8318 132.47 59.113 134.792 57.4149 138.489C20.851 218.474 41.4007 307.809 49.827 351.724C50.6008 355.766 126.91 353.036 161.324 355.765C168.762 356.389 183.808 203.728 183.078 156.072Z" fill="#6BA5C0"/>
<path d="M94.2793 269.181C98.0625 238.615 102.684 220.279 106.231 226.298C109.369 231.629 107.628 258.369 102.921 284.164C102.942 284.164 92.6672 282.272 94.2793 269.181Z" fill="#FEBBA0"/>
<path d="M119.258 269.181C115.474 238.615 110.853 220.279 107.306 226.298C104.168 231.629 105.909 258.369 110.617 284.164C110.595 284.164 120.87 282.272 119.258 269.181Z" fill="#FEBBA0"/>
<path d="M245.265 261.594H197.222L204.853 310.388L117.667 267.849C117.366 264.581 116.958 260.54 116.463 256.263C113.175 256.263 109.864 256.263 106.575 256.22C106.597 259.938 106.661 262.453 106.661 262.453C106.661 262.453 104.963 284.895 108.854 292.375C116.248 306.605 191.891 352.434 212.892 357.872C214.204 358.216 215.515 358.474 216.826 358.646C237.096 361.505 250.531 350.134 250.38 329.67L245.265 261.594Z" fill="#FEBBA0"/>
<path d="M96.2147 256.047C95.4624 260.862 94.796 265.505 94.2801 269.181L9.60935 308.389L13.1776 261.614H-34.8648L-39.9593 329.734C-40.0883 350.197 -26.6536 361.547 -6.4048 358.71C-5.09358 358.516 -3.78234 358.258 -2.47112 357.936C18.53 352.497 88.8848 314.472 103.91 292.289C108.36 285.732 106.253 263.657 106.253 263.657C106.253 263.657 106.253 260.604 106.167 256.262C102.857 256.198 99.5465 256.133 96.2147 256.047Z" fill="#FEBBA0"/>
<path d="M25.4725 288.295C44.2596 232.729 44.1091 232.686 67.1737 132.495C51.74 133.549 50.1493 131.034 37.9829 137.353C1.48351 156.312 -32.8878 218.585 -43.0122 288.295H25.4725Z" fill="#6BA5C0"/>
<path d="M192.751 282.809C181.702 243.451 140.366 132.491 140.366 132.491C181.702 131.094 238.106 184.983 251.605 275.608L192.751 282.809Z" fill="#6BA5C0"/>
</g>
</svg>
