<svg width="163" height="124" viewBox="0 0 163 124" fill="none" xmlns="http://www.w3.org/2000/svg">
<path d="M81.5 124C126.511 124 163 120.194 163 115.5C163 110.806 126.511 107 81.5 107C36.4888 107 0 110.806 0 115.5C0 120.194 36.4888 124 81.5 124Z" fill="#2B2E34" fill-opacity="0.45"/>
<path d="M71.069 78.6481L64.2057 89.7987L77.37 105.433H90.645L103.021 89.5343L95.3599 78.6481H71.069Z" fill="#3F4553"/>
<path d="M64.2056 89.7986C64.2056 89.7986 34.6807 92.0816 27.2742 99.8149C19.8678 107.548 23.3523 115.945 30.5665 115.945C43.8462 115.945 71.9437 116.757 85.2378 115.945L86.0308 97.8395L64.2056 89.7986Z" fill="#3F4553"/>
<path d="M102.257 89.4141C102.257 89.4141 133.175 92.0816 140.582 99.8149C147.988 107.548 143.72 112.672 137.29 115.945C128.239 120.554 95.6193 119.79 78.7013 114.19L81.8302 97.8395L102.257 89.4141Z" fill="#3F4553"/>
<path d="M103.617 104.602L101.526 99.1997L104.131 98.0414C104.131 98.0414 103.771 94.8452 106.957 94.23C110.144 93.6148 113.941 95.6719 117.642 94.0137C121.054 92.4853 125.231 91.0771 129.129 93.1919C129.705 93.5043 129.975 94.1916 129.777 94.8164L129.763 94.8644C129.566 95.4941 128.951 95.8834 128.292 95.8161C126.918 95.6767 124.467 95.7055 122.044 97.1714C117.868 99.7092 103.617 104.602 103.617 104.602Z" fill="#FEBBA0"/>
<path d="M127.942 104.91C127.942 104.91 107.308 101.242 63.8452 100.675L59.6493 106.366C59.6493 106.366 70.4634 112.547 80.6142 114.782C90.7651 117.017 125.808 124.053 141.457 113.215L127.942 104.91Z" fill="#3F4553"/>
<path d="M80.6143 114.786C70.2087 112.383 59.3225 106.222 59.3225 106.222L59.9714 105.121" stroke="#6E758F" stroke-width="1.5925" stroke-miterlimit="10" stroke-linecap="round"/>
<path d="M63.8452 100.675C63.8452 100.675 111.595 99.5842 124.337 106.976" stroke="#6E758F" stroke-width="1.5925" stroke-miterlimit="10" stroke-linecap="round"/>
<path d="M40.405 103.771C40.405 103.771 49.1236 99.6853 55.0834 102.362" stroke="#6E758F" stroke-width="1.5925" stroke-miterlimit="10" stroke-linecap="round"/>
<path d="M60.6538 105.424L63.8403 100.57L60.6538 98.8441C60.6538 98.8441 59.5387 96.0517 56.4146 95.1865C53.2858 94.3262 51.0605 95.7152 47.499 93.7735C44.2163 91.9808 40.1599 90.2553 36.113 92.0577C35.517 92.322 35.1902 92.9853 35.3392 93.6245L35.3488 93.6726C35.4978 94.3166 36.0793 94.7492 36.7378 94.7348C38.1172 94.7011 40.5636 94.9222 42.861 96.5756C46.8261 99.4305 60.6538 105.424 60.6538 105.424Z" fill="#FEBBA0"/>
<path d="M88.0879 100.848L101.142 99.565" stroke="#6E758F" stroke-width="1.5925" stroke-miterlimit="10" stroke-linecap="round"/>
<path d="M71.4871 95.1914L78.7685 100.464" stroke="#6E758F" stroke-width="1.5925" stroke-miterlimit="10" stroke-linecap="round"/>
<path d="M69.6079 23.4385C69.9155 26.4473 72.5349 28.6389 75.4571 28.3409C78.3793 28.0429 80.4989 25.361 80.1913 22.3571C79.8837 19.3484 77.2643 17.1567 74.3421 17.4547C71.4247 17.7479 69.3051 20.4298 69.6079 23.4385Z" fill="#3F4553"/>
<path d="M80.523 25.6256C80.523 25.6256 71.2373 24.2221 69.7762 15.4603C68.4882 7.71742 73.6837 1.51253 79.3792 0.440735C79.384 0.440735 93.0674 21.5306 80.523 25.6256Z" fill="#3F4553"/>
<path d="M80.7343 1.27222C80.0518 1.60866 79.403 2.05083 78.8118 2.62278C73.5201 7.71261 76.8701 17.5943 81.6091 22.0545C84.2333 24.5201 88.0687 25.6688 91.4187 24.4096C96.3163 22.5688 97.8495 17.0223 96.8546 12.0815C96.1144 8.39991 94.0717 4.92498 91.0582 2.76216C88.0447 0.604147 83.9738 -0.309044 80.7343 1.27222Z" fill="#FDBCA0"/>
<path d="M79.8548 19.0746C78.9272 19.9926 77.3123 20.3675 76.0723 19.9302C74.8322 19.4928 73.8133 18.3249 73.4913 16.9695C73.2029 15.7535 73.5153 14.3693 74.4093 13.6243C75.3032 12.8794 76.9133 12.9274 77.6775 13.8935L79.8548 19.0746Z" fill="#FDBCA0"/>
<path d="M78.4994 15.8448L79.4751 33.3108C79.6048 36.5406 82.2242 39.1071 85.4541 39.1696C89.1837 39.2465 92.1107 35.9878 91.6349 32.287L89.6643 16.0707L78.4994 15.8448Z" fill="#FDBCA0"/>
<path d="M90.9908 27.0193L90.7457 24.6258C90.7457 24.6258 85.9395 26.1013 81.609 22.0496C81.609 22.0544 84.1035 26.606 90.9908 27.0193Z" fill="#DF8370"/>
<path d="M76.5913 13.2061C82.8491 12.8841 88.5589 8.68338 91.7119 3.27152C91.7119 3.27152 85.954 -2.1932 77.5382 1.00297C70.5643 3.64641 76.5913 13.2061 76.5913 13.2061Z" fill="#3F4553"/>
<path d="M77.2787 17.2242C76.5577 17.2963 75.9281 16.9069 75.8704 16.3542C75.8272 15.9361 76.1204 15.5468 76.5721 15.3449" stroke="#444359" stroke-width="1.1144" stroke-miterlimit="10" stroke-linecap="round"/>
<path d="M92.3127 15.8591C92.4568 15.4217 92.7068 15.0757 92.9855 14.7489L93.1201 15.1718C92.8029 15.0517 92.6299 14.869 92.452 14.6912C92.2838 14.5037 92.1348 14.3163 92.0003 14.1144C91.7311 13.7155 91.5052 13.2926 91.3418 12.8456C91.6782 13.1868 91.9858 13.5377 92.3079 13.8741C92.4713 14.0375 92.6251 14.2058 92.7933 14.3499C92.9519 14.4893 93.1393 14.6335 93.2691 14.6672L93.6584 14.7585L93.4037 15.0901C93.1441 15.4314 92.8558 15.7486 92.4568 15.9793C92.4088 16.0081 92.3511 15.9889 92.3223 15.9456C92.3079 15.912 92.3079 15.8831 92.3127 15.8591Z" fill="#444359"/>
<path d="M93.7209 17.3876C93.5286 17.7818 93.2018 18.123 92.7788 18.3297C92.3607 18.5459 91.8416 18.5892 91.3802 18.4546C90.9092 18.3249 90.5439 18.0173 90.2315 17.7C90.0921 17.527 89.9528 17.3492 89.8374 17.1665C89.7365 16.9695 89.6307 16.7772 89.5538 16.5754C89.7317 16.71 89.8855 16.8541 90.0393 16.9983L90.5151 17.3924C90.8515 17.6135 91.1687 17.8538 91.534 17.9404C91.8849 18.0509 92.2598 18.0461 92.6298 17.9452C92.9951 17.8394 93.3604 17.6328 93.7209 17.3876Z" fill="#444359"/>
<path d="M88.6887 11.1058C88.8762 11.6634 88.9819 12.2401 88.9434 12.8601C88.9194 13.1629 88.8473 13.4945 88.6214 13.7877C88.3907 14.0857 88.0014 14.2155 87.6602 14.2059C87.3093 14.2011 86.9633 14.0473 86.7277 13.831C86.4826 13.6147 86.2904 13.3648 86.1462 13.1004C85.8578 12.5669 85.6752 12.0094 85.5839 11.423C85.5694 11.3317 85.6319 11.2452 85.7232 11.226C85.8098 11.2116 85.8867 11.2644 85.9107 11.3413L85.9155 11.3509C86.0789 11.87 86.2952 12.3939 86.574 12.8457C86.8527 13.2831 87.2324 13.6868 87.6794 13.6724C87.9005 13.682 88.1072 13.6243 88.2321 13.4657C88.3715 13.3119 88.4388 13.062 88.4772 12.8072C88.5493 12.293 88.5013 11.7258 88.4148 11.1827V11.1731C88.4003 11.0962 88.458 11.0193 88.5349 11.0097C88.5974 11.0001 88.6647 11.0433 88.6887 11.1058Z" fill="#444359"/>
<path d="M95.6675 10.0148C95.8261 10.4858 95.9126 10.9664 95.903 11.4807C95.8982 11.7354 95.8501 12.0142 95.6867 12.2785C95.5281 12.5573 95.1724 12.7303 94.8648 12.7159C94.5428 12.7111 94.2496 12.5429 94.0622 12.3458C93.8699 12.144 93.7209 11.9277 93.6104 11.697C93.3941 11.2356 93.2595 10.7646 93.1923 10.2695C93.1778 10.1782 93.2451 10.0917 93.3413 10.0773C93.423 10.0677 93.4999 10.1157 93.5239 10.1926L93.5287 10.2022C93.6681 10.6348 93.8363 11.077 94.0526 11.4615C94.2689 11.8364 94.562 12.1968 94.8841 12.1776C95.0475 12.1824 95.1772 12.1344 95.2638 11.9998C95.3599 11.8652 95.4079 11.6585 95.4368 11.4423C95.4848 11.0097 95.4464 10.5339 95.3935 10.0821V10.0725C95.3839 9.99557 95.4416 9.92348 95.5185 9.90906C95.581 9.90906 95.6483 9.95231 95.6675 10.0148Z" fill="#444359"/>
<path d="M100.858 34.8968C100.815 31.965 91.3082 29.6195 91.3082 29.6195C90.7122 30.278 89.6885 31.3882 85.3773 31.3882C81.2535 31.3882 79.6049 30.3212 78.9609 29.6195H74.8804C73.972 29.6195 73.1405 30.1386 72.7608 30.9653C64.5853 48.8494 69.1801 68.8242 71.0642 78.6434C71.2372 79.547 88.2995 78.9366 95.9943 79.547C97.6573 79.6864 101.022 45.5523 100.858 34.8968Z" fill="#6BA5C0"/>
<path d="M81.0035 60.1874C81.8494 53.3528 82.8827 49.2531 83.6758 50.5989C84.3775 51.7908 83.9882 57.7698 82.9356 63.5373C82.9404 63.5373 80.643 63.1144 81.0035 60.1874Z" fill="#FEBBA0"/>
<path d="M86.5884 60.1874C85.7425 53.3528 84.7092 49.2531 83.9162 50.5989C83.2144 51.7908 83.6037 57.7698 84.6563 63.5373C84.6515 63.5373 86.9489 63.1144 86.5884 60.1874Z" fill="#FEBBA0"/>
<path d="M114.763 58.4909H104.021L105.727 69.4011L86.2329 59.8895C86.1656 59.1589 86.0743 58.2554 85.9637 57.2989C85.2284 57.2989 84.4882 57.2989 83.7528 57.2893C83.7576 58.1208 83.7721 58.6831 83.7721 58.6831C83.7721 58.6831 83.3924 63.7009 84.2623 65.3734C85.9156 68.5552 102.829 78.8022 107.525 80.0181C107.818 80.095 108.111 80.1527 108.404 80.1912C112.936 80.8304 115.94 78.2879 115.907 73.7123L114.763 58.4909Z" fill="#FEBBA0"/>
<path d="M81.4362 57.2507C81.268 58.3273 81.119 59.3655 81.0036 60.1874L62.0717 68.954L62.8696 58.4956H52.1276L50.9885 73.7266C50.9596 78.3022 53.9636 80.8399 58.4911 80.2055C58.7842 80.1622 59.0774 80.1045 59.3706 80.0324C64.0663 78.8164 79.7972 70.3142 83.1568 65.3541C84.1517 63.8882 83.6807 58.9522 83.6807 58.9522C83.6807 58.9522 83.6807 58.2697 83.6615 57.2988C82.9213 57.2844 82.1811 57.27 81.4362 57.2507Z" fill="#FEBBA0"/>
<path d="M65.6187 64.4607C69.8193 52.0365 69.7857 52.0269 74.9428 29.6249C71.4919 29.8604 71.1363 29.2981 68.4159 30.7111C60.2549 34.9502 52.5697 48.874 50.3059 64.4607H65.6187Z" fill="#6BA5C0"/>
<path d="M103.021 63.2344C100.551 54.4342 91.3082 29.6242 91.3082 29.6242C100.551 29.3118 113.162 41.3611 116.181 61.6243L103.021 63.2344Z" fill="#6BA5C0"/>
</svg>
