<svg width="142" height="126" viewBox="0 0 142 126" fill="none" xmlns="http://www.w3.org/2000/svg">
<path d="M99.7411 55.8213C99.8156 55.5849 98.4773 56.1346 98.4874 55.852C98.5233 54.8916 98.2578 53.8536 98.0892 52.9138C97.7607 51.079 97.4004 49.2489 97.015 47.4248C96.5707 45.3221 96.1087 43.2242 95.6617 41.1229C95.277 39.3128 94.8679 37.492 94.3972 35.7013C94.0104 34.2278 93.5451 32.7965 92.8854 31.4179C92.6064 30.8354 92.3923 30.1401 91.8573 29.726C91.2829 29.2818 90.5081 29.388 89.8247 29.3406C86.9542 29.1409 85.9674 31.0652 86.3623 34.1056C86.7057 36.7499 91.6866 58.4082 94.2644 59.4155C96.0248 60.1041 99.2183 57.4811 99.7411 55.8213Z" fill="#EAB197"/>
<path d="M117.419 52.8694C114.208 53.739 104.191 58.4399 100.934 59.2548C98.7237 59.8085 95.6006 60.9614 93.7679 58.9723C92.7045 57.8181 92.8494 55.9031 93.671 54.6808C94.7567 53.0657 94.1383 54.1678 95.8912 53.7537C99.8426 52.8193 106.83 52.8166 114.667 50.6432C115.481 50.4174 119.936 52.1881 117.419 52.8694Z" fill="#EAB197"/>
<path d="M115.817 47.1009C115.717 46.849 115.65 46.5772 115.66 46.306C115.681 45.7683 115.87 45.1926 116.338 44.8726C116.573 44.7117 116.955 44.6956 117.035 45.0323C117.1 45.3061 116.921 45.5559 116.842 45.8064C116.722 46.1885 116.71 46.6553 116.901 47.0167C117.035 47.2725 117.27 47.4615 117.549 47.5457C117.839 47.6325 118.159 47.6098 118.438 47.4989C118.723 47.3854 118.961 47.1783 119.11 46.9132C119.265 46.6373 119.327 46.3087 119.289 45.9961C119.252 45.6915 119.111 45.399 118.851 45.2193C118.576 45.0289 118.229 44.9922 117.903 44.9848C117.744 44.9815 117.583 44.9908 117.424 44.9808C117.308 44.9735 117.158 44.9641 117.066 44.886C116.949 44.7865 116.951 44.6235 116.981 44.4892C117.044 44.198 117.44 44.0357 117.694 43.9656C118.093 43.8554 118.507 43.9302 118.872 44.1125C119.07 44.2107 119.269 44.3423 119.43 44.4912C119.652 44.695 119.859 44.9655 120.012 45.2226C120.145 45.445 120.227 45.6882 120.253 45.9447C120.301 46.4302 120.215 46.978 119.961 47.4008C119.815 47.6419 119.602 47.877 119.377 48.0493C119.179 48.2003 118.925 48.3272 118.691 48.4107C118.46 48.4942 118.216 48.5276 117.971 48.5236C117.056 48.5115 116.154 47.9531 115.817 47.1009Z" fill="#EAB197"/>
<path d="M116.474 47.9777C116.474 47.9777 117.357 50.2701 111.692 51.3802L115.415 53.1923C117.147 53.0166 118.838 52.5704 120.463 51.9606C120.926 51.7863 121.384 51.5993 121.837 51.4015C122.911 50.9333 124.032 50.4544 124.898 49.6469C125.024 49.5293 125.962 48.6156 125.405 48.5442C124.944 48.4854 124.55 48.7499 124.185 48.989C123.307 49.5647 122.078 50.1499 121.007 49.7438C122.401 49.333 123.797 48.655 124.786 47.579C125.194 47.1362 125.545 46.6492 125.853 46.1343C126.028 45.8417 126.234 45.4911 126.145 45.1377C126.067 44.8305 125.762 44.8158 125.508 44.9046C125.094 45.0496 124.886 45.4977 124.611 45.8043C124.236 46.2218 123.779 46.5617 123.331 46.8977C122.915 47.2083 122.487 47.5055 122.023 47.7433C121.76 47.8776 121.486 47.9924 121.202 48.0759C120.865 48.1748 120.522 48.1948 120.174 48.1955C120.678 48.0205 121.158 47.8094 121.634 47.569C122.706 47.0273 123.791 46.3066 124.561 45.3822C124.84 45.0476 125.074 44.6541 125.177 44.2293C125.232 44.0036 125.346 43.7698 125.188 43.5574C125.019 43.3296 124.693 43.3336 124.455 43.4372C124.151 43.5701 123.982 43.8667 123.775 44.1064C123.109 44.8806 122.082 45.7382 121.192 46.2391C120.74 46.4936 118.675 47.8462 118.019 47.7286L116.474 47.9777Z" fill="#EAB197"/>
<path d="M51.8193 55.7379C51.7448 55.5015 53.0831 56.0512 53.073 55.7686C53.0371 54.8082 53.3033 53.7702 53.4712 52.8304C53.7997 50.9956 54.1601 49.1655 54.5455 47.3414C54.9898 45.2394 55.4517 43.1415 55.8987 41.0395C56.2834 39.2294 56.6925 37.4086 57.1633 35.6186C57.55 34.1451 58.0153 32.7138 58.675 31.3352C58.9541 30.7527 59.1681 30.0574 59.7032 29.644C60.2775 29.1998 61.0524 29.306 61.7358 29.2586C64.6062 29.0589 65.5931 30.9832 65.1982 34.0236C64.8548 36.6679 59.8739 58.3261 57.296 59.3334C55.5357 60.0207 52.3428 57.3984 51.8193 55.7379Z" fill="#EAB197"/>
<path d="M34.1413 52.7862C37.3531 53.6559 47.3698 58.3561 50.6263 59.1716C52.837 59.7253 55.9601 60.8781 57.7929 58.8891C58.8563 57.7349 58.7113 55.8199 57.8898 54.5976C56.804 52.9819 57.4224 54.0847 55.6695 53.6706C51.7181 52.7361 44.731 52.7335 36.8938 50.56C36.0797 50.3343 31.6251 52.1049 34.1413 52.7862Z" fill="#EAB197"/>
<path d="M35.7434 47.0159C35.843 46.7647 35.91 46.4922 35.8999 46.221C35.8789 45.684 35.6906 45.1076 35.2226 44.7877C34.9869 44.626 34.6055 44.6107 34.5256 44.9473C34.4606 45.2211 34.6394 45.471 34.718 45.7214C34.8379 46.1035 34.85 46.5704 34.6597 46.9317C34.5249 47.1875 34.2906 47.3766 34.0109 47.4607C33.721 47.5476 33.4013 47.5249 33.1222 47.414C32.8371 47.3004 32.5993 47.0934 32.4503 46.8282C32.2952 46.5523 32.2336 46.2237 32.2715 45.9111C32.3088 45.6065 32.4497 45.3147 32.7091 45.1343C32.9841 44.944 33.3308 44.9072 33.6573 44.8999C33.8165 44.8965 33.977 44.9059 34.1362 44.8959C34.2527 44.8885 34.4023 44.8792 34.4945 44.801C34.6116 44.7022 34.6096 44.5385 34.5798 44.4043C34.5161 44.113 34.1199 43.9507 33.8666 43.8806C33.467 43.7704 33.0531 43.8452 32.6881 44.0275C32.4903 44.1264 32.2918 44.2573 32.13 44.4063C31.9085 44.61 31.7012 44.8805 31.5482 45.1377C31.4154 45.3601 31.3335 45.6032 31.3077 45.8604C31.2596 46.3459 31.345 46.8937 31.5996 47.3165C31.7453 47.5576 31.9586 47.7927 32.1835 47.965C32.3813 48.1166 32.6352 48.2429 32.8696 48.3264C33.1006 48.4092 33.3444 48.4433 33.5896 48.4393C34.5046 48.4266 35.4061 47.8682 35.7434 47.0159Z" fill="#EAB197"/>
<path d="M35.086 47.894C35.086 47.894 34.2035 50.1863 39.8679 51.2964L36.1454 53.1085C34.4135 52.9329 32.7222 52.4867 31.0974 51.8769C30.6341 51.7025 30.1762 51.5155 29.7231 51.3178C28.6489 50.8496 27.5286 50.3707 26.6623 49.5631C26.5364 49.4456 25.5983 48.5312 26.155 48.4604C26.617 48.4016 27.0098 48.6661 27.3749 48.9052C28.2533 49.481 29.482 50.0661 30.5528 49.66C29.1589 49.2492 27.763 48.5713 26.7741 47.4952C26.3664 47.0524 26.0148 46.5655 25.7073 46.0505C25.5319 45.7579 25.3267 45.4073 25.4154 45.0539C25.4933 44.7467 25.7981 44.732 26.0521 44.8208C26.4666 44.9658 26.6739 45.414 26.9495 45.7205C27.3247 46.138 27.7813 46.478 28.2296 46.8139C28.6448 47.1245 29.0736 47.4218 29.5375 47.6595C29.8003 47.7938 30.0746 47.9087 30.3584 47.9922C30.695 48.091 31.0378 48.1111 31.3866 48.1124C30.8827 47.9381 30.4018 47.7263 29.9263 47.4859C28.8541 46.9442 27.7704 46.2235 26.999 45.2991C26.7199 44.9644 26.4862 44.571 26.3833 44.1462C26.3284 43.9205 26.214 43.6867 26.3718 43.4743C26.5411 43.2465 26.8676 43.2505 27.1053 43.354C27.4094 43.487 27.5787 43.7835 27.7853 44.0226C28.4511 44.7968 29.4779 45.6544 30.3686 46.1554C30.821 46.4098 32.8855 47.7624 33.5411 47.6448L35.086 47.894Z" fill="#EAB197"/>
<path d="M65.5759 29.3101H87.7794C87.7794 29.3101 84.4261 35.3909 75.8879 35.447C75.8879 35.4463 65.1635 32.9102 65.5759 29.3101Z" fill="#EAB197"/>
<path d="M88.7123 55.3591L92.1327 30.3612C92.1327 29.7808 91.6084 29.3112 90.9616 29.3112H87.0136C87.0176 29.358 82.2182 33.7336 76.2951 33.7336C70.3721 33.7336 65.5726 29.3587 65.5767 29.3112C65.5767 29.3112 62.7415 29.0955 60.2917 29.3333L64.8818 55.3598L58.5984 69.8699C78.8947 80.8753 93.9926 70.1978 93.9926 69.6181L88.7123 55.3591Z" fill="#96C9D9"/>
<path d="M60.2829 65.978C60.2829 65.978 76.3697 75.7572 92.6441 65.978C92.6441 65.978 97.1956 73.1516 97.5356 80.7065C97.5356 80.7065 82.2982 84.316 54.9735 80.7065C54.9742 80.7065 56.3979 71.5639 60.2829 65.978Z" fill="#373737"/>
<path d="M30.7518 85.7931C40.5755 86.1124 50.4175 84.4472 60.2439 84.2308C63.1922 84.166 66.4602 83.7118 68.6479 81.5644C70.9176 79.3369 70.245 72.6362 67.9131 70.4708C62.624 65.5595 57.1526 67.8191 50.8036 69.1215C45.2178 70.2677 31.6012 74.7068 31.549 75.022L30.7518 85.7931Z" fill="#373737"/>
<path d="M116.347 85.8336C106.524 86.1528 99.0835 84.7856 89.2565 84.5692C86.3088 84.5044 83.0401 84.0502 80.8524 81.9028C78.5828 79.6753 81.7316 73.3019 84.0635 71.1365C89.3526 66.2252 93.3941 67.903 99.7439 69.2055C105.33 70.3516 115.071 73.5711 114.645 74.1442L116.347 85.8336Z" fill="#373737"/>
<path d="M79.7111 20.3948H73.2388V30.713H79.7111V20.3948Z" fill="#EAB197"/>
<path d="M74.6671 24.4341C74.6671 24.4341 77.266 25.1214 79.7104 23.8737V25.0652C79.7104 25.0646 77.1339 25.7539 74.6671 24.4341Z" fill="#E3CABA"/>
<path d="M79.6434 23.6522V29.2882H79.7789V23.6522" fill="#333242"/>
<path d="M76.1764 3.67919C76.2678 2.30926 76.1493 1.0048 74.5163 0.59068C72.9741 0.199273 71.0972 0.429041 69.8761 1.49238C69.5469 1.77893 69.2252 2.14362 68.8289 2.34667C67.9478 2.79752 66.8702 2.53435 65.9924 3.04398C64.9053 3.67451 64.3262 4.82001 63.3197 5.54071C62.4128 6.1906 61.3088 6.47781 60.2325 6.7363C59.1414 6.9988 58.0834 7.58925 57.6574 8.64591C57.2639 9.62242 57.587 10.7272 57.1596 11.6903C56.7769 12.554 55.8998 13.0402 55.213 13.6507C53.4303 15.2357 54.1632 17.5601 55.6824 18.9754C57.0465 20.2465 56.8819 22.1181 58.9348 22.8167C61.1916 23.5848 63.6042 22.6016 65.8427 23.6169C66.8756 24.0851 67.752 24.4812 68.9143 24.2628C70.5412 23.9575 71.8958 23.6202 73.5653 23.7318C74.8014 23.8139 76.1974 23.701 76.7216 22.4433C77.8832 19.6581 76.3965 16.4019 76.4243 13.5458C76.4371 12.2561 76.7792 10.9843 76.6552 9.69189C76.534 8.42683 76.1554 7.19784 76.0565 5.92744C76.005 5.25817 76.1242 4.45799 76.1764 3.67919Z" fill="#565D70"/>
<path d="M74.903 3.77881C74.5955 2.44028 74.5048 1.13314 76.051 0.471891C77.512 -0.153291 79.4017 -0.216745 80.778 0.644216C81.1485 0.876656 81.5237 1.18724 81.947 1.3255C82.8891 1.63409 83.9119 1.20795 84.8594 1.57531C86.0332 2.0295 86.7877 3.07147 87.8958 3.62719C88.8948 4.1288 90.0307 4.24169 91.1347 4.33052C92.2543 4.42069 93.3928 4.84015 93.9821 5.818C94.5259 6.72104 94.383 7.86253 94.9581 8.74754C95.4735 9.54104 96.4177 9.88569 97.1925 10.3826C99.2055 11.6724 98.8519 14.081 97.5759 15.714C96.4305 17.1801 96.8911 19.0029 94.975 20.0108C92.8686 21.1189 90.3294 20.5205 88.2798 21.8697C87.3343 22.4922 86.5317 23.0185 85.3491 22.9831C83.6938 22.9337 82.3026 22.8101 80.671 23.1782C79.4633 23.4507 78.0667 23.5549 77.3488 22.394C75.7585 19.8231 76.7087 16.3766 76.2265 13.5606C76.0091 12.2889 75.4686 11.086 75.3853 9.79018C75.304 8.52178 75.4828 7.24937 75.3778 5.97964C75.3236 5.31104 75.0784 4.54025 74.903 3.77881Z" fill="#565D70"/>
<path d="M85.564 14.2434C85.417 16.9459 84.4505 19.4673 82.9936 21.3542C81.5272 23.2425 79.5698 24.4968 77.2175 24.6785C74.8652 24.8629 72.7323 23.9271 70.9835 22.2893C69.2442 20.6509 67.8889 18.3105 67.3132 15.6641C66.7591 13.0171 67.3423 10.4997 68.8507 8.48388C70.3468 6.48477 72.7682 4.9866 75.6238 4.7722C78.4779 4.54243 81.1079 5.64718 82.9035 7.38981C84.7139 9.1478 85.69 11.5437 85.564 14.2434Z" fill="#EAB197"/>
<path d="M69.1414 17.6605C69.0696 17.3266 68.9545 17.0006 68.8271 16.684C68.7255 16.4329 68.6002 16.1918 68.5088 15.9373C68.3869 15.5993 68.2812 15.25 68.0814 14.9467C67.9656 14.7711 67.8315 14.6141 67.6541 14.4966C67.4949 14.391 67.3168 14.3429 67.1319 14.3069C66.804 14.2427 66.4308 14.2561 66.1288 14.4091C66.0861 14.4304 66.0455 14.4558 66.0068 14.4839C65.9919 14.4912 65.977 14.4986 65.9621 14.5066C65.5754 14.7143 65.3316 15.1358 65.3465 15.5699C65.3634 16.0548 65.6181 16.4729 65.8077 16.9064C66.0211 17.3947 66.1782 17.903 66.4214 18.3792C66.6774 18.8815 67.0594 19.4719 67.6493 19.6222C67.9731 19.7044 68.3192 19.6523 68.6077 19.486C68.9342 19.2976 69.115 18.9924 69.1868 18.6337C69.2505 18.3151 69.2091 17.9758 69.1414 17.6605Z" fill="#EAB197"/>
<path d="M84.1883 17.4667C84.3163 17.81 84.5432 18.0832 84.8954 18.2188C85.2069 18.3384 85.5571 18.337 85.8632 18.2054C86.422 17.9657 86.7051 17.3231 86.8785 16.7874C87.0424 16.2791 87.1169 15.7528 87.2503 15.2378C87.3689 14.7796 87.5538 14.3281 87.4935 13.8465C87.4386 13.4157 87.1311 13.037 86.716 12.8921C86.6997 12.8867 86.6841 12.8814 86.6679 12.8767C86.6252 12.8547 86.5812 12.836 86.5351 12.8213C86.2127 12.7164 85.8422 12.7611 85.5286 12.8754C85.3512 12.9402 85.1832 13.015 85.043 13.1439C84.8866 13.2875 84.7782 13.4631 84.6922 13.6548C84.5432 13.9855 84.4944 14.3468 84.428 14.6988C84.3779 14.9646 84.2919 15.2218 84.2323 15.4856C84.1571 15.8183 84.0948 16.1576 84.0772 16.4982C84.0609 16.8195 84.0745 17.1615 84.1883 17.4667Z" fill="#EAB197"/>
<path d="M73.9768 13.6867C73.8149 13.6473 73.6639 13.5772 73.5074 13.5231L73.5128 13.511C73.5467 13.4289 73.5785 13.3334 73.5691 13.2425C73.5603 13.1584 73.502 13.0522 73.4153 13.0368C73.3943 13.0328 73.372 13.0348 73.3476 13.0435C73.2324 13.0836 73.204 13.2759 73.1728 13.3741C73.1214 13.5364 73.0232 13.6767 72.9046 13.7989C72.57 14.1429 72.0336 14.1937 71.5927 14.0501C71.1755 13.9145 70.7007 13.6453 70.7359 13.147C70.7515 12.9293 70.4081 12.9233 70.3925 13.1403C70.3722 13.4302 70.5138 13.7214 70.719 13.9378C70.5835 14.0982 70.4067 14.2137 70.2069 14.2878C70.0945 14.3299 70.1392 14.5109 70.2537 14.4688C70.49 14.3814 70.6966 14.2504 70.8571 14.0648C70.9127 14.1088 70.9702 14.1476 71.0292 14.1796C71.1071 14.2224 71.1883 14.2611 71.2717 14.2952C71.2175 14.4762 71.1843 14.6639 71.101 14.8342C71.0481 14.9417 71.2087 15.0393 71.2622 14.9317C71.3509 14.7494 71.3827 14.5497 71.443 14.3586C71.6855 14.4375 71.9395 14.4755 72.186 14.4615C72.2057 14.6405 72.2307 14.8188 72.2551 14.9972C72.272 15.1161 72.4549 15.0693 72.438 14.9511C72.4143 14.7814 72.3899 14.6111 72.3723 14.4408C72.5748 14.4067 72.7685 14.3326 72.9419 14.2137C73.0855 14.3393 73.2338 14.4588 73.4065 14.5457C73.5149 14.5998 73.6138 14.4415 73.5047 14.3867C73.351 14.3092 73.2189 14.2064 73.0902 14.0955C73.1322 14.0574 73.1728 14.0153 73.2115 13.9699C73.286 13.8831 73.3584 13.7896 73.4194 13.69C73.588 13.7448 73.7486 13.823 73.9226 13.865C74.0411 13.8938 74.0953 13.7154 73.9768 13.6867Z" fill="#333242"/>
<path d="M69.8789 11.4425C69.9765 11.3717 70.0835 11.3122 70.1892 11.2561C70.2013 11.2501 70.2135 11.2434 70.2257 11.2367C70.1986 11.2508 70.242 11.2294 70.2427 11.2281C70.2704 11.2147 70.2975 11.2013 70.326 11.188C70.393 11.1566 70.4601 11.1272 70.5292 11.0998C70.6816 11.0384 70.8394 10.9869 70.9985 10.9449C71.8641 10.7178 72.7711 10.8774 73.5073 11.379C73.5947 11.4385 73.678 11.5026 73.7606 11.5687C73.9089 11.6889 74.1033 11.4652 73.9543 11.3449C73.1984 10.7338 72.2556 10.4379 71.2837 10.5875C70.7452 10.6697 70.2108 10.87 69.7564 11.1679C69.7401 11.1786 69.7245 11.1893 69.7089 11.2C69.5545 11.3129 69.7238 11.5547 69.8789 11.4425Z" fill="#333242"/>
<path d="M78.6689 13.3207C78.8227 13.2566 78.9602 13.1637 79.1065 13.0862L79.0997 13.0756C79.0523 12.9994 79.0062 12.9106 79.0015 12.8191C78.9968 12.7349 79.0374 12.6207 79.1207 12.592C79.1403 12.5853 79.1634 12.5833 79.1884 12.588C79.3083 12.61 79.3672 12.7957 79.414 12.8872C79.4912 13.0395 79.6104 13.1631 79.7472 13.2659C80.1319 13.5538 80.6711 13.5204 81.0829 13.3107C81.473 13.1123 81.8998 12.773 81.7853 12.2861C81.7358 12.073 82.0738 12.0142 82.1233 12.226C82.1896 12.5092 82.0962 12.8191 81.9275 13.0642C82.0867 13.2018 82.2797 13.288 82.489 13.3307C82.6069 13.3548 82.5913 13.5404 82.4714 13.5164C82.2242 13.4663 81.9993 13.3695 81.811 13.2105C81.7636 13.2626 81.7128 13.31 81.66 13.3508C81.5895 13.4055 81.5157 13.4556 81.4392 13.5024C81.5211 13.6727 81.5834 13.853 81.6932 14.0087C81.7623 14.1062 81.6187 14.2277 81.5496 14.1296C81.4331 13.9632 81.3694 13.7702 81.28 13.5912C81.0531 13.7061 80.8079 13.7836 80.562 13.8083C80.5715 13.988 80.5749 14.1676 80.579 14.348C80.5817 14.4675 80.3934 14.4495 80.3907 14.3313C80.3866 14.1596 80.3839 13.988 80.3744 13.817C80.1692 13.8143 79.966 13.7716 79.7757 13.6807C79.6537 13.827 79.5264 13.9686 79.37 14.0801C79.2717 14.1503 79.1485 14.0093 79.2474 13.9385C79.3869 13.8383 79.5014 13.7161 79.6104 13.5872C79.563 13.5558 79.5156 13.5211 79.4702 13.4823C79.3828 13.4082 79.2961 13.3267 79.2203 13.2379C79.0624 13.318 78.9155 13.4202 78.7516 13.4883C78.6384 13.5351 78.5565 13.3675 78.6689 13.3207Z" fill="#333242"/>
<path d="M82.3582 10.4704C82.2512 10.4156 82.136 10.3736 82.0222 10.3342C82.0094 10.3295 81.9958 10.3255 81.9829 10.3208C82.0121 10.3302 81.966 10.3155 81.9647 10.3155C81.9355 10.3061 81.9057 10.2974 81.8766 10.2887C81.8055 10.268 81.7337 10.25 81.6619 10.2333C81.5014 10.1959 81.3381 10.1698 81.1735 10.1531C80.2829 10.0623 79.4125 10.3609 78.765 10.97C78.6878 11.0422 78.6153 11.119 78.5449 11.1965C78.4175 11.3381 78.19 11.1477 78.318 11.0054C78.9675 10.2847 79.8514 9.84724 80.8356 9.8439C81.3801 9.84189 81.9396 9.95678 82.4361 10.1805C82.4537 10.1886 82.4706 10.1966 82.4875 10.2052C82.6582 10.2927 82.5295 10.5579 82.3582 10.4704Z" fill="#333242"/>
<path d="M74.7894 20.2894C75.1287 20.5539 75.5378 20.7503 75.9462 20.8832C76.7366 21.1403 77.5867 21.0816 78.2768 20.598C78.5241 20.4243 78.7374 20.2046 78.9223 19.9681C79.0395 19.8185 78.8133 19.6261 78.6954 19.7771C78.394 20.1638 78.0174 20.4838 77.544 20.6434C77.1816 20.7663 76.7908 20.7703 76.4163 20.7015C76.0952 20.6427 75.7877 20.5265 75.4979 20.3802C75.3888 20.3248 75.2818 20.2647 75.1782 20.1999C75.168 20.1939 75.1578 20.1872 75.1484 20.1812C75.1158 20.1605 75.1741 20.1979 75.1436 20.1778C75.1274 20.1672 75.1104 20.1565 75.0948 20.1451C75.0691 20.1277 75.044 20.1097 75.0183 20.0917C75.0061 20.083 74.9953 20.075 74.9831 20.0656C74.8321 19.9481 74.6377 20.1718 74.7894 20.2894Z" fill="#333242"/>
<path d="M66.4273 17.0677C66.6813 17.9681 67.4094 18.9253 68.464 18.6C68.6015 18.5572 68.525 18.3502 68.3882 18.3929C67.4589 18.6795 66.8554 17.7624 66.638 16.9923C66.5987 16.8553 66.3887 16.9315 66.4273 17.0677Z" fill="#333242"/>
<path d="M86.3102 15.4614C86.2188 16.2549 85.7684 17.2541 84.8046 17.1152C84.6623 17.0945 84.6197 17.3109 84.7626 17.3316C85.8558 17.4899 86.422 16.4319 86.5297 15.5028C86.5466 15.3619 86.3272 15.3198 86.3102 15.4614Z" fill="#333242"/>
<path d="M87.4337 11.136C87.2678 10.8194 87.0741 10.5202 86.8668 10.2283C86.543 9.77144 86.1841 9.34196 85.8319 8.90647C85.1715 8.09093 84.5403 7.25201 83.8203 6.48523C83.0312 5.64364 82.1101 4.92895 81.0677 4.41598C80.0687 3.92439 78.9701 3.64519 77.8566 3.58374C77.5708 3.56771 77.2802 3.55569 76.9944 3.57506C76.7431 3.59242 76.4918 3.59777 76.2453 3.6492C76.0969 3.67992 75.9472 3.72468 75.8131 3.79548C75.7332 3.75674 75.6391 3.74271 75.5517 3.73269C75.3614 3.70931 75.1677 3.7033 74.976 3.69863C74.6082 3.68927 74.2425 3.70531 73.8747 3.72134C73.2732 3.74738 72.6691 3.7721 72.0751 3.87429C71.4879 3.97515 70.9413 4.17152 70.4164 4.44804C69.4519 4.95634 68.6364 5.75251 68.0383 6.65021C67.7119 7.14047 67.4518 7.65544 67.2845 8.21917C67.1971 8.51373 67.1301 8.81296 67.0386 9.10552C66.9628 9.34864 66.8822 9.57908 66.7989 9.81886C66.5896 10.4233 66.3424 11.0712 66.3884 11.7211C66.4135 12.0718 66.5422 12.4418 66.6282 12.7811C66.7061 13.0877 66.7352 14.2586 67.1775 14.3047C67.7329 14.3615 67.7308 13.4885 67.7891 13.1492C67.9022 12.4852 68.1128 11.8594 68.4264 11.2609C68.803 10.5416 69.1931 9.79281 69.9707 9.42746C70.4814 9.187 71.0584 9.06811 71.4838 8.67804C71.9132 8.28396 72.1272 7.72491 72.4693 7.2647C72.9542 6.61414 73.8225 6.53465 74.5168 6.21338C74.9266 6.02302 75.2862 5.74316 75.5253 5.36578C75.4352 5.50805 75.8504 6.09182 75.9378 6.19802C76.1328 6.43513 76.378 6.59944 76.6577 6.72568C77.2755 7.00621 77.9866 7.0169 78.5948 7.3188C79.3832 7.71021 79.879 8.51707 80.7277 8.8143C81.535 9.09683 82.5158 9.02002 83.0651 9.78747C83.8149 10.8355 84.6642 12.1486 84.7089 13.4744C84.7143 13.6321 84.5734 14.3501 84.9365 14.2232C85.4099 14.0575 85.7486 13.1578 85.9606 12.7738C86.5302 11.7398 87.7866 13.1057 87.7067 11.9409C87.6877 11.6577 87.5624 11.3838 87.4337 11.136Z" fill="#6B748B"/>
<path d="M76.3895 4.2124C77.6784 4.25381 78.0665 5.49082 79.113 5.96104C80.66 6.65636 82.9188 5.20361 84.1847 6.75053C85.4946 8.34021 85.0008 9.86509 87.6687 9.7315C89.4284 9.62864 91.2185 10.01 92.4912 11.2778C90.2337 9.25727 86.2213 11.1128 84.7347 8.4611C84.1698 7.46856 84.207 6.78994 83.0576 6.29567C81.8893 5.79272 80.5658 6.58222 79.3582 6.18881C78.1207 5.81877 77.7983 4.32729 76.3895 4.2124Z" fill="#9099B9"/>
<path d="M74.1954 2.58739C71.9996 1.87338 71.1963 4.81627 69.3757 5.41741C68.6307 5.64317 67.7 5.16694 67.0762 5.57437C65.7819 6.97502 67.3147 6.94563 64.8405 7.49601C64.5838 7.55345 63.9227 7.67568 63.6762 7.92081C63.4675 8.12787 63.3124 8.28216 63.2379 8.59007C63.154 8.95877 63.1966 9.40428 62.9162 9.70618C62.8776 9.74626 61.9355 10.1624 61.9226 10.0068C61.9382 10.2058 62.9731 9.6267 63.0375 9.30142C63.1546 8.75639 63.074 8.19733 63.5847 7.82129C64.3724 7.24954 65.7128 7.47062 66.3928 6.80604C66.7728 6.43467 66.4308 5.70929 66.976 5.40272C67.4596 5.07409 68.1193 5.33993 68.6327 5.37399C71.0243 5.4655 71.6217 1.61623 74.1954 2.58739Z" fill="#9099B9"/>
<path d="M67.1034 8.76465C65.8721 9.18544 65.7326 10.5734 64.6848 11.1719C63.9201 11.5953 62.6359 11.3121 62.0189 11.9727C61.3511 12.6881 62.2668 13.9144 61.4709 14.5629C60.6622 15.3464 59.1762 14.1782 58.358 15.0111C57.7308 15.6497 58.4 16.89 57.2134 17.1351C58.3878 16.8192 57.6557 15.5521 58.3086 14.8802C59.1058 14.0607 60.6243 15.1728 61.3511 14.412C62.1069 13.7895 61.1248 12.3214 62.0656 11.6902C63.5794 10.7845 64.5473 11.4925 65.6676 9.86606C66.0265 9.34508 66.4837 8.9343 67.1034 8.76465Z" fill="#9099B9"/>
<path d="M75.9232 2.93189C77.1959 1.78372 78.0134 2.92521 79.3572 3.18503C80.5743 3.42014 81.8619 2.88981 83.0194 3.43751C83.7746 3.79485 84.1464 4.64179 84.8569 5.07461C86.1248 5.83738 87.7016 5.32374 89.0352 5.88013C90.3573 6.46524 91.2466 7.70157 92.6107 8.21655C91.2737 7.79241 90.4183 6.60016 89.1456 6.08786C87.8032 5.52613 86.259 6.00169 84.947 5.35046C84.1363 4.94102 83.7488 4.07271 82.9733 3.62921C81.8896 3.08818 80.6678 3.52568 79.5082 3.35202C78.1285 3.14496 77.3002 1.78773 75.9232 2.93189Z" fill="#9099B9"/>
<path d="M88.9149 14.3691C90.7321 13.7146 90.2675 15.9929 91.4596 16.4945C92.1464 16.7363 92.8521 16.0163 93.5809 16.4731C94.0598 16.7737 94.2745 17.7529 94.4445 18.2478C94.2311 17.8103 93.9622 16.8532 93.4908 16.6C92.7823 16.2193 92.0299 16.9554 91.3573 16.6662C90.1483 16.1692 90.6719 13.9463 88.9149 14.3691Z" fill="#9099B9"/>
<path d="M79.0922 10.221L79.1095 10.1976C79.0762 10.2045 79.0422 10.2114 79.0074 10.219L78.9873 10.2445C79.0234 10.2362 79.0581 10.2286 79.0922 10.221Z" fill="#373737"/>
<path d="M68.7368 19.3994C70.0291 21.4854 71.8687 23.3242 74.1783 24.2806C71.7712 23.5339 69.8341 21.5989 68.7368 19.3994Z" fill="#333242"/>
<path d="M76.1112 33.7297C76.1112 33.7297 76.1579 33.7338 76.246 33.7371C76.334 33.7404 76.4634 33.7411 76.628 33.7384C76.7926 33.7358 76.9917 33.7244 77.22 33.705C77.4482 33.6857 77.7042 33.6529 77.9826 33.6129C78.261 33.5701 78.561 33.5153 78.8753 33.4452C79.1896 33.3731 79.5187 33.2896 79.856 33.1907C80.194 33.0952 80.5374 32.9777 80.8849 32.8541C81.0569 32.7873 81.2317 32.7238 81.4037 32.653C81.575 32.5802 81.7505 32.5128 81.9198 32.434C82.0912 32.3578 82.2632 32.285 82.4305 32.2029C82.5991 32.1234 82.7671 32.0439 82.9303 31.9584C83.0942 31.8749 83.2575 31.7921 83.4153 31.7039C83.5731 31.6164 83.7316 31.5336 83.8813 31.4428C84.0323 31.3533 84.182 31.2678 84.3263 31.1803C84.4699 31.0921 84.6107 31.0053 84.7482 30.9211C84.8837 30.8349 85.0137 30.7474 85.1404 30.6653C85.2034 30.6239 85.2657 30.5831 85.3267 30.5431C85.3863 30.501 85.4452 30.4602 85.5028 30.4202C85.6179 30.34 85.7283 30.2632 85.8333 30.1897C85.9383 30.1169 86.0351 30.0434 86.1279 29.9767C86.3128 29.8424 86.474 29.7255 86.602 29.6233C86.8621 29.4243 87.0111 29.3101 87.0111 29.3101C87.0111 29.3101 86.8682 29.4316 86.6183 29.6434C86.4943 29.7509 86.3379 29.8738 86.1584 30.0154C86.0683 30.0862 85.9742 30.163 85.8719 30.2405C85.7683 30.3166 85.6599 30.3968 85.5468 30.4803C85.4899 30.5217 85.4323 30.5644 85.3734 30.6078C85.3131 30.6493 85.2515 30.692 85.1892 30.7354C85.0639 30.8216 84.9358 30.9118 84.8017 31.0019C84.6663 31.0901 84.5268 31.1803 84.3845 31.2724C84.243 31.3653 84.0912 31.4501 83.9402 31.5416C83.7898 31.6338 83.632 31.7186 83.4735 31.8081C83.3157 31.8983 83.1525 31.9831 82.9879 32.0686C82.8247 32.1561 82.656 32.2376 82.4867 32.3191C82.3187 32.4032 82.146 32.4787 81.974 32.5562C81.8026 32.6343 81.6258 32.7011 81.4518 32.7733C81.2777 32.8434 81.1009 32.9062 80.9269 32.9716C80.576 33.0932 80.2286 33.2088 79.8872 33.3029C79.5472 33.4025 79.2126 33.4759 78.8943 33.5414C78.5759 33.6042 78.2725 33.6523 77.9914 33.6883C77.4292 33.7591 76.9558 33.7705 76.626 33.7651C76.2981 33.7578 76.1112 33.7297 76.1112 33.7297Z" fill="#333242"/>
<path d="M81.4356 83.449C82.6365 83.4163 83.8238 83.2266 85.024 83.1745C86.5249 83.1097 87.8443 83.4837 89.2667 83.8992C90.6558 84.3053 89.8065 82.037 89.3859 80.824C89.0743 79.9257 88.1789 79.5283 87.3032 79.3439C85.7203 79.0113 84.1022 78.7535 82.5681 78.2318C81.3828 77.8284 80.5165 76.7597 79.2452 76.5767C78.0829 76.409 76.6599 76.6548 76.051 77.7663C75.1854 79.3459 64.9161 77.1932 61.772 77.3241C55.2332 77.5959 58.6923 85.3486 58.6923 85.3486C58.8555 85.1135 79.6665 83.4517 81.0638 83.455C81.1877 83.4544 81.3117 83.4524 81.4356 83.449Z" fill="#EAB197"/>
<path d="M64.3436 77.4666C50.1682 76.3158 43.2915 73.3028 36.5245 73.5225C33.1475 73.6321 29.9743 75.364 27.8116 77.9202C24.8355 81.4368 26.0933 87.2498 30.3597 88.5956C32.8515 89.3818 48.5122 86.8617 64.5881 84.7217L64.3436 77.4666Z" fill="#9099B9"/>
<path d="M56.5062 94.1516C55.2322 94.8323 56.2373 90.5555 59.672 89.1743C61.1702 88.5718 62.6799 87.9433 64.0711 87.1197C65.146 86.4832 65.7691 85.2609 66.9747 84.8221C68.0767 84.4206 69.5207 84.3705 70.3497 85.3337C71.5282 86.7023 81.123 82.4997 84.2271 81.9854C90.6812 80.9167 88.9249 89.207 88.9249 89.207C88.7156 89.0099 68.0069 91.6329 66.6401 91.9221C66.5175 91.9475 57.8107 93.455 56.5062 94.1516Z" fill="#EAB197"/>
<path d="M81.7391 82.6514C95.3659 78.6318 101.461 74.2795 108.127 73.1126C111.454 72.5302 114.922 73.5769 117.575 75.6361C121.225 78.4688 121.215 84.4127 117.324 86.6002C115.051 87.8786 99.2002 88.61 83.0233 89.7982L81.7391 82.6514Z" fill="#9099B9"/>
<path d="M63.542 29.4902L69.6811 55.3585L66.8235 68.7438C66.8235 68.7438 61.59 67.1982 60.2821 65.9772L64.8803 55.3585L60.2902 29.3319C60.2902 29.3319 62.6615 28.9779 63.542 29.4902Z" fill="#96C9D9"/>
<path d="M75.3462 33.695C75.3462 33.695 70.4168 33.5694 65.5754 29.3101H67.9406C67.9406 29.3101 68.7066 31.9303 75.3462 33.695Z" fill="#E3CABA"/>
<path d="M63.2859 67.4539C63.2859 67.4539 63.6482 67.6242 64.3012 67.876C64.627 68.0036 65.0266 68.1485 65.4878 68.3048C65.6036 68.3436 65.7228 68.383 65.8454 68.4237C65.9687 68.4625 66.096 68.5025 66.2261 68.5439C66.4862 68.6281 66.7625 68.7069 67.0504 68.7924C67.6281 68.9547 68.2553 69.1257 68.9265 69.2753C69.2604 69.3562 69.6072 69.4236 69.9608 69.4984C70.1375 69.5358 70.3177 69.5652 70.4985 69.6006C70.6801 69.6334 70.8616 69.6721 71.0472 69.7002C71.4177 69.7596 71.7929 69.8257 72.1762 69.8738C72.3672 69.8992 72.5603 69.9253 72.7533 69.9513C72.947 69.9727 73.1421 69.9941 73.3378 70.0154C73.436 70.0261 73.5336 70.0368 73.6318 70.0475C73.73 70.0575 73.8289 70.0642 73.9278 70.0729C74.1255 70.0889 74.3233 70.1049 74.5224 70.121C74.7209 70.139 74.9207 70.1437 75.1198 70.1557C75.3196 70.165 75.5188 70.1777 75.7186 70.1851C75.9184 70.1898 76.1182 70.1951 76.318 70.1998C76.5178 70.2045 76.7176 70.2125 76.9167 70.2085C77.1159 70.2071 77.315 70.2058 77.5128 70.2044C77.6116 70.2031 77.7112 70.2038 77.8094 70.2018C77.9083 70.1978 78.0065 70.1938 78.1047 70.1898C78.4982 70.1731 78.889 70.1637 79.2731 70.129C79.4654 70.115 79.6571 70.1003 79.8468 70.0862L79.989 70.0755L80.1299 70.0602C80.224 70.0495 80.3175 70.0395 80.4103 70.0288C80.7828 69.9874 81.1499 69.9506 81.5068 69.8939C81.6857 69.8678 81.8624 69.8424 82.0365 69.817C82.1239 69.8044 82.2106 69.7917 82.2966 69.7783C82.3819 69.7623 82.4673 69.7469 82.5519 69.7309C82.8899 69.6668 83.2198 69.6113 83.5361 69.5452C83.8517 69.4737 84.1565 69.4049 84.4491 69.3388C84.5222 69.3214 84.5947 69.3067 84.6658 69.2887C84.7369 69.2693 84.8067 69.2506 84.8758 69.2319C85.0146 69.1945 85.1501 69.1585 85.2822 69.1231C85.4142 69.0876 85.5429 69.0536 85.6682 69.0202C85.7305 69.0035 85.7929 68.9875 85.8531 68.9701C85.9134 68.9514 85.9723 68.9334 86.0306 68.9147C86.2636 68.8418 86.481 68.7744 86.6828 68.7116C86.884 68.6488 87.0703 68.5934 87.2335 68.5313C87.8932 68.2961 88.2698 68.1612 88.2698 68.1612C88.2698 68.1612 87.8959 68.3048 87.2423 68.5553C87.0797 68.6208 86.8948 68.6795 86.6943 68.7463C86.4939 68.8131 86.2771 68.8853 86.0455 68.9621C85.9872 68.9814 85.929 69.0008 85.8687 69.0209C85.8084 69.0396 85.7468 69.0563 85.6845 69.0743C85.5599 69.1104 85.4312 69.1464 85.2998 69.1845C85.1677 69.2219 85.0329 69.26 84.8941 69.2994C84.825 69.3188 84.7545 69.3388 84.6841 69.3588C84.613 69.3782 84.5405 69.3936 84.4674 69.4116C84.1748 69.4811 83.87 69.5539 83.5543 69.6294C83.2374 69.6988 82.9075 69.7583 82.5695 69.8264C82.4849 69.8431 82.3995 69.8598 82.3142 69.8765C82.2282 69.8905 82.1408 69.9039 82.0534 69.9179C81.8787 69.9453 81.7012 69.9733 81.5224 70.0014C81.1655 70.0642 80.797 70.0989 80.4232 70.1437C80.3297 70.1544 80.2355 70.165 80.1414 70.1757L79.9998 70.1918L79.8569 70.2031C79.6666 70.2178 79.4742 70.2332 79.2812 70.2485C78.8951 70.2846 78.503 70.296 78.1081 70.314C78.0092 70.3187 77.9103 70.3227 77.8114 70.3274C77.7126 70.33 77.613 70.33 77.5134 70.3314C77.3143 70.3334 77.1145 70.3354 76.9147 70.338C76.7149 70.3427 76.5144 70.3354 76.3139 70.332C76.1134 70.328 75.9123 70.3234 75.7118 70.3193C75.5113 70.3113 75.3108 70.298 75.1103 70.2873C74.9099 70.2746 74.7094 70.2686 74.5102 70.2499C74.3111 70.2332 74.112 70.2158 73.9135 70.1991C73.8147 70.1904 73.7151 70.1831 73.6169 70.1731C73.518 70.1617 73.4198 70.151 73.3216 70.1397C73.1252 70.1176 72.9294 70.0956 72.735 70.0735C72.5413 70.0468 72.3483 70.0201 72.1566 69.9934C71.7726 69.944 71.396 69.8758 71.0248 69.815C70.8386 69.7863 70.6564 69.7462 70.4748 69.7128C70.2933 69.6774 70.1132 69.6454 69.9364 69.606C69.5828 69.5272 69.236 69.4557 68.9021 69.3709C68.2309 69.2126 67.6044 69.0342 67.0273 68.8652C66.4516 68.6909 65.9287 68.5186 65.4695 68.3522C65.0103 68.1873 64.6134 68.0343 64.2897 67.9007C63.9652 67.7691 63.7146 67.6556 63.5439 67.5781C63.3753 67.4993 63.2859 67.4539 63.2859 67.4539Z" fill="#333242"/>
<path d="M78.6094 83.784C78.6094 83.784 78.9514 83.6671 79.5502 83.4627C80.1482 83.2563 81.0023 82.9611 82.0277 82.6071C82.5398 82.4281 83.0938 82.2337 83.6804 82.0287C84.2656 81.821 84.8833 81.6025 85.522 81.3761C86.1614 81.151 86.8197 80.9126 87.4889 80.6715C88.1587 80.431 88.8354 80.1779 89.514 79.9294C90.1914 79.6776 90.8687 79.4264 91.5358 79.1786C92.2002 78.9241 92.8552 78.6783 93.4865 78.4326C94.117 78.1861 94.7273 77.9476 95.3057 77.7212C95.8821 77.4901 96.4267 77.271 96.9292 77.0686C97.4297 76.8609 97.8883 76.6706 98.2953 76.5016C98.3969 76.4595 98.4958 76.4187 98.5907 76.38C98.6848 76.3393 98.7762 76.2999 98.8636 76.2618C99.0384 76.1863 99.1989 76.1162 99.3438 76.0534C99.925 75.8036 100.256 75.6606 100.256 75.6606C100.256 75.6606 99.9283 75.8123 99.3547 76.0768C99.2111 76.1429 99.0519 76.2157 98.8785 76.2952C98.7918 76.3346 98.7017 76.376 98.6083 76.4187C98.5141 76.4602 98.4166 76.5029 98.3157 76.547C97.912 76.7227 97.4562 76.921 96.959 77.1374C96.4585 77.3458 95.9166 77.5716 95.343 77.8107C94.7686 78.0478 94.1597 78.2896 93.5298 78.5394C92.8992 78.7879 92.2443 79.037 91.5812 79.2942C90.9147 79.5447 90.2381 79.7991 89.5615 80.0536C88.8814 80.2994 88.2028 80.5499 87.5322 80.7877C86.8617 81.0261 86.202 81.2626 85.5619 81.485C85.2416 81.5965 84.9266 81.7061 84.6191 81.8129C84.3103 81.9178 84.0082 82.0207 83.7136 82.1202C83.1243 82.3179 82.5676 82.5049 82.0535 82.6779C81.024 83.0206 80.1624 83.2944 79.5596 83.4868C79.2576 83.5816 79.0205 83.6558 78.8586 83.7065C78.6954 83.7573 78.6094 83.784 78.6094 83.784Z" fill="#333242"/>
<path d="M27.2794 86.2314C27.2794 86.2314 27.3248 86.3316 27.4379 86.5026C27.551 86.6736 27.7332 86.9153 28.0082 87.1832C28.2818 87.451 28.6523 87.7422 29.1237 87.9954C29.3601 88.1203 29.6182 88.2425 29.9026 88.3407C30.1858 88.4402 30.4892 88.5317 30.8129 88.5945C30.9735 88.6319 31.1414 88.6519 31.3108 88.6807C31.3961 88.69 31.4821 88.7 31.5688 88.7094C31.6122 88.7141 31.6562 88.7187 31.6995 88.7234C31.7436 88.7261 31.7876 88.7287 31.8323 88.7321C31.921 88.7374 32.0104 88.7428 32.1012 88.7488C32.1919 88.7501 32.2827 88.7515 32.3748 88.7535C32.5584 88.7601 32.7453 88.7481 32.9343 88.7441C33.0291 88.7421 33.1239 88.7314 33.2194 88.7254C33.3149 88.7174 33.4111 88.7134 33.5079 88.7027C33.6041 88.6913 33.7017 88.6807 33.7992 88.6693C33.8967 88.6586 33.9949 88.6466 34.0931 88.6299C34.1914 88.6145 34.2902 88.5992 34.3891 88.5838L34.4636 88.5724L34.5036 88.5671L34.5415 88.5624C34.5916 88.5558 34.6424 88.5497 34.6926 88.5431C34.8944 88.517 35.0989 88.491 35.3042 88.4649C36.95 88.2545 38.7049 88.0308 40.4605 87.8063C42.2168 87.5879 43.973 87.3702 45.6189 87.1658C47.2661 86.9661 48.8029 86.7791 50.121 86.6195C51.439 86.4638 52.5376 86.3343 53.3064 86.2434C54.0758 86.1546 54.5154 86.1045 54.5154 86.1045C54.5154 86.1045 54.0771 86.1646 53.3097 86.2695C52.5424 86.3723 51.4458 86.5186 50.1305 86.6943C48.8144 86.8659 47.279 87.0663 45.6338 87.2807C43.9879 87.4904 42.233 87.7148 40.4775 87.9386C38.7212 88.1563 36.9649 88.3748 35.3184 88.5791C35.1125 88.6045 34.9086 88.6299 34.7061 88.6553C34.6553 88.6613 34.6052 88.668 34.5551 88.674L34.5171 88.6787L34.4819 88.6833L34.4067 88.694C34.3065 88.7087 34.2069 88.7234 34.1074 88.7374C34.0085 88.7535 33.9096 88.7641 33.8107 88.7742C33.7118 88.7842 33.6143 88.7949 33.5168 88.8049C33.4192 88.8149 33.3217 88.8182 33.2255 88.8249C33.1287 88.8303 33.0332 88.8396 32.9377 88.8403C32.7467 88.8423 32.5584 88.8523 32.3728 88.8436C32.28 88.841 32.1879 88.839 32.0964 88.8363C32.005 88.8296 31.9149 88.8229 31.8248 88.8169C31.7801 88.8136 31.7354 88.8102 31.6907 88.8069C31.6467 88.8015 31.6027 88.7962 31.5587 88.7909C31.4713 88.7802 31.3839 88.7695 31.2979 88.7595C31.1272 88.7287 30.9579 88.7067 30.796 88.6673C30.1431 88.5297 29.568 88.3026 29.098 88.0388C28.6259 87.775 28.2588 87.4757 27.9879 87.2019C27.7149 86.9287 27.5395 86.6802 27.4298 86.5072C27.3221 86.3323 27.2794 86.2314 27.2794 86.2314Z" fill="#333242"/>
<path d="M101.618 69.6396C101.618 69.6396 102.094 69.7726 102.927 70.005C103.345 70.1165 103.852 70.2521 104.434 70.4071C105.017 70.5627 105.676 70.729 106.389 70.9334C107.104 71.1318 107.875 71.3556 108.692 71.5907C109.508 71.8271 110.369 72.0803 111.248 72.3775C112.128 72.6734 113.028 73.0067 113.921 73.4008C114.813 73.7948 115.698 74.251 116.527 74.7987C117.351 75.3498 118.119 75.997 118.741 76.7518C118.897 76.9395 119.046 77.1352 119.18 77.3342C119.316 77.5359 119.44 77.7416 119.554 77.952C119.781 78.3728 119.963 78.8097 120.101 79.2525C120.379 80.1368 120.47 81.0466 120.372 81.8908C120.323 82.3143 120.23 82.7144 120.121 83.0971C120.009 83.4785 119.879 83.8418 119.722 84.1771C119.567 84.5131 119.39 84.8244 119.176 85.0902C118.963 85.3514 118.741 85.5865 118.52 85.7895C118.076 86.199 117.619 86.4762 117.225 86.6545C117.127 86.7013 117.031 86.736 116.942 86.7741C116.85 86.8055 116.765 86.8362 116.685 86.8622C116.605 86.8856 116.529 86.9076 116.461 86.927C116.392 86.9437 116.329 86.9591 116.272 86.9724C116.16 87.0012 116.071 87.0125 116.013 87.0252C115.954 87.0366 115.923 87.0419 115.923 87.0419C115.923 87.0419 115.954 87.0352 116.012 87.0225C116.07 87.0078 116.158 86.9945 116.269 86.9624C116.494 86.9056 116.821 86.8075 117.208 86.6204C117.595 86.4341 118.039 86.1502 118.468 85.7368C118.683 85.5304 118.894 85.2953 119.099 85.0321C119.201 84.9025 119.291 84.7576 119.379 84.6086C119.463 84.4563 119.545 84.2987 119.618 84.1317C119.767 83.8004 119.89 83.4404 119.995 83.063C120.097 82.6857 120.183 82.2862 120.225 81.8755C120.309 81.0512 120.204 80.1669 119.933 79.3039C119.659 78.4403 119.212 77.6014 118.595 76.87C117.983 76.1353 117.226 75.5041 116.412 74.9644C115.599 74.4214 114.726 73.9652 113.843 73.5704C112.959 73.175 112.064 72.8397 111.19 72.5411C110.314 72.2439 109.46 71.9761 108.648 71.7296C107.835 71.4838 107.066 71.2487 106.356 71.041C106.178 70.9882 106.004 70.9374 105.834 70.8867C105.663 70.8379 105.497 70.7898 105.335 70.7437C105.01 70.6502 104.702 70.5614 104.413 70.4779C103.835 70.3096 103.33 70.1626 102.915 70.0411C102.09 69.7859 101.618 69.6396 101.618 69.6396Z" fill="#333242"/>
<path d="M71.9064 44.9914C72.027 45.5251 72.4165 46.0547 72.9718 46.2004C73.8727 46.4375 74.7444 46.0781 75.5747 45.7689C76.1653 45.5485 76.8447 45.4015 77.3127 44.974C77.6703 45.3354 77.8823 45.853 78.0049 46.342C78.1045 46.7407 78.1783 47.1769 78.1803 47.6063C78.0063 47.1675 77.7475 46.7554 77.3439 46.4949C77.0919 46.3319 76.7539 46.2097 76.4485 46.2391C76.1694 46.2658 75.9073 46.4421 75.8612 46.732C75.7847 47.2143 76.0096 47.7433 76.2771 48.14C76.4525 48.3992 76.6875 48.6256 76.93 48.8233C77.1766 49.0237 77.4387 49.2107 77.7306 49.3389C77.2368 50.2654 76.3902 51.0295 75.4359 51.4416C75.2747 51.5111 75.2388 51.7408 75.3201 51.8771C75.4169 52.04 75.6005 52.0608 75.7617 51.9913C75.8843 51.9385 76.0048 51.8817 76.1213 51.8176C76.5399 51.5879 76.9395 51.294 77.2964 50.9513C77.3032 50.9587 77.31 50.9654 77.3174 50.9714C78.0191 51.5545 79.0154 51.6206 79.8926 51.5064C80.3999 51.4403 81.046 51.3274 81.3528 50.8745C81.5174 50.6321 81.5052 50.3255 81.3779 50.0703C81.2343 49.7811 80.9234 49.6095 80.6112 49.552C80.068 49.4518 79.476 49.5046 78.9301 49.5721C78.7147 49.5988 78.498 49.6282 78.2853 49.6722C78.5684 49.1573 78.7533 48.5969 78.7994 48.0185C78.8536 47.3418 78.7682 46.6205 78.5691 45.9713C78.3883 45.3815 78.1004 44.8244 77.6385 44.4137C78.0029 44.1371 78.3686 43.8586 78.6809 43.5273C79.1292 43.0517 79.5532 42.4219 79.6589 41.7687C79.7246 41.3646 79.7185 40.8456 79.3941 40.539C79.1367 40.2952 78.7777 40.2331 78.4323 40.2652C78.1133 40.2945 77.7936 40.35 77.5172 40.5203C77.2748 40.6693 77.0716 40.8736 76.9246 41.1154C76.6334 41.595 76.5304 42.1674 76.4999 42.7205C76.2676 42.2295 76.0089 41.754 75.6641 41.3218C75.2578 40.8129 74.5066 40.0334 73.7684 40.2972C73.1628 40.5136 72.9183 41.3111 73.0003 41.8875C73.0728 42.3958 73.429 42.834 73.8171 43.1546C74.0014 43.3076 74.1951 43.4445 74.3949 43.5701C74.1043 43.5113 73.8083 43.4659 73.513 43.4545C73.2136 43.4432 72.8757 43.4505 72.5946 43.5667C72.2918 43.6923 72.0731 43.8847 71.9478 44.1872C71.8462 44.4364 71.8475 44.7289 71.9064 44.9914ZM77.7753 50.5198L77.7733 50.5185C77.8051 50.4991 77.8369 50.4811 77.8708 50.4651C77.8904 50.4557 77.9094 50.4464 77.929 50.4377C77.9026 50.4484 77.908 50.4457 77.9446 50.4317C78.1187 50.3662 78.2988 50.3188 78.481 50.2821C78.9985 50.1779 79.5498 50.1284 80.1005 50.1378C80.2664 50.1405 80.3721 50.1445 80.5096 50.1799C80.7175 50.2333 80.9512 50.4364 80.7114 50.6287C80.5245 50.779 80.1574 50.8271 79.9298 50.8658C79.8201 50.8845 79.7063 50.8999 79.5898 50.9113C78.9626 50.9734 78.263 50.9173 77.7753 50.5198ZM77.6974 48.1841C77.7089 48.2248 77.7766 48.6476 77.8044 48.6603C77.4082 48.4827 77.0506 48.148 76.7993 47.8034C76.6991 47.6658 76.1965 46.7681 76.6855 46.8963C76.8271 46.9337 76.8928 46.9591 77.0181 47.0446C77.2016 47.1695 77.3527 47.3686 77.4719 47.599C77.5687 47.7847 77.6398 47.9831 77.6974 48.1841ZM77.1447 42.7906C77.1732 42.2262 77.2572 41.5863 77.6954 41.1782C77.9372 40.9531 78.8624 40.6058 79.0066 41.1041C79.0581 41.2817 79.069 41.4674 79.029 41.6491C78.9403 42.0499 78.7418 42.4272 78.4966 42.7572C78.1417 43.2361 77.6588 43.6015 77.1827 43.9628C77.144 43.5734 77.1251 43.1813 77.1447 42.7906ZM76.3089 43.8446C76.2547 43.721 75.698 43.558 75.5517 43.4872C75.3207 43.375 75.0905 43.2621 74.8683 43.1346C74.4274 42.8814 73.9709 42.5622 73.7419 42.0973C73.6051 41.8208 73.576 41.3966 73.7352 41.1214C74.0169 40.6359 74.6319 41.1482 74.8758 41.3946C75.1101 41.6311 75.3119 41.8902 75.4874 42.1728C75.8165 42.7024 76.0597 43.2748 76.3089 43.8446ZM72.5492 44.415C72.7808 43.9201 73.6119 44.073 74.0325 44.1465C74.468 44.222 74.8967 44.3328 75.3309 44.4157C75.7576 44.4965 76.185 44.5786 76.6002 44.7062C76.4816 44.7717 76.355 44.8244 76.2331 44.8692C75.6418 45.0863 75.0451 45.3194 74.443 45.505C73.9357 45.662 73.2881 45.7969 72.8411 45.4216C72.6704 45.278 72.5296 44.9941 72.5052 44.7336C72.4943 44.618 72.5065 44.5072 72.5492 44.415Z" fill="#F9D8AC"/>
<path d="M77.6982 99.4034C75.4604 98.4309 72.8934 98.3468 70.4855 98.2639C67.6747 98.1671 64.8476 98.3615 62.0442 98.0883C60.6402 97.9513 59.2429 97.753 57.8571 97.4938C57.4182 97.4117 56.1028 99.0548 56.1354 99.684C56.1807 100.536 67.2737 101.654 68.0526 102.3C68.9006 103.004 70.5946 102.59 71.5868 102.522C72.5886 102.454 73.5903 102.382 74.5941 102.336C75.4265 102.298 76.3294 102.2 77.1516 102.4C77.9407 101.283 77.8689 100.125 77.6982 99.4034Z" fill="#E3CABA"/>
<path d="M78.5206 99.81C78.2524 99.6591 77.9774 99.5242 77.6977 99.4026C77.8684 100.125 77.9402 101.282 77.1511 102.399C77.2141 102.414 77.2764 102.431 77.3381 102.449C78.0573 102.669 78.8491 103.192 79.3422 102.312C79.8319 101.438 79.3713 100.289 78.5206 99.81Z" fill="#E3CABA"/>
<path d="M26.8126 110.483C26.8898 111.866 27.1363 113.193 27.8292 114.542C29.9912 118.751 34.1939 121.735 38.8903 122.552C43.0287 123.272 47.2172 122.841 50.857 120.668C52.4399 119.725 58.6481 114.824 60.3258 114.032C63.7692 112.407 70.1224 107.166 65.1963 103.425C64.1648 102.642 64.4323 100.615 63.5992 99.6193C62.3083 98.077 59.6085 97.6549 57.7392 97.2628C51.8987 96.0399 45.8747 95.072 39.9002 95.8128C38.1758 96.0265 36.4764 96.3999 34.8373 96.977C33.0424 97.6088 31.1805 98.6087 29.7358 99.8484C26.5755 102.564 26.5992 106.687 26.8126 110.483Z" fill="#E3CABA"/>
<path d="M63.5089 99.901C65.2787 100.761 67.2165 101.69 68.458 103.259C71.0229 106.499 68.3821 110.794 65.4778 112.711C64.5905 113.296 63.5881 113.811 62.5938 114.195C61.1112 114.767 59.68 115.24 58.2855 116.002C56.4926 116.982 54.7811 118.103 53.1115 119.274C53.1115 119.274 55.6771 109.675 45.9429 104.882C45.9429 104.882 52.233 101.791 48.8932 96.2975C48.8932 96.2975 61.5 98.9245 63.5089 99.901Z" fill="#E3CABA"/>
<path d="M57.686 116.336C61.141 114.743 62.9392 115.122 63.5542 115.168C66.1944 115.367 69.0479 115.489 71.4448 114.168C72.7514 113.448 73.789 112.079 74.1439 110.633C74.8158 107.896 73.3501 105.335 71.2234 103.669C70.0631 102.759 68.7383 102.01 67.4216 101.345C65.9268 100.588 62.308 99.1644 59.445 98.0937C59.2669 98.0269 61.8474 99.4316 61.7126 99.5639C61.4417 99.8304 61.4126 100.327 61.7126 100.589C63.647 102.279 61.481 105.079 60.4989 106.649C59.5087 108.233 58.6343 109.936 57.9597 111.674C57.6921 112.362 57.4781 113.111 57.5011 113.855C57.5357 114.954 56.4262 116.917 57.686 116.336Z" fill="#E3CABA"/>
<path d="M71.8136 114.67C71.9436 114.703 72.0764 114.732 72.2084 114.756C72.4665 114.806 72.7435 114.857 72.9961 114.757C73.2535 114.655 73.1384 114.312 73.0889 114.124C73.0083 113.817 72.9311 113.511 72.8207 113.213C72.7631 113.058 72.6981 112.906 72.627 112.756C72.5742 112.646 72.5227 112.501 72.4069 112.443C72.3121 112.396 72.2125 112.446 72.1285 112.491C71.905 112.609 71.7018 112.759 71.5244 112.938C71.4566 113.007 71.3862 113.075 71.3212 113.146C71.1424 113.342 70.6168 113.869 70.6276 113.958C70.6649 114.254 71.0496 114.402 71.2887 114.499C71.4593 114.568 71.6348 114.624 71.8136 114.67Z" fill="#E3CABA"/>
<path d="M74.2291 105.592C74.3592 105.626 74.4892 105.665 74.6166 105.707C74.8658 105.789 75.1327 105.878 75.3027 106.088C75.4761 106.301 75.2051 106.545 75.0683 106.685C74.8455 106.913 74.626 107.142 74.3815 107.349C74.2542 107.456 74.1221 107.558 73.9853 107.653C73.8857 107.723 73.7679 107.824 73.6379 107.818C73.5322 107.814 73.4699 107.722 73.4191 107.642C73.2829 107.431 73.1814 107.202 73.1157 106.96C73.0906 106.868 73.0628 106.774 73.0418 106.681C72.9829 106.424 72.7878 105.71 72.8413 105.638C73.0215 105.398 73.4299 105.455 73.6873 105.486C73.8702 105.509 74.0503 105.546 74.2291 105.592Z" fill="#E3CABA"/>
<path d="M67.4917 109.002C67.5581 108.951 67.5723 108.845 67.5906 108.771C67.6319 108.606 67.7288 108.403 67.5371 108.292C67.4369 108.233 67.3122 108.247 67.2073 108.28C67.1077 108.312 66.9587 108.52 66.7054 108.314C66.66 108.278 66.725 108.457 66.7196 108.501C66.7094 108.521 66.6126 108.58 66.6404 108.578C66.9668 108.556 67.019 108.931 67.2039 109.01C67.3055 109.054 67.3996 109.073 67.4917 109.002ZM67.277 108.823L67.2662 108.817L67.2818 108.819V108.825L67.277 108.823Z" fill="#373737"/>
<path d="M66.3789 109.37C66.28 109.162 66.261 108.957 66.3795 108.769C66.469 108.626 66.639 108.555 66.8422 108.535L66.8523 108.533C66.9715 108.557 67.0914 108.577 67.2099 108.601C67.2926 108.618 67.3136 108.52 67.2309 108.503C67.1131 108.479 66.9945 108.459 66.8767 108.436C66.4927 108.272 66.5956 107.819 66.706 107.584C66.7338 107.526 66.6159 107.474 66.5882 107.533C66.4676 107.79 66.3809 108.225 66.6979 108.453C66.5137 108.491 66.3667 108.569 66.2705 108.705C66.1242 108.913 66.1472 109.161 66.2583 109.396C66.2881 109.458 66.4087 109.432 66.3789 109.37Z" fill="#373737"/>
<path d="M35.4691 119.673C36.1282 117.931 34.5819 116.834 33.1914 116.153C30.8817 115.021 27.2649 107.725 26.7996 110.23C26.5713 111.46 25.1842 111.462 24.2035 111.325C22.8861 111.14 21.5742 110.742 20.4478 110.032C19.549 109.465 18.9902 108.731 18.5385 107.791C18.3691 107.439 18.0786 106.829 17.6471 106.734C17.4263 106.685 17.1391 106.827 16.98 106.974C16.7097 107.224 16.5126 107.284 16.151 107.29C15.7635 107.298 15.5732 107.54 15.3395 107.817C15.1275 108.068 14.7171 107.91 14.5031 108.169C14.3066 108.407 14.3541 108.804 14.3358 109.087C14.178 111.495 16.4957 113.384 18.3786 114.437C19.7502 115.205 21.0865 116.034 22.4939 116.736C23.4462 117.212 24.4033 117.677 25.3691 118.124C28.7225 119.678 32.1795 121.014 35.7678 121.94C37.9833 122.512 40.2814 122.901 42.5795 122.875C43.2033 122.867 35.1901 120.411 35.4691 119.673Z" fill="#E3CABA"/>
<path d="M42.0268 106.446C42.6858 104.704 41.1395 103.607 39.749 102.926C37.44 101.794 42.6262 95.5599 41.6394 95.6441C35.484 96.1697 28.7657 98.2757 27.0054 96.8043C26.192 96.1237 25.5479 95.5038 25.0954 94.5634C24.9261 94.2114 24.6362 93.6009 24.2047 93.506C23.9839 93.4579 23.6968 93.5995 23.5383 93.7458C23.2673 93.9963 23.0709 94.0557 22.7092 94.0624C22.3218 94.0698 22.1315 94.3116 21.8978 94.5881C21.6858 94.8399 21.2754 94.6816 21.0614 94.9407C20.8649 95.1785 20.9123 95.576 20.8934 95.8592C20.7356 98.2671 23.054 100.156 24.9362 101.209C26.3071 101.977 27.6441 102.806 29.0516 103.508C30.0039 103.984 30.9609 104.449 31.9267 104.896C35.2801 106.451 38.7371 107.787 42.3255 108.713C44.5416 109.285 46.8391 109.673 49.1372 109.647C49.761 109.639 41.7477 107.183 42.0268 106.446Z" fill="#E3CABA"/>
<path d="M67.0623 111.726C66.9769 111.27 66.9647 110.796 66.7873 110.361C66.7744 110.33 66.746 110.309 66.7107 110.319C66.6809 110.327 66.6552 110.363 66.6681 110.394C66.8455 110.828 66.857 111.304 66.9431 111.759C66.9566 111.837 67.0765 111.803 67.0623 111.726Z" fill="#373737"/>
<path d="M66.4981 111.833C66.5259 111.358 66.4907 110.879 66.5665 110.407C66.572 110.374 66.5577 110.342 66.5225 110.332C66.492 110.324 66.4514 110.343 66.4467 110.376C66.3695 110.858 66.4026 111.347 66.3742 111.834C66.3688 111.913 66.4934 111.912 66.4981 111.833Z" fill="#373737"/>
<path d="M65.6765 111.626C65.8479 111.17 66.066 110.725 66.3355 110.317C66.3789 110.251 66.2719 110.19 66.2279 110.256C65.9522 110.674 65.7314 111.128 65.5566 111.595C65.5451 111.626 65.5709 111.662 65.6013 111.67C65.6359 111.679 65.665 111.657 65.6765 111.626Z" fill="#373737"/>
<path d="M68.6284 105.836C68.327 106.192 68.0805 106.6 67.7093 106.893C67.6829 106.914 67.6476 106.918 67.6212 106.893C67.5996 106.871 67.5948 106.828 67.6212 106.806C67.9924 106.514 68.239 106.105 68.5404 105.749C68.5918 105.689 68.6792 105.776 68.6284 105.836Z" fill="#373737"/>
<path d="M68.1904 105.471C67.9784 105.898 67.7088 106.299 67.5408 106.746C67.5287 106.777 67.5002 106.799 67.465 106.789C67.4345 106.781 67.4088 106.746 67.4203 106.714C67.593 106.256 67.866 105.846 68.0827 105.409C68.1186 105.338 68.2256 105.399 68.1904 105.471Z" fill="#373737"/>
<path d="M67.3719 105.253C67.2941 105.734 67.2629 106.226 67.2941 106.713C67.2995 106.792 67.1749 106.793 67.1701 106.714C67.1376 106.217 67.1721 105.714 67.2521 105.223C67.2575 105.19 67.2974 105.171 67.3279 105.179C67.3625 105.187 67.3774 105.221 67.3719 105.253Z" fill="#373737"/>
<path d="M13.7139 103.613C14.4555 100.286 14.4488 96.2085 11.1787 94.3069C8.39973 92.6919 5.05789 94.2268 3.40255 96.5912C2.51866 97.8523 1.90028 99.309 1.43835 100.828C3.47028 99.9115 8.32726 98.6171 13.7139 103.613Z" fill="#E3CABA"/>
<path d="M36.0802 115.423C35.8818 115.189 35.661 115.014 35.4226 114.891C33.1007 113.693 29.1053 117.421 27.3531 118.241C22.4528 120.534 14.7924 121.743 11.794 115.99C9.77287 112.114 12.3304 108.546 13.3992 104.844C13.513 104.45 13.6193 104.038 13.7135 103.614C8.32682 98.6175 3.46984 99.912 1.43724 100.829C0.921129 102.528 0.602794 104.303 0.332548 105.971C-0.187625 109.184 -0.203203 112.5 1.0593 115.558C5.22475 125.646 19.1035 128.268 28.2173 123.692C30.1165 122.737 38.5416 118.334 36.0802 115.423Z" fill="#E3CABA"/>
<path d="M71.6167 118.148C70.7965 117.963 70.0386 117.482 69.3159 117.085C68.4381 116.603 67.5732 116.099 66.7076 115.597C65.8501 115.1 62.7954 112.904 61.7172 113.161C60.7283 113.398 50.4596 110.832 50.0336 111.576C49.7193 112.124 48.7481 121.797 49.1579 121.621C60.3537 116.791 63.5947 119.075 64.5964 119.367C65.7444 119.702 66.8992 120.02 68.033 120.401C68.6839 120.62 69.3504 120.822 70.025 120.948C71.211 120.024 71.5428 118.905 71.6167 118.148Z" fill="#E3CABA"/>
<path d="M71.8234 118.188C71.7536 118.177 71.6852 118.163 71.6168 118.148C71.543 118.904 71.2111 120.024 70.0251 120.947C70.5758 121.05 71.1319 121.103 71.6893 121.071C72.6673 121.016 73.5993 120.19 73.556 119.192C73.5119 118.188 72.5671 118.307 71.8234 118.188Z" fill="#E3CABA"/>
<path d="M64.0276 103.502C62.1406 101.685 59.4463 101.175 56.9335 100.809C53.6878 100.336 50.3778 100.137 47.105 100.445C43.8878 100.748 40.1525 101.529 37.5712 103.562C34.9169 105.654 33.1775 109.663 35.2867 112.726C36.4598 114.431 38.5926 114.516 40.4694 114.302C45.0575 113.779 49.3584 111.802 53.9912 111.555C56.3997 111.428 58.7324 112.189 61.1267 112.083C61.9015 112.048 61.8507 110.798 61.8419 110.283C61.8229 109.236 61.6252 108.18 61.9388 107.156C62.1562 106.446 62.5795 105.821 63.0726 105.268C63.3923 104.912 64.6053 104.059 64.0276 103.502Z" fill="white"/>
<path d="M70.1148 107.561C70.1121 107.557 70.0504 107.481 69.9956 107.364C69.9414 107.245 69.8913 107.084 69.9245 106.909C69.9414 106.822 69.9807 106.734 70.0477 106.651C70.1154 106.569 70.2103 106.493 70.3383 106.428L70.4134 106.57C70.3017 106.627 70.2258 106.69 70.1744 106.752C70.1236 106.814 70.0965 106.877 70.0843 106.939C70.0592 107.065 70.0965 107.196 70.1432 107.297C70.1662 107.347 70.1913 107.389 70.2109 107.418C70.2204 107.432 70.2285 107.443 70.234 107.45L70.2401 107.458L70.2414 107.46L70.2204 107.477L70.2414 107.46L70.2204 107.477L70.2414 107.46L70.1148 107.561Z" fill="#373737"/>
<path d="M69.6511 111.805C69.6484 111.802 69.5868 111.726 69.5319 111.608C69.4777 111.491 69.4276 111.328 69.4615 111.154C69.4784 111.067 69.517 110.978 69.5847 110.896C69.6525 110.813 69.7473 110.737 69.8753 110.672L69.9505 110.814C69.8387 110.872 69.7629 110.934 69.7114 110.996C69.6606 111.058 69.6335 111.121 69.6213 111.184C69.5962 111.308 69.6328 111.44 69.6802 111.54C69.7033 111.59 69.7283 111.632 69.748 111.661C69.7575 111.676 69.7656 111.686 69.771 111.694L69.7771 111.702L69.7784 111.704V111.704L69.7575 111.721L69.7784 111.704L69.7575 111.721L69.7784 111.704L69.6511 111.805Z" fill="#373737"/>
<path d="M82.2601 116.197C82.5595 116.351 82.8358 116.546 83.1379 116.695C84.1769 117.209 85.3419 117.537 86.4906 117.689C87.2912 117.794 88.1121 117.796 88.9012 117.607C89.6469 117.427 90.3289 117.072 90.9832 116.683C92.1041 116.018 93.0382 115.163 93.8204 114.131C94.2106 113.616 94.5933 113.089 94.9394 112.545C95.2563 112.047 95.5557 111.524 95.9682 111.094C96.1788 110.875 96.422 110.679 96.6834 110.508C96.7159 110.899 96.825 111.283 97.0228 111.638C97.2409 112.031 97.5456 112.425 97.952 112.641C98.3327 112.844 98.7865 112.836 99.1888 112.695C99.5918 112.554 100.004 112.292 100.197 111.9C100.409 111.471 100.321 110.945 100.118 110.528C99.6562 109.581 98.5528 109.331 97.5998 109.642C97.4237 109.7 97.2537 109.768 97.0891 109.845C97.1345 109.55 97.2287 109.261 97.3689 108.99C98.1173 107.547 99.8343 106.616 101.414 106.367C101.659 106.328 101.628 105.947 101.381 105.986C100.416 106.138 99.4746 106.514 98.6693 107.059C97.8857 107.59 97.1569 108.319 96.8473 109.225C96.7546 109.498 96.6977 109.779 96.6787 110.061C96.0474 110.438 95.513 110.96 95.1033 111.575C94.3962 112.638 93.729 113.733 92.8648 114.684C92.0107 115.623 90.9107 116.407 89.7241 116.886C89.1626 117.113 88.5876 117.285 87.9766 117.287C87.3908 117.288 86.8062 117.204 86.2359 117.073C85.9935 117.017 82.0393 116.084 82.2601 116.197ZM97.0593 110.289C97.1359 110.249 97.2131 110.211 97.291 110.174C97.7299 109.975 98.2297 109.819 98.7167 109.912C99.2498 110.014 99.6853 110.368 99.8512 110.887C100.004 111.365 99.9338 111.816 99.4983 112.113C99.1644 112.341 98.649 112.53 98.2487 112.358C97.8267 112.177 97.5064 111.764 97.312 111.364C97.146 111.023 97.0648 110.657 97.0593 110.289Z" fill="#565D70"/>
<path d="M82.26 116.197C85.9093 118.312 90.6065 117.108 92.7502 113.51C94.8945 109.911 93.674 105.279 90.0247 103.165C86.3747 101.051 81.6782 102.254 79.5338 105.853C77.3895 109.451 78.61 114.083 82.26 116.197Z" fill="#565D70"/>
<path d="M87.4486 112.548C87.3687 113.103 87.2637 113.655 87.1398 114.196C87.0903 114.21 87.0409 114.225 86.9915 114.238C87.1046 113.699 87.2001 113.152 87.2725 112.603C87.3308 112.585 87.3897 112.567 87.4486 112.548Z" fill="#9099B9"/>
<path d="M82.8201 102.868C82.8356 102.861 82.8512 102.854 82.8668 102.846C86.6415 104.021 87.7435 107.309 87.6114 110.797C87.5471 110.817 87.482 110.838 87.4177 110.858C87.524 107.425 86.4715 104.201 82.8201 102.868Z" fill="#9099B9"/>
<path d="M86.2141 117.239C86.2012 117.239 86.1884 117.239 86.1748 117.239C86.4627 116.371 86.7295 115.431 86.9429 114.459C86.991 114.446 87.0391 114.432 87.0871 114.418C86.8474 115.414 86.5446 116.371 86.2141 117.239Z" fill="#9099B9"/>
<path d="M87.6019 111.003C87.5789 111.446 87.5369 111.891 87.4779 112.335C87.4183 112.355 87.3587 112.373 87.2985 112.392C87.352 111.949 87.3899 111.506 87.4095 111.066C87.4739 111.045 87.5382 111.024 87.6019 111.003Z" fill="#9099B9"/>
<path d="M87.7779 117.064L87.7549 117.069C88.0949 116.083 88.4146 114.993 88.6584 113.86C88.7092 113.839 88.7593 113.818 88.8094 113.796C88.5351 114.964 88.1721 116.079 87.7779 117.064Z" fill="#9099B9"/>
<path d="M84.4219 102.315C84.4422 102.311 84.4625 102.307 84.4828 102.302C88.271 103.439 89.4116 106.675 89.3141 110.134C89.249 110.163 89.184 110.192 89.119 110.22C89.1969 106.802 88.1064 103.611 84.4219 102.315Z" fill="#9099B9"/>
<path d="M89.1126 110.412C89.177 110.383 89.242 110.353 89.307 110.323C89.2887 110.774 89.2495 111.228 89.1932 111.68C89.1323 111.707 89.0713 111.733 89.0104 111.759C89.0619 111.31 89.0964 110.86 89.1126 110.412Z" fill="#9099B9"/>
<path d="M88.9851 111.96C89.0461 111.933 89.1064 111.906 89.1673 111.879C89.0894 112.453 88.9845 113.024 88.8585 113.584C88.807 113.605 88.7555 113.627 88.7034 113.648C88.8178 113.092 88.914 112.527 88.9851 111.96Z" fill="#9099B9"/>
<path d="M85.7307 114.524C85.6813 114.533 85.6318 114.54 85.5824 114.548C85.6887 114.024 85.7775 113.493 85.8438 112.96C85.9021 112.949 85.961 112.938 86.0193 112.926C85.9448 113.463 85.8472 113.999 85.7307 114.524Z" fill="#9099B9"/>
<path d="M81.7356 103.494C81.7546 103.482 81.7735 103.469 81.7918 103.456C85.2353 104.714 86.2743 107.85 86.1693 111.185C86.1043 111.199 86.04 111.212 85.9749 111.224C86.0515 107.952 85.0551 104.887 81.7356 103.494Z" fill="#9099B9"/>
<path d="M84.9781 117.153C84.9571 117.15 84.9368 117.146 84.9158 117.143C85.1494 116.387 85.3628 115.587 85.5369 114.766C85.5843 114.759 85.6324 114.752 85.6798 114.744C85.4847 115.583 85.2436 116.395 84.9781 117.153Z" fill="#9099B9"/>
<path d="M86.047 112.708C85.9874 112.72 85.9285 112.732 85.8689 112.742C85.9183 112.306 85.9522 111.869 85.9685 111.437C86.0328 111.424 86.0965 111.411 86.1608 111.397C86.1412 111.833 86.1019 112.271 86.047 112.708Z" fill="#9099B9"/>
<path d="M87.4485 112.548C87.3896 112.567 87.3307 112.585 87.2717 112.604C86.8552 112.733 86.4366 112.841 86.0194 112.925C85.9611 112.937 85.9029 112.947 85.844 112.958C83.044 113.474 80.3144 112.86 78.4837 109.982L78.4823 109.958C80.4208 112.682 83.1144 113.247 85.8697 112.742C85.9286 112.731 85.9882 112.72 86.0478 112.708C86.4637 112.624 86.8823 112.518 87.2981 112.391C87.3577 112.373 87.418 112.354 87.4776 112.334C87.9924 112.17 88.5051 111.976 89.0104 111.758C89.0713 111.732 89.1323 111.706 89.1932 111.679C90.8594 110.942 92.4423 109.964 93.7766 109.004C93.7773 109.016 93.7786 109.028 93.78 109.039C92.4795 110.066 90.8743 111.105 89.1682 111.878C89.1079 111.905 89.047 111.933 88.986 111.959C88.48 112.182 87.9653 112.38 87.4485 112.548Z" fill="#9099B9"/>
<path d="M85.6799 114.743C85.6325 114.751 85.5851 114.759 85.537 114.766C83.1014 115.139 80.745 114.619 79.0138 112.458C78.9928 112.404 78.9719 112.35 78.9515 112.297C80.7694 114.428 83.142 114.924 85.5824 114.547C85.6318 114.539 85.6813 114.531 85.7307 114.523C86.15 114.452 86.5706 114.356 86.9905 114.239C87.04 114.225 87.0894 114.211 87.1388 114.197C87.6638 114.044 88.1866 113.859 88.7027 113.648C88.7542 113.626 88.8064 113.605 88.8579 113.584C90.6236 112.844 92.3087 111.819 93.7223 110.808C93.7196 110.824 93.7175 110.84 93.7148 110.856C92.3338 111.937 90.6195 113.025 88.8091 113.796C88.759 113.817 88.7088 113.839 88.658 113.86C88.1399 114.075 87.6143 114.263 87.0867 114.418C87.0386 114.432 86.9905 114.445 86.9424 114.459C86.5218 114.578 86.1005 114.673 85.6799 114.743Z" fill="#9099B9"/>
<path d="M87.6008 111.003C87.5372 111.024 87.4728 111.045 87.4085 111.066C86.9933 111.197 86.5767 111.31 86.1609 111.398C86.0965 111.411 86.0329 111.424 85.9685 111.437C83.1604 111.98 80.4126 111.402 78.5608 108.559L78.5642 108.535C80.5169 111.217 83.2186 111.75 85.9753 111.225C86.0396 111.213 86.1047 111.199 86.1697 111.185C86.5855 111.099 87.0021 110.989 87.4173 110.859C87.4816 110.839 87.546 110.819 87.611 110.798C88.1176 110.632 88.6215 110.437 89.118 110.221C89.183 110.192 89.2487 110.163 89.3131 110.135C90.8357 109.452 92.2851 108.572 93.5347 107.692C93.5388 107.708 93.5429 107.723 93.5476 107.738C92.3251 108.675 90.86 109.608 89.3063 110.324C89.242 110.354 89.1769 110.384 89.1119 110.413C88.6148 110.634 88.1095 110.833 87.6008 111.003Z" fill="#9099B9"/>
<path d="M137.354 86.2881C133.595 83.9864 128.656 85.1259 126.322 88.8329C123.988 92.5399 125.143 97.4104 128.902 99.7121C132.661 102.013 137.6 100.874 139.934 97.1666C142.269 93.4603 141.113 88.5898 137.354 86.2881Z" fill="#487494"/>
<path d="M131.839 89.9702C131.936 89.3925 132.061 88.818 132.205 88.255C132.257 88.2416 132.309 88.2276 132.361 88.2142C132.229 88.7746 132.115 89.3437 132.025 89.9155C131.963 89.9342 131.901 89.9515 131.839 89.9702Z" fill="#8AA3D9"/>
<path d="M136.425 100.203C136.408 100.21 136.392 100.217 136.375 100.225C132.462 98.9023 131.394 95.4384 131.623 91.7975C131.691 91.7775 131.759 91.7575 131.827 91.7388C131.627 95.3229 132.644 98.7186 136.425 100.203Z" fill="#8AA3D9"/>
<path d="M133.25 85.0997C133.263 85.1004 133.277 85.1004 133.29 85.1011C132.967 86.0008 132.664 86.9766 132.416 87.9865C132.365 87.9992 132.314 88.0126 132.264 88.0259C132.541 86.9906 132.882 85.9988 133.25 85.0997Z" fill="#8AA3D9"/>
<path d="M131.638 91.5816C131.673 91.1194 131.729 90.6552 131.802 90.1923C131.865 90.1736 131.928 90.1549 131.991 90.1376C131.924 90.5984 131.872 91.0606 131.84 91.5208C131.773 91.5409 131.706 91.5609 131.638 91.5816Z" fill="#8AA3D9"/>
<path d="M131.61 85.2432L131.635 85.2385C131.253 86.2605 130.892 87.3919 130.607 88.5695C130.554 88.5902 130.501 88.6109 130.448 88.6323C130.766 87.4193 131.173 86.2631 131.61 85.2432Z" fill="#8AA3D9"/>
<path d="M134.736 100.74C134.715 100.744 134.693 100.749 134.672 100.753C130.743 99.4696 129.635 96.0592 129.827 92.4477C129.895 92.419 129.965 92.3902 130.034 92.3622C129.862 95.9316 130.919 99.2933 134.736 100.74Z" fill="#8AA3D9"/>
<path d="M130.044 92.1623C129.975 92.1911 129.907 92.2205 129.839 92.2498C129.87 91.7796 129.922 91.3067 129.992 90.8352C130.057 90.8084 130.121 90.7831 130.186 90.7563C130.12 91.2252 130.072 91.6948 130.044 92.1623Z" fill="#8AA3D9"/>
<path d="M130.216 90.5469C130.152 90.5729 130.088 90.5996 130.024 90.627C130.12 90.0292 130.245 89.4354 130.391 88.853C130.445 88.8316 130.5 88.8103 130.555 88.7896C130.421 89.368 130.306 89.9564 130.216 90.5469Z" fill="#8AA3D9"/>
<path d="M133.684 87.9502C133.737 87.9429 133.788 87.9362 133.839 87.9288C133.715 88.4739 133.608 89.0269 133.525 89.582C133.464 89.5913 133.403 89.6013 133.341 89.6127C133.433 89.0536 133.55 88.4966 133.684 87.9502Z" fill="#8AA3D9"/>
<path d="M137.573 99.5755C137.554 99.5889 137.533 99.6015 137.513 99.6142C133.948 98.2129 132.942 94.9093 133.139 91.4274C133.207 91.4147 133.275 91.402 133.343 91.3914C133.179 94.8092 134.14 98.0373 137.573 99.5755Z" fill="#8AA3D9"/>
<path d="M134.538 85.2216C134.56 85.2249 134.582 85.2296 134.602 85.2336C134.339 86.0171 134.095 86.8473 133.892 87.7016C133.842 87.7076 133.792 87.7149 133.742 87.7216C133.968 86.8493 134.241 86.0064 134.538 85.2216Z" fill="#8AA3D9"/>
<path d="M133.305 89.8385C133.368 89.8278 133.43 89.8171 133.492 89.8071C133.429 90.262 133.383 90.7168 133.355 91.1697C133.287 91.181 133.22 91.1931 133.153 91.2058C133.185 90.7509 133.237 90.2941 133.305 89.8385Z" fill="#8AA3D9"/>
<path d="M131.838 89.9712C131.9 89.9525 131.962 89.9344 132.025 89.917C132.464 89.7928 132.904 89.6906 133.342 89.6138C133.404 89.6025 133.465 89.5931 133.526 89.5831C136.465 89.1149 139.302 89.8249 141.141 92.878L141.141 92.9027C139.186 90.0086 136.386 89.35 133.493 89.8082C133.431 89.8182 133.368 89.8282 133.306 89.8396C132.869 89.9164 132.43 90.0166 131.992 90.1388C131.929 90.1562 131.866 90.1749 131.803 90.1936C131.26 90.3525 130.72 90.5422 130.186 90.7566C130.122 90.7827 130.057 90.8087 129.993 90.8355C128.232 91.5635 126.553 92.5454 125.134 93.5159C125.134 93.5032 125.133 93.4905 125.132 93.4785C126.517 92.4385 128.221 91.3932 130.025 90.6284C130.089 90.601 130.153 90.5743 130.217 90.5483C130.751 90.3278 131.293 90.1328 131.838 89.9712Z" fill="#8AA3D9"/>
<path d="M133.742 87.7214C133.793 87.714 133.842 87.7074 133.892 87.7013C136.446 87.3734 138.896 87.9752 140.649 90.2775C140.67 90.3343 140.69 90.3911 140.71 90.4472C138.865 88.1742 136.399 87.5965 133.839 87.9291C133.788 87.9365 133.736 87.9431 133.684 87.9505C133.245 88.0139 132.802 88.1034 132.36 88.215C132.308 88.2283 132.256 88.2417 132.204 88.2557C131.652 88.4027 131.1 88.5823 130.555 88.7901C130.5 88.8108 130.446 88.8322 130.391 88.8535C128.527 89.5816 126.74 90.6108 125.236 91.6321C125.239 91.6154 125.242 91.598 125.245 91.5813C126.716 90.4873 128.535 89.3932 130.447 88.6324C130.5 88.6111 130.554 88.5904 130.606 88.5697C131.154 88.3579 131.708 88.1742 132.263 88.026C132.313 88.0126 132.364 87.9992 132.415 87.9866C132.859 87.8737 133.302 87.7842 133.742 87.7214Z" fill="#8AA3D9"/>
<path d="M131.638 91.5818C131.705 91.5611 131.772 91.5403 131.84 91.521C132.277 91.3934 132.715 91.2872 133.153 91.2057C133.22 91.193 133.287 91.181 133.355 91.1696C136.304 90.6727 139.159 91.346 141.021 94.3637L141.017 94.3884C139.045 91.537 136.237 90.9118 133.342 91.3907C133.275 91.4021 133.207 91.4141 133.139 91.4268C132.702 91.5063 132.263 91.6112 131.827 91.7361C131.759 91.7554 131.691 91.7748 131.623 91.7948C131.089 91.9558 130.557 92.1468 130.032 92.3599C129.963 92.388 129.895 92.4167 129.826 92.4454C128.217 93.1207 126.68 94.0037 125.351 94.8921C125.347 94.876 125.343 94.86 125.339 94.8433C126.64 93.8948 128.196 92.957 129.837 92.2477C129.906 92.2183 129.974 92.1889 130.043 92.1602C130.569 91.9425 131.102 91.7467 131.638 91.5818Z" fill="#8AA3D9"/>
<path d="M116.481 99.3285C117.192 102.734 120.568 104.926 124.021 104.224C127.474 103.522 129.697 100.193 128.986 96.7877C128.274 93.3826 124.899 91.1905 121.445 91.8925C117.992 92.5938 115.77 95.9234 116.481 99.3285Z" fill="#E3CABA"/>
<path d="M121.664 100.456C121.272 100.717 120.867 100.961 120.458 101.188C120.421 101.166 120.385 101.144 120.348 101.121C120.749 100.89 121.145 100.642 121.53 100.38C121.575 100.405 121.619 100.431 121.664 100.456Z" fill="#E3CABA"/>
<path d="M125.149 92.2316C125.162 92.2369 125.175 92.2429 125.189 92.2476C126.559 95.2045 125.113 97.7119 122.852 99.5781C122.803 99.5508 122.754 99.522 122.706 99.4947C124.918 97.6432 126.352 95.2012 125.149 92.2316Z" fill="#E3CABA"/>
<path d="M118.034 102.322C118.028 102.314 118.02 102.306 118.013 102.298C118.718 101.988 119.456 101.627 120.184 101.214C120.219 101.236 120.255 101.258 120.291 101.279C119.532 101.69 118.763 102.038 118.034 102.322Z" fill="#E3CABA"/>
<path d="M122.719 99.6869C122.428 99.92 122.126 100.143 121.815 100.355C121.769 100.329 121.724 100.303 121.679 100.277C121.987 100.063 122.285 99.8385 122.573 99.6047C122.621 99.6328 122.669 99.6602 122.719 99.6869Z" fill="#E3CABA"/>
<path d="M119.017 103.177L119.001 103.166C119.809 102.823 120.671 102.408 121.517 101.925C121.559 101.945 121.6 101.963 121.641 101.982C120.756 102.466 119.855 102.867 119.017 103.177Z" fill="#E3CABA"/>
<path d="M126.39 92.8988C126.404 92.9082 126.419 92.9182 126.432 92.9282C127.834 95.8724 126.442 98.3738 124.219 100.245C124.164 100.221 124.11 100.198 124.056 100.174C126.243 98.3144 127.634 95.8691 126.39 92.8988Z" fill="#E3CABA"/>
<path d="M123.933 100.278C123.987 100.302 124.042 100.325 124.096 100.348C123.804 100.588 123.498 100.817 123.182 101.036C123.131 101.014 123.08 100.991 123.03 100.968C123.341 100.748 123.643 100.518 123.933 100.278Z" fill="#E3CABA"/>
<path d="M122.891 101.065C122.942 101.087 122.993 101.109 123.044 101.131C122.641 101.403 122.224 101.658 121.802 101.894C121.76 101.875 121.718 101.855 121.675 101.835C122.088 101.596 122.496 101.338 122.891 101.065Z" fill="#E3CABA"/>
<path d="M119.467 100.511C119.434 100.485 119.402 100.459 119.37 100.434C119.757 100.206 120.141 99.9638 120.512 99.7067C120.551 99.7361 120.59 99.7661 120.631 99.7948C120.252 100.05 119.861 100.289 119.467 100.511Z" fill="#E3CABA"/>
<path d="M124.152 91.9192C124.171 91.9232 124.189 91.9279 124.207 91.9319C125.34 94.7338 123.954 97.1177 121.805 98.9144C121.76 98.8824 121.715 98.851 121.672 98.8182C123.766 97.0382 125.132 94.7205 124.152 91.9192Z" fill="#E3CABA"/>
<path d="M117.399 101.52C117.39 101.506 117.38 101.491 117.371 101.476C117.975 101.197 118.595 100.881 119.208 100.529C119.239 100.554 119.27 100.579 119.302 100.603C118.666 100.952 118.022 101.259 117.399 101.52Z" fill="#E3CABA"/>
<path d="M120.782 99.6913C120.741 99.6619 120.701 99.6318 120.661 99.6024C120.963 99.3887 121.255 99.1663 121.536 98.9338C121.58 98.9659 121.623 98.998 121.668 99.0294C121.384 99.2605 121.087 99.4809 120.782 99.6913Z" fill="#E3CABA"/>
<path d="M121.664 100.456C121.619 100.43 121.575 100.405 121.531 100.379C121.217 100.197 120.916 100.003 120.631 99.795C120.591 99.7663 120.551 99.7362 120.511 99.7068C118.626 98.2875 117.487 96.2803 118.269 93.5578L118.284 93.5438C117.659 96.2456 118.808 98.2033 120.662 99.602C120.702 99.632 120.742 99.6614 120.782 99.6908C121.067 99.8985 121.367 100.094 121.679 100.277C121.724 100.303 121.769 100.329 121.814 100.354C122.205 100.576 122.612 100.78 123.031 100.967C123.082 100.99 123.132 101.013 123.183 101.035C124.575 101.639 126.071 102.059 127.419 102.336C127.411 102.343 127.405 102.35 127.398 102.357C126.029 102.137 124.482 101.739 123.044 101.13C122.994 101.108 122.943 101.086 122.892 101.064C122.469 100.88 122.058 100.678 121.664 100.456Z" fill="#E3CABA"/>
<path d="M119.3 100.603C119.269 100.578 119.237 100.553 119.206 100.528C117.613 99.2516 116.624 97.5244 117.012 95.2621C117.034 95.2194 117.056 95.1766 117.079 95.1345C116.758 97.4329 117.77 99.1561 119.369 100.433C119.401 100.459 119.434 100.485 119.466 100.51C119.745 100.726 120.039 100.929 120.347 101.12C120.384 101.143 120.421 101.165 120.457 101.187C120.846 101.421 121.254 101.637 121.674 101.834C121.716 101.854 121.759 101.873 121.802 101.893C123.25 102.557 124.834 103.011 126.257 103.309C126.245 103.316 126.234 103.324 126.222 103.331C124.774 103.092 123.135 102.655 121.641 101.981C121.6 101.963 121.558 101.944 121.517 101.925C121.093 101.729 120.681 101.514 120.29 101.278C120.255 101.257 120.219 101.235 120.183 101.213C119.874 101.023 119.579 100.819 119.3 100.603Z" fill="#E3CABA"/>
<path d="M122.719 99.6869C122.669 99.6602 122.62 99.6328 122.572 99.6047C122.257 99.4251 121.955 99.234 121.667 99.029C121.623 98.9976 121.579 98.9655 121.535 98.9335C119.627 97.5241 118.456 95.5264 119.205 92.8106L119.222 92.7992C118.631 95.4869 119.804 97.4313 121.672 98.8193C121.716 98.852 121.76 98.8834 121.805 98.9154C122.091 99.1205 122.392 99.3135 122.706 99.4939C122.755 99.5219 122.803 99.55 122.852 99.5774C123.239 99.7938 123.642 99.9921 124.056 100.174C124.11 100.199 124.164 100.222 124.219 100.245C125.496 100.792 126.858 101.185 128.107 101.456C128.1 101.468 128.093 101.478 128.086 101.49C126.816 101.267 125.414 100.895 124.097 100.347C124.042 100.324 123.987 100.301 123.933 100.277C123.516 100.099 123.109 99.9026 122.719 99.6869Z" fill="#E3CABA"/>
<path d="M115.242 104.045C114.126 102.328 112.381 100.907 110.368 100.364C109.359 100.092 108.303 100.067 107.289 100.325C106.816 100.446 106.357 100.616 105.887 100.744C105.41 100.873 104.9 100.968 104.408 100.873C104.388 100.869 104.367 100.864 104.347 100.859C104.571 100.652 104.768 100.421 104.909 100.161C105.036 99.9274 105.088 99.6549 104.993 99.4017C104.882 99.1092 104.575 98.8734 104.275 98.7999C103.57 98.6276 103.156 99.4064 103.232 99.9969C103.279 100.368 103.511 100.688 103.834 100.878C103.863 100.895 103.893 100.911 103.924 100.927C103.874 100.966 103.823 101.005 103.772 101.043C103.221 101.454 102.604 101.812 101.958 102.058C101.307 102.307 100.521 102.26 99.8402 102.068C99.0518 101.845 98.2926 101.392 97.855 100.692C97.7121 100.463 97.6186 100.211 97.5726 99.9494C97.8733 99.8947 98.1659 99.8032 98.4409 99.6662C98.7389 99.518 99.0078 99.3035 99.2306 99.0597C99.4406 98.8306 99.6323 98.5261 99.595 98.2048C99.5537 97.8501 99.1765 97.5729 98.8344 97.5395C98.4199 97.4988 98.0623 97.8027 97.8239 98.1026C97.4493 98.5742 97.2813 99.182 97.3321 99.7738C96.6575 99.8593 95.9518 99.7544 95.311 99.566C94.5586 99.3443 93.8426 98.9869 93.2188 98.516C92.6601 98.0939 92.1541 97.5569 91.8893 96.9057C91.8371 96.7781 91.636 96.8562 91.6881 96.9838C92.0092 97.7733 92.656 98.4018 93.355 98.8774C94.1339 99.4064 95.0347 99.7758 95.9667 99.9374C96.4218 100.016 96.8973 100.04 97.3592 99.9828C97.3877 100.145 97.4324 100.304 97.4947 100.458C97.8042 101.221 98.5046 101.766 99.2503 102.086C100.003 102.409 100.883 102.537 101.69 102.362C101.936 102.309 102.171 102.208 102.398 102.104C102.724 101.953 103.04 101.78 103.345 101.591C103.616 101.424 103.9 101.237 104.159 101.024C104.495 101.134 104.858 101.142 105.215 101.099C105.723 101.037 106.214 100.875 106.699 100.722C107.177 100.571 107.653 100.439 108.153 100.385C110.267 100.158 112.316 101.192 113.791 102.619C114.274 103.087 114.703 103.611 115.067 104.172C115.144 104.287 115.317 104.16 115.242 104.045ZM97.8889 98.3798C98.088 98.0766 98.4226 97.7132 98.827 97.7526C99.15 97.784 99.4345 98.0786 99.3715 98.4018C99.3119 98.7098 99.0403 98.9743 98.8073 99.168C98.5506 99.381 98.2641 99.532 97.9458 99.6368C97.8144 99.6803 97.681 99.7143 97.5455 99.7404C97.5089 99.2668 97.6247 98.7819 97.8889 98.3798ZM103.498 100.177C103.389 99.8933 103.424 99.5467 103.589 99.2902C103.745 99.0491 104.012 98.9268 104.293 99.0264C104.548 99.1165 104.793 99.3436 104.825 99.6195C104.854 99.8773 104.697 100.127 104.545 100.322C104.415 100.489 104.264 100.639 104.103 100.778C103.834 100.659 103.606 100.457 103.498 100.177Z" fill="#8AA3D9"/>
<path d="M10.5367 70.4697C5.81919 70.9406 2.38253 75.0938 2.86071 79.7459C3.33889 84.398 7.54972 87.7871 12.2672 87.3155C16.9846 86.8439 20.4213 82.6908 19.9431 78.0387C19.4656 73.3872 15.2541 69.9982 10.5367 70.4697Z" fill="#E7F5FC"/>
<path d="M8.29623 77.1542C7.99551 76.6005 7.72052 76.0328 7.46924 75.4624C7.50446 75.417 7.53968 75.3722 7.5749 75.3268C7.83431 75.8878 8.11539 76.4442 8.41815 76.9879C8.37683 77.0434 8.33619 77.0981 8.29623 77.1542Z" fill="#A9B0FF"/>
<path d="M18.9757 82.8797C18.9663 82.8964 18.9568 82.9131 18.948 82.9304C14.7487 84.3324 11.545 82.0802 9.3241 78.8421C9.36812 78.7806 9.4135 78.7205 9.4582 78.6604C11.6669 81.8324 14.7825 84.0592 18.9757 82.8797Z" fill="#A9B0FF"/>
<path d="M6.26355 72.1088C6.27574 72.1007 6.28726 72.0921 6.29945 72.0834C6.62185 73.0559 7.0113 74.0798 7.47119 75.0971C7.43665 75.1405 7.40278 75.1846 7.36892 75.228C6.9158 74.1713 6.54802 73.1086 6.26355 72.1088Z" fill="#A9B0FF"/>
<path d="M9.19538 78.6497C8.91836 78.2343 8.65827 77.8048 8.41309 77.3646C8.4544 77.3085 8.49504 77.2517 8.53703 77.1963C8.78561 77.6311 9.04841 78.0566 9.32678 78.4674C9.28276 78.5281 9.23873 78.5889 9.19538 78.6497Z" fill="#A9B0FF"/>
<path d="M4.96814 73.2875L4.98575 73.2675C5.33998 74.3809 5.78362 75.5745 6.32276 76.7574C6.29093 76.8095 6.25977 76.8609 6.22929 76.913C5.69422 75.6793 5.27361 74.435 4.96814 73.2875Z" fill="#A9B0FF"/>
<path d="M17.8993 84.4253C17.8844 84.4427 17.8689 84.4601 17.8533 84.4774C13.6675 85.9228 10.4639 83.7427 8.23145 80.5534C8.27073 80.4846 8.31001 80.4165 8.34997 80.3477C10.5729 83.4876 13.6994 85.6597 17.8993 84.4253Z" fill="#A9B0FF"/>
<path d="M8.22689 80.1711C8.18829 80.2399 8.149 80.3087 8.1104 80.3781C7.82457 79.9587 7.55568 79.5239 7.30237 79.0777C7.33962 79.0136 7.37687 78.9501 7.4148 78.886C7.67015 79.3268 7.94107 79.7563 8.22689 80.1711Z" fill="#A9B0FF"/>
<path d="M7.30265 78.6882C7.2654 78.7516 7.22882 78.8157 7.19293 78.8805C6.87866 78.3115 6.59012 77.7264 6.328 77.1379C6.36051 77.0851 6.39235 77.031 6.42486 76.9783C6.69443 77.556 6.98635 78.1298 7.30265 78.6882Z" fill="#A9B0FF"/>
<path d="M8.5238 74.2475C8.56309 74.2074 8.60237 74.1687 8.64166 74.1293C8.89768 74.6723 9.17402 75.21 9.47136 75.735C9.42598 75.7831 9.37992 75.8305 9.33522 75.8799C9.04195 75.3462 8.77102 74.7985 8.5238 74.2475Z" fill="#A9B0FF"/>
<path d="M19.5356 81.6065C19.5275 81.6305 19.5187 81.6539 19.5105 81.678C15.5544 82.7887 12.5106 80.6326 10.3676 77.5501C10.417 77.4954 10.4664 77.4413 10.5166 77.3878C12.6447 80.3955 15.6011 82.5155 19.5356 81.6065Z" fill="#A9B0FF"/>
<path d="M7.43823 71.3807C7.45923 71.3693 7.48023 71.3593 7.50122 71.3486C7.79721 72.1842 8.1406 73.0465 8.5348 73.9015C8.49619 73.9389 8.45826 73.9769 8.42101 74.015C8.03359 73.1307 7.70645 72.239 7.43823 71.3807Z" fill="#A9B0FF"/>
<path d="M9.45544 76.0947C9.50082 76.0453 9.54688 75.9965 9.59294 75.9478C9.84083 76.3746 10.1036 76.7913 10.38 77.1928C10.3305 77.2462 10.2811 77.2996 10.2323 77.3537C9.95801 76.9476 9.69928 76.5262 9.45544 76.0947Z" fill="#A9B0FF"/>
<path d="M8.29628 77.1535C8.33624 77.0974 8.37688 77.0426 8.41819 76.9879C8.70808 76.5991 9.01422 76.2284 9.33459 75.8805C9.37929 75.8317 9.42467 75.7836 9.47073 75.7355C11.655 73.4418 14.5336 72.2148 18.12 73.6208L18.1369 73.6409C14.5573 72.4453 11.7438 73.693 9.59265 75.9472C9.54659 75.996 9.50053 76.0448 9.45515 76.0942C9.13479 76.4415 8.82864 76.8102 8.53808 77.1963C8.49608 77.2517 8.45477 77.3085 8.41413 77.3646C8.05922 77.8495 7.72666 78.3591 7.41578 78.8848C7.37852 78.9489 7.34059 79.0124 7.30334 79.0765C6.29212 80.8298 5.51796 82.7468 4.95715 84.4854C4.94834 84.4747 4.93954 84.4654 4.93005 84.4554C5.41636 82.6793 6.16953 80.6929 7.19294 78.8795C7.22952 78.8153 7.26609 78.7512 7.30267 78.6871C7.60949 78.1574 7.94069 77.6418 8.29628 77.1535Z" fill="#A9B0FF"/>
<path d="M8.42129 74.0153C8.45854 73.9772 8.49647 73.9392 8.53507 73.9018C10.4857 71.9754 12.964 70.9061 15.9794 71.7303C16.0349 71.765 16.0891 71.7998 16.144 71.8352C13.0703 71.0958 10.5941 72.1959 8.64141 74.1295C8.60213 74.1689 8.56284 74.2077 8.52356 74.2477C8.19236 74.585 7.87605 74.9464 7.57533 75.3264C7.53943 75.3712 7.50489 75.4166 7.46967 75.462C7.0985 75.9423 6.74969 76.4512 6.42458 76.9789C6.39207 77.0317 6.36024 77.0851 6.32773 77.1385C5.22845 78.9593 4.39333 80.9858 3.79527 82.822C3.78646 82.8059 3.77766 82.7899 3.76953 82.7732C4.29309 80.8956 5.11128 78.7937 6.22952 76.9141C6.26067 76.862 6.29183 76.8099 6.32298 76.7585C6.64674 76.2255 6.99555 75.7125 7.36807 75.2283C7.40194 75.1848 7.43648 75.1408 7.47035 75.0973C7.77242 74.7153 8.08873 74.3533 8.42129 74.0153Z" fill="#A9B0FF"/>
<path d="M9.1961 78.6503C9.23945 78.5889 9.28347 78.5281 9.3275 78.468C9.614 78.0779 9.9154 77.7052 10.2324 77.3538C10.2812 77.2997 10.3299 77.2463 10.38 77.1929C12.5535 74.8685 15.424 73.5981 19.0062 74.9586L19.0191 74.982C15.4544 73.8332 12.6551 75.1143 10.5162 77.3886C10.4661 77.442 10.4166 77.4961 10.3672 77.5509C10.0495 77.9002 9.74675 78.2716 9.4589 78.6597C9.4142 78.7198 9.36949 78.7799 9.32479 78.8413C8.97869 79.3222 8.65425 79.8272 8.35014 80.3469C8.31018 80.4157 8.2709 80.4838 8.23161 80.5526C7.31386 82.163 6.59456 83.9049 6.0561 85.516C6.04188 85.5046 6.02833 85.4939 6.01343 85.4826C6.4889 83.8375 7.1872 82.0387 8.11038 80.3769C8.14898 80.3074 8.18759 80.2386 8.22687 80.1699C8.5276 79.6455 8.85 79.1359 9.1961 78.6503Z" fill="#A9B0FF"/>
<path d="M28.0756 67.0896C28.0675 66.8819 27.7397 66.8812 27.7478 67.0896C27.7783 67.8404 27.529 68.6085 27.2276 69.2891C26.8761 70.0827 26.3952 70.8468 25.7491 71.4399C25.4951 71.673 25.1998 71.8787 24.8801 72.0116C24.9024 71.9783 24.9234 71.9435 24.9431 71.9088C25.1164 71.6009 25.1584 71.2555 25.109 70.9109C25.0047 70.1828 24.3592 69.728 23.6426 69.7119C23.0405 69.6986 22.3463 69.9805 22.1085 70.5609C21.8051 71.3016 22.63 71.9963 23.2193 72.2788C23.4374 72.383 23.6528 72.4471 23.8641 72.4759C23.795 72.5153 23.7253 72.552 23.6555 72.5861C22.9673 72.9227 22.1891 73.0877 21.4332 73.1952C21.0099 73.2553 20.5744 73.2947 20.1443 73.2954C19.933 73.2954 19.933 73.6187 20.1443 73.6187C20.7851 73.618 21.4312 73.5372 22.0598 73.417C22.8122 73.2734 23.5925 73.0543 24.2353 72.6295C24.3111 72.5794 24.385 72.526 24.4554 72.4685C25.6102 72.2848 26.5835 71.1453 27.145 70.1695C27.4396 69.6572 27.678 69.1095 27.8494 68.5451C27.993 68.0782 28.0952 67.5799 28.0756 67.0896ZM23.7693 72.1305C23.3629 72.0404 22.989 71.8079 22.7012 71.5154C22.586 71.3985 22.477 71.2482 22.4248 71.1086C22.4038 71.0532 22.3849 70.9617 22.3822 70.9363C22.3794 70.9049 22.3794 70.8728 22.3801 70.8414C22.3822 70.7887 22.3794 70.814 22.3903 70.7626C22.4133 70.6504 22.4729 70.5462 22.5379 70.4701C22.6334 70.3585 22.7181 70.2991 22.8434 70.2276C23.094 70.0873 23.3886 70.0265 23.6812 70.0359C23.9643 70.0453 24.2556 70.1441 24.4656 70.3391C24.7074 70.5636 24.8117 70.8929 24.8049 71.2188C24.7968 71.6015 24.5949 71.9128 24.3138 72.1599C24.1357 72.1793 23.9535 72.1713 23.7693 72.1305Z" fill="#E3CABA"/>
<path d="M75.832 17.9278C75.7507 17.8583 75.6823 17.8002 75.6396 17.7521C76.0142 17.1723 76.256 16.5291 76.4029 15.8846C76.5587 15.2033 76.6115 14.5213 76.6115 13.9062C76.6115 12.571 76.1672 11.6232 76.1672 11.6232L76.1679 11.6252C76.1808 11.6779 76.4083 12.6538 76.4083 13.9062C76.4083 14.5013 76.3569 15.1585 76.2085 15.8091C76.0595 16.4596 75.8143 17.1022 75.4249 17.6746L75.366 17.7614L75.4242 17.8489C75.4296 17.857 75.5306 18.0072 75.731 18.1569C75.9308 18.3065 76.2302 18.4548 76.6258 18.4541C76.7558 18.4541 76.8967 18.4381 77.047 18.4013C77.0464 18.4013 76.4361 18.4427 75.832 17.9278Z" fill="#333242"/>
<path d="M83.4169 17.7132C83.4169 18.4766 82.4253 19.0958 81.2021 19.0958C79.9789 19.0958 78.9873 18.4766 78.9873 17.7132C78.9873 16.9497 79.9789 16.3306 81.2021 16.3306C82.4253 16.3306 83.4169 16.9491 83.4169 17.7132Z" fill="#E3CABA"/>
<path d="M74.0429 17.7132C74.0429 18.4766 73.0513 19.0958 71.8281 19.0958C70.6049 19.0958 69.6133 18.4766 69.6133 17.7132C69.6133 16.9497 70.6049 16.3306 71.8281 16.3306C73.0513 16.3306 74.0429 16.9491 74.0429 17.7132Z" fill="#E3CABA"/>
</svg>
